<svg id="Layer_1" enable-background="new 0 0 512 512" height="512" viewBox="0 0 512 512" width="512" xmlns="http://www.w3.org/2000/svg"><path d="m497 160.667h-145.667v-145.667c0-8.284-6.716-15-15-15h-160.666c-8.284 0-15 6.716-15 15v145.667h-145.667c-8.284 0-15 6.716-15 15v160.666c0 8.284 6.716 15 15 15h145.667v145.667c0 8.284 6.716 15 15 15h160.666c8.284 0 15-6.716 15-15v-145.667h145.667c8.284 0 15-6.716 15-15v-160.666c0-8.284-6.716-15-15-15zm-15 160.666h-145.667c-8.284 0-15 6.716-15 15v145.667h-130.666v-145.667c0-8.284-6.716-15-15-15h-145.667v-130.666h145.667c8.284 0 15-6.716 15-15v-145.667h130.666v145.667c0 8.284 6.716 15 15 15h145.667z"/></svg>