<svg height="480pt" viewBox="0 -24 480 480" width="480pt" xmlns="http://www.w3.org/2000/svg"><path d="m408 0h-336c-39.746094.0429688-71.9570312 32.253906-72 72v208c.0429688 39.746094 32.253906 71.957031 72 72h22.238281l-14.078125 70.398438c-.605468 3.027343.585938 6.128906 3.054688 7.976562s5.78125 2.109375 8.511718.671875l150.25-79.046875h166.023438c39.746094-.042969 71.957031-32.253906 72-72v-208c-.042969-39.746094-32.253906-71.9570312-72-72zm56 280c-.035156 30.914062-25.085938 55.964844-56 56h-168c-1.300781 0-2.578125.316406-3.726562.921875l-137.128907 72.175781 12.695313-63.496094c.480468-2.355468-.121094-4.800781-1.640625-6.660156-1.519531-1.863281-3.796875-2.941406-6.199219-2.941406h-32c-30.914062-.035156-55.964844-25.085938-56-56v-208c.035156-30.914062 25.085938-55.964844 56-56h336c30.914062.035156 55.964844 25.085938 56 56zm0 0"/></svg>