<svg id="Capa_1" enable-background="new 0 0 512 512" height="512" viewBox="0 0 512 512" width="512" xmlns="http://www.w3.org/2000/svg"><g><g><path d="m380.264 338.363h-147.703c-4.143 0-7.502 3.359-7.502 7.502s3.359 7.502 7.502 7.502h147.703c4.144 0 7.502-3.359 7.502-7.502s-3.358-7.502-7.502-7.502z"/><path d="m380.264 379.478h-147.703c-4.143 0-7.502 3.359-7.502 7.502s3.359 7.502 7.502 7.502h147.703c4.144 0 7.502-3.358 7.502-7.502s-3.358-7.502-7.502-7.502z"/><path d="m387.766 145.817c0-15.605-12.696-28.299-28.3-28.299h-106.108c-15.605 0-28.3 12.695-28.3 28.299v6.532c0 4.144 3.359 7.502 7.502 7.502s7.502-3.359 7.502-7.502v-6.532c0-7.331 5.964-13.294 13.295-13.294h106.108c7.331 0 13.295 5.964 13.295 13.294v110.182c-8.902-11.088-20.486-19.815-33.784-25.299 5.063-6.776 8.064-15.178 8.064-24.269 0-22.403-18.227-40.629-40.63-40.629s-40.629 18.227-40.629 40.629c0 9.09 3.001 17.492 8.064 24.269-13.298 5.484-24.882 14.211-33.784 25.299v-68.575c0-4.144-3.359-7.502-7.502-7.502s-7.502 3.359-7.502 7.502v89.967c0 15.605 12.696 28.3 28.3 28.3h106.108c15.605 0 28.3-12.696 28.3-28.3v-131.574zm-81.354 34.99c14.13 0 25.625 11.495 25.625 25.625s-11.496 25.625-25.625 25.625c-14.13 0-25.625-11.495-25.625-25.625s11.495-25.625 25.625-25.625zm53.054 109.878h-106.108c-5.274 0-9.827-3.094-11.974-7.556 8.071-20.022 24.78-35.116 45.47-41.099 5.806 3.203 12.472 5.03 19.558 5.03 7.087 0 13.753-1.828 19.559-5.03 20.69 5.982 37.399 21.076 45.47 41.099-2.148 4.462-6.701 7.556-11.975 7.556z"/><path d="m460.295 423.387c4.144 0 7.502-3.358 7.502-7.502v-387.174c0-15.831-12.88-28.711-28.712-28.711h-329.408c-15.832 0-28.712 12.88-28.712 28.711v24.453h-11.419c-13.974 0-25.343 11.369-25.343 25.342 0 13.974 11.369 25.343 25.343 25.343h11.419v38.06h-11.419c-13.974 0-25.343 11.369-25.343 25.343s11.369 25.343 25.343 25.343h11.419v38.06h-11.419c-13.974 0-25.343 11.369-25.343 25.343s11.369 25.343 25.343 25.343h11.419v38.06h-11.419c-13.974 0-25.343 11.369-25.343 25.343s11.369 25.343 25.343 25.343h11.419v38.06h-11.419c-13.974 0-25.343 11.369-25.343 25.343 0 13.973 11.369 25.342 25.343 25.342h11.419v24.453c0 15.831 12.88 28.711 28.712 28.711h329.408c15.832 0 28.712-12.88 28.712-28.711v-32.255c0-4.144-3.358-7.502-7.502-7.502s-7.502 3.359-7.502 7.502v32.259c0 7.558-6.149 13.707-13.708 13.707h-266.642v-481.991h266.641c7.558 0 13.708 6.148 13.708 13.707v387.173c0 4.144 3.359 7.502 7.503 7.502zm-390.749-334.542c-5.7 0-10.338-4.638-10.338-10.338s4.638-10.337 10.338-10.337h37.843c5.7 0 10.338 4.637 10.338 10.337s-4.638 10.338-10.338 10.338zm0 88.747c-5.7 0-10.338-4.638-10.338-10.338s4.638-10.338 10.338-10.338h18.902c.007 0 .013.001.019.001s.013-.001.019-.001h18.902c5.7 0 10.338 4.638 10.338 10.338s-4.638 10.338-10.338 10.338zm0 88.746c-5.7 0-10.338-4.638-10.338-10.338s4.638-10.338 10.338-10.338h37.843c5.7 0 10.338 4.638 10.338 10.338s-4.638 10.338-10.338 10.338zm0 88.747c-5.7 0-10.338-4.638-10.338-10.338s4.638-10.338 10.338-10.338h37.843c5.7 0 10.338 4.638 10.338 10.338s-4.638 10.338-10.338 10.338zm0 88.745c-5.7 0-10.338-4.637-10.338-10.337s4.638-10.338 10.338-10.338h37.843c5.7 0 10.338 4.638 10.338 10.338s-4.638 10.337-10.338 10.337zm87.893 53.165h-47.762c-7.558 0-13.707-6.148-13.707-13.707v-24.453h11.419c13.974 0 25.343-11.369 25.343-25.342 0-13.974-11.369-25.343-25.343-25.343h-11.419v-38.06h11.419c13.974 0 25.343-11.369 25.343-25.343s-11.369-25.343-25.343-25.343h-11.419v-38.06h11.419c13.974 0 25.343-11.369 25.343-25.343s-11.369-25.343-25.343-25.343h-11.419v-38.06h11.419c13.974 0 25.343-11.369 25.343-25.343s-11.369-25.343-25.343-25.343h-11.419v-38.06h11.419c13.974 0 25.343-11.369 25.343-25.343 0-13.973-11.369-25.342-25.343-25.342h-11.419v-24.456c0-7.558 6.149-13.707 13.707-13.707h47.762z"/></g></g></svg>