<svg id="Layer_1" enable-background="new 0 0 512 512" height="512" viewBox="0 0 512 512" width="512" xmlns="http://www.w3.org/2000/svg"><g><g><path d="m436 440.269c-4.143 0-7.5 3.358-7.5 7.5v36.731c0 6.893-5.607 12.5-12.5 12.5h-320c-6.893 0-12.5-5.607-12.5-12.5v-388.731c0-4.142-3.358-7.5-7.5-7.5s-7.5 3.358-7.5 7.5v388.731c0 15.164 12.336 27.5 27.5 27.5h320c15.163 0 27.5-12.336 27.5-27.5v-36.731c0-4.142-3.357-7.5-7.5-7.5z"/><path d="m441.304 142.197-140-140c-1.408-1.407-3.315-2.197-5.304-2.197h-200c-15.164 0-27.5 12.336-27.5 27.5v35.859c0 4.142 3.358 7.5 7.5 7.5s7.5-3.358 7.5-7.5v-35.859c0-6.893 5.607-12.5 12.5-12.5h192.5v112.5c0 15.164 12.337 27.5 27.5 27.5h112.5v260.769c0 4.142 3.357 7.5 7.5 7.5s7.5-3.358 7.5-7.5v-268.269c0-1.989-.79-3.897-2.196-5.303zm-137.804-14.697v-101.894l114.394 114.394h-101.894c-6.893 0-12.5-5.607-12.5-12.5z"/><path d="m159 257.5c12.407 0 22.5-10.093 22.5-22.5s-10.093-22.5-22.5-22.5-22.5 10.093-22.5 22.5 10.093 22.5 22.5 22.5zm0-30c4.136 0 7.5 3.364 7.5 7.5s-3.364 7.5-7.5 7.5-7.5-3.364-7.5-7.5 3.364-7.5 7.5-7.5z"/><path d="m227 257.5h126c12.406 0 22.5-10.093 22.5-22.5s-10.094-22.5-22.5-22.5h-126c-12.407 0-22.5 10.093-22.5 22.5s10.093 22.5 22.5 22.5zm0-30h126c4.136 0 7.5 3.364 7.5 7.5s-3.364 7.5-7.5 7.5h-126c-4.136 0-7.5-3.364-7.5-7.5s3.364-7.5 7.5-7.5z"/><path d="m159 317.5c12.407 0 22.5-10.093 22.5-22.5s-10.093-22.5-22.5-22.5-22.5 10.093-22.5 22.5 10.093 22.5 22.5 22.5zm0-30c4.136 0 7.5 3.364 7.5 7.5s-3.364 7.5-7.5 7.5-7.5-3.364-7.5-7.5 3.364-7.5 7.5-7.5z"/><path d="m227 317.5h126c12.406 0 22.5-10.093 22.5-22.5s-10.094-22.5-22.5-22.5h-126c-12.407 0-22.5 10.093-22.5 22.5s10.093 22.5 22.5 22.5zm0-30h126c4.136 0 7.5 3.364 7.5 7.5s-3.364 7.5-7.5 7.5h-126c-4.136 0-7.5-3.364-7.5-7.5s3.364-7.5 7.5-7.5z"/><path d="m159 377.5c12.407 0 22.5-10.093 22.5-22.5s-10.093-22.5-22.5-22.5-22.5 10.093-22.5 22.5 10.093 22.5 22.5 22.5zm0-30c4.136 0 7.5 3.364 7.5 7.5s-3.364 7.5-7.5 7.5-7.5-3.364-7.5-7.5 3.364-7.5 7.5-7.5z"/><path d="m227 377.5h13.231c4.142 0 7.5-3.358 7.5-7.5s-3.358-7.5-7.5-7.5h-13.231c-4.136 0-7.5-3.364-7.5-7.5s3.364-7.5 7.5-7.5h126c4.136 0 7.5 3.364 7.5 7.5s-3.364 7.5-7.5 7.5h-80.77c-4.143 0-7.5 3.358-7.5 7.5s3.357 7.5 7.5 7.5h80.77c12.406 0 22.5-10.093 22.5-22.5s-10.094-22.5-22.5-22.5h-126c-12.407 0-22.5 10.093-22.5 22.5s10.093 22.5 22.5 22.5z"/></g></g></svg>