<?xml version="1.0" encoding="iso-8859-1"?>
<!-- Generator: Adobe Illustrator 19.0.0, SVG Export Plug-In . SVG Version: 6.00 Build 0)  -->
<svg version="1.1" id="Capa_1" xmlns="http://www.w3.org/2000/svg" xmlns:xlink="http://www.w3.org/1999/xlink" x="0px" y="0px"
	 viewBox="0 0 464.368 464.368" style="enable-background:new 0 0 464.368 464.368;" xml:space="preserve">
<g>
	<g>
		<path d="M456.613,335.116c-0.1-0.2-0.2-0.5-0.4-0.7l-51.7-75.2c-2.5-3.6-7.5-4.6-11.1-2.1c-0.8,0.6-1.5,1.3-2.1,2.1l-51.7,75.2
			c-0.2,0.3-0.3,0.5-0.5,0.8c-17.3,32.4-5,72.7,27.4,89.9c25.9,13.8,57.7,9,78.4-11.8c7.7-7.8,13.3-17.4,16.5-27.9
			C466.613,368.716,464.913,350.516,456.613,335.116z M446.213,380.816c-2.5,8-6.8,15.3-12.6,21.3c-19.6,19.7-51.5,19.7-71.2,0.1
			l-0.1-0.1c-15.7-15.5-19.4-39.5-9.1-59l44.8-65.2l44.8,65.2C448.913,354.716,450.113,368.316,446.213,380.816z"/>
	</g>
</g>
<g>
	<g>
		<path d="M426.213,349.916l-0.1-0.1c-2.6-3.6-7.6-4.2-11.1-1.5s-4.2,7.7-1.5,11.2c7.2,9.4,5.5,22.8-3.9,30.1c0,0,0,0-0.1,0.1
			c-3.5,2.7-4.2,7.7-1.6,11.2c2.7,3.5,7.7,4.2,11.2,1.6l0.1-0.1C435.613,389.816,438.713,366.316,426.213,349.916z"/>
	</g>
</g>
<g>
	<g>
		<path d="M444.713,148.216l-21-21c-0.3-0.3-0.5-0.6-0.8-0.8l-94-94l-21.4-21.4c-3.1-3.1-8.2-3.2-11.3-0.1
			c-3.1,3.1-3.2,8.2-0.1,11.3c0,0,0,0,0.1,0.1l15.8,15.8l-37.3,37.1l-231.8,231.9c0,0,0,0-0.1,0.1l-21.1,21.1
			c-29.1,29.3-28.9,76.6,0.3,105.7c29.1,28.9,76.2,29,105.3,0l253.1-253.1l37.2-37.2l15.8,15.8c3.1,3.1,8.2,3.1,11.3,0
			C447.813,156.416,447.813,151.316,444.713,148.216z M116.113,422.616c-22.9,22.9-60.1,22.9-83.1,0c-11-11-17.2-26-17.2-41.5
			c-0.1-15.6,6.2-30.5,17.2-41.5l18.7-18.7l154.5,11.6L116.113,422.616z M369.113,169.616l-148,148l-154.5-11.6l219.5-219.4
			l37.2-37.2l83,83L369.113,169.616z"/>
	</g>
</g>
<g>
	<g>
		<path d="M228.413,177.616c-3.1-3-8.1-3-11.2,0l-53.1,53.2c-3.1,3.1-3.1,8.2,0,11.3c3.1,3.1,8.2,3.1,11.3,0l53.1-53.2
			C231.613,185.816,231.613,180.716,228.413,177.616z"/>
	</g>
</g>
<g>
	<g>
		<path d="M153.613,252.516c-3.1-3.1-8.2-3.1-11.3,0l-19.6,19.6c-3.1,3.1-3.1,8.2,0,11.3c3.1,3.1,8.2,3.1,11.3,0l19.6-19.6
			C156.713,260.716,156.713,255.616,153.613,252.516z"/>
	</g>
</g>
<g>
</g>
<g>
</g>
<g>
</g>
<g>
</g>
<g>
</g>
<g>
</g>
<g>
</g>
<g>
</g>
<g>
</g>
<g>
</g>
<g>
</g>
<g>
</g>
<g>
</g>
<g>
</g>
<g>
</g>
</svg>
