<?xml version="1.0" encoding="iso-8859-1"?>
<!-- Generator: Adobe Illustrator 19.0.0, SVG Export Plug-In . SVG Version: 6.00 Build 0)  -->
<svg version="1.1" id="Capa_1" xmlns="http://www.w3.org/2000/svg" xmlns:xlink="http://www.w3.org/1999/xlink" x="0px" y="0px"
	 viewBox="0 0 440 440" style="enable-background:new 0 0 440 440;" xml:space="preserve">
<g>
	<g>
		<path d="M401,20.95c-0.1,0.1-0.2,0.1-0.3,0.1H39.3C17.8,20.85,0.2,38.15,0,59.65c0,0.1,0,0.2,0,0.2v235.8
			c0,21.7,17.6,39.3,39.3,39.4H212v68h-79.9c-4.4,0-8,3.6-8,8c0,4.4,3.6,8,8,8h175.3c4.4,0,8-3.6,8-8c0-4.4-3.6-8-8-8H228v-68h172.7
			c21.7-0.1,39.3-17.7,39.3-39.4V59.85C440,38.35,422.5,20.95,401,20.95z M424,295.65c0,12.9-10.4,23.3-23.3,23.4H39.3
			c-12.9,0-23.3-10.5-23.3-23.4v-88.6h121.1c3,0,5.8-1.6,7.1-4.3l33.1-64.9l40.5,103.4c1.1,2.9,3.9,4.9,7.1,5.1c0.1,0,0.3,0,0.4,0
			c3,0,5.8-1.7,7.1-4.4l35.9-70.5l25.1,27.9c1.5,1.7,3.7,2.7,5.9,2.7H424V295.65z M424.1,186.05H424H302.8l-30.5-33.9
			c-2.9-3.3-8-3.6-11.3-0.6c-0.7,0.7-1.3,1.4-1.8,2.3l-33.1,65l-40.4-103.4c-1.6-4.1-6.3-6.2-10.4-4.5c-1.8,0.7-3.3,2-4.2,3.7
			l-39,76.4H16V59.95c0-12.7,10.3-22.9,23-22.9c0.1,0,0.2,0,0.3,0h361.5c12.7-0.2,23.1,9.9,23.3,22.6c0,0.1,0,0.2,0,0.3V186.05z"/>
	</g>
</g>
<g>
</g>
<g>
</g>
<g>
</g>
<g>
</g>
<g>
</g>
<g>
</g>
<g>
</g>
<g>
</g>
<g>
</g>
<g>
</g>
<g>
</g>
<g>
</g>
<g>
</g>
<g>
</g>
<g>
</g>
</svg>
