<?xml version="1.0" encoding="iso-8859-1"?>
<!-- Generator: Adobe Illustrator 19.0.0, SVG Export Plug-In . SVG Version: 6.00 Build 0)  -->
<svg version="1.1" id="Capa_1" xmlns="http://www.w3.org/2000/svg" xmlns:xlink="http://www.w3.org/1999/xlink" x="0px" y="0px"
	 viewBox="0 0 483.074 483.074" style="enable-background:new 0 0 483.074 483.074;" xml:space="preserve">
<g>
	<g>
		<path d="M480.663,335.987c-3-3-8.1-3-11.2,0l-42.3,42.3l-36.7-36.6l41.5-41.6c3.1-3.1,3.1-8.2,0-11.3l-163.8-163.5
			c-10.5-10.6-24.8-16.7-39.8-16.7h-0.4c-15.2,1-29.4,6.4-40,17.3l-6.5,6.6l-92.9-92.7c-3.1-3.1-8.2-3.1-11.3,0
			c-3.1,3.1-3.1,8.2,0,11.3l92.8,92.8l-4.9,4.9c-22.1,22.1-22.1,58,0,80.2l19,19l90.6,90.6l53.7,53.7c3.1,3.1,8.2,3.1,11.3,0
			l39.4-39.4l36.7,36.7l-42.4,42.4c-3.1,3.1-3.1,8.2,0,11.3c3.1,3.1,8.2,3.1,11.3,0l96-96
			C483.862,344.187,483.862,339.087,480.663,335.987z M373.463,335.987l-39.4,39.4l-42.4-42.4l26.9-26.9c3.1-3.1,3.1-8.2,0-11.3
			c-3.1-3.1-8.2-3.1-11.3,0l-26.8,26.9l-34-33.9l50.2-49.7c3.2-3.1,3.2-8.1,0.2-11.3s-8.1-3.2-11.3-0.2l-0.1,0.1l-50.2,49.7l-34-34
			l26.9-26.9c3.1-3.1,3.1-8.2,0-11.3c-3.1-3.1-8.2-3.1-11.3,0l-26.9,26.9l-13.3-13.4c-15.9-15.9-15.9-41.7,0-57.6l22.8-22.8l0.1-0.1
			c15.5-16,41-16.4,57-1c0.2,0.2,0.3,0.3,0.5,0.5l158.1,157.6L373.463,335.987z"/>
	</g>
</g>
<g>
	<g>
		<path d="M100.862,178.687l-36.1-38.4c-3-3.2-8.1-3.4-11.3-0.3c-0.1,0.1-0.2,0.2-0.3,0.3l-36.1,38.4c-22.7,24-22.8,63.3,0,87.6
			c10.6,11.6,25.7,18.3,41.6,18.3h0.2c15.9,0,31.2-6.6,42-18.3C123.862,241.987,123.862,202.687,100.862,178.687z M89.263,255.287
			c-7.9,8.5-18.9,13.3-30.4,13.3h-0.1c-11.5,0-22.4-4.8-30.1-13.3c-17.1-18.2-17.2-47.7-0.1-65.7l30.3-32.2l30.4,32.2
			C106.463,207.687,106.463,237.087,89.263,255.287z"/>
	</g>
</g>
<g>
</g>
<g>
</g>
<g>
</g>
<g>
</g>
<g>
</g>
<g>
</g>
<g>
</g>
<g>
</g>
<g>
</g>
<g>
</g>
<g>
</g>
<g>
</g>
<g>
</g>
<g>
</g>
<g>
</g>
</svg>
