<svg xmlns="http://www.w3.org/2000/svg" viewBox="0 0 439.1 325.99"><defs><style>.cls-1{fill:#d4e6ff;}.cls-2{fill:#de9b6e;}.cls-3{fill:#3d597a;}.cls-4{fill:#313b45;}.cls-5{fill:#444d56;}.cls-6{fill:#314f72;}.cls-7{fill:#224161;}.cls-8{fill:#bb744e;}.cls-9{fill:#b16a44;}.cls-10{fill:#62452c;}.cls-11{fill:#cb855b;}.cls-12{fill:#5b3d23;}.cls-13,.cls-47{fill:#fff;}.cls-14{fill:#956049;}.cls-15{fill:#29486a;}.cls-16{fill:#5d90d0;}.cls-17{fill:#2e7db7;}.cls-18{fill:#3d6fbb;}.cls-19{fill:#4b7dc1;}.cls-20{fill:#669bd3;}.cls-21{fill:#86acdc;}.cls-22{fill:#d58b63;}.cls-23{fill:#fdb382;}.cls-24{fill:#7f5a36;}.cls-25{fill:#724e2f;}.cls-26{fill:#956a4f;}.cls-27{fill:#4f877d;}.cls-28{fill:#5d9084;}.cls-29{fill:#709d92;}.cls-30{fill:#2d2d2d;}.cls-31{fill:#aadcbf;}.cls-32{fill:#739f95;}.cls-33{fill:#8dd0a9;}.cls-34{fill:#405c86;}.cls-35{fill:#bfdaf8;}.cls-36{fill:#3172c4;}.cls-37{fill:#2766b7;}.cls-38{fill:#e5f0ff;}.cls-39{fill:#1d1d1d;}.cls-40{fill:#464646;}.cls-41{fill:#b3d3ee;}.cls-42{fill:#6e7381;}.cls-43{fill:#a0a3ac;}.cls-44{fill:#92d0ad;}.cls-45{fill:#57be8e;}.cls-46{fill:#eaf3ff;}.cls-47{opacity:0.33;}.cls-48{fill:#7ecda8;}</style></defs><title>login_page_bg</title><g id="OBJECTS"><ellipse class="cls-1" cx="42.53" cy="315.58" rx="42.53" ry="9.1"/><ellipse class="cls-1" cx="396.58" cy="315.58" rx="42.53" ry="9.1"/><ellipse class="cls-1" cx="126.79" cy="315.58" rx="42.53" ry="9.1"/><ellipse class="cls-1" cx="300.05" cy="315.58" rx="42.53" ry="9.1"/><ellipse class="cls-1" cx="214.41" cy="315.58" rx="48.66" ry="10.41"/><path class="cls-2" d="M315.79,32.27c.48-.18,1.09-.35,1.47,0a1.38,1.38,0,0,1,.32.61,17.17,17.17,0,0,1,.49,4.17c0,.92,0,2-.81,2.49a1.36,1.36,0,0,1-2-.87Z"/><path class="cls-3" d="M29.08,95.07c-.15-4-.47-7.93-.6-11.9,0-1.11-1.34-14.1-.49-14.47-5.18,2.29-9,9.18-9.86,14.52-.05.35-.09.7-.13,1l-.92,2.87C14.29,96,14.21,105,14.66,114.26a1.17,1.17,0,0,0,.18.69,1.06,1.06,0,0,0,.47.33,12.11,12.11,0,0,0,1.33.46v0l.3.06a15.46,15.46,0,0,0,1.93.34l1.28.22s0-.08,0-.13c3.18.09,6.59-.74,8-3.14,1.15-2,.84-6.27.95-8.55C29.27,101.4,29.21,98.23,29.08,95.07Z"/><path class="cls-4" d="M43.78,311c-.69,3.64-4.33,2.07-7.28,2.38a17.28,17.28,0,0,0-4.22,1.45C26.84,317,20.56,316,14.61,315a2,2,0,0,1-1.27-.55,1.8,1.8,0,0,1,0-1.77,10.1,10.1,0,0,1,.93-1.93,4.93,4.93,0,0,1,.69-.89c1.24-1.27,3.09-1.72,4.76-2.38a15.71,15.71,0,0,0,7-5.49l.14-.21c.69-1.05,3-5,1.34-5.12,2.14,0,14.2.93,14.35,3.25C42.77,303,44.31,308.28,43.78,311Z"/><path class="cls-5" d="M35.12,307.12a38.07,38.07,0,0,1-20.84,3.65,4.93,4.93,0,0,1,.69-.89c1.24-1.27,3.09-1.72,4.76-2.38a15.71,15.71,0,0,0,7-5.49l.14-.21c.91.83,1.62,2,2.6,2.73a10,10,0,0,0,2.62,1.36C33.11,306.31,34.12,306.72,35.12,307.12Z"/><path class="cls-4" d="M63.79,316.3a4.91,4.91,0,0,1-1.35-4.54c.34-2.36,1.66-4.84,1.78-6.85a5.64,5.64,0,0,0-.06-1.05c-.32-2.2-1.6-5.3-.23-6.67a2.11,2.11,0,0,1,.36-.27c.73-.44,3.89.5,4.81.61.51.06,7.5,1,7.48.58.18,3.61-.74,8.15,2.19,11.21a16.64,16.64,0,0,1,1.8,1.86C86,318.72,67.76,320.16,63.79,316.3Z"/><path class="cls-5" d="M74.76,313a.85.85,0,0,1-.36.39A8.14,8.14,0,0,1,68,314.52a13.35,13.35,0,0,1-5.51-2.76c.34-2.36,1.66-4.84,1.78-6.85a5.64,5.64,0,0,0-.06-1.05,12.19,12.19,0,0,0,3.68,3.88,9,9,0,0,1,1.91,1.46A15.23,15.23,0,0,1,70.86,311a2.32,2.32,0,0,0,1.65,1.19c.48,0,.94-.16,1.43-.13S74.93,312.51,74.76,313Z"/><path class="cls-6" d="M64.4,304.1c-1.16-.32-1.89-.72-1.93-1.22-1.33-15.63-5.08-31-7.21-46.69-2-14.57-4.73-29.07-7.58-43.56v-.18a233.81,233.81,0,0,1,14.71,69.94C62.78,289.65,62.85,297,64.4,304.1Z"/><path class="cls-6" d="M81,305.08c-1.24.09-12.09.21-16.57-1-1.55-7.07-1.62-14.45-2-21.71a233.81,233.81,0,0,0-14.71-69.94v.18c-.07-.34-.14-.66-.2-1-.07,2.26-.21,4.52-.41,6.83-.93,10.24-1.46,20.5-2.48,30.72-.37,3.74-.36,38.45.48,50.09.16,2.35.36,3.77.6,3.77a57.71,57.71,0,0,1-12.59-.41,58.34,58.34,0,0,1-9-1.94c.16-45.24-3.32-90.07-5.37-135.31-.05-1.07-.1-2.15-.14-3.23-.3-6.31,5.27-7.7,10.54-6.9a20.14,20.14,0,0,1,11.62,5.9,13.54,13.54,0,0,1,6.73-8.45c7-3.79,17.16-.1,22.3,5.67,6.72,7.53,4.85,22.66,4.75,31.79-.15,12.61-1.73,25.16-.91,37.81.45,6.89.6,14.14,1.57,21,1.42,10,3.66,19.95,4.76,30A231.83,231.83,0,0,1,81,303C81,303.7,81,304.39,81,305.08Z"/><path class="cls-7" d="M81,305.08c-1.24.09-12.09.21-16.57-1-1.55-7.07-1.62-14.45-2-21.71a233.81,233.81,0,0,0-14.71-69.94v.18c-.07-.34-.14-.66-.2-1-.07,2.26-.21,4.52-.41,6.83-.93,10.24-1.46,20.5-2.48,30.72-.37,3.74-.36,38.45.48,50.09.16,2.35.36,3.77.6,3.77a57.71,57.71,0,0,1-12.59-.41c-.94-39.61-2.79-79.2-4.65-118.78-.16-3.31-.34-6.75-1.86-9.69-1.81-3.51-5.23-5.84-7.87-8.78-.05-1.07-.1-2.15-.14-3.23-.3-6.31,5.27-7.7,10.54-6.9a20.14,20.14,0,0,1,11.62,5.9,13.54,13.54,0,0,1,6.73-8.45c7-3.79,17.16-.1,22.3,5.67,6.72,7.53,4.85,22.66,4.75,31.79-.15,12.61-1.73,25.16-.91,37.81.45,6.89.6,14.14,1.57,21,1.42,10,3.66,19.95,4.76,30A231.83,231.83,0,0,1,81,303C81,303.7,81,304.39,81,305.08Z"/><path class="cls-6" d="M75.89,168.62c-3.91.69-7.88.88-11.79,1.45a117.52,117.52,0,0,1-12.73,1.11l-.64,0a125.31,125.31,0,0,1-25.8-1.8,28.73,28.73,0,0,1-4.2-1A15.36,15.36,0,0,1,16,165.86c1.08-4.92,2.14-9.84,3.22-14.74.44-2,.88-4.06,1.33-6.09a110.21,110.21,0,0,0,2.42-15.37,62.75,62.75,0,0,0,.06-9.1c-.05-.52-.09-1-.14-1.55-.43-4.43-1.33-8.79-2.19-13.15-.82-4.11-1.61-8.34-.9-12.46a34.44,34.44,0,0,1,1.72-5.88c1.12-3.12,2.23-6.26,3.35-9.38Q26,75,27.07,71.92c.44-1.24-.12-2.44.93-3.22a34.47,34.47,0,0,1,10.39-5C42.48,62.39,46.8,60.58,51,60.9a.12.12,0,0,1,.08,0,18.59,18.59,0,0,1,2.87.53,77.25,77.25,0,0,1,9.74,3c.61.24,1.6.57,2.69,1l1.3.52A16.4,16.4,0,0,1,69.86,67a33.14,33.14,0,0,1,4.85,2.89c-.24-.15-.86,2.71-1.6,6.78-1.63,9.13-3.87,24.25-3.87,24.25l-.18-1.24c-.7,5.34-1.61,10.66-2,16a57.45,57.45,0,0,0,1.72,18.83c1.26,4.87,2.69,9.72,4,14.59C73.21,150.76,78.48,168.16,75.89,168.62Z"/><path class="cls-7" d="M75.89,168.62c-3.91.69-7.88.88-11.79,1.45a117.52,117.52,0,0,1-12.73,1.11,71.51,71.51,0,0,0,4-23.68,40.21,40.21,0,0,0-.59-9.11c-.72-3-2.39-2.94-5.36-2.65a154.57,154.57,0,0,1-17.76.32q-.06-4.6-.13-9.21a19.6,19.6,0,0,1-8.63,2.81,62.75,62.75,0,0,0,.06-9.1,16.82,16.82,0,0,1,3.38-2.62c1.37-.8,3.66-1,4,.5,2.21-2.92,4.4-5.86,6.6-8.79,1.54-2,3.14-4.26,3.29-6.82.15-2.92-1.63-5.69-1.4-8.6S41.23,89,43,86.71a36.8,36.8,0,0,0,6.79-15.5L50.52,62a4.34,4.34,0,0,1,.6-1.1,18.59,18.59,0,0,1,2.87.53,77.25,77.25,0,0,1,9.74,3c.61.24,1.6.57,2.69,1,5.31,1.85,7.3,3.19,8.48,5.28,1,1.69-2.63,4.2-1.79,6-1.63,9.13-3.87,24.25-3.87,24.25l-.18-1.24c-.7,5.34-1.61,10.66-2,16a57.45,57.45,0,0,0,1.72,18.83c1.26,4.87,2.69,9.72,4,14.59C73.21,150.76,78.48,168.16,75.89,168.62Z"/><path class="cls-8" d="M52.44,70.39c-1,1-2,1.89-3.08,2.81-3.73,3.34-7.57,6.61-10.43,10.71C38.78,79,37,69.08,40.41,64.9a60.74,60.74,0,0,0-.3-10.71L43,52.92l13.06-5.71c-.31,3.43-.48,6.88-.51,10.32a11.3,11.3,0,0,0,.56,4.32l1.23.37C59.43,62.85,52.71,70.12,52.44,70.39Z"/><path class="cls-9" d="M52.44,70.39c-1,1-2,1.89-3.08,2.81.42-3.43,1-6.88-1-9.83A9.77,9.77,0,0,0,45.75,61l-4-2.87L43,52.92l13.06-5.71c-.31,3.43-.48,6.88-.51,10.32a11.3,11.3,0,0,0,.56,4.32l1.23.37C59.43,62.85,52.71,70.12,52.44,70.39Z"/><path class="cls-10" d="M31.1,40c-2.45-.13-.21-13.25.6-14.54A11.69,11.69,0,0,1,37.28,21a4.92,4.92,0,0,1,3.9-.2c2.76,1.36.43,6.74-.28,8.73-1.38,3.93-3.17,7.87-6.29,10.64Z"/><path class="cls-11" d="M31.74,30.1c-.09.37-.17.76-.24,1.16a47.53,47.53,0,0,0,2,23.42A13.18,13.18,0,0,0,35,57.82c3.08,4.37,8.58,3.44,12.72,1.3a16.57,16.57,0,0,0,5.4-4.33c.27-.34,3-5.4,2.16-5.48,4.65.45,6-11.17,1.16-9,.41-.18.21-3.6.24-4.05.23-4.67,2.09-9.41-2.36-12.8a12.94,12.94,0,0,0-8.14-2.28C40.05,21.28,33.47,23.46,31.74,30.1Z"/><path class="cls-12" d="M51.77,28.25A8.42,8.42,0,0,0,54.6,30.7a7.29,7.29,0,0,0,4.74.5A7.47,7.47,0,0,0,64,28.09a7.62,7.62,0,0,0,1.13-4.57A8.94,8.94,0,0,0,64,19.66C58.5,17.43,51,22.37,51.77,28.25Z"/><path class="cls-10" d="M61.06,16.47a8.4,8.4,0,0,0-8.1-.41,4.65,4.65,0,0,0-2.8,3.85L50,25.56a27.39,27.39,0,0,0,1.8,2.69C51,22.37,58.5,17.43,64,19.66A8.69,8.69,0,0,0,61.06,16.47Z"/><path class="cls-12" d="M61.28,35.22a15.07,15.07,0,0,1-.07,2c-.21,2.17-.29,4.37-1.74,6,.47-1.71-1.43-3.65-2.95-2.35-1.17,1-.66,3.5-2.1,4.74,0-2-.17-4-.4-5.94a2.36,2.36,0,0,0-.39-1.24c-.3-.37-.78-.54-1.11-.88a2.89,2.89,0,0,1-.6-1.8c-.58-5.81-4.65-6.94-9.84-6.87l-1.28,0a22.46,22.46,0,0,0-4.77.5l-.24.06a9.1,9.1,0,0,0-4.93,2.91c-1-8,3.28-13.64,11.44-14.46A17.23,17.23,0,0,1,60.62,30.7a18.42,18.42,0,0,1,.64,3.73C61.27,34.69,61.28,35,61.28,35.22Z"/><path class="cls-10" d="M60.62,30.7a9.81,9.81,0,0,0-1.37-2.39,17.25,17.25,0,0,0-5.8-4.52,13.34,13.34,0,0,0-5.28-1.71,13.63,13.63,0,0,0-6.93,2,11.28,11.28,0,0,0-4.92,4.23,8.33,8.33,0,0,0-.53,1.18,9.1,9.1,0,0,0-4.93,2.91c-1-8,3.28-13.64,11.44-14.46A17.23,17.23,0,0,1,60.62,30.7Z"/><path d="M34.75,40.7c-.19.73.12,1.92.84,2.07,1,.19.85-1.31.67-1.94a1.56,1.56,0,0,0-.33-.64.64.64,0,0,0-.64-.17A.93.93,0,0,0,34.75,40.7Z"/><path class="cls-13" d="M35.15,40.81a.17.17,0,0,0,0,.1.3.3,0,0,0,.23.25c.78.08,0-1.3-.23-.4Z"/><path d="M43.56,40.53c-.18.7.11,1.85.81,2,.94.18.81-1.26.64-1.87a1.43,1.43,0,0,0-.32-.61.59.59,0,0,0-.61-.17A.89.89,0,0,0,43.56,40.53Z"/><path class="cls-13" d="M43.66,40.62a.17.17,0,0,0,0,.1.29.29,0,0,0,.23.24c.78.08,0-1.29-.23-.39Z"/><path d="M36.67,37.45c.19-.18,0-.46-.36-.65a2.55,2.55,0,0,0-1.5-.07A2.94,2.94,0,0,0,32.94,38a.39.39,0,0,0,.45.07,9.27,9.27,0,0,1,1.35-.54c.55-.13,1.17.17,1.64.06A.71.71,0,0,0,36.67,37.45Z"/><path d="M41.7,37.17c-.21-.16-.06-.45.29-.69a2.58,2.58,0,0,1,1.48-.21,2.92,2.92,0,0,1,2,1.06.41.41,0,0,1-.45.11,8.44,8.44,0,0,0-1.39-.39c-.56-.08-1.15.28-1.63.22A.66.66,0,0,1,41.7,37.17Z"/><path class="cls-14" d="M42.39,52.4a20.28,20.28,0,0,0,2.37-.2,6.9,6.9,0,0,1-3.85,1.35,14.29,14.29,0,0,1-4.11-.45c.36-.34.59-.66,1.08-.68s.86.48,1.35.3a2.67,2.67,0,0,0,.36-.22,2.87,2.87,0,0,1,2.15-.15A4.62,4.62,0,0,0,42.39,52.4Z"/><path class="cls-8" d="M41.07,48.68c.33,0-.6,1-.88,1.08a2.33,2.33,0,0,1-1.56-.13C36,48.92,39,49,41.07,48.68Z"/><path class="cls-8" d="M40.42,54.81a1.46,1.46,0,0,1-2.2-.15.29.29,0,0,1-.08-.14c-.06-.46,2.21-.05,2.46,0C40.64,54.61,40.53,54.73,40.42,54.81Z"/><path class="cls-11" d="M88.7,125.11a6.77,6.77,0,0,0,.15-1.83c-.18-4.07-.91-24.61-8.2-23.56-3.19.46-9.29-.18-11.18,3.09-1.24,2.15-.12,4.84,1.06,7,3,5.56,5.54,10.58,10.21,15.09C83.36,127.45,87.82,128.76,88.7,125.11Z"/><path class="cls-15" d="M88,106.12a29.24,29.24,0,0,1-6.59,2.57,36.34,36.34,0,0,1-14.8.77c.05-3.15-.26-6.54-.48-9.72-.39-5.6-.65-11.22-.58-16.83a22.56,22.56,0,0,1,3.81-12.25c.12-.17.24-.33.38-.5a3.39,3.39,0,0,1,1.31-1,3.71,3.71,0,0,1,3.64.79c2.93,2.43,4.69,6.64,6,10.72.62,1.91,1.14,3.78,1.64,5.43C84.31,92.57,86.84,99.45,88,106.12Z"/><path class="cls-6" d="M65.57,82.91c-.07,5.61.19,11.23.58,16.83.22,3.18.53,6.57.48,9.72a35.86,35.86,0,0,0,11,0c-2.41-9.85-5.81-19.32-12-27.77C65.61,82.11,65.58,82.51,65.57,82.91Z"/><path class="cls-11" d="M42.44,88l-9.76,22.92a38.76,38.76,0,0,1-4.3,8.22c-2,2.71-7.69,8.61-12,8.31a4,4,0,0,1-1-.19c-1.78-.58-2.32-2.84-2.33-4.72a22.72,22.72,0,0,1,1.43-8,41.4,41.4,0,0,1,3.7-7.15c4.38-7.18,9.26-14.08,13.67-21.19,1.26-2,2.67-4.15,4.84-5.17a6.13,6.13,0,0,1,2-.56C42.41,80.18,43.9,84.57,42.44,88Z"/><path class="cls-8" d="M42.44,88l-9.76,22.92a38.76,38.76,0,0,1-4.3,8.22c-2,2.71-7.69,8.61-12,8.31C19.08,110.2,28,94.4,38.75,80.48,42.41,80.18,43.9,84.57,42.44,88Z"/><polygon class="cls-16" points="53.6 120.76 21.36 120.16 15.43 75.26 47.34 75.41 51.02 101.99 52.89 115.67 53.6 120.76"/><path class="cls-17" d="M52.89,115.66c-.67-.51-1.36-1-2.08-1.46a15.55,15.55,0,0,0-7.12-2.53c-.75,0-1.48,0-2.22-.1-4-.41-7.12-3.55-10.84-5.09l4.6.13A39.45,39.45,0,0,0,26.1,101a41.19,41.19,0,0,1,8.08.25c-2-3.42-6.1-5-8.68-8,3.24.64,6.44,1.43,9.62,2.34l-5.36-6.7,7.94,3.88C42.86,94.44,46.53,98.9,51,102Z"/><path class="cls-11" d="M88.28,126.49a4.26,4.26,0,0,1-2.82,1.18c-8.17,1-15.81-3.43-21.47-9-2.25-2.17-4.38-4.47-6.8-6.45-2-1.62-4.41-3.77-7-3.86a33.08,33.08,0,0,0-6.3.65c-2,.31-4.41-.44-6.41-.9-.62-.14-7-.84-7-.91a1.53,1.53,0,0,1,.88-1.47,4.48,4.48,0,0,1,1.78-.34l6.56-.36c-4.14-1.28-8.32-2.34-12.42-3.75-.32-.12-.68-.28-.74-.6a.7.7,0,0,1,.18-.54,2.28,2.28,0,0,1,1.84-.68c1.92,0,3.57.72,5.42,1a18.43,18.43,0,0,0,5.39.41c.1,0,.24-.07.24-.18a.28.28,0,0,0-.1-.17A18.43,18.43,0,0,0,35,98.25c-2.61-1.19-5.16-2.46-7.68-3.82a6.33,6.33,0,0,1-1.6-1.1.58.58,0,0,1-.24-.5.63.63,0,0,1,.33-.35,3.78,3.78,0,0,1,2.92-.12c.95.3,1.83.8,2.76,1.18.5.21,1,.38,1.56.56l6.41,2.08a7,7,0,0,0,2.25.48c-3.89-2.74-8.52-4.42-12-7.69a1.1,1.1,0,0,1-.43-.73.74.74,0,0,1,.54-.6,1.92,1.92,0,0,1,.86,0A18.92,18.92,0,0,1,36.82,90a43,43,0,0,0,5.53,2.19c2.06.79,4.12,1.68,6.21,2.4.55.2,1.09.38,1.64.53a36.24,36.24,0,0,1-.83-5.68c1.86,2.29,2.87,5,4.41,7.52a25.16,25.16,0,0,0,2.76,3.79c5.49,4,12.41,5.53,18.7,8.19,5.93,2.52,11.89,6.91,13.37,13a13.22,13.22,0,0,1,.28,1.55A3.93,3.93,0,0,1,88.28,126.49Z"/><path class="cls-8" d="M88.28,126.49a4.26,4.26,0,0,1-2.82,1.18c-8.17,1-15.81-3.43-21.47-9-2.25-2.17-4.38-4.47-6.8-6.45-2-1.62-4.41-3.77-7-3.86a33.08,33.08,0,0,0-6.3.65c-2,.31-4.41-.44-6.41-.9-.62-.14-7-.84-7-.91a1.53,1.53,0,0,1,.88-1.47,4.48,4.48,0,0,1,1.78-.34l6.56-.36c-4.14-1.28-8.32-2.34-12.42-3.75-.32-.12-.68-.28-.74-.6a.7.7,0,0,1,.18-.54,2.28,2.28,0,0,1,1.84-.68c1.92,0,3.57.72,5.42,1a18.43,18.43,0,0,0,5.39.41c.1,0,.24-.07.24-.18a.28.28,0,0,0-.1-.17A18.43,18.43,0,0,0,35,98.25c-2.61-1.19-5.16-2.46-7.68-3.82a6.33,6.33,0,0,1-1.6-1.1.58.58,0,0,1-.24-.5.63.63,0,0,1,.33-.35,3.78,3.78,0,0,1,2.92-.12c.95.3,1.83.8,2.76,1.18.5.21,1,.38,1.56.56l6.41,2.08a7,7,0,0,0,2.25.48c-3.89-2.74-8.52-4.42-12-7.69a1.1,1.1,0,0,1-.43-.73.74.74,0,0,1,.54-.6,1.92,1.92,0,0,1,.86,0A18.92,18.92,0,0,1,36.82,90a43,43,0,0,0,5.53,2.19c2.06.79,4.12,1.68,6.21,2.4,1.67,2.65,2.33,6,4,8.71s4.32,4.53,6.92,6.33,5.3,3.61,8,5.38a45.42,45.42,0,0,0,9.56,5.19A38.13,38.13,0,0,0,88.61,122a13.22,13.22,0,0,1,.28,1.55A3.93,3.93,0,0,1,88.28,126.49Z"/><path class="cls-4" d="M124.22,314.19c-.7,3.78-4.48,2.15-7.54,2.48a17.5,17.5,0,0,0-4.37,1.49c-5.63,2.19-12.14,1.2-18.31.19a2.1,2.1,0,0,1-1.32-.57,1.9,1.9,0,0,1,0-1.85,14.71,14.71,0,0,1,.7-1.57,5.9,5.9,0,0,1,1-1.35c1.29-1.32,3.2-1.77,4.93-2.47a16.27,16.27,0,0,0,7.26-5.68.24.24,0,0,1,.06-.09c.56-.84,3.23-5.32,1.45-5.44,2.21,0,14.72,1,14.88,3.37C123.12,305.85,124.75,311.35,124.22,314.19Z"/><path class="cls-5" d="M116.29,311.23a2,2,0,0,1-1,1.86,5.35,5.35,0,0,1-2.12.69,93,93,0,0,1-15.21.86,25,25,0,0,1-4.58-.28,5.9,5.9,0,0,1,1-1.35c1.29-1.32,3.2-1.77,4.93-2.47a16.27,16.27,0,0,0,7.26-5.68.24.24,0,0,1,.06-.09,2.06,2.06,0,0,0,.56.47c2.43,1.36,4.85,2.7,7.28,4C115.24,309.72,116.16,310.3,116.29,311.23Z"/><path class="cls-4" d="M145.86,321.8c-3.06-.13-5.86-.85-7.11-2.13-3.34-3.42.65-8.3,1.05-11.81a9,9,0,0,0-.2-2.38c-.36-2.07-.93-4.44.29-5.61a1.68,1.68,0,0,1,.4-.3c.79-.44,4,.52,4.94.63.54.07,7.74,1,7.74.6,0,3.75-1.2,8.46,1.67,11.63a16.14,16.14,0,0,1,1.77,1.93C160,319.68,152.34,322.07,145.86,321.8Z"/><path class="cls-5" d="M151.9,315.78c-.44,1.28-2.84,1.33-3.85,2.21-1.21,1.05-1.32,2.54-2.19,3.81-3.06-.13-5.86-.85-7.11-2.13-3.34-3.42.65-8.3,1.05-11.81a9,9,0,0,0-.2-2.38,2.07,2.07,0,0,1,.34.15c2.06,1,4.37,2.23,4.87,4.47a2.09,2.09,0,0,0,.29.87,1.64,1.64,0,0,0,.7.47l4.11,1.81C151,313.73,152.3,314.67,151.9,315.78Z"/><path class="cls-18" d="M156,303.69a2.6,2.6,0,0,1-.1.64c-.44,1.55-2.29,2.14-3.86,2.48a34.88,34.88,0,0,1-6.2.83h-1.09a24.8,24.8,0,0,1-9.46-1.9c.27-16.2-2-32.17-2.59-48.41-.31-8.81.52-17.37-.45-26.24-.85-7.7-2.05-15.37-2.82-23.08-.08-.78-.16-1.58-.23-2.37s-.13-1.35-.19-2c-1.5,9.22-2.87,18.48-2.89,28s2,19.08,1.59,28.53c-.43,10.07-.74,20.17-1,30.24-.08,2.61.63,7.37.19,11.1-.3,2.48-1.1,4.5-3,5.13a16.26,16.26,0,0,1-7.59.15,97.19,97.19,0,0,1-11-2.92c-.85-9.91.1-20.13-.07-30.14q-.22-13-.49-26-.48-23.21-1.52-46.38c-.54-12.66-1.67-25.27-.74-37.93q.25-3.6.77-7.21a3.07,3.07,0,0,1,.63-1.74c1.72-1.82,9.34-1.83,11.74-1.64a22.41,22.41,0,0,1,10.23,3c3.41-1.8,11.55-2.32,12.91-2.22a44.91,44.91,0,0,1,16,4.93,340.91,340.91,0,0,1-.19,51.43c-.93,11.69-2,23-.67,34.72,2.26,19.33,1,38.86,2.07,58.1A7.91,7.91,0,0,1,156,303.69Z"/><path class="cls-19" d="M145.83,307.64h-1.09a24.8,24.8,0,0,1-9.46-1.9c.27-16.2-2-32.17-2.59-48.41-.31-8.81.52-17.37-.45-26.24-.94-8.57-3.43-17.86-3.06-26.44,7.69,16.3,8.71,36.05,10.33,53.73.36,4,.36,8.12,1.05,12.26L144,291.28A107.26,107.26,0,0,1,145.83,307.64Z"/><path class="cls-19" d="M116.3,306.8a97.19,97.19,0,0,1-11-2.92c-.85-9.91.1-20.13-.07-30.14q-.22-13-.49-26-.48-23.21-1.52-46.38c-.54-12.66-1.67-25.27-.74-37.93a34.94,34.94,0,0,0,8.53,7.16,6.33,6.33,0,0,1,2.31,1.88,5.29,5.29,0,0,1,.61,2.42c.7,8.44.1,17.37-.23,25.8q-.57,14.46-.7,28.93-.25,28.92,1.26,57.83C114.56,294.07,116.24,300.28,116.3,306.8Z"/><path class="cls-20" d="M107.89,57.47c-6,2.89-7.11,10.68-9,16A167.62,167.62,0,0,0,92.59,97.1,48.79,48.79,0,0,0,110,98.52c1-8.6-.45-17.53-1-26.07C108.86,71.3,107,57.89,107.89,57.47Z"/><path class="cls-16" d="M159.19,163.94c-9.89,2.23-21.95,6.13-32.38,6.38-.83,0-1.66,0-2.49,0-2.11-.07-24.63-4.9-24.57-6.48.24-8.19-.57-16.46,0-24.57.74-10.54,3-20.64,2.74-31.33-.17-6.26.47-12,.72-18.24.19-5.1-.5-10.37.14-15.45a127.59,127.59,0,0,1,3.45-15.46,2.2,2.2,0,0,1,.34-.8,2.32,2.32,0,0,1,.75-.51,102.66,102.66,0,0,1,11-4.77l.65-.21c4.17-1.31,8.55-3.19,13-2.86a19.82,19.82,0,0,1,3.09.58l1,.25c2.05.49,4,1,5.91,1.68a61.66,61.66,0,0,1,10.88,4.68,3.59,3.59,0,0,1,1.36,1.07,3.63,3.63,0,0,1,.43,1.3c1.88,9.93,1.19,20.08.47,30.24-.44,6.34-.65,12.56-1.59,18.83-1.35,9.12.51,13.34,2,22.26C158.12,143.53,157.89,153.84,159.19,163.94Z"/><path class="cls-21" d="M136.57,50.46a26,26,0,0,0-2.13,5.41l-1.72,3-.09,5.53c-2,1.63-4.08,3.19-6,4.89A54,54,0,0,0,118,78.81a40.26,40.26,0,0,1-2.1-14.51,28.68,28.68,0,0,1,3-11.6l.65-.21c4.17-1.31,8.55-3.19,13-2.86a19.82,19.82,0,0,1,3.09.58Z"/><path class="cls-16" d="M142.48,52.14a14.28,14.28,0,0,1-.6,1.58,26.12,26.12,0,0,1-6.76,8.57c-.82.72-1.65,1.42-2.49,2.09,0-1.34,0-2.67.07-4,.53-.43,1.07-.87,1.59-1.32,2.49-2.14,4.72-4.63,4.78-7.94h0l1.7.5Z"/><path class="cls-19" d="M126.81,170.32c1.64-14.34,2.87-28.79,1-43.07-.63-4.75-1.9-10-5.85-12.69-4.78-3.3-11.31-1.62-16.94-3a2.73,2.73,0,0,1-1.87-1.11c-.49-.91,0-2,.67-2.83,3.81-4.92,11.09-6.28,14.46-11.5.85-1.34,1.43-2.89,2.63-3.92a12.32,12.32,0,0,1,4.23-1.87c2.74-.93,5.41-2.65,6.51-5.33a14,14,0,0,0,.73-5.12q.13-7.73.26-15.46c.84-.67,1.67-1.37,2.49-2.09a26.12,26.12,0,0,0,6.76-8.57,14.28,14.28,0,0,0,.6-1.58,61.66,61.66,0,0,1,10.88,4.68,3.59,3.59,0,0,1,1.36,1.07,3.63,3.63,0,0,1,.43,1.3c1.88,9.93,1.19,20.08.47,30.24-.44,6.34-.65,12.56-1.59,18.83-1.35,9.12.51,13.34,2,22.26,2.13,13,1.9,23.32,3.2,33.42C149.3,166.17,137.24,170.07,126.81,170.32Z"/><path class="cls-2" d="M139.07,51v.1c-.06,3.31-2.29,5.8-4.78,7.94-.52.45-1.06.89-1.59,1.32s-1.08.85-1.59,1.27a131.91,131.91,0,0,0-11.23,10.17,28.07,28.07,0,0,1-1.15-10.33,20.36,20.36,0,0,1,2.82-8.35,61.82,61.82,0,0,0-.36-10.46l9.73-4.25.7-.32,6.11-2.67c0,.64-.11,1.27-.15,1.9-.23,2.94-.35,5.88-.38,8.81a12.05,12.05,0,0,0,.59,4.49Z"/><path class="cls-22" d="M139.07,51c0,3.36-2.26,5.88-4.78,8a41.47,41.47,0,0,0-.64-4.83,5.42,5.42,0,0,0-.74-2.12,6.68,6.68,0,0,0-2.35-1.74c-2.17-1.21-4.32-3.11-4.42-5.6l4.78-6.34.15-.2.55-.12a32.76,32.76,0,0,1,6-.77c-.23,2.94-.35,5.88-.38,8.81a12.05,12.05,0,0,0,.59,4.49Z"/><path class="cls-16" d="M163.44,99.16a50.4,50.4,0,0,1-17.8.38c-.33-.05-.68-.12-1-.19,0-9.33,0-18.68.94-28A24.67,24.67,0,0,1,150.43,59a5.07,5.07,0,0,1,1.47-1.38,1.73,1.73,0,0,1,.36-.18,3.45,3.45,0,0,1,3.57.81,21.66,21.66,0,0,1,5.85,10.59C162.85,74,163.1,90.36,163.44,99.16Z"/><path class="cls-19" d="M163.44,99.16a50.4,50.4,0,0,1-17.8.38c.29-1,.8-1.93,1.17-2.89.6-1.47.84-3.34-.27-4.47-.28-.3-.63-.51-.91-.8-1.21-1.33-.32-3.56,1.06-4.7s3.18-1.76,4.41-3.08c1.7-1.81,1.92-4.53,2-7,.12-3.65.14-7.31.05-11a22.49,22.49,0,0,0-1.25-8.05,1.73,1.73,0,0,1,.36-.18,3.45,3.45,0,0,1,3.57.81,21.66,21.66,0,0,1,5.85,10.59C162.85,74,163.1,90.36,163.44,99.16Z"/><path class="cls-23" d="M161.2,88.73a12,12,0,0,1-3.69,1.57l-8,2.39,10.39-.45a1.25,1.25,0,0,1,.92.19.62.62,0,0,1,.2.35,1,1,0,0,1-.05.57,1.93,1.93,0,0,1-.66.73,10.1,10.1,0,0,1-4.48,1.49c-2.21.35-4.44.65-6.67.86l6.71.25c.44,0,1,.1,1.13.51a.76.76,0,0,1-.37.87,2.13,2.13,0,0,1-1,.27c-2.58.27-5.5.09-8,.84a17.37,17.37,0,0,1-8.37.69c-.81-.17-1.62-.42-2.45-.58a14.33,14.33,0,0,0-9.32,1.16c-6.16,2.72-12.22,5.79-18.69,7.73-4,1.21-9.48,2.75-13.72,1.3a8.16,8.16,0,0,1-3.89-2.77,4.35,4.35,0,0,1-.84-1.59,5.94,5.94,0,0,1-.12-1.74c.1-2.45,0-6,2.29-7.62a6.15,6.15,0,0,1,2.67-.83c4.69-.69,9.4-1.29,14.1-1.82,1.11-.14,2.23-.27,3.34-.38,5.22-.56,11-.42,16-2a17.55,17.55,0,0,0,2.55-1.11,30.93,30.93,0,0,1,3.44-1.62c3-1.08,6.68-2.06,9.4-3.67.08.86-.23,1.94-.15,2.81,3.54-1.28,7.06-2.74,10.61-4a13.22,13.22,0,0,1,3.41-.9,1.37,1.37,0,0,1,1.14.28,1,1,0,0,1,0,1.3,3.12,3.12,0,0,1-1.15.81c0,.35-3.84,1.9-4.31,2.13a46.21,46.21,0,0,0-4.34,2.17c.55.26,1.76-.24,2.36-.36l2.71-.57,5.42-1.13a2.53,2.53,0,0,1,1.82.07,1,1,0,0,1,.44.54C162.08,87.92,161.64,88.41,161.2,88.73Z"/><path class="cls-22" d="M161.71,93.35a2,2,0,0,1-.65.73,10.18,10.18,0,0,1-4.49,1.49c-2.21.35-4.44.65-6.66.86l6.7.25c.44,0,1,.1,1.13.51a.76.76,0,0,1-.37.87,2.13,2.13,0,0,1-1,.27c-2.58.27-5.5.09-8,.84a17.37,17.37,0,0,1-8.37.69c-.81-.17-1.62-.42-2.44-.58a14.35,14.35,0,0,0-9.33,1.16c-6.16,2.72-12.22,5.79-18.69,7.73-4,1.21-9.48,2.75-13.72,1.3l10.62-3.75a6.66,6.66,0,0,0,2.8-1.55c1.07-1.16,1.16-2.9,1.14-4.47,0-2.21-.12-4.41-.35-6.6,0-.44-.07-.86-.12-1.29,2.77-.66,4.08.53,6.63.59,2.84.06,5.54-1.69,8.2-2.46a16.76,16.76,0,0,1,7.15-.38,40.37,40.37,0,0,1,9,2.62,33.09,33.09,0,0,0,6.63,2.14c4.73.79,9.45-.71,14.2-1.54A.93.93,0,0,1,161.71,93.35Z"/><path class="cls-23" d="M161.68,99.5c-.1,2.72-.3,5.44-1.75,7.83-1.13,1.85-3.23,2.79-5.25,3.46a18.87,18.87,0,0,1-6.88,1.14c-4.85-.3-9-3.39-13.15-6.06-3.75-2.44-7.69-4.62-11.54-6.91-3.31-2-7.2-5.64-11.22-5.7a16.35,16.35,0,0,0-2.31.19c-.77.11-1.54.25-2.31.35a26.61,26.61,0,0,1-5.2.21l1-.81,2.89-2.37c3.18-2.61,6.93-5.51,11.26-5.54a16,16,0,0,1,5.18,1.11c9.49,3.22,18.4,8.21,28,10.9.23.07,2.67.85,5.22,1.51C158.56,99.6,161.66,100.25,161.68,99.5Z"/><path class="cls-2" d="M161.68,99.5c-.1,2.72-.3,5.44-1.75,7.83-1.13,1.85-3.23,2.79-5.25,3.46a18.87,18.87,0,0,1-6.88,1.14c-4.85-.3-9-3.39-13.15-6.06-3.75-2.44-7.69-4.62-11.54-6.91-3.31-2-7.2-5.64-11.22-5.7a16.35,16.35,0,0,0-2.31.19c4-.6,5.16-1.28,9.11,0A82,82,0,0,1,140,103.69c3,2.06,6.79,4.42,10.08,2.81,3.07-1.49,2.33-6,4.41-7.3C155.22,98.73,161.65,100.32,161.68,99.5Z"/><path class="cls-24" d="M116.29,14.17l-1.53,11,0,5-.35-4.32a27.72,27.72,0,0,1-.6-12.37Z"/><path class="cls-23" d="M115,16.59a77.56,77.56,0,0,1-.61,10.24.72.72,0,0,0-1,.13,2,2,0,0,0-.38,1.1,23.14,23.14,0,0,0,0,5.88,3.16,3.16,0,0,0,.48,1.48,1.34,1.34,0,0,0,1.13.5,19.76,19.76,0,0,0,1.54,5.89,11.19,11.19,0,0,0,4.49,5.3c3.67,2.17,8.52,1.38,12.13-1,3-1.93,6.68-5.92,6.7-9.64,4.81.47,6.24-11.57,1.2-9.36.42-.18.22-3.72.24-4.19a39.24,39.24,0,0,0,0-7.27,7.53,7.53,0,0,0-1-3.31,8.65,8.65,0,0,0-3.27-2.47,18.42,18.42,0,0,0-4-1.73,16.2,16.2,0,0,0-3.75-.4c-3.33-.06-5.81.9-8.84,2.19C117.3,11.1,115,13.64,115,16.59Z"/><path class="cls-2" d="M142.26,15.41a6.6,6.6,0,0,1-2.86,2.26c-1.55.47-3.19-.24-4.8-.33-2.66-.16-5.09,1.34-7.39,2.67s-4.95,2.6-7.52,1.94a9.33,9.33,0,0,1-2.51-1.14c-1.11-.67-2.29-1.53-2.48-2.81-.22-1.47,1-2.75,2.14-3.67a17.39,17.39,0,0,1,10.52-4Z"/><path d="M119.33,28.34c.82.15.84-1.82.74-2.22a1,1,0,0,0-.7-.8c-1.38-.28-.68,2.35-.32,2.81A.51.51,0,0,0,119.33,28.34Z"/><path class="cls-13" d="M119,25.82c-.27,0-.23.7,0,.78S119.52,25.75,119,25.82Z"/><path d="M131.65,28.34c.82.15.84-1.82.74-2.22a1,1,0,0,0-.7-.8c-1.38-.28-.68,2.35-.32,2.81A.51.51,0,0,0,131.65,28.34Z"/><path class="cls-13" d="M131.39,25.85c-.27,0-.23.71,0,.79S131.87,25.78,131.39,25.85Z"/><path class="cls-25" d="M119.56,21.47a2.49,2.49,0,0,0-2.5,1.14c-.11.16-.17.43,0,.5s.24-.05.35-.13a3.83,3.83,0,0,1,2.82-.51c.18,0,.43,0,.46-.15a.32.32,0,0,0-.11-.24A2,2,0,0,0,119.56,21.47Z"/><path class="cls-25" d="M130.39,21.54a2.51,2.51,0,0,1,2.61.89c.12.14.21.41,0,.49s-.25,0-.36-.09a3.82,3.82,0,0,0-2.86-.22c-.17.05-.42.07-.47-.1s0-.18.08-.26A2.06,2.06,0,0,1,130.39,21.54Z"/><path class="cls-26" d="M127.18,40.25a8.83,8.83,0,0,1-3.52.6,3.88,3.88,0,0,1-2-.36c-.1-.06-.21-.14-.21-.26a.27.27,0,0,1,.2-.26.73.73,0,0,1,.36,0,11.73,11.73,0,0,0,2.29.18,15.88,15.88,0,0,0,3.42-1c.17-.05.4-.09.5.06a.3.3,0,0,1,0,.36A2.54,2.54,0,0,1,127.18,40.25Z"/><path class="cls-2" d="M126.17,35.22a2.78,2.78,0,0,1-3-.12.78.78,0,0,1-.32-.4.34.34,0,0,1,.21-.42.46.46,0,0,1,.2,0,4.31,4.31,0,0,0,2.33.18c.3-.1.7-.22.87,0S126.39,35.05,126.17,35.22Z"/><path class="cls-12" d="M139.58,15c-.21.38-.12,14.14-.12,14.41,0,0,1,0,1,0,.2-1.68-.1-2.56,1.88-2.41.86-2.63,4.66-6.87,1.81-11C143.32,14.67,140.82,13.56,139.58,15Z"/><path class="cls-25" d="M143,14.84A2.46,2.46,0,0,1,141.4,17c-1.14.39-2.28-.3-3.32-.84a12.67,12.67,0,0,0-9.44-.68c-5,1.56-11.14,6.73-15.81,2.26a7.24,7.24,0,0,1-.94-8.8l.13-.22a2.63,2.63,0,0,1,1.5-1.23,4,4,0,0,1,2,.39c2.39.73,4.89-.41,7.18-1.25a15.2,15.2,0,0,1,6.78-.89,17.91,17.91,0,0,1,10.34,4.16,16,16,0,0,1,1.91,1.86A4.27,4.27,0,0,1,143,14.84Z"/><path class="cls-24" d="M132,9a10.52,10.52,0,0,1,3.3,1.23,11.21,11.21,0,0,0-5.12,1.21c-1.62.73-3.15,1.65-4.8,2.28a16.13,16.13,0,0,1-9.47.64,5.51,5.51,0,0,1-3.09-1.67,5.31,5.31,0,0,1-.89-3.38c0-.12,0-.24,0-.37l.13-.22a2.63,2.63,0,0,1,1.5-1.23,4,4,0,0,1,2,.39c2.39.73,4.89-.41,7.18-1.25a15.2,15.2,0,0,1,6.78-.89,17.91,17.91,0,0,1,10.34,4.16,11.28,11.28,0,0,0-1.68-.53A20.73,20.73,0,0,0,132,9Z"/><path class="cls-22" d="M142.84,29.24c.53,1.12-.05,2.94-.6,3.95-.07.13-.16.27-.31.29s-.43-.29-.42-.56a1.93,1.93,0,0,1,.26-1c.17-.29.42-.56.39-.89s-.27-.53-.46-.77a1.36,1.36,0,0,1-.12-1.27.63.63,0,0,1,.52-.45C142.46,28.56,142.69,28.93,142.84,29.24Z"/><path class="cls-2" d="M335.74,91.23l8,16.22c1.68,3.42,1,8.37-3,9.43-3.07.8-6.34-1.92-8.77-4.43a24.11,24.11,0,0,1-3.17-4.39,53.15,53.15,0,0,1-5.84-12.39,3.93,3.93,0,0,1,.37-3.22c.31-.55,2.27-3,3-2.84Z"/><path class="cls-4" d="M333.82,317.77a2,2,0,0,1-1.33.57c-1.43.23-2.9.48-4.35.67-4.82.64-9.67.83-14-.85a16.74,16.74,0,0,0-4.34-1.48c-3-.33-6.86,1.28-7.49-2.49-.32-2,.41-5.24,1-8.1.24-1.25.46-2.43.54-3.38.21-2.42,12.75-3.38,14.95-3.38-1.86.13,1,4.95,1.42,5.52a15.61,15.61,0,0,0,7.14,5.7c1.71.68,3.61,1.15,4.87,2.45a8.39,8.39,0,0,1,1.61,2.93A1.85,1.85,0,0,1,333.82,317.77Z"/><path class="cls-5" d="M328.14,319c-4.82.64-9.67.83-14-.85a16.74,16.74,0,0,0-4.34-1.48c-3-.33-6.86,1.28-7.49-2.49-.32-2,.41-5.24,1-8.1,1.62,1.91,4.28,2.55,6.54,3.66,2.57,1.27,4.73,3.24,7.07,4.92s5.05,3.1,7.92,3.05a6.43,6.43,0,0,1,2.19.1A1.63,1.63,0,0,1,328.14,319Z"/><path class="cls-27" d="M332.17,159.84c-3.24,48-8.16,95.62-9.13,143.65A66.81,66.81,0,0,1,312,305.73a62.1,62.1,0,0,1-11.4.19c.25,0,.49-1.47.72-3.92,1.15-12.05,2-48.05,1.72-51.92-.63-8.22-.94-16.46-1.38-24.69-.13-2.39-.27-4.77-.42-7.17-.68-10,0-19.4.23-29.48.12-6.31,0-12.71,1.57-18.82,2.34-9.06,9-15.82,18.37-17.24C326.89,151.86,332.63,153.29,332.17,159.84Z"/><path class="cls-28" d="M312,305.73a62.1,62.1,0,0,1-11.4.19c.25,0,.49-1.47.72-3.92,1.15-12.05,2-48.05,1.72-51.92-.63-8.22-.94-16.46-1.38-24.69,6.8,12.6,9.32,27.16,10.07,41.48C312.4,279.81,311.74,292.78,312,305.73Z"/><path class="cls-4" d="M290.91,319.66c-3.2,3.22-16.05,2.89-18.2-1.41-.54-1.06-.43-2.36.63-3.9a20.51,20.51,0,0,1,1.82-1.92,7,7,0,0,0,1.57-2.77c.87-2.81.28-6.1.33-8.86,0,.4,7.2-.53,7.74-.59.94-.12,4.18-1.08,5-.63a1.56,1.56,0,0,1,.38.28c1.72,1.67-.26,5.79-.05,8C290.42,311.37,294.31,316.24,290.91,319.66Z"/><path class="cls-28" d="M309.35,180.45c-4,25.64-8.89,51.16-11.57,76.9-1.7,16.23-5.09,32.2-5.94,48.4-.08,1.87-9.12,2.29-14.77,2.33-2.2,0-3.88,0-4.34,0l-.06-2.15a242.77,242.77,0,0,1,.28-25c.81-10.37,2.81-20.68,3.94-31,.78-7.08.7-14.6.94-21.75.43-13.11-1.63-26.12-2.2-39.21-.28-6.65-1.58-16.39,0-24.3a18.68,18.68,0,0,1,3.83-8.66c5.14-6,15.58-9.8,22.95-5.87C313.59,156,310.91,170.35,309.35,180.45Z"/><path class="cls-29" d="M286.12,237.14c-1,5.32-2.41,10.58-3.59,15.86a228.25,228.25,0,0,0-5.46,55.08c-2.2,0-3.88,0-4.34,0l-.06-2.15a242.77,242.77,0,0,1,.28-25c.81-10.37,2.81-20.68,3.94-31,.78-7.08.7-14.6.94-21.75.43-13.11-1.63-26.12-2.2-39.21-.28-6.65-1.58-16.39,0-24.3,3.81,4.49,7.55,9.16,9.63,14.65a49.41,49.41,0,0,1,2.53,13.4C289.08,207.46,288.94,222.52,286.12,237.14Z"/><path class="cls-28" d="M322.88,62.48c5.14,3.68,6.9,10.19,9.2,16.12,2.47,6.35,5,13,6.41,19.64.06.3-3.13,1.74-3.41,1.86a25,25,0,0,1-4.28,1.43,24.51,24.51,0,0,1-9.19.38c-.25,0-.26-5-.27-5.41,0-2.08,0-4.15.09-6.22.16-4.11.48-8.22.62-12.34.1-2.88.63-5.7.35-8.56a17.61,17.61,0,0,0-1-5c-.36-.89-1.39-3.53-2.38-3.87A14.89,14.89,0,0,1,322.88,62.48Z"/><path class="cls-28" d="M335,163.67a15.74,15.74,0,0,1-4.93,2.67,28.29,28.29,0,0,1-4.35,1q-6.25,1.1-12.57,1.57a131.68,131.68,0,0,1-14.19.31c-3.11-.1-6.23-.3-9.33-.63-1.52-.16-3-.34-4.53-.56-4.05-.59-8.17-.78-12.23-1.5-2.69-.47,2.79-18.51,3.24-20.18,1.36-5,2.83-10.06,4.15-15.13a60,60,0,0,0,1.79-19.52c-.09-1.14-.19-2.27-.32-3.4-.47-4.42-1.19-8.82-1.77-13.23l-.2,1.29S275,63.66,274.13,64.2a31.2,31.2,0,0,1,5-3,16.71,16.71,0,0,1,2.2-1.1c1.59-.67,3.26-1.2,4.15-1.55a75.46,75.46,0,0,1,10.09-3.12,17.85,17.85,0,0,1,3.07-.57,20.27,20.27,0,0,1,7.15,1c2,.57,4,1.3,6,1.9,3,.95,7.51,2.19,9.58,4.71,2.2,2.67,3.28,6,4.12,9.31.91,3.62,2.55,7.19,3.82,10.73a37.82,37.82,0,0,1,1.78,6.08c.73,4.29-.1,8.66-.94,12.94-.9,4.51-1.82,9-2.27,13.63-.89,9.24.46,18,2.43,27l1.38,6.32Q333.36,156,335,163.67Z"/><path class="cls-29" d="M295.22,141.53c-1.7,1.53-4.51.32-6.63,1.17-2.73,1.1-3,4.79-2.71,7.71a92.6,92.6,0,0,0,3.77,18.19c-1.52-.16-3-.34-4.53-.56-4.05-.59-8.17-.78-12.23-1.5-2.69-.47,2.79-18.51,3.24-20.18,1.36-5,2.83-10.06,4.15-15.13a60,60,0,0,0,1.79-19.52c-.09-1.14-.19-2.27-.32-3.4l.51-.75a56.23,56.23,0,0,0,11.48,26.74C295.42,136.44,297.24,139.7,295.22,141.53Z"/><path class="cls-27" d="M335,163.67a15.74,15.74,0,0,1-4.93,2.67,28.29,28.29,0,0,1-4.35,1q-6.25,1.1-12.57,1.57c1-6.69-1.45-13.38-1.56-20.1q-.18-12.13.37-24.28c.12-2.7,1.37-6.27.92-8.83-.52-3-3.82-5.51-6.29-6.85-3.36-1.82-7.13-2.78-10.44-4.69-1.12-.64-2.33-1.85-1.8-3A2.87,2.87,0,0,1,296,99.9c5.3-2.17,10.86-4,16.59-4,1.94,0,4,.25,5.77-.48,5.64-2.26,3.94-7,1-10.61-2-2.42-3-5.16-4.39-7.9-1.64-3.23-3.66-6.32-5.46-9.45l-3.89-10a3.14,3.14,0,0,1,.2-1.65c2,.57,4,1.3,6,1.9,3,.95,7.51,2.19,9.58,4.71,2.2,2.67,3.28,6,4.12,9.31.91,3.62,2.55,7.19,3.82,10.73a37.82,37.82,0,0,1,1.78,6.08c.73,4.29-.1,8.66-.94,12.94-.9,4.51-1.82,9-2.27,13.63-.89,9.24.46,18,2.43,27l1.38,6.32Q333.36,156,335,163.67Z"/><path class="cls-29" d="M288.78,47.77c-2-5-2.1-11.88,3.27-16.18.06-1.64.12-3.19.09-4.52s-.13-3.36-1.39-4.22a2.09,2.09,0,0,0-.94-.44,1.63,1.63,0,0,0-1.25.57c-1,1-1.09,2.39-1.46,3.66-.47,1.57-1.13,3.07-1.46,4.69a33.75,33.75,0,0,0-.49,10.42,10,10,0,0,0,2.21,5.92,5.86,5.86,0,0,0,2.82,1.62C289.6,48.7,289.13,48.12,288.78,47.77Z"/><path class="cls-28" d="M293.45,49.17c.85-.29,1.73-1,1.69-1.86a3,3,0,0,0-.79-1.54c-2.55-3.46-2.46-9.24-2.3-14.18-5.37,4.3-5.27,11.19-3.27,16.18.35.35.82.93,1.4,1.52A5.87,5.87,0,0,0,293.45,49.17Z"/><path class="cls-2" d="M311.86,72.3h0a1.5,1.5,0,0,1-1.34.09c-4.44-1.15-8.34-3.7-11.88-6.53-1.55-1.24-3.51-2.52-4.55-4.23-.27-.44-2.79-5.17-1.95-5.42l1.29-.38a12,12,0,0,0,.57-4.48c0-3.57-.2-7.14-.52-10.71L296,41.76l14,6.13a61.74,61.74,0,0,0-.37,10.45c1.48,2.83,2.6,5.19,2.83,8.36C312.57,68.18,313.21,71.13,311.86,72.3Z"/><path class="cls-22" d="M311.86,72.3h0a53.18,53.18,0,0,0-6.24-7.7,23.73,23.73,0,0,1-2.79-3.14A23.58,23.58,0,0,1,301,57.94a61.9,61.9,0,0,0-5.84-10.13l.86-6.05,14,6.13a61.74,61.74,0,0,0-.37,10.45c1.48,2.83,2.6,5.19,2.83,8.36C312.57,68.18,313.21,71.13,311.86,72.3Z"/><path class="cls-23" d="M316,22.14c0,4.05.2,8.15.61,12.16a27.87,27.87,0,0,1,.2,2.88,26.82,26.82,0,0,1-2,10.2,11.26,11.26,0,0,1-4.5,5.3c-3.67,2.18-8.52,1.38-12.14-1-3-1.93-6.68-5.92-6.7-9.65-4.82.47-6.25-11.58-1.21-9.36-.42-.19-.22-3.73-.24-4.2a41.17,41.17,0,0,1,0-7.28,7.72,7.72,0,0,1,1-3.31,8.65,8.65,0,0,1,3.27-2.47,19,19,0,0,1,4-1.74,16.82,16.82,0,0,1,3.75-.39c3.33-.06,5.82.9,8.85,2.19C313.66,16.64,316,19.18,316,22.14Z"/><path class="cls-30" d="M300.29,33.43c.11.6.3,1.65-.32,2-.77.46-1.44-.34-1.46-1.06s.08-2.15,1.09-1.94C300,32.53,300.21,33,300.29,33.43Z"/><path class="cls-13" d="M298.92,33.11c-.43.63.67,1.15.64.23a.38.38,0,0,0-.29-.38A.35.35,0,0,0,298.92,33.11Z"/><path class="cls-30" d="M311.73,33.43c.11.6.3,1.65-.32,2-.77.46-1.45-.34-1.46-1.06s.08-2.15,1.09-1.94C311.46,32.53,311.65,33,311.73,33.43Z"/><path class="cls-13" d="M310.43,33.11c-.43.63.66,1.15.64.23a.39.39,0,0,0-.29-.38A.35.35,0,0,0,310.43,33.11Z"/><path class="cls-25" d="M299.22,30.36a11.24,11.24,0,0,1,2.72-.14c.25,0,.57,0,.63-.25s-.19-.4-.4-.49a4.46,4.46,0,0,0-5.1,1.19.55.55,0,0,0-.12.21.19.19,0,0,0,.07.21.26.26,0,0,0,.15,0c.4,0,.54-.22.84-.41A3.85,3.85,0,0,1,299.22,30.36Z"/><path class="cls-25" d="M312,30.36a11.35,11.35,0,0,0-2.73-.14c-.24,0-.57,0-.63-.25s.19-.4.4-.49a4.46,4.46,0,0,1,5.1,1.19.55.55,0,0,1,.12.21.19.19,0,0,1-.07.21.26.26,0,0,1-.15,0c-.4,0-.53-.22-.84-.41A3.87,3.87,0,0,0,312,30.36Z"/><path class="cls-25" d="M292.86,28.43c-.45,2.92-1,4.8-.93,6s0,3.12,0,3.12l-.07,0a2,2,0,0,1-1.28-1.67l-.29-3.16a1.94,1.94,0,0,0-.61-.22c-.18,0-.42.07-.58,0-.42-.22-.56-1.29-.6-1.7a1,1,0,0,1,.64-1.22,15.59,15.59,0,0,1,1.41-.72C291.12,28.57,292.25,28,292.86,28.43Z"/><path class="cls-28" d="M316.44,32.15a5.67,5.67,0,0,0-1.8-4c-5-4.49-10.86-3.34-16.81-1.51l-.39.13a14,14,0,0,0-6.27,4.61,4.18,4.18,0,0,1-.9.93,3.43,3.43,0,0,1-2.58.08c-.06-5-.63-9.34,1.58-14a13.25,13.25,0,0,1,12.07-7.69c4.58-.12,10,.27,13.22,4a11.33,11.33,0,0,1,1.71,2.63C318.66,22.24,318.13,29.08,316.44,32.15Z"/><path class="cls-31" d="M289.52,176.66c-.11.46-.44.64-1.12.18a5.35,5.35,0,0,1-2.47-2.92,17.71,17.71,0,0,0-.68-2.1c-.2-.45-.91-1.28-.93-1.72.13,2.37-.48,4.56-.08,7a44.89,44.89,0,0,0,2.38,7.4,1.38,1.38,0,0,1,.1.6.92.92,0,0,1-1.16.62,2.74,2.74,0,0,1-1.17-.89c.36.51-.19,1.26-.81,1.31a2.4,2.4,0,0,1-1.64-.78,11.41,11.41,0,0,1-2.26-3l-.06,1.27c-.57.27-1.1-.42-1.35-1a74.14,74.14,0,0,1-5.17-19.95c-.36-2.81-.17-5.56-.83-8.36-.26-1.12-.55-2.24-.85-3.35a17.6,17.6,0,0,1,3.76-2.13,25.59,25.59,0,0,1,4.52-1.37,28.39,28.39,0,0,0,2.73,10.86c1.5,2.85,4.13,4.58,5.3,7.79.82,2.18.89,4.54,1.3,6.8C289.11,173.33,289.78,175.66,289.52,176.66Z"/><path class="cls-2" d="M277.41,115.79c-.31,6.13.62,12.24,1.43,18.29.57,4.25.46,8.9.86,13.4a25.76,25.76,0,0,0-4.31,1.29,17.48,17.48,0,0,0-4,2.21c-1.17-4.41-2.54-8.75-3.81-13.13-1.54-5.28-2.13-10.8-3-16.21a52.61,52.61,0,0,1-.69-5.57,35.34,35.34,0,0,1,.32-6.42c.22-1.63.13-3.24.37-4.84a96.05,96.05,0,0,1,2.7-12,6.4,6.4,0,0,1,6-5,6.94,6.94,0,0,1,6.3,3.8l.06.12c.88,1.62.73,3.93.59,5.71C279.75,103.71,277.7,109.63,277.41,115.79Z"/><path class="cls-22" d="M277.41,115.79c-.31,6.13.62,12.24,1.43,18.29.57,4.25.46,8.9.86,13.4a25.76,25.76,0,0,0-4.31,1.29c-3.49-11.06-4.55-22.87-4.95-34.51-.1-3-.19-6.1-1.39-8.86a18,18,0,0,0-3-4.49l7.21-13a6.94,6.94,0,0,1,6.3,3.8l.06.12c.88,1.62.73,3.93.59,5.71C279.75,103.71,277.7,109.63,277.41,115.79Z"/><path class="cls-32" d="M267.88,75.31c-.64,2-1.17,3.92-1.69,5.63a183.78,183.78,0,0,0-4.61,20.69,32.78,32.78,0,0,0,20.92,3.58c-.06-3.28.27-6.79.5-10.09.4-5.8.67-11.62.59-17.45A23.26,23.26,0,0,0,279.65,65a4.34,4.34,0,0,0-1.75-1.6,3.83,3.83,0,0,0-3.78.83C271.07,66.71,269.25,71.08,267.88,75.31Z"/><path class="cls-31" d="M316.3,44c-.07.23-.17.47-.26.73-.23.63-.46,1.26-.71,1.88a19.8,19.8,0,0,1-1.95,3.77c-2,2.89-4.91,4-8.31,4.19a13.46,13.46,0,0,1-7.52-2.12c-1.75-1.07-4-2.61-4-4.89a13.39,13.39,0,0,1,.51-3.78c0-.09.06-.19.1-.28a9.69,9.69,0,0,1,.49-1.34c.36-.81,1.76-.82,2.57-1A12.66,12.66,0,0,0,301.68,39c1.47-1.14,3.49-3.12,5.56-2.22a29.29,29.29,0,0,1,2.91,2.11c1.76,1.07,4,1.68,5.61,2.88C316.74,42.48,316.63,43.11,316.3,44Z"/><path class="cls-13" d="M295,41.81c.3.43.49.89-.24.69a1.2,1.2,0,0,1-.58-.47,23.52,23.52,0,0,1-1.94-3c-.52-1-.88-2-1.4-3a6.77,6.77,0,0,1-.54-2.61c0,.1.43.4.51.5a4.5,4.5,0,0,1,.4.79c.23.53.41,1.08.65,1.6.44,1,.89,1.94,1.36,2.9a7.73,7.73,0,0,0,1.28,2A5.23,5.23,0,0,1,295,41.81Z"/><path class="cls-13" d="M291.5,42.07A10.49,10.49,0,0,0,294,47.7c.22.25.29.74,0,.87s-1.15-1.15-1.27-1.3a8.57,8.57,0,0,1-1-1.6A21.59,21.59,0,0,1,290.6,42,1.39,1.39,0,0,0,291.5,42.07Z"/><path class="cls-23" d="M344.4,112.87c-.82,2.06-2.53,4-4.5,4.18a3.32,3.32,0,0,1-.77,0c-1.83-.29-3.1-2-4.16-3.67a23,23,0,0,1-3.66-7.83c-.53-2.63-.11-5.37.1-8.07.78-9.68,2.21-19.81,2.89-26.77a21.75,21.75,0,0,1,4.78.15,11.94,11.94,0,0,1,3.84,1.36c0,.3,0,.59,0,.88.35,5.84,1.08,11.62,1.7,17.43.44,4.23.82,8.47.91,12.76C345.65,106.52,345.62,109.87,344.4,112.87Z"/><path class="cls-22" d="M344.4,112.87c-.82,2.06-2.53,4-4.5,4.18a17.27,17.27,0,0,0,.62-1.75,21.4,21.4,0,0,0,.54-6.19A212.86,212.86,0,0,0,340,86.52a88.88,88.88,0,0,1-1-10.91c0-1.57.14-3.19.11-4.77a11.94,11.94,0,0,1,3.84,1.36c0,.3,0,.59,0,.88.35,5.84,1.08,11.62,1.7,17.43.44,4.23.82,8.47.91,12.76C345.65,106.52,345.62,109.87,344.4,112.87Z"/><path class="cls-31" d="M349.89,41.25a6.3,6.3,0,0,0-1.12,1.29,35.74,35.74,0,0,0-3.43,6.54q1.52-7.92,2.29-15.93c-2.18.15-2.95,2.47-3.34,4.26a47.13,47.13,0,0,0-1.1,9.06l-.48-2.89c-.23-1.48-.47-3-.61-4.48s0-2.71-.18-4.06c-.27-2.11-1.36-.32-1.72.56a13,13,0,0,0-.68,4.91,39.15,39.15,0,0,0,1,8.71,7,7,0,0,0-1.17-2.81,2.36,2.36,0,0,0-2.74-.75,3.43,3.43,0,0,0-1.05,1l-.88,1.08a5.24,5.24,0,0,0-.95,1.43,1.81,1.81,0,0,0,.08,1.65l.13.16c-1-.66-2,1.22-2.33,1.89a6.47,6.47,0,0,0-.45,4.59c.8,2.81,3.92,5,3.65,8.07-.14,1.73-.31,3.47-.5,5.2a23,23,0,0,0,8.37,1.39h.25c-.22-3.36-.31-7.28,1.64-10.15a24.77,24.77,0,0,0,4-10.34,37.4,37.4,0,0,1,3.14-10.16,1.07,1.07,0,0,0,.1-.23C352.17,40.17,350.34,40.88,349.89,41.25ZM336.16,52.92c0,.94.25,2.58-.37,3.36a.32.32,0,0,1-.13.13l-.08,0c-.19,0-.34-.12-.45-.28-.44-.62-.88-1.27-1.3-1.91a.55.55,0,0,1-.11-.23.62.62,0,0,1,.08-.35c.33-.76,1.08-1.72.39-2.51a.52.52,0,0,0-.1-.11.6.6,0,0,0,.43.12,1.11,1.11,0,0,0,.54-.25,4.54,4.54,0,0,0,1.28-1.54,1.44,1.44,0,0,0-.13.44A16.15,16.15,0,0,0,336.16,52.92Z"/><path class="cls-33" d="M337.8,55c-.37.77-1,1.65-1.86,1.5a.86.86,0,0,1-.28-.11.32.32,0,0,0,.13-.13c.62-.78.39-2.42.37-3.36a16.15,16.15,0,0,1,0-3.09l.41-.51a2.7,2.7,0,0,1,.75-.72,1,1,0,0,1,1,0,1.27,1.27,0,0,1,.39.57C339.47,51.07,338.7,53.19,337.8,55Z"/><path class="cls-4" d="M199.13,314.62c-1,.54-2.33.1-3.35.61-1.75.89-1.26,3.2-2.44,4.44-1,1.07-2.72,1.22-4.09,1.5a32.42,32.42,0,0,1-13.59-.16,1.9,1.9,0,0,1-.69-.28,1.62,1.62,0,0,1-.48-1.12,18.19,18.19,0,0,1-.25-2.15,2.57,2.57,0,0,1,.56-1.61,8.12,8.12,0,0,1,1.9-1.54c3-2,7.31-5.19,8.63-8.72.14-.37.34-2.08.62-3.79.29-1.92.68-3.84,1.15-3.8l11.77,1a.51.51,0,0,1,.74.15c.75,1.42.1,5.12.13,6.74C199.79,308,201.53,313.36,199.13,314.62Z"/><path class="cls-5" d="M191.86,307.74c-.28.83-1.17,1.26-1.88,1.77a5.83,5.83,0,0,0-2.32,4,4.79,4.79,0,0,1-.33,1.73,3.34,3.34,0,0,1-2.49,1.34,53.14,53.14,0,0,1-10.6.9,2.57,2.57,0,0,1,.56-1.61,8.12,8.12,0,0,1,1.9-1.54c3-2,7.31-5.19,8.63-8.72.14-.37.34-2.08.62-3.79l1.91,1c1.72.87,3.61,1.95,4,3.83A2.14,2.14,0,0,1,191.86,307.74Z"/><path class="cls-4" d="M253.11,319.61a1.66,1.66,0,0,1-.47,1.12,1.94,1.94,0,0,1-.7.28,32.42,32.42,0,0,1-13.59.16c-.52-.11-1.09-.19-1.65-.32a4.63,4.63,0,0,1-2.45-1.18c-1.17-1.24-.67-3.55-2.43-4.44-1-.51-2.34-.07-3.35-.61-2.4-1.26-.65-6.63-.61-8.72,0-.6-.08-1.48-.14-2.42-.12-1.63-.2-3.42.27-4.32a.51.51,0,0,1,.74-.15l11.78-1c.87-.07,1.47,6.82,1.76,7.59,1.32,3.53,5.6,6.7,8.64,8.72a8.55,8.55,0,0,1,1.9,1.54C253.71,317,253.26,318.31,253.11,319.61Z"/><path class="cls-6" d="M209.27,203.92c-.28,7.19-3.4,13.83-3.42,21.3,0,8.17,1.28,16,.23,24.13s-1.3,16.64-1.92,24.91q-1,13.9-2,27.82s-4,1-11.92.08a77.53,77.53,0,0,1-8.41-1.49c.21-13.79,2.31-91.2,2.72-106.46.05-1.69.08-2.61.08-2.61s25.21-.35,25.47,0C211.26,193.17,209.34,202,209.27,203.92Z"/><path class="cls-34" d="M191.18,207.47q-.5,47.34-1,94.69a77.53,77.53,0,0,1-8.41-1.49c.21-13.79,2.31-91.2,2.72-106.46,1.68,2.4,4.61,4.37,5.85,7.12A14.45,14.45,0,0,1,191.18,207.47Z"/><path class="cls-6" d="M244.25,300.67a71.88,71.88,0,0,1-11.88,1.8,31.17,31.17,0,0,1-8.45-.39q-1-12.9-1.91-25.8c-1.16-15.71-3.42-31.73-1.94-47.41.74-7.82-.51-15.73-2.33-23.28-.46-1.89-.81-3.68-1.07-5.49-.22-1.48-.37-3-.48-4.58,0-.58-.6-3.45-.21-3.92s25.48,0,25.48,0S244,285.37,244.25,300.67Z"/><path class="cls-34" d="M232.37,302.47a31.17,31.17,0,0,1-8.45-.39q-1-12.9-1.91-25.8c-1.16-15.71-3.42-31.73-1.94-47.41.74-7.82-.51-15.73-2.33-23.28-.46-1.89-.81-3.68-1.07-5.49a66.61,66.61,0,0,1,8.16,21.24,113.76,113.76,0,0,1,1.28,13.92C227.3,257.73,229.77,280.11,232.37,302.47Z"/><path class="cls-1" d="M244.37,160.51c1.34,11.45.55,23.4.55,35,0,0-17.3,2.44-27.82,3.16-1.85.13-3.49.2-4.79.2-8.69,0-32.53-3.36-32.53-3.36,0-17.87,1-35.23,2.56-53a196.82,196.82,0,0,0,.36-24,2.44,2.44,0,0,0,0-.27c0-.16,0-.33,0-.5-.33-10-3.25-19.83-2.9-29.67.55-15.79,5.54-32,5.54-32a78.06,78.06,0,0,1,27-7.39,78.07,78.07,0,0,1,27,7.39c3,7.37,3.18,15.87,4.21,23.68.55,4.27,1,8.67,1.31,13.08.3,4,.5,8,.61,11.86C246,123.31,242.18,141.75,244.37,160.51Z"/><path class="cls-35" d="M185.52,61.32q4.13,13.11,7,26.57c.9,4.18,1.74,8.44,3.69,12.24a9.15,9.15,0,0,1,1.32,3.53l-4.25,1a11.43,11.43,0,0,1-3.62.45,5.87,5.87,0,0,1-4.58-3Z"/><path class="cls-35" d="M244.37,160.51c1.34,11.45.55,23.4.55,35,0,0-17.3,2.44-27.82,3.16.06-1.18.15-2.37.24-3.56,1.15-15.29,2.89-30.55,3-45.9,0-3.89,0-7.8-.24-11.69-.16-2.85.19-6.78-.7-9.48-1.58-4.83-11.49-6-15.74-6.47-7.07-.72-14.43-.43-21-3.15l-.35-.14.34-.13a95.71,95.71,0,0,0,26.89-15,1.31,1.31,0,0,0,.58-.79,1.26,1.26,0,0,0-.3-.77L206,95.64a14,14,0,0,0,5.92-5.44c1-1.8,3.32-4.29,3.17-6.48a13.6,13.6,0,0,0,6.3,2.82,8.26,8.26,0,0,0,3.08-.41c9.26-2.82,11.39-13.11,14.53-21,1.9,2.21,2.36,5.28,2.76,8.16.92,6.51,2,13,3.17,19.47.3,4,.5,8,.61,11.86C246,123.31,242.18,141.75,244.37,160.51Z"/><path class="cls-36" d="M222.61,59.7,211.26,91.79l-.31-.92c-1.95-5.64-12.23-35.4-12-35.63l7.09,1.34Z"/><path class="cls-37" d="M222.61,59.7,211.26,91.79l-.31-.92c.09-7.81,2.16-15.76.15-23.3a18.55,18.55,0,0,1-2.09,3c-.84-1-1.67-2-2.49-3l-.46-11.06Z"/><polygon class="cls-13" points="211.26 91.79 196.94 51.18 193.05 64 198.64 68.38 196.15 76.47 211.26 91.79"/><polygon class="cls-38" points="211.26 91.79 224.87 50.23 229.48 64 223.88 68.38 226.38 76.47 211.26 91.79"/><path class="cls-36" d="M221.78,46.93a155.77,155.77,0,0,0-21,0L199,50.5l.9,2.16L221.78,52Z"/><path class="cls-2" d="M224.12,50.89s-4.53,10.47-11.77,11.84a6.5,6.5,0,0,1-1.09.15c-7.85.44-9.81-1.08-10.7-11.28,3.44-.76,3.19-3.19,2.69-8.83-.08-.78-.15-1.61-.22-2.52-.09-1.12-.17-2.34-.23-3.67l7.47-.4,7.81-.42.16,5.87C218.38,47.52,219.43,51.25,224.12,50.89Z"/><path class="cls-22" d="M224.12,50.89s-4.53,10.47-11.77,11.84c.46-1.23.94-2.46,1.4-3.68,1.33-3.53-1.48-7.68-3.92-10.12-2.12-2.12-4.88-3.77-6.58-6.16-.08-.78-.15-1.61-.22-2.52l7.24-4.07,7.81-.42.16,5.87C218.38,47.52,219.43,51.25,224.12,50.89Z"/><path class="cls-23" d="M195.34,11.69l.81,10.39c-4.66-2.68-6.29,7.52,0,10-.2,6.36,6.49,13,13,13.46s13.67-8.65,13.47-13.32c5.17.51,6.09-12.37.81-10,.44-.2,0-3.25,0-3.75a44.05,44.05,0,0,0-.37-7.78,8.32,8.32,0,0,0-1.29-3.53,9.8,9.8,0,0,0-3.62-2.65,20.94,20.94,0,0,0-4.4-1.85,17.51,17.51,0,0,0-4-.42c-3.56-.06-6.17,1-9.34,2.34C197.54,5.82,195.2,8.53,195.34,11.69Z"/><path class="cls-2" d="M212,30.57a2,2,0,0,1-2,1.77,2.74,2.74,0,0,1-1.42-.19c-.19-.1-1-1.18-.81-1.16a13.16,13.16,0,0,0,2.17.12C210.57,31.06,211.23,30.67,212,30.57Z"/><path class="cls-26" d="M209.44,36.57h.17a11.2,11.2,0,0,0,4-1,.45.45,0,0,1,.34,0,.3.3,0,0,1,.08.38.91.91,0,0,1-.33.28,7.47,7.47,0,0,1-7.56.23c-.2-.12-.41-.38-.24-.54a.39.39,0,0,1,.35,0C207.29,36,208.36,36.49,209.44,36.57Z"/><path class="cls-2" d="M209.46,39a2.8,2.8,0,0,0,1.15-.14c.21-.06.44-.23.38-.44s-.31-.23-.51-.22l-1.12,0c-.24,0,.1-.06-.13,0a.51.51,0,0,0-.36.56c.1.35.61.35,1,.26"/><path class="cls-30" d="M203.25,20.65c-1.53.6-.17,4.09,1,2.6C204.79,22.54,204.57,20.14,203.25,20.65Z"/><path class="cls-13" d="M203.26,21.16c-.45.17,0,1.2.29.76C203.72,21.71,203.65,21,203.26,21.16Z"/><path class="cls-30" d="M215.32,20.65c-1.53.6-.17,4.09,1,2.6C216.85,22.54,216.64,20.14,215.32,20.65Z"/><path class="cls-13" d="M215.2,21.16c-.45.17,0,1.2.29.76C215.65,21.71,215.59,21,215.2,21.16Z"/><path class="cls-2" d="M195.37,27.15a2.12,2.12,0,0,0,.32-1.1,2.86,2.86,0,0,0-.13-.58,6.08,6.08,0,0,0-.31-1.13,1,1,0,0,0-.92-.61c-1.45.19-.91,3.45-.59,4.27a2.05,2.05,0,0,0,1.88,1.4C195.55,28.31,194.78,28.29,195.37,27.15Z"/><path class="cls-2" d="M223.36,27.15a2.22,2.22,0,0,1-.32-1.1,2.34,2.34,0,0,1,.14-.58,6.08,6.08,0,0,1,.31-1.13,1,1,0,0,1,.91-.61c1.46.19.92,3.45.6,4.27a2.07,2.07,0,0,1-1.89,1.4C223.18,28.31,224,28.29,223.36,27.15Z"/><path class="cls-2" d="M196.61,15.54a1.12,1.12,0,0,0,.52.91c1.77,1.42,4.36,1.28,6.46.42a50,50,0,0,0,5.84-3.45,21,21,0,0,1,12.82-2.65,41.66,41.66,0,0,0-8.48-4.47,17.56,17.56,0,0,0-9.45-.9,11.28,11.28,0,0,0-7.64,5.34Z"/><path class="cls-30" d="M201.55,18a3,3,0,0,1,2.9-1c1.26.38,1,1.78-.21,1.11a1.64,1.64,0,0,0-2.11.56c-.14.18-.3.39-.53.39a.45.45,0,0,1-.37-.49A1,1,0,0,1,201.55,18Z"/><path class="cls-30" d="M217.36,18a3,3,0,0,0-2.91-1c-1.26.38-1,1.78.22,1.11a1.63,1.63,0,0,1,2.1.56c.15.18.31.39.54.39a.44.44,0,0,0,.36-.49A1,1,0,0,0,217.36,18Z"/><polygon class="cls-39" points="197.78 9.76 197.78 26.7 196.5 26.7 195.91 22.08 194.63 8.85 197.78 9.76"/><path class="cls-39" d="M221.51,10c-.2.4.61,15.41.61,15.41h1.11s1-10.85.61-14.3S221.51,10,221.51,10Z"/><path class="cls-30" d="M225.11,9.8v0a2.51,2.51,0,0,1-1.55,2.26c-1.2.42-2.45-.33-3.59-.9a13.8,13.8,0,0,0-10.14-.73c-3.28,1-6.23,3.11-9.63,3.84a7.31,7.31,0,0,1-4.12-.17,4.58,4.58,0,0,1-2.84-2.93,3.93,3.93,0,0,1-.16-1.17c0-2,1.51-4,3.09-5.31a19.79,19.79,0,0,1,27.47,1.76,6.27,6.27,0,0,1,1,1.43A3.65,3.65,0,0,1,225.11,9.8Z"/><path class="cls-40" d="M224.65,7.91a20.19,20.19,0,0,1-3.11,0c-4.94-.32-10-2.43-14.67-.91-3,1-5.36,3.25-8.36,4.06a44.13,44.13,0,0,1,4.14-3.95A27.81,27.81,0,0,1,195,9.85a11.74,11.74,0,0,1-1.88.18c0-2,1.51-4,3.09-5.31a19.79,19.79,0,0,1,27.47,1.76A6.27,6.27,0,0,1,224.65,7.91Z"/><path class="cls-21" d="M211.26,62.88l-4.5,7s-9.95-7.89-9.59-18.66c.13-.24.24-.48.35-.7.35-.64.66-1.16.95-1.59,1.45-2.17,2.28-2,2.28-2S202.15,57.82,211.26,62.88Z"/><path class="cls-16" d="M215.76,69.84l-4.5-7c9.12-5.06,10.52-16,10.52-16s.69-.18,1.92,1.45a12.64,12.64,0,0,1,1,1.54c.21.37.44.79.67,1.26C225.72,62,215.76,69.84,215.76,69.84Z"/><path class="cls-38" d="M223.79,107.63c.05.71-31.54,11.08-40.73,10.74a4.08,4.08,0,0,1-2.06-.47c-4.48-3-7.57-6.14-8.64-10.92-.77-3.42-1.69-31,2-38.49S185.32,56,185.32,56l3.55,45.27.58-.08c2.43-.36,12-1.75,19.81-2.87,5.74-.83,10.51-1.51,10.74-1.51.43,0,2.19,5.31,3.16,8.51C223.52,106.5,223.76,107.42,223.79,107.63Z"/><path class="cls-41" d="M223.79,107.63c.05.71-31.54,11.08-40.73,10.74a114.73,114.73,0,0,1,17.21-7.68,29.78,29.78,0,0,0,5.61-2.37c-4-1.08-7.22-5-11.41-4.91-.89,0-1.76.21-2.66.18a5.18,5.18,0,0,1-3.56-1.69l1.2-.76c2.43-.36,12-1.75,19.81-2.87a46.24,46.24,0,0,1,9.15,3.86,30,30,0,0,1,4.75,3.14C223.52,106.5,223.76,107.42,223.79,107.63Z"/><path class="cls-23" d="M210.15,103.21c-.05.06-2.44-.27-4.84-.61s-4.75-.7-4.75-.7-7.09,1-7.95,1.1a7.51,7.51,0,0,1-1.9-.11,11,11,0,0,1-3.5-1.31,24.87,24.87,0,0,0,1.66-2c.53-.76,9.4-6.49,11.69-6.66s9.33,1.35,9.59,1.44C210.15,94.41,210.23,103.08,210.15,103.21Z"/><path class="cls-2" d="M205.52,99.27l-.21,3.33c-2.38-.34-4.75-.7-4.75-.7s-7.09,1-7.95,1.1a7.51,7.51,0,0,1-1.9-.11q2.78-1.85,5.7-3.45c1.6-.88,3.4-1.71,5.18-1.36C202.94,98.34,204.14,99.27,205.52,99.27Z"/><path class="cls-38" d="M252.29,109.7c0,.26,0,.45-.06.56-.34,2.86-7.46,6.61-9.66,7.6s-41.11-14-41.11-14l2.19-6L205.43,93l19.74,3.84,10.8,2s.26-6.3.32-13.7c.05-9.6.63-22.14,3.08-29.1C255.43,65,252.57,104.25,252.29,109.7Z"/><path class="cls-6" d="M198.47,48.89c-.29.43-.6,1-.95,1.59a13,13,0,0,0-5.33,6.1,25.88,25.88,0,0,0-1.79,10.31v.2a56.31,56.31,0,0,0,2.74,17.32l-1,.32a57.09,57.09,0,0,1-2.8-17.64v-.2a26.64,26.64,0,0,1,1.89-10.73A13.4,13.4,0,0,1,198.47,48.89Z"/><path class="cls-6" d="M233.83,66.57a23.83,23.83,0,0,1-.31,4l-1-.19a22.31,22.31,0,0,0,.29-3.79,24.47,24.47,0,0,0-.34-4.27A21.88,21.88,0,0,0,229.26,54a12.35,12.35,0,0,0-4.57-4.11,12.64,12.64,0,0,0-1-1.54,12.82,12.82,0,0,1,6.44,5,23.11,23.11,0,0,1,3.32,8.67A25.15,25.15,0,0,1,233.83,66.57Z"/><path class="cls-6" d="M229.81,96.61a8.4,8.4,0,0,1-1.46-.78,2.24,2.24,0,0,1-.87-1,3.62,3.62,0,0,1-.16-1.29v-.09h0v0c0-2.14-.12-4.5-.12-6.89,0-5.14.56-10.37,3.78-13.84a5.66,5.66,0,0,1,1.34-1.11,3,3,0,0,1,1.49-.45H234a3.14,3.14,0,0,1,2.18,1.3A7.85,7.85,0,0,1,237.3,75a22.05,22.05,0,0,1,.82,6.16c0,3.49-.65,6.93-1,10.82a6.51,6.51,0,0,1-.45,2.28,2.06,2.06,0,0,1-.61.73,1.28,1.28,0,0,1-.77.29h-.1l-.1,1h.2a2.35,2.35,0,0,0,1.4-.49,3.08,3.08,0,0,0,.92-1.11,7.11,7.11,0,0,0,.56-2.67c.3-3.81.95-7.28.95-10.9a23.51,23.51,0,0,0-.85-6.45,8.86,8.86,0,0,0-1.34-3A4.18,4.18,0,0,0,234,70.05h-.22a4,4,0,0,0-2,.59,6.78,6.78,0,0,0-1.59,1.31c-3.53,3.84-4,9.36-4,14.55,0,2.42.12,4.79.11,6.89v0h0v.11a4.83,4.83,0,0,0,.23,1.67,3.34,3.34,0,0,0,1.25,1.51,9.38,9.38,0,0,0,1.64.88l.43-1Z"/><path class="cls-23" d="M236,86.68h0a7,7,0,0,0-.4-2.31,23.58,23.58,0,0,0-11.76,7,28.23,28.23,0,0,1-2.5,2.39,25.83,25.83,0,0,1-3,1.69c.83-.48,4.85.91,5.83,1.09,2.16.39,4.33.71,6.47,1.14,5.51,1.11,11,2.35,16.68,1.25a1.2,1.2,0,0,0-.42-1.62,3.48,3.48,0,0,0-1.8-.43l-7.57-.38,13.31-1c.91-.08,2.14-.56,1.9-1.44-.17-.63-1-.78-1.62-.81a82,82,0,0,0-13.2.44c4.45-1,8.86-2.18,13.2-3.55.63-.2,1.35-.5,1.52-1.13a1.39,1.39,0,0,0-1-1.54,4.11,4.11,0,0,0-2,0l-11.37,2.08,12.53-5.46a1,1,0,0,0-.77-1.3,3.13,3.13,0,0,0-1.68.15Q242.12,84.74,236,86.68Z"/><path class="cls-42" d="M189.35,87.33A4.62,4.62,0,1,1,194,92,4.62,4.62,0,0,1,189.35,87.33Z"/><path class="cls-43" d="M191.46,87.33A2.64,2.64,0,1,1,194.1,90,2.64,2.64,0,0,1,191.46,87.33Z"/><path class="cls-5" d="M227,302.05l-.19.33a.36.36,0,0,1,0-.09.38.38,0,0,1,0-.36C226.88,301.84,227.08,302,227,302.05Z"/><path class="cls-5" d="M246.77,316.82l-6.06.13c-1.14,0-2.51.18-3,1.2a8.22,8.22,0,0,0-.36,1.56,2.89,2.89,0,0,1-.63,1.14,4.63,4.63,0,0,1-2.45-1.18c-1.17-1.24-.67-3.55-2.43-4.44-1-.51-2.34-.07-3.35-.61-2.4-1.26-.65-6.63-.61-8.72,0-.6-.08-1.48-.14-2.42a5.55,5.55,0,0,0,2.11.83,8.1,8.1,0,0,1,3.63,1.16,8.2,8.2,0,0,1,1.57,2.07c2.22,3.41,5.88,5.61,9.63,7.15C245.66,315.09,246.87,315.76,246.77,316.82Z"/><path class="cls-2" d="M126.08,42.2a1.31,1.31,0,0,1-1.38.37c-.21-.07-.42-.26-.37-.48s.31-.31.53-.31,1.2-.2,1.2,0A.36.36,0,0,1,126.08,42.2Z"/><path class="cls-1" d="M252.29,109.7c0,.26,0,.45-.06.56-.34,2.86-7.46,6.61-9.66,7.6s-41.11-14-41.11-14l2.19-6c6.23,1.94,33.82,11,38.06,11.37C245.06,109.49,249.8,109.64,252.29,109.7Z"/><path class="cls-12" d="M63.19,35.22l-.13,0a7.68,7.68,0,0,0,.11-.82C63.18,34.69,63.19,35,63.19,35.22Z"/><path class="cls-44" d="M316.38,44c-.12.31-.23.59-.18.67a12.68,12.68,0,0,0-1.54-1.82,4.51,4.51,0,0,0-1.13-.86c-.65-.33-1.39-.4-2.06-.69-1.8-.77-2.83-2.56-4.79-3.13a2.12,2.12,0,0,0-1.65.32,8.88,8.88,0,0,0-1.34,1.11,13.27,13.27,0,0,1-4.6,2.56c-.63.21-1.17.58-1.79.79a14,14,0,0,1-3.15.51,9.69,9.69,0,0,1,.49-1.34c.36-.81,1.76-.82,2.57-1A12.66,12.66,0,0,0,301.68,39c1.47-1.14,3.49-3.12,5.56-2.22a29.29,29.29,0,0,1,2.91,2.11c1.76,1.07,4,1.68,5.61,2.88a2,2,0,0,1,.89,1.42A3.2,3.2,0,0,1,316.38,44Z"/><path class="cls-29" d="M316.27,17.25a14.85,14.85,0,0,0-2.59-1.51,11.59,11.59,0,0,0-13.48,3.52,15.76,15.76,0,0,0-2.76,7.47,14,14,0,0,0-6.27,4.61,4.18,4.18,0,0,1-.9.93,3.43,3.43,0,0,1-2.58.08c-.06-5-.63-9.34,1.58-14a13.25,13.25,0,0,1,12.07-7.69c4.58-.12,10,.27,13.22,4A11.33,11.33,0,0,1,316.27,17.25Z"/><path class="cls-44" d="M315.33,46.6a19.8,19.8,0,0,1-1.95,3.77c-2,2.89-4.91,4-8.31,4.19a13.46,13.46,0,0,1-7.52-2.12c-1.75-1.07-4-2.61-4-4.89a11.57,11.57,0,0,1,.15-2.12,12.24,12.24,0,0,0,6.54,4.71,14.27,14.27,0,0,0,9.21-.49,34.1,34.1,0,0,0,3.77-1.9C313.92,47.36,314.62,47,315.33,46.6Z"/><path class="cls-33" d="M289.52,176.66a8.08,8.08,0,0,1-1.42-2,43.49,43.49,0,0,1-1.78-5.11c-1.61-4.64-4.74-6.95-7.63-10.58-2.17-2.75-3-6.57-3.51-10.07a25.59,25.59,0,0,1,4.52-1.37,28.39,28.39,0,0,0,2.73,10.86c1.5,2.85,4.13,4.58,5.3,7.79.82,2.18.89,4.54,1.3,6.8C289.11,173.33,289.78,175.66,289.52,176.66Z"/><path class="cls-33" d="M351.84,41.2a1.07,1.07,0,0,1-.1.23,37.4,37.4,0,0,0-3.14,10.16,24.77,24.77,0,0,1-4,10.34c-1.95,2.87-1.86,6.79-1.64,10.15h-.25a11.74,11.74,0,0,0-3.59-1.24,12.61,12.61,0,0,0-.94-5,2.27,2.27,0,0,1-.27-.78c-.08-.93.94-1.49,1.75-1.94,2.82-1.54,4.72-4.4,5.92-7.39s1.81-6.18,2.74-9.26C348.91,44.36,349.93,42.1,351.84,41.2Z"/><path class="cls-5" d="M284.64,314.73c-.13.35-.57.44-.94.46-1.58.1-3.17-.07-4.75,0a8.42,8.42,0,0,0-4.55,1.16,4.64,4.64,0,0,0-1.69,1.93c-.54-1.06-.43-2.36.63-3.9a20.51,20.51,0,0,1,1.82-1.92,7,7,0,0,0,1.57-2.77,3.69,3.69,0,0,0,1.1.94,34.22,34.22,0,0,0,5.87,3C284.22,313.81,284.84,314.23,284.64,314.73Z"/><path class="cls-45" d="M417.07,141.82l6.35.06c-.23,5.24-.89,11.66,2,16.27a12.48,12.48,0,0,1,1.13,1.93,8.39,8.39,0,0,1,.46,2.1,52.45,52.45,0,0,1,.3,6.51c0,1.09,0,2.17.06,3.26a8.73,8.73,0,0,1,.1,2.88.6.6,0,0,1-.73.42c-.48-.19-1-.25-1.31-.71-.88-1.28-.73-3.27-1.49-4.74.14,4.28-.73,8.27-1.38,12.46a5.64,5.64,0,0,1-.19,1.15,1.05,1.05,0,0,1-.88.73c-1.36.05-1.45-1.84-1.64-2.71l-.27,2.07a1,1,0,0,1-.25.63.81.81,0,0,1-.55.18,2,2,0,0,1-1.45-.75,5.27,5.27,0,0,1-.77-1.42c-.19.16-.14.44-.19.68-.12.61-1,.85-1.58.57A2.53,2.53,0,0,1,413.7,182c-.72-1.78-.5-3.52-.85-5.33a24.63,24.63,0,0,1-.42-6l1-22.81Z"/><path class="cls-1" d="M413.39,70.2c4.8,2.43,7.28,8.72,8.29,13.68.65,3.18-.21,6.5-.08,9.76a45,45,0,0,0,2.25,12.28c1.47,4.41,3.66,9,2.54,13.48-.51,2.07-1.71,4.1-1.28,6.18.28,1.34,1.23,2.53,1.25,3.9,0,1.09-.57,2.11-.66,3.2-.1,1.25.46,2.46.5,3.72.17,5.19-4.39,8.16-8.66,9.37-1.33.38-10,3-10.72.78q-2.06-6.35-4.09-12.7a16.34,16.34,0,0,1-1.07-5.27c.1-5.09,4.85-10,3.23-14.77-.67-2-2.37-3.57-3-5.58-1-3.36,1.19-6.89,1.28-10.4.07-2.75-1.16-5.34-2.28-7.86-1.88-4.24-3.52-8.91-2.29-13.42C400.19,70.76,407.82,67.38,413.39,70.2Z"/><path class="cls-1" d="M420.36,259.75c-.17.23-.32.48-.47.71-1.94,3.19-3.2,6.12-5.52,9.12-2.61,3.39-5.61,3.32-9.52,3a16.09,16.09,0,0,1-4.8-.92c-.18-.07-.36-.16-.53-.24-2.48-1.25-3.93-3.76-5.25-6.12a5.41,5.41,0,0,1-.83-2.24c-.07-1.53,1.22-2.93,1-4.46-.24-1.94-2.44-3.11-2.8-5.06-.41-2.22.94-5.12,1.33-7.33a126.37,126.37,0,0,0,1.28-17.49c.09-3.42-1.72-8-2.16-11.72a9.28,9.28,0,0,1,0-2.74c-.13.73-.26,1.46-.37,2.2-.07.42-.12.84-.18,1.26,0,.11,0,.22,0,.32a84.73,84.73,0,0,0-.27,20.13c.24,2.31.56,4.73-.39,6.87-.47,1-1.23,2-1.64,3-2,5.35,4.88,8.28,3.23,13.34a18.45,18.45,0,0,1-3.72,5.85l-.43.54c-1.4,1.81-2.83,4.12-4.83,5.25a9.68,9.68,0,0,1-4.05,1,27.84,27.84,0,0,1-14.53-3,8.12,8.12,0,0,0-1-4.76c-1.39-2.58-3.75-4.76-4.94-7.74a20.18,20.18,0,0,1-.59-13.62c1.48-4.6,4.66-9,3.87-13.77-.46-2.84-2.35-5.39-2.5-8.27-.17-3.28,2-6.3,2.22-9.57.27-3.55-1.65-6.89-2.14-10.42-1-7,3.79-13.82,3-20.84a40.51,40.51,0,0,0-2.12-7.56l0-.06a84.82,84.82,0,0,1-2.52-11.37c-.56-3.23-1.1-6.62.1-9.68,2.05-5.19,8.81-9.89,7.47-15.51a27.1,27.1,0,0,1-.38-10.54c.78-4.79,2.14-9,1.8-13.93-.31-4.33-.55-8.73-.87-13.08-.72-9.69-1.4-19.37.48-28.82a3.36,3.36,0,0,1,.42-1.25,3.42,3.42,0,0,1,1.36-1,70.74,70.74,0,0,1,17.67-6.3,22.55,22.55,0,0,1,3.08-.55,16.22,16.22,0,0,1,3.2.1,32.11,32.11,0,0,1,6.77,1.75l3.28,1.15c3.27,1.1,7.16,1.6,9.56,4.34a12,12,0,0,1,2.36,5.46c1.2,5.66.9,11.56,2.16,17.21C418.14,99.17,420,105,418,111.81c-1,3.4-2.49,7-1.92,10.66s2,7.05,2.73,10.56a72.58,72.58,0,0,1,1.21,15v.5l.15,23.07a28.56,28.56,0,0,1-.42,6.27c-.9,4.24-1.72,7.56-1.57,12a74.73,74.73,0,0,0,1.9,14.51c.91,3.92,1.79,7.69-.6,11.25-2.28,3.39-3.32,5.75-2.32,10.16.74,3.25,2.28,6.24,3.62,9.29.74,1.71,1.45,3.58,1.1,5.41-.3,1.55-1.34,3-1.33,4.54,0,2.3,2.17,4,2.81,6.2C424.27,254.46,422,257.22,420.36,259.75Z"/><path class="cls-35" d="M420.36,259.75c-.54-3.45-3.35-6.77-6.81-6.6a36.13,36.13,0,0,1,7-11.26,13.83,13.83,0,0,1-4.44-15.24c2.29-6.81-6.88-12.28-7.74-19.42,1.12,2.14,4.8,1.15,5.63-1.11,1.63-4.37-3.15-8.74-3.61-13s-1-8.34-1.47-12.55c-.88-7.56,1.4-16.75,2.27-24.41.41-3.69.62-8.13-2.38-10.32a6.38,6.38,0,0,1-1.22-1c-1.36-1.66.57-3.9,2-5.46,4.08-4.31,5.28-10.77,4.34-16.63s-3.78-11.26-6.93-16.3c-1-1.56-1.87-3.89-.37-5a5.5,5.5,0,0,1,1.47-.58c3.66-1.25,4.88-6.07,3.8-9.78s-3.75-6.7-5.81-10c-3-4.72-4.69-10.1-6.39-15.42-.17-.52-.33-1.05-.46-1.57l3.28,1.15c3.27,1.1,7.16,1.6,9.56,4.34a12,12,0,0,1,2.36,5.46c1.2,5.66.9,11.56,2.16,17.21C418.14,99.17,420,105,418,111.81c-1,3.4-2.49,7-1.92,10.66s2,7.05,2.73,10.56a72.58,72.58,0,0,1,1.21,15v.5l.15,23.07a28.56,28.56,0,0,1-.42,6.27c-.9,4.24-1.72,7.56-1.57,12a74.73,74.73,0,0,0,1.9,14.51c.91,3.92,1.79,7.69-.6,11.25-2.28,3.39-3.32,5.75-2.32,10.16.74,3.25,2.28,6.24,3.62,9.29.74,1.71,1.45,3.58,1.1,5.41-.3,1.55-1.34,3-1.33,4.54,0,2.3,2.17,4,2.81,6.2C424.27,254.46,422,257.22,420.36,259.75Z"/><path class="cls-38" d="M397,236.37c-.66.52-.56,1.55-.38,2.37A54.73,54.73,0,0,0,401,251.09c-1-.68-5.21-.13-4.55,1.89.28.81,1.14,1.26,1.9,1.67a16.65,16.65,0,0,1,6.67,6.64c-1.44.51-3,.06-4.53,0s-3.35.46-3.72,1.94c-.32,1.23.53,2.4,1.21,3.46a15.59,15.59,0,0,1,2,5c-.18-.07-.36-.16-.53-.24-2.48-1.25-3.93-3.76-5.25-6.12a5.41,5.41,0,0,1-.83-2.24c-.07-1.53,1.22-2.93,1-4.46-.24-1.94-2.44-3.11-2.8-5.06-.41-2.22.94-5.12,1.33-7.33a126.37,126.37,0,0,0,1.28-17.49c.09-3.42-1.72-8-2.16-11.72,3.93,6,7.89,12.06,11.82,18.1a45.14,45.14,0,0,1,2.95,4.9c-3,.5-5.19-2.8-8.08-3.73A1.94,1.94,0,0,0,397,236.37Z"/><path class="cls-38" d="M378.39,254.15l-9.57-2.36a11.3,11.3,0,0,0-4.74-.49,3.89,3.89,0,0,0-3.31,3,6.22,6.22,0,0,0,.92,3.26,19.92,19.92,0,0,1,2.2,8.66c-1.39-2.58-3.75-4.76-4.94-7.74a20.18,20.18,0,0,1-.59-13.62c1.48-4.6,4.66-9,3.87-13.77-.46-2.84-2.35-5.39-2.5-8.27-.17-3.28,2-6.3,2.22-9.57.27-3.55-1.65-6.89-2.14-10.42-1-7,3.79-13.82,3-20.84a40.51,40.51,0,0,0-2.12-7.56,8,8,0,0,1,2.05,1.51c2.9,3,2.5,7.88,1.63,12s-2,8.62,0,12.33c1,1.91,2.81,3.47,3.2,5.6s-2.17,4.66-3.76,3.18a29.44,29.44,0,0,0,9.94,15.16c1,.8,2.18,1.82,2,3.09-.32,1.84-3,1.84-4.77,1.24a43.2,43.2,0,0,1-8.48-3.93,17.21,17.21,0,0,0,6,10.26c1.38,1.13,3,2.22,3.38,4s-2.2,3.58-3.19,2.1c-1,2.73,1.38,5.48,3.77,7.12S377.72,251.33,378.39,254.15Z"/><path class="cls-35" d="M368.34,72.68a30.62,30.62,0,0,1,7.23,26.5c-.5,2.35-1.28,4.73-.89,7.1s1.8,4.39,1.49,6.66a7.07,7.07,0,0,0-.25,2.27,3.63,3.63,0,0,0,1.4,1.93c4.05,3.42,9.4,6,11.19,11l-12.38-3.19c-1-.25-2.28-.39-2.8.49s.12,1.82.7,2.57l11.16,14.37a9.64,9.64,0,0,0,2.12,2.2,35,35,0,0,0,3.61,1.55c1.17.59,2.25,1.8,2,3.08l-15.1-1.83a4.27,4.27,0,0,0-2.51.21c-1.84,1-1.27,3.9-2.5,5.59-.52.7-1.32,1.15-1.87,1.83-1.67,2.07-.35,5.1.79,7.51a44,44,0,0,1,3.61,26,4.47,4.47,0,0,1-1.45,3.06c-1.73,1.24-4.06-.31-5.5-1.88a40.09,40.09,0,0,1-9.16-17.16,79.92,79.92,0,0,1-1.76-15l-.69-13.08c-.16-3.09-.32-6.26.58-9.22.63-2.1,1.77-4,2.34-6.13a24.07,24.07,0,0,0,.55-6.12l.06-20.49Z"/><path class="cls-4" d="M381.67,300.85a12.86,12.86,0,0,0,.09,5.27c.74,2.36,1.91,2.7.92,5.51-1.13,3.27,4.11,4.52.42,8.14-1.88,1.83-6.5,2.62-10.65,2.2-3.2-.32-6.13-1.35-7.28-3.19-2.3-3.63,3.39-5.91,3.79-9.23.8-6.56-.79-13.17-1.31-19.71s-1.8-13.16-2.65-19.72a21.45,21.45,0,0,1,7.16-2.38,22.24,22.24,0,0,1,13.14,1.91,2.06,2.06,0,0,1,1.26,2.72C385.18,281.92,382.94,291.35,381.67,300.85Z"/><path class="cls-4" d="M429,318a1.42,1.42,0,0,1-.29.26,3.45,3.45,0,0,1-1,.29c-6.15,1-12.64,1.91-18.25-.18a18,18,0,0,0-4.35-1.41c-3.05-.32-6.81,1.22-7.51-2.38-.64-3.33.95-6.7,1.09-10.06a69,69,0,0,0-.7-10.25q-.66-6.15-1-12.32a128.21,128.21,0,0,0-1.1-13.42c.22-.1.44-.18.67-.27,5.9-2.32,12.76-3.13,18.5-.51,1.38.62-.77,15.12-.85,17-.21,5.22-1.07,10.42-1.21,15.68,0,.12,0,.25,0,.39-.11,4.63,5.3,8.7,9.5,10.31,1.72.66,3.63,1.1,4.91,2.36a6.52,6.52,0,0,1,1.32,2c.11.25.23.52.33.78a.52.52,0,0,1,.06.16v0A1.56,1.56,0,0,1,429,318Z"/><path class="cls-1" d="M408.35,45.17A48.54,48.54,0,0,1,407,54.6c-.7,2.77-3.06,6.28-3,9a4.08,4.08,0,0,0,2.71,3.92c-3.5,4.49-1.3,8.94-1.71,13.89a6.83,6.83,0,0,1-1.15,3.8A5.72,5.72,0,0,1,400,87.1c-3.92.53-7.78-1.39-10.7-3.93a37.49,37.49,0,0,1-6.94-8.36,32.37,32.37,0,0,0-5.39-6.5c-.67-.61-1.36-1.2-2.08-1.77,5.87-8.61,1.39-16.93,1.39-26.15a20.45,20.45,0,0,1-.06-4.49A15.68,15.68,0,0,1,377.44,32a20.4,20.4,0,0,1,6.77-9.12c3.21-2.2,6.45-2.54,10.24-2.6a12.38,12.38,0,0,1,7.29,2.4,13.85,13.85,0,0,1,3.91,4.43C408.64,32.35,408.62,39.45,408.35,45.17Z"/><path class="cls-38" d="M405.65,27.07a2.14,2.14,0,0,1-1.66.83,6.88,6.88,0,0,1-2.76-.89,15.67,15.67,0,0,0-22.06,13.42,10.41,10.41,0,0,0,.48,4c.83,2.33,2.42,4.19,2.46,6.77.06,4,.27,6.38,3.43,9.14,3.46,3,7.51,5.92,7.89,10.92a1.28,1.28,0,0,1-.15.84c-.3.4-.92.33-1.41.22l-4.51-1c-.7-.17-1.6-.25-2,.36s.27,1.55.9,2.08A151.44,151.44,0,0,1,397.63,84.3c-2.89.43-5.69-1-8.24-2.48l-9.12-5.11c-1.18-.66-2.95-1.2-3.66,0-.32.51-.35,1.29-.92,1.48a1.34,1.34,0,0,1-.95-.16c-2-.94-8.39-3.34-9.23-5.61-1-2.7,3.18-4.26,5.12-5,5.3-1.94,6.48-4.08,6.83-9.83s-1.14-11.44-1.14-17.19a20.45,20.45,0,0,1-.06-4.49A15.68,15.68,0,0,1,377.44,32a20.4,20.4,0,0,1,6.77-9.12c3.21-2.2,6.45-2.54,10.24-2.6a12.38,12.38,0,0,1,7.29,2.4A13.85,13.85,0,0,1,405.65,27.07Z"/><path class="cls-23" d="M406.64,47.42a27.31,27.31,0,0,1-1,4.56c-1.29,4.05-2.42,8.1-7.45,9-6.6,1.16-11.26-3.27-12.42-9.1-.27-1.37-.54-2.77-.75-4.19a41.14,41.14,0,0,1-.53-5.82c0-6,8-7.39,12.79-7.47C405.88,34.23,407.51,41,406.64,47.42Z"/><path class="cls-46" d="M406.71,47.86a19.11,19.11,0,0,1-1.93,7.61,11.86,11.86,0,0,1-2.84,4.24,7.67,7.67,0,0,1-4.48,1.51,12.32,12.32,0,0,1-5.86-1.1c-4.26-2.14-6.34-7.2-6.54-11.54,0-.37,0-.74-.06-1.11s5-1,5.66-1.26a18.68,18.68,0,0,0,5.41-3.36,4.14,4.14,0,0,1,2-1.13h.06A4,4,0,0,1,401,43c1.48,1.25,2.27,2.58,4.47,2.87a1.65,1.65,0,0,1,.76.2,1.28,1.28,0,0,1,.45,1.06C406.71,47.39,406.71,47.62,406.71,47.86Z"/><path class="cls-13" d="M406.71,47.86a19.11,19.11,0,0,1-1.93,7.61,11.86,11.86,0,0,1-2.84,4.24,7.67,7.67,0,0,1-4.48,1.51A26.85,26.85,0,0,0,400,48.09a9.82,9.82,0,0,0-2.11-6.15l.21-.22h.06A4,4,0,0,1,401,43c1.48,1.25,2.27,2.58,4.47,2.87a1.65,1.65,0,0,1,.76.2,1.28,1.28,0,0,1,.45,1.06C406.71,47.39,406.71,47.62,406.71,47.86Z"/><path class="cls-13" d="M409.48,43.49c-.09,1.28-1,3.46-2.48,3.88a2.41,2.41,0,0,1-1.25,0,8.49,8.49,0,0,1-3.17-2,27,27,0,0,0-3.2-2.43,2.63,2.63,0,0,0-1.42-.5,1.75,1.75,0,0,0-.92.36,3.94,3.94,0,0,0-.56.45c-3,2.65-7.51,7.39-11.87,4.16-2.07-1.53-1.68-5-1.94-7.24-.74-6.43,9.85-6.61,14.33-6.51l.69,0c1.77.06,3.46.19,5.22.42a15,15,0,0,1,4.86,1.47,3.11,3.11,0,0,1,1.56,2.58A28,28,0,0,1,409.48,43.49Z"/><path class="cls-23" d="M406.49,43.16a1.45,1.45,0,0,1-.35.7,1.51,1.51,0,0,1-.55.28,3.86,3.86,0,0,1-3.13-.51l0,0a3.42,3.42,0,0,1-.42-.23c-.72-.4-1.36-.92-2.07-1.31a4.83,4.83,0,0,0-1.36-.57,1.72,1.72,0,0,0-.34-.06l-.14,0a8,8,0,0,0-2.61.11,7,7,0,0,0-1.12.27,9.5,9.5,0,0,0-1.4.54l-.09,0c-1.67.83-3.08,2.18-4.88,2.7a.72.72,0,0,1-.54-.06h0a1.42,1.42,0,0,1-.49-.63,4.5,4.5,0,0,1-.3-.79v0a20.42,20.42,0,0,1-.54-3.64,3.16,3.16,0,0,1,.26-1.67,3,3,0,0,1,1-1,17.19,17.19,0,0,1,8.42-2.59,23.52,23.52,0,0,1,5.77.28c.54.09,1.07.19,1.58.32s1.09.28,1.59.46l.45.17.12.06a2.42,2.42,0,0,1,.5.27,2.15,2.15,0,0,1,.85,1,3.45,3.45,0,0,1,.17,1.2A16,16,0,0,1,406.49,43.16Z"/><path class="cls-1" d="M396.53,43.06l0,0-2.31,2.24c-2.45,2.38-6.47,4.49-9.65,2.14-2.07-1.53-1.68-5-1.94-7.24-.74-6.43,9.85-6.61,14.33-6.51l.69,0a37.62,37.62,0,0,0-8.92,1.9c-3.37,1.17-4.14,3.11-3.48,6.38l.39,1.91c.39,1.9,1.46,4.19,4,3.58a6.07,6.07,0,0,0,1.92-1Z"/><path class="cls-1" d="M407.92,44.06a2.22,2.22,0,0,1-2.25,1,8,8,0,0,1-3.24-1.48,7.37,7.37,0,0,0,2.17.45,1.71,1.71,0,0,0,1.22-.29,1.37,1.37,0,0,0,.39-.69,4.32,4.32,0,0,0,.16-.93,24.88,24.88,0,0,0-.15-2.74,4.18,4.18,0,0,0-.59-2.48,4.66,4.66,0,0,0-.51-.45,8.28,8.28,0,0,0-1.9-.92.6.6,0,0,0-.19-.06c-.38-.12-.78-.21-1.17-.3l-2.42-.56a21.34,21.34,0,0,1,3.72.59c.64.14,1.28.3,1.9.5a2,2,0,0,0,.26.09,4.45,4.45,0,0,1,2,1.31A4.66,4.66,0,0,1,408,39.9c0,.92.06,1.84.08,2.77A3,3,0,0,1,407.92,44.06Z"/><path class="cls-1" d="M398.08,41.4a5.45,5.45,0,0,0-1.06.25,12.37,12.37,0,0,0-2.54,1.41c-1,.65-2,1.3-3,2h0l0,0a6.4,6.4,0,0,1-1.42.74,2.41,2.41,0,0,1-2.57-.79.72.72,0,0,0,.54.06c1.8-.52,3.21-1.87,4.88-2.7l.09,0a9.5,9.5,0,0,1,1.4-.54,8.31,8.31,0,0,1,1.12-.27A8,8,0,0,1,398.08,41.4Z"/><path class="cls-4" d="M390.72,40.75c.31.12.67,0,1-.56.67-1.19-.59-3.37-1.61-2a1.75,1.75,0,0,0-.15,1.34A1.58,1.58,0,0,0,390.72,40.75Z"/><path class="cls-13" d="M390,38.36c-.08.24.12.85.46.68s.13-.75-.11-.83S390.08,38.23,390,38.36Z"/><path class="cls-4" d="M400.26,40.75c.31.12.67,0,1-.56.67-1.19-.59-3.37-1.61-2a1.79,1.79,0,0,0-.15,1.34A1.61,1.61,0,0,0,400.26,40.75Z"/><path class="cls-13" d="M399.58,38.36c-.08.24.13.85.47.68s.13-.75-.12-.83S399.62,38.23,399.58,38.36Z"/><path class="cls-47" d="M401.58,34.91l-3.36,6.51-.14,0a5.45,5.45,0,0,0-1.06.25,12.37,12.37,0,0,0-2.54,1.41c-1,.65-2,1.3-3,2a20.17,20.17,0,0,0,1.47-2.7c.33-.69.61-1.38.87-2.09.37-1,.65-2,1.09-3s.54-1.77.9-2.63A23.52,23.52,0,0,1,401.58,34.91Z"/><path class="cls-47" d="M405.32,35.81c-.06.22-.13.46-.2.66A2.83,2.83,0,0,1,405,37c-.27.69-.56,1.36-.87,2-.67,1.46-1.51,2.85-2.11,4.34-.72-.4-1.36-.92-2.07-1.31L403,35.49c.05-.08.09-.18.13-.26h0c.64.14,1.28.3,1.9.5A2,2,0,0,0,405.32,35.81Z"/><path class="cls-1" d="M369,141.41a32.38,32.38,0,0,0-4.08,9l-4.38.45-6,.61c0-4.46-6.05-6.34-7.23-10.58-.7-2.51.46-5.45-.53-7.85-.32-.77-.83-1.43-1.18-2.2-1.22-2.74.14-6,.55-9.1.68-5.17-1.8-10.44-.07-15.55.8-2.37,2.14-4.57,3.18-6.88,1.41-3.16,2.21-6.49,3.31-9.75A62.37,62.37,0,0,1,358.51,77a15,15,0,0,1,4.55-5.15,7,7,0,0,1,3-1,4.48,4.48,0,0,1,3.42.86c1.4,1.16,1.71,3.14,1.95,5a69.65,69.65,0,0,1,.83,13.93c-.46,6.33-2.59,12.72-1.81,18.93.2,1.59.71,3.31.42,5-.34,1.92-1.67,2.74-2.42,4.39-1.69,3.71,2.47,2.93,1.44,6.67-.77,2.76,2.07,4.92,2.55,7.66S370.72,138.83,369,141.41Z"/><path class="cls-38" d="M350.66,105.34c.24,1.13,1.58,1.56,2.69,1.87a25.29,25.29,0,0,1,9.58,5.13l-7.9.4c-1.57.09-3.56.53-3.78,2.08-.23,1.7,1.93,2.64,3.64,2.75s3.86.32,4.45,1.92a7.32,7.32,0,0,0-5,1.27c-1.34,1.12-1.83,3.38-.6,4.62a7.15,7.15,0,0,1,1.23,1.16c.77,1.25-.53,2.81-.33,4.25s1.79,2.26,2.78,3.37c2,2.2,1.47,5.57,1.46,8.52a21,21,0,0,0,1.65,8.2l-6,.61c0-4.46-6.05-6.34-7.23-10.58-.7-2.51.46-5.45-.53-7.85-.32-.77-.83-1.43-1.18-2.2-1.22-2.74.14-6,.55-9.1.68-5.17-1.8-10.44-.07-15.55.8-2.37,2.14-4.57,3.18-6.88,1.41-3.16,2.21-6.49,3.31-9.75A62.37,62.37,0,0,1,358.51,77a15,15,0,0,1,4.55-5.15,7,7,0,0,1,3-1c-2.63,2.29-3.92,6-4.37,9.49-.53,4-.2,8.17-.93,12.19s-2.86,8.11-6.62,9.66C352.51,102.84,350.29,103.67,350.66,105.34Z"/><path class="cls-45" d="M372.37,183.53a5,5,0,0,1-2.43-2.89,12.69,12.69,0,0,0-.59-2.11c-.18-.45-.89-1.27-.89-1.72,0,2.39-.74,4.64-.45,7a43.05,43.05,0,0,0,2.08,7.44,1.13,1.13,0,0,1,.08.6,1,1,0,0,1-1.24.66,2.45,2.45,0,0,1-1.19-.87c.36.51-.26,1.29-.91,1.35a2.3,2.3,0,0,1-1.67-.75,9.73,9.73,0,0,1-2.2-2.93l-.15,1.29c-.6.28-1.12-.39-1.35-1-1.17-2.9-2.21-5.76-3.11-8.7-.33-1.07-.65-2.16-.93-3.27s-.77-2-1-3a12.06,12.06,0,0,1-.17-3.56c.17-3.6,1-7.49.15-11-.79-3.25-1.41-6.58-2-9.88a23.62,23.62,0,0,1,12-4.18l-.39,8.69a25.18,25.18,0,0,0,.09,4.76,23.78,23.78,0,0,0,1.8,5.52c1.15,2.73,3.52,4.76,4.36,7.55.73,2.2.68,4.58,1,6.87C373.33,180.13,374.55,184.92,372.37,183.53Z"/><path class="cls-1" d="M387.36,67.56c.45.2,1,.72.64,1.07a.81.81,0,0,1-.32.16c-3,.81-5.78-1.22-7.17-3.79a3.68,3.68,0,0,1-.13-3.55C382.59,63.74,384.4,66.23,387.36,67.56Z"/><path class="cls-38" d="M391.58,217.69c-.23-.87-.49-1.76-.72-2.64.31.46.6.91.9,1.38C391.69,216.85,391.64,217.27,391.58,217.69Z"/><path class="cls-35" d="M400.78,192.45c3,2.25,7.17,5.06,6.13,9.37a24.32,24.32,0,0,1-9.77-10.17C398.49,191.07,399.57,191.56,400.78,192.45Z"/><path class="cls-35" d="M390.52,97.81c5.67,1.84,8.56.44,13.56-2.22a2,2,0,0,0,.59-.43,1.2,1.2,0,0,0-.47-1.63,3.18,3.18,0,0,0-1.86-.28c-7.84.51-14.5.72-22.21-1.19C382.67,95.17,386.7,96.56,390.52,97.81Z"/><path class="cls-35" d="M405.47,109.35c-4.59,1.53-9.09,2-13.46-.59-.19-.11-.39-.25-.43-.45-.11-.47.54-.7,1-.72,3.72-.16,7.62-1.13,11.3-1a4.05,4.05,0,0,1,2.05.26,1.37,1.37,0,0,1,.69,1.74A2,2,0,0,1,405.47,109.35Z"/><path class="cls-35" d="M405.56,156.05c-5.62,3.87-12.61,5.49-19.14,3.34a4.73,4.73,0,0,1-2.28-1.32,1.88,1.88,0,0,1,0-2.44,2.78,2.78,0,0,1,1.82-.56c4.37-.29,8.77.08,13.06-.82,2.06-.43,4.21-1,6.24-.43.55.16,1.16.53,1.17,1.1S406,155.78,405.56,156.05Z"/><path class="cls-35" d="M378.55,219.39a10.06,10.06,0,0,0,7-2.11.88.88,0,0,0,.06-1.25,2.52,2.52,0,0,0-1.22-.69L374.88,212c-1.42-.49-.87.24-2.36,0a7.62,7.62,0,0,0,9.17,6.46"/><path class="cls-38" d="M396.55,179.28c.83.18,1.89.58,1.85,1.44s-1,1.15-1.83,1.28c-6.22,1-18.76.33-17.06-9.41C385.08,175,390.55,178,396.55,179.28Z"/><path class="cls-35" d="M384.69,260.15c-2.47,4.05-8,4.68-12.21,3.29-1.94-.63-10.36-3.87-8.77-6.95.74-1.41,2.86-.87,4.31-.2A43.05,43.05,0,0,0,384.69,260.15Z"/><path class="cls-38" d="M395.09,105.27c.81.43,1.73,1.51,1,2a1.35,1.35,0,0,1-.62.18,13.23,13.23,0,0,1-5.52-.58c-.76-.25-1.81-.46-2.17.25a4.15,4.15,0,0,0-.15,1.12c-1.06,6.12-7.12-6.56-7.28-6.92a5.39,5.39,0,0,1-.67-2.6,2,2,0,0,1,1.63-1.88c.92-.06,1.64.74,2.28,1.42C386.54,101.47,391.3,103.29,395.09,105.27Z"/><path class="cls-38" d="M400.93,121.65c-2.17-.46-5.39,1.46-8.13.92a12.51,12.51,0,0,1-8.37-5.1,74.66,74.66,0,0,1,7.41,1.67A58.15,58.15,0,0,0,400.93,121.65Z"/><path class="cls-5" d="M375.63,312c-1,2.24-4.26,2.81-5,5.12-.56,1.75.62,3.29,1.83,4.86-3.2-.32-6.13-1.35-7.28-3.19-2.3-3.63,3.39-5.91,3.79-9.23.8-6.56-.79-13.17-1.31-19.71s-1.8-13.16-2.65-19.72a21.45,21.45,0,0,1,7.16-2.38c-2.44,2.57-1.59,7.12-.59,10.73a124.43,124.43,0,0,1,4.38,31A5.72,5.72,0,0,1,375.63,312Z"/><path class="cls-5" d="M428.69,318.22a3.45,3.45,0,0,1-1,.29c-6.15,1-12.64,1.91-18.25-.18a18,18,0,0,0-4.35-1.41c-3.05-.32-6.81,1.22-7.51-2.38-.64-3.33.95-6.7,1.09-10.06a69,69,0,0,0-.7-10.25q-.66-6.15-1-12.32a128.21,128.21,0,0,0-1.1-13.42c.22-.1.44-.18.67-.27,2.57,3.53,3.31,8.18,3.92,12.57q1.83,13.11,3.67,26.22a5.66,5.66,0,0,0,1.16,3.2,5.4,5.4,0,0,0,2.07,1.15,65.87,65.87,0,0,0,21.34,4.06h0a2,2,0,0,1,.36.94v0A3.16,3.16,0,0,1,428.69,318.22Z"/><path class="cls-48" d="M365.68,172.46c-.94.82-2.38.55-3.6.85a5.18,5.18,0,0,0-3.43,3.73,11.82,11.82,0,0,0-.3,3.94c-.33-1.07-.65-2.16-.93-3.27s-.77-2-1-3a12.06,12.06,0,0,1-.17-3.56c.17-3.6,1-7.49.15-11-.79-3.25-1.41-6.58-2-9.88a23.27,23.27,0,0,1,4.26-2.35c-.57,6.81,3.09,13.56,6.67,19.59C366.19,169.12,367,171.28,365.68,172.46Z"/></g></svg>