<?xml version="1.0" encoding="iso-8859-1"?>
<!-- Generator: Adobe Illustrator 19.0.0, SVG Export Plug-In . SVG Version: 6.00 Build 0)  -->
<svg version="1.1" id="Capa_1" xmlns="http://www.w3.org/2000/svg" xmlns:xlink="http://www.w3.org/1999/xlink" x="0px" y="0px"
	 viewBox="0 0 512 512" style="enable-background:new 0 0 512 512;" xml:space="preserve">
<polygon style="fill:#FFE370;" points="453.922,256 512,362.037 395.955,395.955 362.037,512 256,453.922 149.963,512 
	116.045,395.955 0,362.037 58.078,256 0,149.963 116.045,116.045 149.963,0 256,58.078 362.037,0 395.955,116.045 512,149.963 "/>
<polygon style="fill:#FFD100;" points="453.922,256 512,362.037 395.955,395.955 362.037,512 256,453.922 256,58.078 362.037,0 
	395.955,116.045 512,149.963 "/>
<path style="fill:#FFA720;" d="M401.119,256c0,80.016-65.103,145.119-145.119,145.119S110.881,336.016,110.881,256
	S175.984,110.881,256,110.881S401.119,175.984,401.119,256z"/>
<path style="fill:#FF8600;" d="M401.119,256c0,80.016-65.103,145.119-145.119,145.119V110.881
	C336.016,110.881,401.119,175.984,401.119,256z"/>
<g>
</g>
<g>
</g>
<g>
</g>
<g>
</g>
<g>
</g>
<g>
</g>
<g>
</g>
<g>
</g>
<g>
</g>
<g>
</g>
<g>
</g>
<g>
</g>
<g>
</g>
<g>
</g>
<g>
</g>
</svg>
