<svg xmlns="http://www.w3.org/2000/svg" height="512pt" version="1.1" viewBox="0 0 512 512" width="512pt">
<g id="surface1">
<path d="M 297.527344 267.710938 C 309.503906 279.753906 325.796875 286.507812 342.78125 286.464844 C 325.800781 286.488281 309.515625 279.738281 297.527344 267.710938 Z M 297.527344 267.710938 " style=" stroke:none;fill-rule:nonzero;fill:rgb(47.058824%,72.54902%,92.156863%);fill-opacity:1;" />
<path d="M 267.714844 297.527344 C 279.738281 309.511719 286.488281 325.800781 286.464844 342.78125 C 286.507812 325.796875 279.753906 309.503906 267.714844 297.527344 Z M 267.714844 297.527344 " style=" stroke:none;fill-rule:nonzero;fill:rgb(47.058824%,72.54902%,92.156863%);fill-opacity:1;" />
<path d="M 406.585938 222.566406 C 406.582031 226.128906 406.304688 229.691406 405.753906 233.210938 C 399.886719 268.003906 366.921875 291.457031 332.128906 285.585938 C 319.015625 283.375 306.921875 277.128906 297.527344 267.710938 C 287.910156 258.164062 281.636719 245.765625 279.636719 232.359375 C 266.234375 230.363281 253.835938 224.085938 244.285156 214.472656 C 219.328125 189.53125 219.3125 149.078125 244.253906 124.121094 C 253.652344 114.71875 265.742188 108.480469 278.851562 106.277344 C 282.371094 105.726562 285.933594 105.449219 289.496094 105.445312 L 331.355469 105.445312 L 372.007812 64.78125 C 266.367188 0.765625 128.832031 34.507812 64.816406 140.148438 C 21.640625 211.394531 21.640625 300.734375 64.816406 371.976562 L 105.480469 331.324219 L 105.480469 289.433594 C 105.480469 285.871094 105.757812 282.308594 106.3125 278.785156 C 112.207031 244 145.191406 220.578125 179.980469 226.476562 C 193.046875 228.691406 205.101562 234.914062 214.472656 244.285156 C 224.089844 253.835938 230.363281 266.234375 232.363281 279.636719 C 245.765625 281.636719 258.164062 287.910156 267.714844 297.527344 C 292.671875 322.46875 292.6875 362.921875 267.746094 387.878906 C 258.347656 397.28125 246.257812 403.515625 233.148438 405.722656 C 229.628906 406.273438 226.066406 406.550781 222.503906 406.550781 L 180.707031 406.550781 L 140.054688 447.238281 C 245.613281 511.339844 383.144531 477.730469 447.246094 372.171875 C 490.550781 300.859375 490.550781 211.367188 447.25 140.054688 L 406.585938 180.707031 Z M 406.585938 222.566406 " style=" stroke:none;fill-rule:nonzero;fill:rgb(100%,71.372549%,33.333333%);fill-opacity:1;" />
<path d="M 140.054688 447.238281 L 180.707031 406.585938 Z M 140.054688 447.238281 " style=" stroke:none;fill-rule:nonzero;fill:rgb(47.058824%,72.54902%,92.156863%);fill-opacity:1;" />
<path d="M 169.1875 225.503906 C 138.007812 225.535156 111.40625 248.070312 106.246094 278.820312 C 105.695312 282.339844 105.417969 285.902344 105.414062 289.464844 L 105.414062 331.324219 L 64.75 371.976562 L 0 436.707031 L 37.652344 474.347656 L 232.363281 279.636719 C 230.363281 266.234375 224.089844 253.835938 214.472656 244.285156 C 202.484375 232.242188 186.183594 225.480469 169.1875 225.503906 Z M 184.316406 274.378906 C 180.359375 270.335938 174.917969 268.089844 169.261719 268.171875 C 158.828125 268.136719 149.925781 275.703125 148.285156 286.007812 C 148.09375 287.140625 148.003906 288.285156 148.007812 289.433594 C 148.003906 288.285156 148.09375 287.140625 148.285156 286.007812 C 149.925781 275.703125 158.828125 268.136719 169.261719 268.171875 C 179.644531 268.132812 188.519531 275.628906 190.226562 285.867188 C 189.550781 281.5 187.476562 277.46875 184.316406 274.378906 Z M 184.316406 274.378906 " style=" stroke:none;fill-rule:nonzero;fill:rgb(90.196078%,90.588235%,90.980392%);fill-opacity:1;" />
<path d="M 75.292969 512 L 180.707031 406.585938 L 222.566406 406.585938 C 226.128906 406.582031 229.691406 406.304688 233.210938 405.753906 C 268.003906 399.886719 291.457031 366.921875 285.585938 332.128906 C 283.375 319.015625 277.128906 306.921875 267.710938 297.527344 C 258.164062 287.910156 245.765625 281.636719 232.359375 279.636719 L 37.652344 474.347656 Z M 165.652344 376.472656 L 158.125 384 Z M 135.527344 406.585938 L 75.292969 466.832031 Z M 135.527344 406.585938 " style=" stroke:none;fill-rule:nonzero;fill:rgb(94.509804%,94.901961%,94.901961%);fill-opacity:1;" />
<path d="M 436.707031 0 L 331.292969 105.414062 L 289.433594 105.414062 C 285.871094 105.417969 282.308594 105.695312 278.789062 106.246094 C 243.996094 112.113281 220.542969 145.078125 226.414062 179.871094 C 228.625 192.984375 234.871094 205.078125 244.289062 214.472656 C 253.835938 224.089844 266.234375 230.363281 279.640625 232.363281 L 474.347656 37.652344 Z M 346.347656 135.527344 L 353.875 128 Z M 376.472656 105.414062 L 436.707031 45.167969 Z M 376.472656 105.414062 " style=" stroke:none;fill-rule:nonzero;fill:rgb(90.196078%,90.588235%,90.980392%);fill-opacity:1;" />
<path d="M 474.347656 37.652344 L 279.640625 232.359375 C 281.636719 245.765625 287.914062 258.164062 297.527344 267.710938 C 322.46875 292.671875 362.921875 292.683594 387.878906 267.742188 C 397.28125 258.347656 403.519531 246.253906 405.722656 233.148438 C 406.273438 229.625 406.550781 226.066406 406.554688 222.5 L 406.554688 180.707031 L 447.21875 140.054688 L 511.96875 75.292969 Z M 363.863281 225.824219 C 362.230469 236.136719 353.320312 243.71875 342.878906 243.679688 C 332.503906 243.726562 323.632812 236.238281 321.933594 226.003906 C 323.632812 236.238281 332.503906 243.726562 342.878906 243.679688 C 353.320312 243.71875 362.230469 236.136719 363.863281 225.824219 C 364.054688 224.703125 364.144531 223.566406 364.140625 222.425781 C 364.144531 223.566406 364.054688 224.699219 363.863281 225.824219 Z M 363.863281 225.824219 " style=" stroke:none;fill-rule:nonzero;fill:rgb(94.509804%,94.901961%,94.901961%);fill-opacity:1;" />
<path d="M 158.65625 289.433594 L 137.359375 289.433594 C 137.355469 287.648438 137.503906 285.867188 137.804688 284.109375 C 140.339844 268.730469 153.652344 257.457031 169.238281 257.488281 L 169.472656 257.488281 C 185.058594 257.546875 198.304688 268.890625 200.757812 284.28125 L 179.683594 287.378906 C 179.347656 285.269531 178.324219 283.328125 176.777344 281.851562 C 174.851562 279.839844 172.171875 278.730469 169.386719 278.785156 L 169.300781 278.785156 C 164.058594 278.707031 159.566406 282.519531 158.792969 287.707031 C 158.695312 288.277344 158.648438 288.855469 158.65625 289.433594 Z M 158.65625 289.433594 " style=" stroke:none;fill-rule:nonzero;fill:rgb(73.72549%,74.509804%,75.294118%);fill-opacity:1;" />
<path d="M 342.738281 254.328125 C 327.128906 254.320312 313.832031 242.976562 311.371094 227.558594 L 332.433594 224.4375 C 332.773438 226.554688 333.800781 228.5 335.351562 229.976562 C 337.296875 231.992188 340.003906 233.097656 342.804688 233.03125 C 348.011719 232.933594 352.429688 229.179688 353.367188 224.054688 C 353.453125 223.511719 353.496094 222.964844 353.492188 222.414062 L 374.789062 222.414062 C 374.796875 224.171875 374.648438 225.921875 374.351562 227.652344 C 371.796875 243.039062 358.472656 254.304688 342.878906 254.273438 Z M 342.738281 254.328125 " style=" stroke:none;fill-rule:nonzero;fill:rgb(73.72549%,74.509804%,75.294118%);fill-opacity:1;" />
<path d="M 376.472656 116.054688 C 370.589844 116.050781 365.824219 111.285156 365.824219 105.402344 C 365.828125 102.582031 366.949219 99.875 368.941406 97.878906 L 429.179688 37.652344 C 433.265625 33.421875 440.003906 33.304688 444.234375 37.390625 C 448.464844 41.476562 448.582031 48.21875 444.496094 52.449219 C 444.410156 52.535156 444.324219 52.625 444.234375 52.707031 L 384 112.933594 C 382.007812 114.9375 379.296875 116.058594 376.472656 116.054688 Z M 376.472656 116.054688 " style=" stroke:none;fill-rule:nonzero;fill:rgb(73.72549%,74.509804%,75.294118%);fill-opacity:1;" />
<path d="M 346.347656 146.1875 C 340.46875 146.191406 335.695312 141.429688 335.691406 135.546875 C 335.691406 132.714844 336.816406 130 338.820312 128 L 346.347656 120.472656 C 350.511719 116.3125 357.253906 116.3125 361.414062 120.472656 C 365.578125 124.632812 365.578125 131.378906 361.414062 135.539062 L 353.886719 143.066406 C 351.886719 145.066406 349.175781 146.1875 346.347656 146.1875 Z M 346.347656 146.1875 " style=" stroke:none;fill-rule:nonzero;fill:rgb(73.72549%,74.509804%,75.294118%);fill-opacity:1;" />
<path d="M 75.292969 477.476562 C 69.410156 477.476562 64.644531 472.707031 64.644531 466.828125 C 64.648438 464.003906 65.769531 461.296875 67.761719 459.300781 L 128 399.078125 C 132.15625 394.917969 138.898438 394.914062 143.058594 399.074219 C 147.222656 403.230469 147.222656 409.972656 143.066406 414.132812 L 82.820312 474.359375 C 80.824219 476.355469 78.117188 477.476562 75.292969 477.476562 Z M 75.292969 477.476562 " style=" stroke:none;fill-rule:nonzero;fill:rgb(73.72549%,74.509804%,75.294118%);fill-opacity:1;" />
<path d="M 158.125 394.648438 C 152.242188 394.652344 147.472656 389.890625 147.46875 384.007812 C 147.464844 381.175781 148.589844 378.460938 150.59375 376.460938 L 158.125 368.933594 C 162.285156 364.773438 169.027344 364.777344 173.183594 368.9375 C 177.34375 373.097656 177.339844 379.84375 173.179688 384 L 165.652344 391.527344 C 163.65625 393.523438 160.945312 394.648438 158.125 394.648438 Z M 158.125 394.648438 " style=" stroke:none;fill-rule:nonzero;fill:rgb(73.72549%,74.509804%,75.294118%);fill-opacity:1;" />
</g>
</svg>