<svg id="Capa_1" enable-background="new 0 0 512 512" height="512" viewBox="0 0 512 512" width="512" xmlns="http://www.w3.org/2000/svg"><g><path d="m256 121.957c4.142 0 7.5-3.358 7.5-7.5v-11.008c0-4.142-3.358-7.5-7.5-7.5s-7.5 3.358-7.5 7.5v11.008c0 4.142 3.358 7.5 7.5 7.5z"/><path d="m368.767 142.996c-2.929-2.929-7.678-2.93-10.606 0l-7.784 7.783c-2.93 2.929-2.93 7.678-.001 10.607 1.465 1.464 3.384 2.197 5.304 2.197 1.919 0 3.839-.732 5.303-2.196l7.784-7.784c2.928-2.929 2.928-7.678 0-10.607z"/><path d="m396.728 248.501c-4.143 0-7.5 3.358-7.5 7.5s3.357 7.5 7.5 7.5h11.008c4.143 0 7.5-3.357 7.5-7.5s-3.357-7.5-7.5-7.5z"/><path d="m360.405 350.376c-2.93-2.928-7.678-2.928-10.607 0-2.929 2.93-2.929 7.678 0 10.607l7.783 7.783c1.465 1.464 3.385 2.196 5.304 2.196s3.839-.732 5.304-2.196c2.929-2.93 2.929-7.678 0-10.607z"/><path d="m247.683 396.729v11.008c0 4.143 3.358 7.5 7.5 7.5s7.5-3.357 7.5-7.5v-11.008c0-4.143-3.357-7.5-7.5-7.5s-7.5 3.357-7.5 7.5z"/><path d="m150.201 349.798-7.784 7.783c-2.929 2.929-2.929 7.678 0 10.606 1.464 1.465 3.384 2.197 5.303 2.197s3.839-.732 5.303-2.196l7.784-7.783c2.929-2.929 2.929-7.678 0-10.606-2.928-2.929-7.677-2.928-10.606-.001z"/><path d="m103.448 247.684c-4.142 0-7.5 3.358-7.5 7.5 0 4.143 3.358 7.5 7.5 7.5h11.008c4.142 0 7.5-3.357 7.5-7.5 0-4.142-3.358-7.5-7.5-7.5z"/><path d="m161.386 150.202-7.784-7.784c-2.93-2.929-7.677-2.928-10.607 0-2.929 2.929-2.928 7.678 0 10.607l7.784 7.783c1.465 1.465 3.384 2.197 5.303 2.197s3.839-.732 5.304-2.197c2.929-2.929 2.928-7.677 0-10.606z"/><path d="m276.098 274.768 53.422 27.47c3.706 1.906 8.216.422 10.1-3.24 1.895-3.684.443-8.205-3.24-10.1l-53.404-27.461c.354-1.759.542-3.577.542-5.438 0-12.573-8.479-23.196-20.017-26.47v-76.447c0-4.142-3.358-7.5-7.5-7.5s-7.5 3.358-7.5 7.5v76.447c-9.152 2.597-16.373 9.818-18.97 18.97h-37.227c-4.142 0-7.5 3.358-7.5 7.5s3.358 7.5 7.5 7.5h37.227c3.274 11.538 13.897 20.018 26.47 20.018 7.924.001 15.072-3.37 20.097-8.749zm-20.098-6.25c-6.902 0-12.518-5.615-12.518-12.518 0-6.902 5.615-12.518 12.518-12.518 6.902 0 12.517 5.615 12.517 12.518.001 6.903-5.615 12.518-12.517 12.518z"/><path d="m449.643 248.486c4.13-.316 7.222-3.92 6.906-8.051-3.859-50.393-26.432-97.172-63.562-131.721-37.324-34.73-85.973-53.857-136.987-53.857-110.91 0-201.143 90.232-201.143 201.143s90.233 201.143 201.143 201.143c104.896 0 192.524-80.806 200.548-185.576.315-4.13-2.775-7.734-6.906-8.051-4.113-.309-7.734 2.775-8.051 6.906-7.407 96.738-88.318 171.721-185.591 171.721-102.64 0-186.143-83.503-186.143-186.143s83.503-186.143 186.143-186.143c47.208 0 92.229 17.7 126.769 49.839 34.362 31.974 55.253 75.26 58.822 121.885.317 4.128 3.907 7.228 8.052 6.905z"/><path d="m437.02 74.981c-48.352-48.353-112.639-74.981-181.02-74.981-49.143 0-96.883 13.964-138.061 40.384-3.486 2.237-4.499 6.876-2.262 10.363 2.237 3.485 6.875 4.498 10.363 2.262 38.755-24.866 83.695-38.009 129.96-38.009 64.374 0 124.894 25.068 170.413 70.587s70.587 106.039 70.587 170.413c0 133.193-107.788 241-241 241-23.803 0-47.345-3.476-69.972-10.329-3.965-1.202-8.152 1.038-9.352 5.004-1.201 3.964 1.039 8.15 5.003 9.352 24.039 7.281 49.044 10.973 74.321 10.973 141.484 0 256-114.497 256-256 0-68.38-26.629-132.667-74.98-181.019z"/><path d="m158.756 476.559c-87.328-38.561-143.756-125.136-143.756-220.559 0-72.108 31.911-139.843 87.55-185.839 3.192-2.639 3.641-7.366 1.001-10.559-2.638-3.191-7.365-3.64-10.559-1.002-59.097 48.855-92.992 120.804-92.992 197.4 0 101.36 59.937 193.321 152.696 234.282.985.435 2.014.641 3.026.641 2.88 0 5.626-1.668 6.865-4.473 1.673-3.789-.042-8.217-3.831-9.891z"/></g></svg>