<svg xmlns="http://www.w3.org/2000/svg" height="769.333" viewBox="-18 -18 577.332 577" width="769.333" xmlns:v="https://vecta.io/nano"><path d="M473.848 3.715c-2.348-2.348-5.54-3.652-8.86-3.617a12.86 12.86 0 0 0-8.855 3.617l-179.4 179.4c-.246.375-.62.75-.87 1.12 0 .125-.125.125-.125.25l-.625.996c-.13.125-.13.254-.25.375l-.375 1c0 .125-.125.125-.125.246l-31.816 95.945c-1.523 4.465-.363 9.414 3 12.727 2.355 2.324 5.54 3.625 8.852 3.617a14.84 14.84 0 0 0 3.996-.625L354.1 266.83c.12 0 .12 0 .246-.125a4.44 4.44 0 0 0 1.121-.496.44.44 0 0 0 .254-.129c.37-.246.87-.496 1.246-.75s.746-.625 1.12-.87c.13-.12.25-.12.25-.25.125-.125.375-.25.504-.496L537.598 84.938a12.43 12.43 0 0 0 3.652-8.797 12.41 12.41 0 0 0-3.652-8.797zM291.695 214.313l35.3 35.3-52.902 17.6zm58.4 23.082l-46.164-46.16 161.066-161.07 46.16 46.16zm94.317-4.118c-6.883.02-12.457 5.594-12.477 12.477v233.184c-.06 20.645-16.777 37.363-37.43 37.43H62.383c-20.645-.066-37.37-16.785-37.43-37.43v-332.12c.06-20.645 16.785-37.367 37.43-37.43H295.56c6.895 0 12.477-5.586 12.477-12.477s-5.582-12.477-12.477-12.477H62.383C27.934 84.45.016 112.37 0 146.816v332.12c.016 34.445 27.934 62.367 62.383 62.38h332.113c34.45-.012 62.37-27.934 62.383-62.38V245.754c-.02-6.883-5.594-12.457-12.477-12.477zm0 0"/></svg>