<?xml version="1.0" encoding="utf-8"?>
<!-- Generator: Adobe Illustrator 23.1.0, SVG Export Plug-In . SVG Version: 6.00 Build 0)  -->
<svg version="1.1" id="Warstwa_1" xmlns="http://www.w3.org/2000/svg" xmlns:xlink="http://www.w3.org/1999/xlink" x="0px" y="0px"
	 viewBox="0 0 225.6 733.1" style="enable-background:new 0 0 225.6 733.1;" xml:space="preserve">
<style type="text/css">
	.st0{fill-rule:evenodd;clip-rule:evenodd;fill:#FFCEA9;}
	.st1{fill-rule:evenodd;clip-rule:evenodd;fill:#2E4663;}
	.st2{fill-rule:evenodd;clip-rule:evenodd;}
	.st3{fill-rule:evenodd;clip-rule:evenodd;fill:#3B4161;}
	.st4{fill-rule:evenodd;clip-rule:evenodd;fill:#15192C;}
	.st5{fill-rule:evenodd;clip-rule:evenodd;fill:#F7D167;}
	.st6{fill:none;stroke:#737999;stroke-width:1.7;stroke-linecap:round;stroke-linejoin:round;}
	.st7{fill-rule:evenodd;clip-rule:evenodd;fill:#FFFFFF;}
	.st8{fill:none;stroke:#C9C9C9;stroke-width:2;stroke-linecap:round;stroke-linejoin:round;}
	.st9{fill:none;stroke:#353823;stroke-width:3.41;stroke-linecap:round;stroke-linejoin:round;}
	.st10{fill-rule:evenodd;clip-rule:evenodd;fill:#353823;}
	
		.st11{fill-rule:evenodd;clip-rule:evenodd;fill:#606060;stroke:#C9C9C9;stroke-width:2;stroke-linecap:round;stroke-linejoin:round;}
	.st12{fill-rule:evenodd;clip-rule:evenodd;fill:#C9C9C9;}
	.st13{fill:none;stroke:#A7464F;stroke-width:3.41;stroke-linecap:round;stroke-linejoin:round;}
	.st14{fill:none;stroke:#A94B53;stroke-width:3.41;stroke-linecap:round;stroke-linejoin:round;}
	.st15{fill-rule:evenodd;clip-rule:evenodd;fill:#B5545C;}
	.st16{fill:none;stroke:#FFFFFF;stroke-width:3.41;stroke-linecap:round;stroke-linejoin:round;}
	.st17{fill:none;stroke:#4C4FD9;stroke-width:1.7;stroke-linecap:round;stroke-linejoin:round;}
</style>
<g id="Layer_2">
	<g id="Layer_1-2">
		<path class="st0" d="M138.3,664.6l-8.7,28.7l-34.9,1.3l-2.3-43.1L138.3,664.6z"/>
		<path class="st1" d="M93.2,689.6v37.7l94.3,2.1c0,0-2.7-26.9-50.9-27.4c0.2-11.8,0.2-12.4,0.2-12.4L93.2,689.6L93.2,689.6z"/>
		<path class="st0" d="M50.2,670.1l0.7,28.2l36.4,1.3l9.5-31.4L50.2,670.1z"/>
		<path class="st2" d="M105.2,0C144.8,0,153,37.6,153,51.5c0,13.2-2.6,15.2-2.5,28.5c0.1,10.1,3,17.2,2.7,23
			c-1.6,30-42.1,38.7-53.7,38.8s-62-9.6-62-32.9c0-16.3,10.3-42.3,10.1-60.4C47.1,11,78.5,0,105.2,0z"/>
		<path class="st1" d="M50,693.3l0.5,37.7l92.5,2.1c0,0,0-27.5-50.7-28v-11.8H50z"/>
		<path class="st3" d="M40.9,410.5l0.2,263.7l66.1-1.4l1-12.2l42.6,5.8l27.1-275L163.3,321l-96.6-2.6L40.9,410.5z"/>
		<path class="st4" d="M118.8,522.6l39.7,66.6l-7.5,76.4l-42.7-5L118.8,522.6z"/>
		<path class="st5" d="M91,342h70.2l9.5-103.8L158,158.7l-24-23.1l-24-10.7l-43.4,6.6L91,342z"/>
		<path class="st6" d="M63.4,673.8l0.5-280.5"/>
		<path class="st7" d="M78.9,123.6c-16.4,0.4-65.4,18.2-72.6,36.3c-5.4,13.7-9.2,137.7,3.6,143.7c0.8,0.4,1.7,0.7,2.6,0.9
			c-0.8,3.8-8.1,91.8-6.3,99.1s6.8,18.4,13.9,18c27.5-1.7,78.1-37.8,83.1-43.7c0.8-11.2,2.9-53.1,2.9-53.1l-4.4-124.4L76.6,132
			C76.6,132,95.3,123.1,78.9,123.6z"/>
		<path class="st7" d="M114.7,122.8c28.2,3.5,68.1,25.4,73.2,35.4c4.3,8.4,2.1,116.9,2.1,116.9s-16,22-8.8,53.5
			c6.6,29.1,8.6,68.4,1.6,75.8c-11.4-5.8-26.1-29-28.8-34.7s-3.3-38.1-5.4-45s-11.2-129.4-11.2-129.4S133.3,145.7,114.7,122.8z"/>
		<path class="st8" d="M43.6,133.2c14.2,25.9,43,55.4,57.8,66.7"/>
		<path class="st8" d="M129,125.8c12.6,17.1,15.9,46,6,75.5"/>
		<path class="st9" d="M58,205.6c0-6.2,5-11.3,11.3-11.3s11.3,5,11.3,11.3c0,6.2-5,11.3-11.3,11.3l0,0C63,216.9,58,211.8,58,205.6z"
			/>
		<path class="st10" d="M63.5,205.6c0-3.2,2.6-5.8,5.7-5.8c3.2,0,5.8,2.6,5.8,5.8s-2.6,5.8-5.8,5.8l0,0
			C66.1,211.4,63.5,208.8,63.5,205.6z"/>
		<path class="st9" d="M66.2,194.8c-7.6-27.9-8.1-66.8,11.5-73.8"/>
		<path class="st9" d="M112,116.2c11.2,4.7,21.9,26.6,24.4,45.3"/>
		<path class="st9" d="M124.3,196.7c-3.6-17.3,1.8-33,12.1-35.2s21.4,10.2,25,27.5s-1.8,33-12.1,35.1S127.8,214,124.3,196.7z"/>
		<path class="st8" d="M54.6,169.5l-4.3,84.1"/>
		<path class="st8" d="M42.5,172l11.2,15.7"/>
		<path class="st11" d="M80,246.9l-43.2,10.3"/>
		<path class="st8" d="M39,245.7l11,8.4"/>
		<path class="st8" d="M81.6,295.6c-18.2,7.3-61.3,16-69.4,8.8c-10.9-9.7-14-109.7-8.5-136.2c3.2-15.4,19.3-25.4,27.7-29.4"/>
		<path class="st8" d="M68.7,299.9c-5.2-6.6-7.2-39.3-4.7-49.2"/>
		<path class="st12" d="M69.2,257.2c0-1.5,1.2-2.6,2.6-2.6c1.5,0,2.6,1.2,2.6,2.6c0,1.5-1.2,2.6-2.6,2.6l0,0
			C70.4,259.8,69.2,258.6,69.2,257.2L69.2,257.2z"/>
		<path class="st8" d="M64.4,337.5c-5.7,2.2-11.8,3.4-18,3.4c-4.6,0-9.1-0.7-13.5-2c-0.3,1.3-0.5,2.6-0.5,3.9v20.9
			c0,9.1,7.4,16.5,16.5,16.5s16.5-7.4,16.5-16.5v-20.9C65.4,340.9,65,339.1,64.4,337.5z"/>
		<path class="st1" d="M128.4,190.5h86.2c5.2,0,8.4,4.1,7,9.1l-33.3,122.5c-1.7,5.3-6.5,8.9-12,9.1H90.2c-5.2,0-8.3-4.1-7-9.1
			l33.3-122.5C118.1,194.4,122.9,190.7,128.4,190.5z"/>
		<path class="st3" d="M152.2,184.2h48.9c1.8-0.1,3.3,1.2,3.5,3c0,0.5,0,1-0.2,1.4l-2.4,8.3c-0.8,2.5-3.1,4.3-5.8,4.4h-48.9
			c-1.8,0.1-3.3-1.2-3.5-3c0-0.5,0-0.9,0.2-1.4l2.4-8.3C147.3,186.1,149.6,184.3,152.2,184.2z"/>
		<path class="st0" d="M79.8,252.9c3.8-2.2,7.9-4,12.1-5.3c6.1-5,10.5-24.8,12.1-26s7-0.4,7.2,1.4c0.7,6.9,0.3,14.9-5.7,22
			c17.7-11.2,19-16.2,23.9-12.4s6.6,22.1,2.4,29.7c-11.5,20.9-41.7,23.8-50.9,23.9C78.5,276.3,78.5,264.2,79.8,252.9z"/>
		<path class="st6" d="M41.2,653.7l68.3-2.2"/>
		<path class="st6" d="M129.2,386.6l-20.9,273.9"/>
		<path class="st6" d="M110,638.6l43.1,5.1"/>
		<path class="st6" d="M164.6,527.4c-9.9,1-18.6-6.2-19.6-16.1s6.2-18.6,16.1-19.6c2.4-0.2,4.7,0,7,0.7"/>
		<path class="st6" d="M117.7,539.7c-10.9-0.6-19.3-9.9-18.7-20.8c0.6-10.5,9.3-18.7,19.8-18.7c0.7,0,1.3,0,1.9,0.1"/>
		<path class="st13" d="M132.4,238.1l-15.5,12.4"/>
		<path class="st13" d="M134,250.9l-19.6,15.6"/>
		<path class="st0" d="M220.2,250.3c-0.2-4.1,1-13.3,4.7-22c1.3-3.2,1.4-8.4-3.3-8.4c-5.4,0-12.5,10.8-9,23.6
			C216.1,256.3,220.5,256.1,220.2,250.3z"/>
		<path class="st0" d="M203.6,226.1c4.3,0,17.2,25.6,17.1,28.7s-1.4,7.8-3.4,7.6s-18.8-21.6-18.8-28.9
			C198.4,229.3,200.4,226.1,203.6,226.1z"/>
		<path class="st0" d="M198,240.8c5.3,0,19.3,20.4,19.4,22.8s-2.7,4.5-5.1,4.6s-19.1-13.6-19.1-20C193.2,244.3,195,240.8,198,240.8z
			"/>
		<path class="st0" d="M202.9,279c2.3-0.1,8.7-5.8,8.7-10.3c0-1.8-4.5-6.4-6.7-6.2s-6.8,8.8-6.7,10.9S199.9,279.1,202.9,279z"/>
		<path class="st13" d="M211.6,235.6c4.6,7.6,9.1,17.4,9.1,19.3"/>
		<path class="st14" d="M201.2,242.3c6.3,4.8,16.1,19.3,16.2,21.3"/>
		<path class="st0" d="M63.1,58.5C63.1,35.6,81.4,17,104,17s40.9,18.6,40.9,41.5S126.6,99.9,104,99.9S63.1,81.4,63.1,58.5z"/>
		<path class="st15" d="M97.9,61.5c0.4-2.6,2-4.6,3.6-4.3s2.4,2.6,2,5.2c-0.4,2.6-2,4.6-3.6,4.3S97.5,64.1,97.9,61.5z"/>
		<path class="st15" d="M128.8,63.5c0.4-2.5,1.9-4.3,3.3-4s2.3,2.4,1.9,4.9c-0.4,2.5-1.9,4.3-3.3,4S128.3,65.9,128.8,63.5z"/>
		<path class="st0" d="M69.3,76.7c2.4,6.8,8.5,41.9,7,54.7c6.4,9.7,34.9,7,43.4-1.2c-4.2-11.8-4.4-20.3-2.8-30.2
			C118.4,90.6,66.9,70,69.3,76.7z"/>
		<path class="st2" d="M120.2,16c0.3,9.9-8.6,19.3-33.1,23.9c2.7,6.9,2.9,17.3-10.4,19.2c-15.6,2.2-16.8-17.7-16.8-17.7l23.3-27.5
			C83.1,13.8,119.8,6.1,120.2,16z"/>
		<path class="st2" d="M112.8,9.1c-1,8.8,9.1,30,32.4,30.6C161.8,39.7,113.8,0.3,112.8,9.1z"/>
		<path class="st7" d="M85.8,98.5c-2.2-2.8,1-15.7,4.5-21.6c4.3-2.5,19.4-0.4,27.2-7.1c2.3-2,3.5-0.5,5.3,1.7
			c3.1,3.8,12.5,5.8,16.1,8c0.5,5.6-4.6,18.4-6.8,21.3C128.5,105.2,96.7,105.6,85.8,98.5z"/>
		<path class="st16" d="M92.4,78c-2.1-3.4-11.1-18.8-13.9-22.7"/>
		<path class="st16" d="M87.6,97.7c-6.1,0-20.6-19.1-22.2-25.4"/>
		<path class="st0" d="M56.1,61.9c0-7.4,6-13.3,13.3-13.3c7.4,0,13.3,6,13.3,13.3s-6,13.3-13.3,13.3l0,0
			C62,75.2,56.1,69.3,56.1,61.9z"/>
		<path class="st17" d="M140.3,724.2l-89.9-0.6"/>
		<path class="st17" d="M142.2,728.6c-2.5-7.8-12.1-23.1-49.8-23.5v-3.8"/>
		<path class="st17" d="M50.4,713.2c9.4,0,17,7.6,17,17c0,0.5,0,0.9,0,1.3"/>
		<path class="st17" d="M102.3,713.7l4.4-7.6"/>
		<path class="st17" d="M112.7,715.5l3.8-7.5"/>
		<path class="st17" d="M122.6,717.5l3.3-6.1"/>
		<path class="st6" d="M104.7,351.6l46.7-1.5"/>
		<path class="st17" d="M50.1,698.1l42.3-0.7"/>
		<path class="st17" d="M93.2,694l43.5-0.3"/>
		<path class="st17" d="M185.2,722.8l-46.4-1"/>
		<path class="st17" d="M150.7,703.1l-4,7.1"/>
		<path class="st17" d="M157.3,704.7l-4,7.1"/>
		<path class="st17" d="M164.5,706.6l-4,7.1"/>
		<path class="st8" d="M32.5,419.2c-15,6.3-26.3-4.9-26.4-16s4.3-77.3,4.9-83.9"/>
		<path class="st8" d="M189.8,174c0.8-22.6-23.1-33-32.9-37.4"/>
		<path class="st8" d="M185.2,400c1.9-12.1,2-44.7-1.2-57.2"/>
	</g>
</g>
</svg>
