<svg id="icons" enable-background="new 0 0 64 64" height="512" viewBox="0 0 64 64" width="512" xmlns="http://www.w3.org/2000/svg"><path d="m47 19v7c0 .34-.01.67-.04 1h-5.96-18-5.96c-.03-.33-.04-.66-.04-1v-7h.01z" fill="#eac6bb"/><path d="m41 27h5.96c-.29 4.489-2.561 8.45-5.95 11h-.01z" fill="#eac6bb"/><path d="m23 38h18c-.63.479-1.3.899-2 1.27-2.09 1.1-4.47 1.73-7 1.73s-4.91-.63-7-1.73c-.7-.371-1.37-.8-2-1.27z" fill="#eac6bb"/><path d="m42.996 19v7c0 .34-.01.67-.04 1-.29 4.489-2.561 8.45-5.95 11h-.01c-.63.479-1.3.899-2 1.27-1.528.805-3.214 1.354-4.998 1.594.655.087 1.322.136 2.002.136 2.53 0 4.91-.63 7-1.73.7-.37 1.37-.79 2-1.27h.01c3.39-2.55 5.66-6.511 5.95-11 .03-.33.04-.66.04-1v-7z" fill="#d3b1a9"/><path d="m23 27h18v11h-18z" fill="#f5f7fa"/><path d="m47.01 7v12h-.01-29.99v-12c0-2.2 1.8-4 4-4h22c2.2 0 4 1.8 4 4z" fill="#4a89dc"/><path d="m43.01 3h-4.004c2.2 0 4 1.8 4 4v12h3.994.01v-12c0-2.2-1.8-4-4-4z" fill="#4a89dc"/><path d="m23 27v11c-3.39-2.55-5.67-6.511-5.96-11z" fill="#eac6bb"/><path d="m39 39.27v5.73l-7 7-7-7v-5.73c2.09 1.1 4.47 1.73 7 1.73s4.91-.63 7-1.73z" fill="#eac6bb"/><path d="m54 53v7c0 .55-.44 1-1 1h-42c-.55 0-1-.45-1-1v-7c0-4.42 3.58-8 8-8h7l7 7 7-7h7c4.42 0 8 3.58 8 8z" fill="#4a89dc"/><path d="m46 45h-4.004c4.42 0 8 3.58 8 8v7c0 .55-.44 1-1 1h4.004c.56 0 1-.45 1-1v-7c0-4.42-3.58-8-8-8z" fill="#4a89dc"/><g fill="#e6e9ed"><path d="m32.008 15.998c-.553 0-1-.447-1-1v-8c0-.553.447-1 1-1s1 .447 1 1v8c0 .553-.447 1-1 1z"/><path d="m36.008 11.998h-8c-.553 0-1-.447-1-1s.447-1 1-1h8c.553 0 1 .447 1 1s-.447 1-1 1z"/><path d="m42 39.006h-1c-.553 0-1-.447-1-1s.447-1 1-1h1c.553 0 1 .447 1 1s-.447 1-1 1z"/><path d="m23 39.006h-1c-.553 0-1-.447-1-1s.447-1 1-1h1c.553 0 1 .447 1 1s-.447 1-1 1z"/><path d="m23 28.005h-5.999c-.553 0-1-.447-1-1s.447-1 1-1h5.999c.553 0 1 .447 1 1s-.447 1-1 1z"/><path d="m46.999 28.005h-5.999c-.553 0-1-.447-1-1s.447-1 1-1h5.999c.553 0 1 .447 1 1s-.447 1-1 1z"/><path d="m37 32.002h-10c-.553 0-1-.447-1-1s.447-1 1-1h10c.553 0 1 .447 1 1s-.447 1-1 1z"/><path d="m37 35.001h-10c-.553 0-1-.447-1-1s.447-1 1-1h10c.553 0 1 .447 1 1s-.447 1-1 1z"/></g><path d="m41 39.006h-18c-.553 0-1-.447-1-1v-11.001c0-.553.447-1 1-1h18c.553 0 1 .447 1 1v11.001c0 .553-.447 1-1 1zm-17-2h16v-9.001h-16z" fill="#f5f7fa"/></svg>