<?xml version="1.0" encoding="iso-8859-1"?>
<!-- Generator: Adobe Illustrator 19.0.0, SVG Export Plug-In . SVG Version: 6.00 Build 0)  -->
<svg version="1.1" id="Capa_1" xmlns="http://www.w3.org/2000/svg" xmlns:xlink="http://www.w3.org/1999/xlink" x="0px" y="0px"
	 viewBox="0 0 368 368" style="enable-background:new 0 0 368 368;" xml:space="preserve">
<g>
	<g>
		<g>
			<path d="M184,0C82.544,0,0,82.544,0,184s82.544,184,184,184s184-82.544,184-184S285.456,0,184,0z M184,352
				c-92.64,0-168-75.36-168-168S91.36,16,184,16s168,75.36,168,168S276.64,352,184,352z"/>
			<path d="M264,176h-40V80c0-8.824-7.176-16-16-16h-47.992c0,0-0.008,0-0.016,0c-4.272,0-8.28,1.664-11.304,4.68
				C145.664,71.704,144,75.72,144,80v96h-40c-3,0-5.744,1.672-7.112,4.336s-1.136,5.872,0.6,8.312l80,112.008
				c1.504,2.104,3.928,3.352,6.512,3.352s5.008-1.248,6.512-3.352l80-112.008c1.736-2.44,1.976-5.648,0.6-8.312
				C269.736,177.672,267,176,264,176z M184,282.24L119.544,192H152c4.416,0,8-3.584,8-8V80l48-0.008V184c0,4.416,3.584,8,8,8h32.456
				L184,282.24z"/>
		</g>
	</g>
</g>
<g>
</g>
<g>
</g>
<g>
</g>
<g>
</g>
<g>
</g>
<g>
</g>
<g>
</g>
<g>
</g>
<g>
</g>
<g>
</g>
<g>
</g>
<g>
</g>
<g>
</g>
<g>
</g>
<g>
</g>
</svg>
