<svg xmlns="http://www.w3.org/2000/svg" width="472.617" height="472.617" xmlns:v="https://vecta.io/nano"><path d="M453.652 157.878a18.69 18.69 0 0 0-24.093-10.859c-9.648 3.647-14.5 14.436-10.857 24.088 17.96 47.44 16.837 99.245-3.163 145.88-20.53 47.865-58.47 84.874-106.837 104.206s-101.36 18.674-149.227-1.854a196.67 196.67 0 0 1-38.719-22.068c-29.116-21.332-51.765-50.43-65.5-84.77-19.333-48.363-18.68-101.358 1.85-149.23 20.53-47.866 58.477-84.876 106.842-104.212 46.28-18.496 96.796-18.64 143.004-.635L293.72 80.786c-3.638 6.144-.842 10.244 6.202 9.104l62.9-10.156c7.048-1.14 10.868-7.582 8.474-14.307l-21.34-60.05c-2.4-6.726-7.324-7.2-10.957-1.062l-12.77 21.56c-56.603-23.77-119.088-24.33-176.16-1.518-57.63 23.04-102.842 67.138-127.3 124.18s-25.25 120.202-2.2 177.836c16.36 40.93 43.344 75.597 78.048 101.015 14.158 10.37 29.605 19.205 46.137 26.292 57.044 24.46 120.195 25.25 177.827 2.218 57.64-23.034 102.85-67.142 127.312-124.188 23.833-55.563 25.172-117.305 3.77-173.833zm-225.54-66.96a15.13 15.13 0 0 0-15.128 15.13v150.745l137.872 71.272c2.22 1.148 4.593 1.693 6.93 1.688 5.478 0 10.765-2.98 13.455-8.183 3.833-7.424.93-16.55-6.5-20.4l-121.496-62.8V106.047a15.13 15.13 0 0 0-15.135-15.13z"/></svg>