<?xml version="1.0" encoding="utf-8"?>
<!-- Generator: Adobe Illustrator 23.1.0, SVG Export Plug-In . SVG Version: 6.00 Build 0)  -->
<svg version="1.1" id="Capa_1" xmlns="http://www.w3.org/2000/svg" xmlns:xlink="http://www.w3.org/1999/xlink" x="0px" y="0px"
	 viewBox="0 0 512 512" style="enable-background:new 0 0 512 512;" xml:space="preserve">
<style type="text/css">
	.st0{fill:#2E4663;}
</style>
<g>
	<g>
		<path class="st0" d="M510.1,249.9c-4-5.9-100.9-143.3-254.1-143.3C124.6,106.7,7.4,243.3,2.5,249.1c-3.3,4-3.3,9.8,0,13.8
			c4.9,5.8,122,142.4,253.5,142.4s248.6-136.6,253.5-142.4C512.6,259.2,512.8,253.9,510.1,249.9z M256,384
			C150.6,384,50.4,283.5,25,256c25.4-27.5,125.5-128,231-128c123.3,0,210.3,100.3,231.6,127.4C463,282.1,362.3,384,256,384z"/>
	</g>
</g>
<g>
	<g>
		<path class="st0" d="M256,170.7c-47.1,0-85.3,38.3-85.3,85.3s38.3,85.3,85.3,85.3s85.3-38.3,85.3-85.3S303.1,170.7,256,170.7z
			 M256,320c-35.3,0-64-28.7-64-64s28.7-64,64-64s64,28.7,64,64S291.3,320,256,320z"/>
	</g>
</g>
</svg>
