<svg id="Capa_1" enable-background="new 0 0 512 512" height="512" viewBox="0 0 512 512" width="512" xmlns="http://www.w3.org/2000/svg"><g><path d="m401 402h-130v-92.728c78.455-7.569 140-73.865 140-154.272 0-85.467-69.532-155-155-155s-155 69.533-155 155c0 80.407 61.545 146.702 140 154.272v92.728h-130c-8.284 0-15 6.716-15 15s6.716 15 15 15h130v65c0 8.284 6.716 15 15 15s15-6.716 15-15v-65h130c8.284 0 15-6.716 15-15s-6.716-15-15-15zm-270-247c0-68.925 56.075-125 125-125s125 56.075 125 125-56.075 125-125 125-125-56.075-125-125z"/></g></svg>