<svg id="Capa_1" enable-background="new 0 0 512 512" height="512" viewBox="0 0 512 512" width="512" xmlns="http://www.w3.org/2000/svg"><path d="m453.788 160.356-19.821-26.222c-3.378-4.468-8.737-7.135-14.336-7.135h-133.132v-33.102c12.861-9.474 21.227-24.724 21.227-41.897 0-28.673-23.306-52-51.951-52-28.646 0-51.952 23.327-51.952 52 0 17.393 8.585 32.808 21.727 42.253v68.247h-73.554c-4.143 0-7.5 3.357-7.5 7.5s3.357 7.5 7.5 7.5h73.554v59h-133.086c-.937 0-1.83-.449-2.391-1.201l-19.91-26.7c-.897-1.203-.887-2.876.026-4.066l19.819-25.86c.563-.734 1.448-1.172 2.369-1.172h24.616c4.143 0 7.5-3.357 7.5-7.5s-3.357-7.5-7.5-7.5h-24.614c-5.555 0-10.89 2.633-14.273 7.046l-19.821 25.861c-4.974 6.491-5.034 15.603-.146 22.158l19.911 26.7c3.378 4.53 8.767 7.234 14.415 7.234h133.084v172.5h-23.554c-15.163 0-27.5 12.337-27.5 27.5v53c0 4.143 3.357 7.5 7.5 7.5h150c4.143 0 7.5-3.357 7.5-7.5v-53c0-15.163-12.337-27.5-27.5-27.5h-25.496v-53c0-4.143-3.357-7.5-7.5-7.5s-7.5 3.357-7.5 7.5v53h-30.95v-322.283c9.714 3.081 21.28 3.019 30.95-.158v234.441c0 4.143 3.357 7.5 7.5 7.5s7.5-3.357 7.5-7.5v-121h58.496c4.143 0 7.5-3.357 7.5-7.5s-3.357-7.5-7.5-7.5h-58.496v-58h133.131c.925 0 1.812.441 2.37 1.181l19.821 26.221c.905 1.199.896 2.864-.027 4.051l-19.732 25.398c-.567.73-1.423 1.149-2.346 1.149h-39.722c-4.143 0-7.5 3.357-7.5 7.5s3.357 7.5 7.5 7.5h39.722c5.589 0 10.762-2.532 14.19-6.947l19.732-25.396c5.076-6.532 5.138-15.702.15-22.301zm-141.793 278.644c6.893 0 12.5 5.607 12.5 12.5v45.5h-135v-45.5c0-6.893 5.607-12.5 12.5-12.5zm-93.173-387c0-20.402 16.577-37 36.952-37s36.951 16.598 36.951 37-16.576 37-36.951 37-36.952-16.598-36.952-37z"/></svg>