<?xml version="1.0" encoding="utf-8"?>
<!-- Generator: Adobe Illustrator 23.1.0, SVG Export Plug-In . SVG Version: 6.00 Build 0)  -->
<svg version="1.1" id="Capa_1" xmlns="http://www.w3.org/2000/svg" xmlns:xlink="http://www.w3.org/1999/xlink" x="0px" y="0px"
	 viewBox="0 0 512 512" style="enable-background:new 0 0 512 512;" xml:space="preserve">
<style type="text/css">
	.st0{fill:#2E4663;}
</style>
<g>
	<g>
		<path class="st0" d="M316.3,195.7c-4.2-4.2-10.9-4.2-15.1,0s-4.2,10.9,0,15.1c12.1,12.1,18.8,28.1,18.8,45.2c0,35.3-28.7,64-64,64
			c-17.1,0-33.2-6.7-45.2-18.8c-4.2-4.2-10.9-4.2-15.1,0c-4.2,4.1-4.2,10.9,0,15.1c16.1,16.1,37.5,25,60.3,25
			c47.1,0,85.3-38.3,85.3-85.3C341.3,233.2,332.5,211.7,316.3,195.7z"/>
	</g>
</g>
<g>
	<g>
		<path class="st0" d="M270.9,172.1c-4.8-0.9-9.8-1.5-14.9-1.5c-47.1,0-85.3,38.3-85.3,85.3c0,5.1,0.6,10,1.5,14.9
			c0.9,5.2,5.4,8.8,10.5,8.8c0.6,0,1.2,0,1.9-0.2c5.8-1,9.7-6.6,8.6-12.4c-0.7-3.6-1.2-7.3-1.2-11.2c0-35.3,28.7-64,64-64
			c3.8,0,7.5,0.5,11.2,1.1c5.7,1.2,11.3-2.9,12.4-8.6C280.5,178.7,276.7,173.2,270.9,172.1z"/>
	</g>
</g>
<g>
	<g>
		<path class="st0" d="M509.5,249.1c-2.4-2.9-60.1-70.2-139.7-111.4c-5.2-2.7-11.7-0.7-14.4,4.6c-2.7,5.2-0.7,11.7,4.6,14.4
			c61.3,31.7,110.3,81.3,127,99.4c-25.4,27.5-125.5,128-231,128c-35.8,0-71.9-8.6-107.3-25.7c-5.2-2.6-11.7-0.3-14.2,5
			c-2.6,5.3-0.3,11.7,5,14.2C177.8,396,217,405.3,256,405.3c131.4,0,248.6-136.6,253.5-142.4C512.9,258.9,512.8,253.1,509.5,249.1z"
			/>
	</g>
</g>
<g>
	<g>
		<path class="st0" d="M326,118.9c-24.3-8.2-47.8-12.3-70-12.3C124.6,106.7,7.4,243.3,2.5,249.1c-3.1,3.7-3.4,9-0.6,13
			c1.5,2.1,36.7,52.2,97.9,92.8c1.8,1.2,3.8,1.8,5.9,1.8c3.4,0,6.8-1.7,8.9-4.8c3.3-4.9,1.9-11.5-3-14.8
			c-44.9-29.8-75.6-65.9-87.1-80.5C49,229.9,149.7,128,256,128c19.9,0,41.1,3.8,63.2,11.2c5.6,2,11.6-1.1,13.5-6.7
			C334.6,126.9,331.6,120.8,326,118.9z"/>
	</g>
</g>
<g>
	<g>
		<path class="st0" d="M444.9,67.1c-4.2-4.2-10.9-4.2-15.1,0L67.1,429.8c-4.2,4.2-4.2,10.9,0,15.1c2.1,2.1,4.8,3.1,7.6,3.1
			s5.5-1,7.5-3.1L444.9,82.2C449,78.1,449,71.3,444.9,67.1z"/>
	</g>
</g>
</svg>
