<?xml version="1.0" encoding="utf-8"?>
<!-- Generator: Adobe Illustrator 23.1.0, SVG Export Plug-In . SVG Version: 6.00 Build 0)  -->
<svg version="1.1" id="Capa_1" xmlns="http://www.w3.org/2000/svg" xmlns:xlink="http://www.w3.org/1999/xlink" x="0px" y="0px"
	 viewBox="0 0 512 512" style="enable-background:new 0 0 512 512;" xml:space="preserve">
<style type="text/css">
	.st0{fill:#2E4663;}
</style>
<g>
	<g>
		<path class="st0" d="M0.8,260c0.5,1.3,1.3,2.5,2.3,3.5l170.6,170.7c4.2,4.2,10.9,4.2,15.1,0c4.2-4.2,4.2-10.9,0-15.1L36.4,266.6
			l464.9,0.1c5.9,0,10.7-4.8,10.7-10.7c0-5.9-4.8-10.7-10.7-10.7l-464.9-0.1L188.9,92.9c4.2-4.2,4.2-10.9,0-15.1
			c-2.1-2.1-4.8-3.1-7.6-3.1s-5.5,1-7.6,3.1L3.1,248.4c-1,1-1.7,2.2-2.3,3.5C-0.3,254.5-0.3,257.4,0.8,260z"/>
	</g>
</g>
</svg>
