<svg id="Capa_1" enable-background="new 0 0 512 512" height="512" viewBox="0 0 512 512" width="512" xmlns="http://www.w3.org/2000/svg"><g><circle cx="256" cy="256" fill="#f3d652" r="256"/><path d="m509.903 288.893c-39.532-39.534-131.093-131.092-131.093-131.092l-83.262-13.148-30-30.819-18.959 60.479-30.224-29.889-114.01 246.136s75.669 75.687 119.1 119.112c11.3 1.524 22.828 2.328 34.545 2.328 130.24 0 237.76-97.258 253.903-223.107z" fill="#e9bc3e"/><g><g><g><path d="m387.048 398.304c-41.986 0-120.87-51.424-120.87-94.882 0-22.798 18.959-49.086 18.959-132.712 0-20.908 17.01-37.918 37.918-37.918 56.645 0 94.794 66.881 94.794 123.233v113.753c0 17.076-10.918 28.526-30.801 28.526z" fill="#dc455b"/></g></g><g><path d="m125.085 398.304c-19.868 0-30.801-11.436-30.801-28.526v-113.753c0-19.956 4.055-39.261 12.054-57.377 15.688-35.533 44.136-65.855 82.74-65.855 20.908 0 37.918 17.01 37.918 37.918 0 83.618 18.959 109.925 18.959 132.712 0 43.402-78.831 94.881-120.87 94.881z" fill="#e27a4e"/></g><path d="m360.974 227.587h-16.298l16.014 64.056-18.396 4.601-17.898-71.589-68.327-33.886-.045.019-68.289 33.867-17.898 71.589-18.396-4.601 16.014-64.056h-16.292v-18.959h26.214l69.212-34.315v-60.479h18.959v60.479l69.206 34.315h26.22z" fill="#dc455b"/><path d="m360.974 227.587h-16.298l16.014 64.056-18.396 4.601-17.898-71.589-68.327-33.886-.045.019v-76.954h9.524v60.479l69.206 34.315h26.22z" fill="#b1004f"/></g></g></svg>