<svg id="Capa_1" enable-background="new 0 0 512 512" height="512" viewBox="0 0 512 512" width="512" xmlns="http://www.w3.org/2000/svg"><g><path d="m497 0h-280c-8.284 0-15 6.716-15 15s6.716 15 15 15h243.787l-173.168 173.168c-30.459-25.672-69.76-41.168-112.619-41.168-96.495 0-175 78.505-175 175s78.505 175 175 175 175-78.505 175-175c0-42.859-15.496-82.161-41.168-112.619l173.168-173.168v243.787c0 8.284 6.716 15 15 15s15-6.716 15-15v-280c0-8.284-6.716-15-15-15zm-322 482c-79.953 0-145-65.047-145-145s65.047-145 145-145 145 65.047 145 145-65.047 145-145 145z"/></g></svg>