<?xml version="1.0" encoding="iso-8859-1"?>
<!-- Generator: Adobe Illustrator 19.0.0, SVG Export Plug-In . SVG Version: 6.00 Build 0)  -->
<svg version="1.1" id="Capa_1" xmlns="http://www.w3.org/2000/svg" xmlns:xlink="http://www.w3.org/1999/xlink" x="0px" y="0px"
	 viewBox="0 0 512 512" style="enable-background:new 0 0 512 512;" xml:space="preserve">
<polygon style="fill:#FFE370;" points="464.8,266.75 409.59,367.56 102.41,367.56 47.2,266.75 141.85,239.09 169.51,144.44 
	256,191.81 256.37,191.61 342.49,144.44 370.15,239.09 "/>
<polygon style="fill:#FFD100;" points="464.8,266.75 409.59,367.56 256.37,367.56 256.37,191.61 342.49,144.44 370.15,239.09 "/>
<path style="fill:#FFA720;" d="M370.95,367.56h-229.9l0.1-15.1c0.2-30.52,12.24-59.18,33.89-80.7
	c21.67-21.53,50.42-33.38,80.96-33.38h0.37c30.4,0.1,59.01,11.94,80.59,33.38c21.65,21.52,33.69,50.18,33.89,80.7L370.95,367.56z"/>
<path style="fill:#FF8600;" d="M370.95,367.56H256.37V238.38c30.4,0.1,59.01,11.94,80.59,33.38c21.65,21.52,33.69,50.18,33.89,80.7
	L370.95,367.56z"/>
<rect y="337.56" style="fill:#DCCABA;" width="512" height="30"/>
<rect x="256.37" y="337.56" style="fill:#C5AA8F;" width="255.63" height="30"/>
<g>
</g>
<g>
</g>
<g>
</g>
<g>
</g>
<g>
</g>
<g>
</g>
<g>
</g>
<g>
</g>
<g>
</g>
<g>
</g>
<g>
</g>
<g>
</g>
<g>
</g>
<g>
</g>
<g>
</g>
</svg>
