<?xml version="1.0" encoding="iso-8859-1"?>
<!-- Generator: Adobe Illustrator 19.0.0, SVG Export Plug-In . SVG Version: 6.00 Build 0)  -->
<svg version="1.1" id="Capa_1" xmlns="http://www.w3.org/2000/svg" xmlns:xlink="http://www.w3.org/1999/xlink" x="0px" y="0px"
	 viewBox="0 0 469.333 469.333" style="enable-background:new 0 0 469.333 469.333;" xml:space="preserve">
<g>
	<g>
		<g>
			<path d="M298.667,277.333c-56.853,0-170.667,28.48-170.667,85.333v42.667h341.333v-42.667
				C469.333,305.813,355.52,277.333,298.667,277.333z"/>
			<path d="M298.667,234.667c47.147,0,85.333-38.293,85.333-85.333C384,102.187,345.813,64,298.667,64s-85.333,38.187-85.333,85.333
				C213.333,196.373,251.52,234.667,298.667,234.667z"/>
			<polygon points="170.667,192 106.667,192 106.667,128 64,128 64,192 0,192 0,234.667 64,234.667 64,298.667 106.667,298.667 
				106.667,234.667 170.667,234.667 			"/>
		</g>
	</g>
</g>
<g>
</g>
<g>
</g>
<g>
</g>
<g>
</g>
<g>
</g>
<g>
</g>
<g>
</g>
<g>
</g>
<g>
</g>
<g>
</g>
<g>
</g>
<g>
</g>
<g>
</g>
<g>
</g>
<g>
</g>
</svg>
