<?xml version="1.0" encoding="utf-8"?>
<!-- Generator: Adobe Illustrator 23.1.0, SVG Export Plug-In . SVG Version: 6.00 Build 0)  -->
<svg version="1.1" id="Capa_1" xmlns="http://www.w3.org/2000/svg" xmlns:xlink="http://www.w3.org/1999/xlink" x="0px" y="0px"
	 viewBox="0 0 490.8 490.8" style="enable-background:new 0 0 490.8 490.8;" xml:space="preserve">
<style type="text/css">
	.st0{fill:#F44336;}
	.st1{fill:#FFFFFF;}
</style>
<path class="st0" d="M135.7,3.1c-4.2-4.1-11-4-15.1,0.3c-4,4.1-4,10.7,0,14.8l227.1,227.1L120.6,472.5c-4.2,4.1-4.4,10.8-0.3,15.1
	c4.1,4.2,10.8,4.4,15.1,0.3c0.1-0.1,0.2-0.2,0.3-0.3l234.7-234.7c4.2-4.2,4.2-10.9,0-15.1L135.7,3.1z"/>
<path class="st1" d="M128.1,490.7c-5.9,0-10.7-4.8-10.7-10.6c0-2.8,1.1-5.6,3.1-7.6l227.1-227.1L120.6,18.2
	c-4.2-4.2-4.2-10.9,0-15.1s10.9-4.2,15.1,0l234.7,234.7c4.2,4.2,4.2,10.9,0,15.1L135.7,487.5C133.7,489.6,131,490.7,128.1,490.7z"/>
</svg>
