<svg id="icons" enable-background="new 0 0 64 64" height="512" viewBox="0 0 64 64" width="512" xmlns="http://www.w3.org/2000/svg"><path d="m43 40c3.87 0 7 3.131 7 7v.141 15.859h-12.99c1.1 0 2-.899 2-2v-.01c2.21-.01 3.99-1.79 3.99-4s-1.78-3.99-3.99-4v-3z" fill="#5d9cec"/><path d="m43 40h-4.004c3.87 0 7 3.131 7 7v.141 15.859h4.004v-15.859-.141c0-3.869-3.13-7-7-7z" fill="#4a89dc"/><path d="m20 63h-4c-1.101 0-2-.899-2-2v-4c3.319 0 6 2.681 6 6z" fill="#e6e9ed"/><path d="m46 18v5c0 5.58-3.271 10.4-8 12.65-1.82.87-3.851 1.35-6 1.35-2.141 0-4.181-.479-6-1.35-4.73-2.25-8-7.07-8-12.65v-.029-4.99l4-3.981s4.58 2 10 2c5.43 0 10-2 10-2z" fill="#eac6bb"/><path d="m42 14-.004.002v8.998c0 5.58-3.271 10.4-8 12.65-1.242.594-2.588.989-3.996 1.19.655.095 1.32.16 2 .16 2.149 0 4.18-.479 6-1.35 4.729-2.25 8-7.07 8-12.65v-5z" fill="#d3b1a9"/><path d="m39.01 60.99v.01c0 1.101-.9 2-2 2h-3.49-13.52c0-3.319-2.681-6-6-6v-7.01h21 4.01v3z" fill="#656d78"/><path d="m39 40-4 9.99h-21v-2.85-.14c0-3.869 3.14-7 7-7h5l3 2 3-1 3 1 3-2z" fill="#5d9cec"/><path d="m38 35.65v4.35l-3 2-3-1-3 1-3-2v-4.35c1.819.87 3.859 1.35 6 1.35 2.149 0 4.18-.479 6-1.35z" fill="#87bcf4"/><path d="m43 40-3.99 9.99h-4.01l4-9.99z" fill="#545c66"/><path d="m42.599 41.005.401-1.005h-4c1.318.001 2.547.372 3.599 1.005z" fill="#434a54"/><path d="m39.01 52.99c2.21.01 3.99 1.79 3.99 4s-1.78 3.99-3.99 4z" fill="#e6e9ed"/><path d="m46 12v6l-4-4s-4.57 2-10 2c-5.42 0-10-2-10-2l-4 3.98v-4.98c0-6.64 5.37-12 12-12h10v5c3.319 0 6 2.681 6 6z" fill="#965353"/><path d="m40 10c1.103 0 2 .897 2 2v2l4 4v-6c0-3.319-2.681-6-6-6v-5h-4v5c0 2.209 1.791 4 4 4z" fill="#844747"/></svg>