<svg id="Capa_1" enable-background="new 0 0 512 512" height="512" viewBox="0 0 512 512" width="512" xmlns="http://www.w3.org/2000/svg"><g><path d="m324.652 461.711c-4.553-17.085-20.153-29.711-38.652-29.711-22.056 0-40 17.944-40 40s17.944 40 40 40c18.684 0 34.413-12.879 38.787-30.224 50.193-3.325 92.174-44.053 103.316-93.105 20.853-4.818 39.259-19.074 48.469-40.145l12.021-27.493c15.456-35.371-.737-76.721-36.097-92.176l-21.496-9.399v-8.458c0-42.101-14.95-85.744-39.493-116.604l15.171-12.139c4.499-3.599 5.028-10.249 1.167-14.518-8.2-9.062-17.249-17.445-26.894-24.916-4.366-3.382-10.649-2.585-14.029 1.782-3.383 4.366-2.585 10.647 1.781 14.029 5.921 4.586 11.594 9.553 16.946 14.834l-31.508 25.21c-26.94-25.009-61.453-38.678-98.141-38.678-36.689 0-71.202 13.669-98.142 38.681l-31.507-25.209c34.601-34.104 81.274-53.472 129.649-53.472 11.915 0 23.837 1.153 35.433 3.427 5.419 1.061 10.675-2.469 11.738-7.889 1.063-5.419-2.47-10.674-7.889-11.737-12.861-2.522-26.078-3.801-39.282-3.801-57.541 0-112.886 24.69-151.845 67.74-3.866 4.272-3.327 10.922 1.167 14.518l15.171 12.139c-24.543 30.858-39.493 74.502-39.493 116.603v8.458l-21.495 9.399c-35.36 15.456-51.554 56.806-36.098 92.179l12.02 27.489c15.482 35.421 56.704 51.603 92.18 36.098l27.49-12.02c5.06-2.213 7.369-8.108 5.156-13.168l-59.253-135.526v-12.909c0-37.751 13.292-76.736 35.104-104.113l16.199 12.961c4.039 3.231 9.894 2.855 13.482-.905 23.963-25.112 56.002-38.943 90.215-38.943 34.212 0 66.252 13.831 90.216 38.944 3.581 3.752 9.434 4.143 13.481.905l16.199-12.961c21.812 27.377 35.104 66.362 35.104 104.112v12.911l-59.252 135.523c-2.213 5.06.096 10.956 5.156 13.168l27.491 12.021c7.391 3.231 15.042 5.056 22.665 5.636-11.307 38.85-45.04 68.381-82.408 71.452zm-38.652 30.289c-11.028 0-20-8.972-20-20s8.972-20 20-20 20 8.972 20 20-8.972 20-20 20zm-148.079-133.716-18.326 8.013c-25.316 11.066-54.775-.46-65.843-25.783l-12.019-27.488c-11.041-25.267.525-54.804 25.783-65.843l18.328-8.014zm254.485 8.013-18.328-8.014 52.078-119.115 18.329 8.014c25.256 11.04 36.821 40.576 25.782 65.841l-12.021 27.491c-11.04 25.26-40.577 36.825-65.84 25.783z"/><circle cx="336" cy="28" r="10"/></g></svg>