<svg height="512" viewBox="0 0 192 192" width="512" xmlns="http://www.w3.org/2000/svg"><path d="m80 0h32a8 8 0 0 1 8 8v24a0 0 0 0 1 0 0h-48a0 0 0 0 1 0 0v-24a8 8 0 0 1 8-8z"/><path d="m160 16h-32v16a8 8 0 0 1 -8 8h-48a8 8 0 0 1 -8-8v-16h-32a8 8 0 0 0 -8 8v160a8 8 0 0 0 8 8h128a8 8 0 0 0 8-8v-160a8 8 0 0 0 -8-8zm-60 40.259a31.988 31.988 0 0 1 27.384 37.986l-27.384-9.128zm-8 0v31.741a4 4 0 0 0 2.735 3.8l30.117 10.039a32 32 0 1 1 -32.852-45.58zm52 119.741h-96v-8h16v-16h16v16h8v-24h16v24h8v-32h16v32h16z"/></svg>