<svg id="Capa_1" enable-background="new 0 0 512 512" height="512" viewBox="0 0 512 512" width="512" xmlns="http://www.w3.org/2000/svg"><g><path d="m256 422c58.448 0 106-47.551 106-106s-47.552-106-106-106c-58.449 0-106 47.551-106 106s47.551 106 106 106zm-42.427-127.213 31.82 31.819 53.033-53.033 21.213 21.213-74.246 74.246-53.033-53.032z"/><path d="m512 90v-60h-60v-30h-30v30h-42.4v-30h-30v30h-42.4v-30h-30v30h-42.4v-30h-30v30h-42.4v-30h-30v30h-42.4v-30h-30v30h-60v60z"/><path d="m0 120v392h512v-392zm256 60c74.99 0 136 61.009 136 136s-61.01 136-136 136c-74.991 0-136-61.009-136-136s61.009-136 136-136z"/></g></svg>