<svg xmlns="http://www.w3.org/2000/svg" viewBox="0 0 512 512" xmlns:v="https://vecta.io/nano"><path d="M508.875 493.792L353.09 338.005c32.358-35.927 52.245-83.296 52.245-135.34C405.333 90.917 314.417 0 202.667 0S0 90.917 0 202.667s90.917 202.667 202.667 202.667c52.043 0 99.41-19.887 135.34-52.245l155.786 155.786c2.083 2.083 4.813 3.125 7.542 3.125s5.458-1.042 7.542-3.125c4.166-4.167 4.166-10.917-.001-15.083zM202.667 384c-99.98 0-181.333-81.344-181.333-181.333S102.688 21.333 202.667 21.333 384 102.677 384 202.667 302.646 384 202.667 384z"/></svg>