<?xml version="1.0" encoding="utf-8"?>
<!-- Generator: Adobe Illustrator 22.1.0, SVG Export Plug-In . SVG Version: 6.00 Build 0)  -->
<svg version="1.1" id="Warstwa_1" xmlns="http://www.w3.org/2000/svg" xmlns:xlink="http://www.w3.org/1999/xlink" x="0px" y="0px"
	 viewBox="0 0 809.89 263.853" enable-background="new 0 0 809.89 263.853" xml:space="preserve">
<g>
	<g>
		<g>
			<path fill="#000000" d="M334.469,81.516h28.051l17.779,34.501h0.251l7.138-34.501h23.531l-12.889,62.167h-26.911l-18.888-34.811
				h-0.177l-7.242,34.811h-23.53L334.469,81.516z"/>
			<path fill="#000000" d="M678.401,119.835l-9.577,7.149l-3.415,16.698h-24.533l12.887-62.167h24.551l-4.539,21.953l27.356-21.953
				h32.574l-32.738,24.037l22.199,38.13h-32.662L678.401,119.835z"/>
			<polygon fill="#000000" points="624.93,81.516 594.794,81.516 555.423,143.682 581.552,143.682 605.864,100.32 606.028,100.32 
				612.381,143.682 638.527,143.682 			"/>
			<polygon fill="#000000" points="300.491,96.684 321.405,96.684 324.568,81.516 299.99,81.516 287.117,143.682 311.666,143.682 
				320.222,102.427 			"/>
			<polygon fill="#000000" points="565.871,81.516 499.792,81.516 486.89,143.682 552.999,143.682 556.131,128.542 514.587,128.542 
				516.315,120.176 554.919,120.176 558.037,105.036 519.463,105.036 520.216,101.502 502.216,96.684 562.753,96.663 			"/>
			<path fill="#000000" d="M491.486,93.965c-0.295-2.653-1.197-4.93-2.751-6.784c-1.536-1.868-3.693-3.273-6.53-4.218
				c-2.809-0.968-6.4-1.448-10.745-1.448h-50.693l-12.888,62.167h24.549l4.018-19.323h26.308c4.285,0,8.068-0.538,11.319-1.603
				c3.252-1.081,6.002-2.58,8.262-4.488c2.261-1.913,4.095-4.166,5.483-6.737c1.39-2.594,2.396-5.365,2.97-8.337
				C491.545,99.723,491.766,96.649,491.486,93.965z M465.281,102.766c-0.458,2.27-1.448,3.896-2.941,4.914
				c-1.477,1.036-3.768,1.532-6.916,1.532h-15.844l1.773-8.565l-16.035-4.507h32.823c3.118,0,5.232,0.51,6.312,1.485
				C465.518,98.614,465.8,100.32,465.281,102.766z"/>
		</g>
		<g>
			<polygon fill="#00ADA5" points="234.932,111.294 202.548,143.682 267.357,143.682 			"/>
			
				<rect x="137.487" y="30.347" transform="matrix(0.7069 -0.7073 0.7073 0.7069 13.9846 117.8311)" fill="#00ADA5" width="23.386" height="23.386"/>
			<path fill="#00ADA5" d="M178.134,54.586l-89.12,89.096h33.076l27.268-27.268l27.859,27.891l45.358-45.367L178.134,54.586z
				 M177.216,111.242L165.88,99.899l12.284-12.297l11.35,11.336L177.216,111.242z"/>
			<polygon fill="#00ADA5" points="120.288,54.394 31.005,143.682 64.066,143.682 136.825,70.932 			"/>
		</g>
	</g>
	<g>
		<path fill="#000000" d="M451.132,156.281v5.642h-11.104v31.269h-6.866v-31.269h-11.155v-5.642H451.132z"/>
		<path fill="#000000" d="M477.908,178.77v14.422h-6.867v-36.91h11.257c2.519,0,4.676,0.26,6.471,0.778
			c1.796,0.52,3.268,1.247,4.416,2.183c1.148,0.937,1.991,2.055,2.527,3.356s0.804,2.736,0.804,4.302
			c0,1.242-0.183,2.416-0.549,3.522s-0.894,2.11-1.582,3.012c-0.689,0.902-1.541,1.693-2.553,2.374
			c-1.013,0.681-2.166,1.226-3.459,1.634c0.868,0.493,1.617,1.199,2.246,2.118l9.24,13.631h-6.177c-0.596,0-1.102-0.119-1.519-0.357
			s-0.771-0.578-1.06-1.021l-7.76-11.818c-0.289-0.442-0.608-0.758-0.957-0.945c-0.35-0.187-0.864-0.28-1.545-0.28H477.908z
			 M477.908,173.843h4.288c1.293,0,2.42-0.161,3.382-0.484c0.961-0.323,1.753-0.771,2.374-1.341
			c0.621-0.569,1.085-1.246,1.391-2.029c0.307-0.782,0.46-1.642,0.46-2.578c0-1.871-0.617-3.31-1.851-4.313
			c-1.234-1.004-3.118-1.506-5.654-1.506h-4.39V173.843z"/>
		<path fill="#000000" d="M552.009,193.191h-5.31c-0.596,0-1.085-0.148-1.468-0.446s-0.659-0.668-0.829-1.11l-2.757-7.53h-15.29
			l-2.757,7.53c-0.137,0.392-0.404,0.749-0.804,1.071c-0.4,0.324-0.89,0.485-1.468,0.485h-5.335l14.498-36.91h7.02L552.009,193.191z
			 M528.116,179.255h11.768l-4.492-12.278c-0.204-0.544-0.43-1.187-0.677-1.927s-0.489-1.545-0.728-2.412
			c-0.238,0.867-0.472,1.676-0.702,2.425c-0.229,0.749-0.455,1.403-0.676,1.965L528.116,179.255z"/>
		<path fill="#000000" d="M578.861,193.191h-6.892v-36.91h6.892V193.191z"/>
		<path fill="#000000" d="M606.838,156.319c0.204,0.026,0.387,0.077,0.549,0.153c0.161,0.077,0.318,0.188,0.472,0.332
			s0.323,0.336,0.511,0.574l19.374,24.684c-0.068-0.596-0.115-1.179-0.141-1.749c-0.025-0.569-0.038-1.102-0.038-1.595v-22.438h6.05
			v36.91h-3.548c-0.545,0-0.996-0.085-1.354-0.255s-0.706-0.477-1.046-0.919l-19.298-24.581c0.051,0.544,0.09,1.084,0.115,1.62
			s0.038,1.025,0.038,1.468v22.667h-6.05v-36.91h3.6C606.378,156.281,606.634,156.294,606.838,156.319z"/>
		<path fill="#000000" d="M679.661,156.281v5.463H663.3v10.235h12.89v5.284H663.3v10.439h16.361v5.488h-23.279v-36.91H679.661z"/>
		<path fill="#000000" d="M708.021,178.77v14.422h-6.867v-36.91h11.257c2.519,0,4.676,0.26,6.471,0.778
			c1.796,0.52,3.268,1.247,4.416,2.183c1.148,0.937,1.991,2.055,2.527,3.356s0.804,2.736,0.804,4.302
			c0,1.242-0.183,2.416-0.549,3.522s-0.894,2.11-1.582,3.012c-0.689,0.902-1.541,1.693-2.553,2.374
			c-1.013,0.681-2.166,1.226-3.459,1.634c0.868,0.493,1.617,1.199,2.246,2.118l9.24,13.631h-6.177c-0.596,0-1.102-0.119-1.519-0.357
			s-0.771-0.578-1.06-1.021l-7.76-11.818c-0.289-0.442-0.608-0.758-0.957-0.945c-0.35-0.187-0.864-0.28-1.545-0.28H708.021z
			 M708.021,173.843h4.288c1.293,0,2.42-0.161,3.382-0.484c0.961-0.323,1.753-0.771,2.374-1.341
			c0.621-0.569,1.085-1.246,1.391-2.029c0.307-0.782,0.46-1.642,0.46-2.578c0-1.871-0.617-3.31-1.851-4.313
			c-1.234-1.004-3.118-1.506-5.654-1.506h-4.39V173.843z"/>
	</g>
</g>
</svg>
