<svg id="Capa_1" enable-background="new 0 0 512 512" height="512" viewBox="0 0 512 512" width="512" xmlns="http://www.w3.org/2000/svg"><g><circle cx="256" cy="256" fill="#9cd6f4" r="256"/><path d="m327.481 102.434-61.221 20.476 20.064 20.475h-.54l-40-40.951h-40.379l-21-21.158-20.476 10.92c0 80.737 37.389 123.059 77.727 163.817-41.091 41.634-77.727 174.712-77.727 174.712l81.023 81.023c3.666.155 7.345.252 11.048.252 141.385 0 256-114.615 256-256 0-3.752-.098-7.48-.258-11.192l-163.532-163.533s-20.577 17.815-20.729 21.159z" fill="#7fa6fb"/><g><g><path d="m202.786 307.189h42.999v20.476h-42.999z" fill="#dc455b"/></g><g><path d="m174.803 389.091h70.982v20.476h-70.982z" fill="#dc455b"/></g><g><path d="m183.675 348.14h62.109v20.476h-62.109z" fill="#dc455b"/></g><g><path d="m202.786 184.336h42.999v20.476h-42.999z" fill="#7baf6b"/></g><g><path d="m183.675 143.385h62.109v20.476h-62.109z" fill="#7baf6b"/></g><g><path d="m174.803 102.434h70.982v20.476h-70.982z" fill="#7baf6b"/></g><g><path d="m266.26 307.189h42.999v20.476h-42.999z" fill="#558a66"/></g><g><path d="m266.26 348.14h62.792v20.476h-62.792z" fill="#558a66"/></g><g><path d="m266.26 389.091h70.982v20.476h-70.982z" fill="#558a66"/></g><g><path d="m266.26 102.434h70.982v20.476h-70.982z" fill="#b1004f"/></g><g><path d="m266.26 143.385h62.792v20.476h-62.792z" fill="#b1004f"/></g><g><path d="m266.26 184.336h42.999v20.476h-42.999z" fill="#b1004f"/></g><g><g><path d="m348.21 419.804v10.92h-20.475v-10.92c0-73.05-33.914-111.298-71.712-149.348-45.347-45.736-92.092-87.984-92.092-178.26v-10.92h20.475v10.92c0 72.995 33.86 111.244 71.617 149.267 45.803 46.056 92.187 88.392 92.187 178.341z" fill="#a4d772"/></g></g><path d="m348.21 419.804v10.92h-20.475v-10.92c0-73.05-33.914-111.298-71.712-149.348v-28.993c45.803 46.056 92.187 88.392 92.187 178.341z" fill="#7baf6b"/><g><path d="m348.21 81.275v10.92c0 85.131-39.654 125.522-92.188 178.342-37.757 38.023-71.617 76.271-71.617 149.267v10.92h-20.475v-10.92c0-89.41 45.585-131.351 92.092-178.26 37.798-38.05 71.712-76.299 71.712-149.348v-10.92h20.476z" fill="#e27a4e"/></g><path d="m348.21 81.275v10.92c0 85.131-39.654 125.522-92.188 178.342v-28.993c37.798-38.05 71.712-76.299 71.712-149.348v-10.92h20.476z" fill="#dc455b"/></g></g></svg>