<svg id="Capa_1" enable-background="new 0 0 512 512" height="512" viewBox="0 0 512 512" width="512" xmlns="http://www.w3.org/2000/svg"><g><circle cx="256" cy="256" fill="#9cd6f4" r="256"/><path d="m385.97 112.793-195.682 139.592-54.977-54.977-1.267 28.122-26.856 20.775 83.099 83.099 25.037 84.554s50.606 50.612 92.734 92.739c116.423-24.05 203.942-127.151 203.942-250.697 0-5.987-.222-11.922-.627-17.806-41.945-41.947-125.403-125.401-125.403-125.401z" fill="#7fa6fb"/><g><g><path d="m305.263 78.721h-.699c-65.683 0-114.275 55.78-114.275 118.617v146.642c0 58.786 34.133 89.297 72.712 89.297 40.095 0 72.712-32.617 72.712-72.712 0-29.937 14.148-58.544 37.852-76.521 16.558-12.569 29.459-29.438 37.18-48.821 5.221-13.116 8.068-27.381 8.068-42.242-.002-62.897-50.72-113.872-113.55-114.26z" fill="#f6dfb9"/></g><path d="m410.744 235.225c-7.721 19.383-20.622 36.252-37.18 48.821-23.704 17.977-37.852 46.584-37.852 76.521 0 40.095-32.617 72.712-72.712 72.712-38.579 0-72.712-30.511-72.712-89.297v-108.757z" fill="#eebda9"/><g><g><path d="m304.543 120.271c-42.131 0-72.947 36.633-72.705 77.566.083 13.379 9.993 24.75 24.092 27.651 12.901 2.652 17.458 7.936 17.458 9.044 0 .132-.09.374-.291.693-.672 1.059-2.569 2.985-6.503 4.889-21.114 10.214-34.756 32.153-34.756 55.884v19.889c0 18.912 15.38 34.292 34.292 34.292 15.263 0 28.808-10.276 32.88-25.013 15.754-56.868 49.77-69.27 64.485-89.941 8.531-11.946 13.455-26.211 13.753-40.76.817-40.733-31.98-74.194-72.705-74.194z" fill="#eebda9"/></g></g><path d="m363.495 235.225c-14.716 20.671-48.731 33.073-64.485 89.941-4.072 14.737-17.617 25.013-32.88 25.013-18.912 0-34.292-15.38-34.292-34.292v-19.889c0-23.731 13.642-45.67 34.756-55.884 3.934-1.904 5.831-3.829 6.503-4.889z" fill="#e09380"/><path d="m173.814 235.918-38.503 38.509-14.695-14.694 13.435-13.428h-26.862v-20.775h26.862l-13.435-13.427 14.695-14.695 37.81 37.817z" fill="#e27a4e"/><path d="m173.814 235.918-38.503 38.509-14.695-14.694 13.435-13.428h-26.862v-11.08h65.932z" fill="#dc455b"/></g></g></svg>