<svg id="Capa_1" enable-background="new 0 0 512 512" height="512" viewBox="0 0 512 512" width="512" xmlns="http://www.w3.org/2000/svg"><g><circle cx="256" cy="256" fill="#9cd6f4" r="256"/><g fill="#7fa6fb"><path d="m189.571 218.041 232.646 232.646c54.944-46.954 89.783-116.748 89.783-194.687 0-14.418-1.211-28.551-3.502-42.32l-90.538-90.538z"/><path d="m199.061 229.814-19.609 75.264s26.549 26.566 26.832 26.84l-112.244 18.98 161.091 161.091c.29.001.579.011.869.011 62.782 0 120.273-22.613 164.806-60.121-55.806-55.926-221.745-222.065-221.745-222.065z"/></g><g><g><path d="m312.306 189.571-13.918 66.429c-27.464-.019-52.884-14.456-66.979-37.959h-41.838v-56.939h41.838c14.07-23.465 39.465-37.94 66.979-37.959z" fill="#f1f6ff"/><path d="m312.306 189.571-13.918 66.429c-27.464-.019-52.884-14.456-66.979-37.959h-41.838v-28.469h122.735z" fill="#dfe5f2"/><path d="m298.388 123.142h119.572v132.858h-119.572z" fill="#e27a4e"/><path d="m298.388 189.571h119.572v66.429h-119.572z" fill="#dc455b"/><g><path d="m161.102 350.898h-67.062v-18.979h57.572z" fill="#f3d652"/></g><g><g><path d="m199.061 229.814c-7.731 11.198-28.469 39.933-28.469 54.655 0 15.696 12.773 28.469 28.469 28.469s28.469-12.773 28.469-28.469c.001-15.835-24.559-48.746-28.469-54.655z" fill="#e27a4e"/></g></g><path d="m227.531 284.47c0 15.696-12.773 28.469-28.469 28.469v-83.125c3.909 5.909 28.469 38.82 28.469 54.656z" fill="#dc455b"/><path d="m379.368 180.081v18.98h-18.98v18.98h-18.979v-18.98h-18.98v-18.98h18.98v-18.979h18.979v18.979z" fill="#f1f6ff"/><path d="m379.368 189.571v9.49h-18.98v18.98h-18.979v-18.98h-18.98v-9.49z" fill="#dfe5f2"/></g><path d="m246.51 331.919v9.49c0 26.204-21.245 47.449-47.449 47.449-26.196 0-47.449-21.244-47.449-47.449v-9.49z" fill="#f3d652"/><path d="m246.51 331.919v9.49c0 26.204-21.245 47.449-47.449 47.449v-56.939z" fill="#e9bc3e"/></g></g></svg>