<?xml version="1.0" encoding="UTF-8"?>
<svg width="475px" height="241px" viewBox="0 0 475 241" version="1.1" xmlns="http://www.w3.org/2000/svg" xmlns:xlink="http://www.w3.org/1999/xlink">
    <!-- Generator: sketchtool 53.2 (72643) - https://sketchapp.com -->
    <title>632D9FEC-24FF-4E2D-BFF3-A44936AAD329</title>
    <desc>Created with sketchtool.</desc>
    <g id="Asset-Board" stroke="none" stroke-width="1" fill="none" fill-rule="evenodd">
        <g transform="translate(-25.000000, -2040.000000)" id="Emprty-States">
            <g transform="translate(25.000000, 1686.000000)">
                <g id="404_Not_Found" transform="translate(0.000000, 345.000000)">
                    <g id="ig_PageNotFound" transform="translate(0.000000, -0.500000)">
                        <path d="M302.62,44.43 L339.15,44.43" id="Shape" stroke="#DADADA"></path>
                        <path d="M78.36,48.41 L63.84,48.41" id="Shape" stroke="#DADADA"></path>
                        <path d="M59.23,48.41 L30.86,48.41" id="Shape" stroke="#DADADA"></path>
                        <path d="M437,100.27 L422.49,100.27" id="Shape" stroke="#DADADA"></path>
                        <path d="M417.87,100.27 L389.51,100.27" id="Shape" stroke="#DADADA"></path>
                        <path d="M189,19.13 L164.66,19.13" id="Shape" stroke="#DADADA"></path>
                        <path d="M368.91,127.75 L344.57,127.75" id="Shape" stroke="#DADADA"></path>
                        <path d="M383.43,44.59 L359.09,44.59" id="Shape" stroke="#DADADA"></path>
                        <path d="M58.74,175.26 L222.32,24.3" id="Shape" stroke="#74E5FF" stroke-linecap="round" stroke-linejoin="round"></path>
                        <path d="M7.97,135.62 L222.33,24.3" id="Shape" stroke="#74E5FF" stroke-linecap="round" stroke-linejoin="round"></path>
                        <polyline id="Shape" stroke="#74E5FF" stroke-width="2" stroke-linecap="round" stroke-linejoin="round" points="273 56.22 273 67.3 262.13 67.3 263.49 103.23 269 249"></polyline>
                        <polyline id="Shape" stroke="#738795" stroke-linecap="round" points="273 50 273 45 203 45 203 67 213 67 207 250"></polyline>
                        <path d="M222.14,44.62 L222.14,26.78 C222.14,17.9876268 229.267627,10.86 238.06,10.86 C246.852373,10.86 253.98,17.9876268 253.98,26.78 L253.98,26.78 L253.98,44.62" id="Shape" stroke="#738795" stroke-linecap="round"></path>
                        <polyline id="Shape" stroke="#738795" stroke-linecap="round" points="232 249 232 224.5 246 224.5 246 249"></polyline>
                        <path d="M257.5,137.5 L211.5,137.5 M259.5,174.5 L210.5,174.5 M261.2,210.5 L209.2,210.5" id="Shape" stroke="#738795" stroke-linecap="round"></path>
                        <rect id="Rectangle-path" x="0" y="0" width="475" height="250"></rect>
                        <path d="M1,249.5 L474,249.5" id="Shape" stroke="#DADADA" stroke-linecap="round"></path>
                    </g>
                </g>
            </g>
        </g>
    </g>
</svg>