<?xml version="1.0" encoding="utf-8"?>
<!-- Generator: Adobe Illustrator 23.1.0, SVG Export Plug-In . SVG Version: 6.00 Build 0)  -->
<svg version="1.1" id="Layer_1" xmlns="http://www.w3.org/2000/svg" xmlns:xlink="http://www.w3.org/1999/xlink" x="0px" y="0px"
	 viewBox="0 0 512 512" style="enable-background:new 0 0 512 512;" xml:space="preserve">
<style type="text/css">
	.st0{fill:#2D4564;}
	.st1{fill:#B3B3B3;}
	.st2{fill:#F0BA7D;}
	.st3{fill:#FED298;}
	.st4{fill:#565C62;}
	.st5{fill:#848687;}
	.st6{fill:#FFFFFF;}
	.st7{fill:#EEF3F7;}
	.st8{fill:#D9DADA;}
	.st9{fill:#666666;}
	.st10{fill:#FEFEFE;}
	.st11{fill:#EBECEC;}
	.st12{fill:#4D4D4D;}
	.st13{fill:#076673;}
	.st14{fill:#0F7986;}
</style>
<circle class="st0" cx="256" cy="256" r="256"/>
<path class="st1" d="M220.3,249.4c23.8,0,47.6,0,71.4,0l0.4,4.9l-34.9,52.9l-37.5-53.4L220.3,249.4L220.3,249.4L220.3,249.4z"/>
<path class="st2" d="M220.8,236.2l-0.6,29.8l-50.6,27.7v101.4h85.2H340V293.7l-47-29.2l-2.6-29.8L220.8,236.2L220.8,236.2
	L220.8,236.2z"/>
<path class="st3" d="M197.4,149.2c0,0-2.9-6.4-10.7-3.2s0.4,34.7,3.3,39c3,4.4,7.8,1.6,9.5,1.4c2.5,18.8,2.7,31.7,10.2,39.6
	c7.1,7.5,23.4,22.8,32,28.1c5.8,1.2,10.2,1.9,14.2,2.2c4.1-0.2,8.4-0.9,14.2-2.2c8.6-5.3,24.9-20.6,32-28.1
	c7.5-7.9,7.7-20.9,10.2-39.6c1.7,0.2,6.5,3,9.5-1.4s11.1-35.9,3.3-39c-7.8-3.2-10.7,3.2-10.7,3.2s7.7-24.7-6-49.1
	c-9.4-16.7-30.8-25.3-52.6-26c-21.8,0.6-43.2,9.3-52.6,26C189.7,124.5,197.4,149.2,197.4,149.2L197.4,149.2L197.4,149.2z"/>
<path class="st4" d="M195.3,274.8l12.1-4.8l9.8-8.8l34.5,26.1h8.6l34.5-26.2l21.9,13.6l38,64.6l-30.1,163.3
	c-21.8,6.1-44.8,9.3-68.6,9.3c-19.4,0-38.2-2.2-56.4-6.2l-54-161.2L195.3,274.8L195.3,274.8z"/>
<g>
	<path class="st5" d="M305.6,266.6l-13.9-17.2l-31.4,37.9l26.9,29.9L305.6,266.6z"/>
	<path class="st5" d="M206.4,266.3l13.9-16.9l31.4,37.9l-28,29.6L206.4,266.3z"/>
</g>
<path class="st6" d="M206.4,266.3l-92.2,30c-3.8,1.2-6.1,4.4-6.9,8.3L80.1,442c18.3,17.3,39.1,31.9,61.8,43.2l13.5-44
	c0.2-0.5,0.6-0.8,1.2-0.8c0.5,0.1,0.9,0.5,0.9,1l1.9,51.7c29.8,12.1,62.4,18.8,96.5,18.8v-17.2L206.4,266.3L206.4,266.3z"/>
<g>
	<path class="st7" d="M206.4,266.3l-10.6,3.2l-28,47.8l35.3,1.1l-21.7,12.4l74.6,164L206.4,266.3L206.4,266.3z"/>
	<path class="st7" d="M305.6,266.6l92.3,29.7c3.8,1.2,6.1,4.4,6.9,8.3L431.9,442c-18.3,17.3-39.1,31.9-61.8,43.2l-13.5-44
		c-0.2-0.5-0.6-0.8-1.2-0.8c-0.5,0.1-0.9,0.5-0.9,1l-1.9,51.7C322.7,505.3,290.1,512,256,512l0,0v-17.2L305.6,266.6L305.6,266.6z"/>
</g>
<path class="st6" d="M305.6,266.6l5.9,1.8l32.7,49.2l-35.3,1.1l21.7,12.4L256,494.8L305.6,266.6L305.6,266.6L305.6,266.6
	L305.6,266.6z"/>
<path class="st8" d="M266.5,493.8c-3.1,0-5.6,2.5-5.6,5.6s2.5,5.6,5.6,5.6s5.6-2.5,5.6-5.6S269.6,493.8,266.5,493.8z"/>
<path class="st9" d="M307.9,156.6l5.4-0.2l1.7-6.2l5.1-5.1c3.4-25.4,4.4-65-20.9-63.9c0,0-2.3-28.9-47.8-23.2s-66.1,35-63.6,59.6
	c2.4,24.5,1.5,27.5,1.5,27.5l5.1,5.1l0.8,7l4.5-0.3c0,0,1.4-9.4,2.8-13.6c1.4-4.1,1-12.5,1-12.5s53.8,3.4,68.3-15.1
	c9-11.4,29.6-31.2,30.6-3.8c0.3,8.1-2.7,20.3,3.1,29.2C311.2,150,307.9,156.6,307.9,156.6L307.9,156.6L307.9,156.6z"/>
<path class="st0" d="M256,494.8l14.5-66.9L260.6,296l5.4-2.3l-5.8-6.4h-8.6l-5.9,6.2l5.5,2.4L241.7,429L256,494.8L256,494.8
	L256,494.8z"/>
<path class="st6" d="M266,493.8c-2.8,0-5.1,2.3-5.1,5.1c0,2.8,2.3,5.1,5.1,5.1c2.8,0,5.1-2.3,5.1-5.1
	C271.1,496.1,268.8,493.8,266,493.8z"/>
<path class="st10" d="M346.4,409.1c-10-1.7-16.7-11.2-15-21.2s11.2-16.7,21.2-15s16.7,11.2,15,21.2S356.4,410.8,346.4,409.1
	L346.4,409.1L346.4,409.1z"/>
<path class="st0" d="M346.6,408c-9.4-1.6-15.7-10.6-14.1-20s10.6-15.7,20-14.1s15.7,10.6,14.1,20C364.9,403.3,356,409.6,346.6,408
	L346.6,408z"/>
<path class="st11" d="M347.9,400.4c-5.2-0.9-8.7-5.9-7.8-11.1c0.9-5.2,5.9-8.7,11.1-7.8c5.2,0.9,8.7,5.8,7.8,11.1
	C358,397.8,353.1,401.3,347.9,400.4L347.9,400.4z"/>
<path class="st10" d="M349,382.6l4.2,0.7l2.3-13.1l-4.2-0.7L349,382.6z"/>
<path class="st0" d="M208.2,412.7l7.9-1.6c3.3-0.7,6.1-2.6,7.9-5.3c1.8-2.6,2.5-6,1.9-9.3l-9.3-46.7c-3.5-17.6-17.3-26.6-33-28.6
	c-6-0.8-12.4-0.5-18.5,0.7s-12.1,3.4-17.4,6.4c-13.8,7.8-23,21.4-19.5,39l9.3,46.7c0.7,3.3,2.6,6.1,5.3,7.9l0,0
	c2.6,1.8,6,2.5,9.3,1.9l7.9-1.6l-0.6-3.2l-7.9,1.6c-2.5,0.5-4.9-0.1-6.8-1.4l0,0c-1.9-1.3-3.4-3.3-3.9-5.8l-9.3-46.7
	c-3.2-16,5.3-28.3,17.9-35.5c5-2.8,10.6-4.9,16.4-6c5.8-1.1,11.8-1.4,17.4-0.7c14.4,1.8,27,10,30.2,26l9.3,46.7
	c0.5,2.5-0.1,4.9-1.4,6.8c-1.3,1.9-3.3,3.4-5.8,3.9l-7.9,1.6L208.2,412.7L208.2,412.7L208.2,412.7L208.2,412.7z"/>
<path class="st12" d="M219.1,356.8l-1.4-7.1c-3.6-18.2-17.8-27.4-34-29.5c-6.1-0.8-12.6-0.5-18.8,0.7s-12.3,3.4-17.7,6.5
	c-14.1,8.1-23.7,22-20.1,40.2l1.4,7.1l5.4-1.1l-1.4-7.1c-3.1-15.5,5.2-27.4,17.4-34.3c4.9-2.8,10.4-4.8,16-5.9
	c5.7-1.1,11.5-1.4,17.1-0.7c14,1.8,26.2,9.6,29.2,25.1l1.4,7.1L219.1,356.8L219.1,356.8z"/>
<g>
	<path class="st13" d="M153.7,424.2l4.2-0.8c1.1,1.2,2.7,1.8,4.4,1.5c2.5-0.5,4.1-2.9,3.6-5.4s-2.9-4.1-5.4-3.6
		c-1.7,0.3-2.9,1.5-3.5,3l-4.2,0.8L153.7,424.2L153.7,424.2z"/>
	<path class="st13" d="M211.6,412.7l-4.2,0.8c-0.5,1.5-1.8,2.7-3.5,3c-2.5,0.5-4.9-1.1-5.4-3.6s1.1-4.9,3.6-5.4
		c1.7-0.3,3.3,0.3,4.4,1.5l4.2-0.8L211.6,412.7z"/>
</g>
<path class="st9" d="M167.5,320.5l-1.6-8.1l-3.2,0.6l-3.2,0.6l1.6,8.2c1.2-0.4,2.4-0.7,3.7-0.9C165.7,320.8,166.6,320.7,167.5,320.5
	z"/>
<g>
	<path class="st14" d="M160.6,419.7c0.8-0.1,1.3-0.9,1.1-1.6c-0.1-0.8-0.9-1.3-1.6-1.1c-0.8,0.1-1.3,0.9-1.1,1.6
		S159.8,419.9,160.6,419.7L160.6,419.7z"/>
	<path class="st14" d="M202.2,411.4c0.8-0.1,1.2-0.9,1.1-1.6c-0.1-0.8-0.9-1.3-1.6-1.1c-0.8,0.1-1.3,0.9-1.1,1.6
		C200.7,411.1,201.5,411.6,202.2,411.4z"/>
</g>
<path class="st10" d="M347.4,400.3c-4.9-0.8-8.2-5.5-7.4-10.5c0.8-4.9,5.5-8.2,10.5-7.4c4.9,0.8,8.2,5.5,7.4,10.5
	C357,397.9,352.3,401.2,347.4,400.3L347.4,400.3z"/>
<g>
	<path class="st12" d="M206.4,268.7c-0.1,0-49.9,0.4-41.5,43.9l-4.6,0.9c-9.5-49,45.9-49.5,46-49.5L206.4,268.7z"/>
	<path class="st12" d="M305.6,264.2c8.1,0.2,23.8,2.4,35.9,17.1c11.8,14.4,20.1,40.8,13.9,89.1l-4.7-0.6c6-46.8-1.8-72-12.9-85.6
		c-10.9-13.2-25-15.2-32.3-15.4L305.6,264.2L305.6,264.2z"/>
</g>
</svg>
