<?xml version="1.0" encoding="utf-8"?>
<!-- Generator: Adobe Illustrator 23.1.0, SVG Export Plug-In . SVG Version: 6.00 Build 0)  -->
<svg version="1.1" id="Warstwa_1" xmlns="http://www.w3.org/2000/svg" xmlns:xlink="http://www.w3.org/1999/xlink" x="0px" y="0px"
	 viewBox="0 0 496.4 500" style="enable-background:new 0 0 496.4 500;" xml:space="preserve">
<style type="text/css">
	.st0{fill:#B1B4C4;}
	.st1{fill:#616E84;}
	.st2{fill:#20232D;}
	.st3{fill:#FFFFFF;}
	.st4{fill:#2B303F;}
	.st5{opacity:0.1;fill:#FFFFFF;enable-background:new    ;}
	.st6{fill:#757B89;}
	.st7{fill:#E9EAF2;}
	.st8{fill:#CED0DB;}
	.st9{fill:#2B2A30;}
	.st10{fill:#FFCEA9;}
	.st11{fill:#F4F4F4;}
	.st12{fill:#2E4663;}
	.st13{opacity:0.1;enable-background:new    ;}
	.st14{opacity:0.4;fill:#D6D8E5;enable-background:new    ;}
	.st15{fill:#EDEDED;}
	.st16{fill:#1C2D3D;}
	.st17{fill:#9C73FF;}
	.st18{fill:#D6D8E5;}
	.st19{fill:#E4E6EF;}
	.st20{fill:#28221C;}
	.st21{fill:#D9DCE8;}
	.st22{fill:#EFF1F9;}
	.st23{fill:#D3D6E2;}
	.st24{fill:#C5C8D3;}
</style>
<title>Telemedicine_SVG</title>
<g id="Слой_2">
	<g id="Слой_1-2">
		<path class="st0" d="M418.5,409.3L310.6,347c-9.1-5.3-16.5-19.4-16.5-31.6V14.5c0-12.2,7.4-17.8,16.5-12.5l107.9,62.3
			c9.1,5.3,16.5,19.4,16.5,31.6v300.9C435.1,409,427.6,414.6,418.5,409.3z"/>
		<polygon class="st0" points="420.4,414.8 428.9,410.4 420.7,396.4 		"/>
		<polygon class="st0" points="292.4,5 300.3,0.9 298.7,12.5 		"/>
		<path class="st1" d="M411.6,412.8l-107.9-62.3c-9.1-5.3-16.5-19.4-16.5-31.6V17.9c0-12.2,7.4-17.8,16.5-12.5l107.9,62.3
			c9.1,5.3,16.5,19.4,16.5,31.6v300.9C428.2,412.5,420.8,418,411.6,412.8z"/>
		<path class="st2" d="M427,100.1V401c0,12.2-7.4,17.8-16.5,12.5l-42.3-24.4l-13.1-7.6l-52.4-30.3c-9.1-5.3-16.5-19.4-16.5-31.6
			V18.7c0-12.2,7.4-17.8,16.5-12.5l107.9,62.3C419.6,73.8,427,87.9,427,100.1z"/>
		<path class="st3" d="M419.2,97v293.1c0,7.4-5.2,10.4-11.6,6.7L374,377.4l-3-1.7l-1-0.6l-7.3-4.2l-21.1-12.2l0,0l-8.8-5l-3.5-2
			l-23.9-13.8c-6.4-3.7-11.6-12.7-11.6-20.1V24.6c0-7.4,5.2-10.4,11.6-6.7l42.1,24.3v0.1c0,5.8,4,12.7,9,15.6s9,0.5,9-5.2
			c0,0,0-0.1,0-0.1L407.7,77C414.1,80.7,419.2,89.7,419.2,97z"/>
		<ellipse transform="matrix(0.866 -0.5 0.5 0.866 22.3829 185.0805)" class="st4" cx="356.6" cy="50.8" rx="2.8" ry="4.8"/>
		<path class="st5" d="M356.5,52.4c-0.9-0.6-1.4-1.5-1.4-2.5c0-0.9,0.6-1.3,1.4-0.8c0.9,0.5,1.4,1.5,1.5,2.5
			C358,52.5,357.3,52.9,356.5,52.4z"/>
		<path class="st6" d="M431.4,139.7L431.4,139.7c-0.9,0.5-1.6,0-1.6-1.2v-12.8c0-1.2,0.6-2.3,1.6-3l0,0c0.9-0.5,1.6,0,1.6,1.2v12.8
			C433,137.9,432.4,139,431.4,139.7z"/>
		<path class="st6" d="M431.4,160.7L431.4,160.7c-0.9,0.5-1.6,0-1.6-1.2v-12.8c0-1.2,0.6-2.3,1.6-3.1l0,0c0.9-0.5,1.6,0,1.6,1.2
			v12.8C433,158.9,432.4,160,431.4,160.7z"/>
		<path class="st7" d="M399,371.8l-84.9-49c-4.4-2.5-8-9.4-8-15.2V150c0-5.9,3.6-8.6,8-6l84.9,49c4.4,2.6,8,9.4,8,15.2v157.6
			C407,371.6,403.4,374.3,399,371.8z"/>
		<ellipse transform="matrix(0.866 -0.5 0.5 0.866 -51.4392 193.611)" class="st8" cx="335.6" cy="192.8" rx="13" ry="22.6"/>
		<polygon class="st8" points="394,224.4 361.2,205.5 361.2,197.8 394,216.7 		"/>
		<polygon class="st8" points="386.4,233.9 361.2,219.3 361.2,211.6 386.4,226.2 		"/>
		<polygon class="st8" points="394,268.7 319.6,225.8 319.6,218.1 394,261.1 		"/>
		<polygon class="st8" points="376.8,272.6 319.6,239.6 319.6,231.9 376.8,265 		"/>
		<polygon class="st8" points="393.7,296.2 319.4,253.3 319.4,245.6 393.7,288.5 		"/>
		<polygon class="st8" points="376.6,300.1 319.4,267.1 319.4,259.4 376.6,292.5 		"/>
		<polygon class="st8" points="393.7,323.9 319.4,280.9 319.4,273.2 393.7,316.2 		"/>
		<polygon class="st8" points="393.1,351.1 318.7,308.2 318.7,300.5 393.1,343.4 		"/>
		<polygon class="st8" points="376.6,327.8 319.4,294.7 319.4,287.1 376.6,320.1 		"/>
		<path class="st8" d="M329.6,135.4L329.6,135.4c-0.7-0.5-1.2-1.2-1.3-2.1L323,70.8l-4.2,26.8c-0.1,0.7-0.6,0.9-1.3,0.5l-10.2-5.9
			c-0.8-0.5-1.3-1.3-1.3-2.3c0-0.8,0.6-1.2,1.3-0.8l9.1,5.3l5.6-35.8c0.1-0.7,0.7-0.9,1.3-0.5c0.7,0.5,1.2,1.2,1.3,2.1l5.2,61.6
			l5-36.9c0.1-0.7,0.6-0.9,1.2-0.6c0.7,0.4,1.2,1.2,1.3,2l6,35.9l5.8-47c0.1-0.7,0.6-0.9,1.3-0.6l0,0c0.7,0.4,1.2,1.2,1.3,2
			l6.9,60.9l5.8-30c0.1-0.6,0.6-0.8,1.3-0.5l0,0c0.7,0.4,1.1,1.1,1.3,1.9l5.9,30.2l5.2-45.5c0.1-0.7,0.6-0.9,1.3-0.6
			c0.7,0.4,1.2,1.2,1.3,2l6.5,48l4.5-21c0.1-0.6,0.6-0.8,1.2-0.5c0.7,0.4,1.1,1,1.3,1.8l4.4,17.9l9.4,5.3l0,0
			c0.8,0.5,1.3,1.3,1.3,2.2c0,0.8-0.6,1.2-1.3,0.8l-10.3-5.8l0,0c-0.6-0.4-1.1-1-1.2-1.8l-3.2-13l-4.9,23c-0.1,0.6-0.7,0.8-1.3,0.4
			c-0.7-0.5-1.1-1.2-1.3-2l-6.1-45.3l-5,43.4c-0.1,0.7-0.6,0.9-1.2,0.6c-0.7-0.4-1.2-1.1-1.4-1.9l-6.1-31.6l-6.1,31.9
			c-0.1,0.6-0.7,0.8-1.3,0.4c-0.7-0.5-1.1-1.2-1.3-2l-6.7-58.7l-5.6,44.8c-0.1,0.7-0.6,0.9-1.2,0.6c-0.7-0.5-1.2-1.2-1.3-2l-6-36.3
			l-5.5,40.2C330.8,135.5,330.3,135.7,329.6,135.4z"/>
		<g id="Girl_14">
			<path id="_Контур_" class="st9" d="M344.1,101.4c2.1-3.4,18.1-5.6,23.3,8c2,5.1,1.7,18.2,3.4,26.5s5.6,12.9,7,19.6
				s-0.9,17.9-17,19.9s-28.5-3.7-32.3-8.8s-3.9-16.1,0.1-21.9s7-10.6,6.9-18.3L344.1,101.4z"/>
			<path id="_Контур_2" class="st9" d="M354.7,99.1c0,0-12-3.5-19.3,3c-6.7,5.9-6.1,14-5.1,17.8s2.9,9,5.9,9.3
				S354.7,99.1,354.7,99.1z"/>
			<path id="_Контур_3" class="st10" d="M359.3,131.9c0,0-0.8,13.4-0.5,14.4s5.3,1.9,6.7,3.1s-7.3,14.8-11.7,16.8
				s-18.1-3.1-19.1-10c-0.9-6.3,3.9-11.1,5.8-12.8c1.3-0.1,2.5-0.2,3.8-0.1l0.4-6.5C350.6,134.9,359.3,131.9,359.3,131.9z"/>
			<path class="st10" d="M326.9,157.2c-0.1-0.4-2,0.7-2,0.7s-1,34.4-2.6,37.5l0,0c-4.3,7.3-15.7,19.7-15.9,21.1
				c-0.8,4.2,1.6,0.4,5.5,0c2.2-0.3,15.1-13.3,18-16.3l0.2,0.1c0-0.1,0-0.2,0-0.3l0.4-0.4c0.1-0.9,0.1-1.9,0.1-2.8
				C335.8,159.4,329.2,156.9,326.9,157.2z"/>
			<path class="st3" d="M323.9,162.5l-0.7,16.6l-1.1,13.1c0,0,0.2,1.8-1.7,4.8s-12.2,15.8-12.2,15.8l4.6,3.9l10.6-8.7l7-46.8
				l-3.7-4.6L323.9,162.5z"/>
			<path id="_Контур_4" class="st11" d="M361.1,147.6c3.8,0.6,8.1,2.6,8.7,4.6c0.7,2.4,2.2,13.8-1.1,22.4s-5.5,14.1-7.3,17.8
				c0,0-16.3,7-29.4-1.2c0,0-0.9-9.2-1-14.2c-12.1-10.6-1.8-23.6,8.5-33.8c1.2-0.1,2.5-0.1,3.7-0.1c0,0-9.2,10.8-2.8,17
				C354,156.2,356.8,150,361.1,147.6z"/>
			<path id="_Контур_5" class="st10" d="M334.2,115.3L334.2,115.3c1.4-8.6,7.6-15.1,16.5-14.6c9.4,0.5,16.6,8.6,16.1,18
				c-0.3,5.3-3.1,10.2-7.5,13.2c-0.3,1.3-0.8,2.6-1.4,3.8c-3.1,3.7-11.5,6-14.3,6c-2.4,0-4.4-2.2-6.7-5.9
				C332.3,128.1,333.5,119.5,334.2,115.3z"/>
			<path class="st9" d="M353.5,100.8c6.2,1.2,11.4,3,13,9.1c1.2,4.2,2.7,12.2,1.2,15.6l-0.9,2.4l-7.5,3.9c0,0-3.5-2.9-2.4-11.5
				c0-1.2-0.4-2.3-1.1-3.3c-0.5-0.8-0.8-1.7-1-2.6c-0.8-2.4-2.7-4-4.9-5.3c-5.6-3.2-13.8-0.4-15,0.7
				C338.7,102.1,346.2,99.4,353.5,100.8z"/>
			<path class="st10" d="M375.6,237.2c-1,10.9-7.1,57.1-7.1,57.1c2.4,7.8,3.6,15.9,3.7,24c-0.1,6.7-1.8,18.1-3.8,28.7l-3.5,25.1
				l-8.3-4.8l0.3-18.8c-0.4-6.3-1-15.5-1.5-21.5c-0.6-9.6-2.4-25-2.9-28.8s-1.7-10.5-2.3-18s-3.4-45.6-3.4-45.6l-0.4,7.1
				c0,0-0.4,11.6-2,25.8s-2.3,20.6-2.3,20.6s2.9,5.3,3.3,9.2c0.3,3.1,3.8,27.5,1.7,39.9l-3.1,22.6l-10-5.7l-1.3-16.1
				c-1.7-12.1-5.3-37.8-5.9-41.1c-0.7-4.4-1.3-6.5-2.2-20.4s-0.5-43.8,0.9-54.6s5.4-26.7,5.4-26.7c3.8,1.8,7.9,2.8,12.1,3
				c7,0.4,18.2-1.8,18.2-1.8c2,3.4,4.1,6.8,6.4,9.9C370.9,211,377,220.5,375.6,237.2z"/>
			<path class="st12" d="M361.4,192.4l9.4,18.8c0,0,14.3,20.9-0.5,74.7l2.8,16.6c0,0-28,18-46.8,0c0,0-6.5-49.7-3-72.6
				c1.9-13.2,4.8-26.2,8.7-38.9c0,0,4.6,5.1,28.2,1.7"/>
			<path class="st3" d="M339.5,143.3c0,0-13.9,2.3-15.5,19.2l3.2-3.2C327.1,159.3,334.9,147.6,339.5,143.3z"/>
			<path class="st3" d="M343.2,143.3c-3.6,6.9-13,18.2-10.3,30.4c3.5,16.3-3.2,113.9-3.2,113.9s-8-5.1-8-9.1s3-109.4,3-114.4
				s8.8-13.9,14.7-20.8c1.6-0.6,3.2-0.8,4.9-0.8c0,0.4,0,0.4,0,0.8C343.9,143.3,343.7,143.3,343.2,143.3z"/>
			<polygon class="st11" points="281.4,232.7 313.4,214.1 336.4,227.4 304.4,246 			"/>
			<path class="st10" d="M309.3,215.5c-2,0.5-4,0.6-5.7,1.9c-0.6,0.6-1.3,1-2,1.5c-0.3,0.2-0.6,0.4-1,0.5c-0.5,0.2-0.9,0.5-1.3,0.9
				c-0.4,0.5-0.6,1.1-0.6,1.8c-0.2,0.8-0.2,1.5-0.1,2.3c0.3,1.1,1.5,1.1,2.1,0.3c0.3-0.4,0.5-0.9,0.5-1.4c0-1,0.5-1.9,1.4-2.4
				l7.6-4.8C310.1,215.6,309.7,215.4,309.3,215.5z"/>
			<path class="st3" d="M371.5,173.1c0,0-0.3,28.7,0.8,38s14.3,36.5,2.6,73.4c-1.7,2-3.3,6-18,7.8c-8.8,0-12-1.3-12-1.3
				s3.4-61.9-1.5-116.3c0-15,12.9-13.3,15.3-29.9c11.4,5.3,11.4,7,11.4,7L371.5,173.1z"/>
			<path class="st13" d="M365.7,151.4c-6.3,0.7-7.1,8.6-7.1,8.6l-0.3,12.2c0,0,0.7,15.5,2.5,20.2l-27.2,18.7l5.9,6.9
				c0,0,28.7-13.3,31-15.4s0-26.4,0.4-33.5C372.4,156,372,150.7,365.7,151.4z"/>
			<path class="st10" d="M370.2,158.1c-1.1-4.4-4.5-2.9-7.4-5.5c-6.8,9.6-2.3,35.7-1.4,38.5l-26.1,16.7l0,0
				c-0.4,0.3-1.3,0.8-1.8,1.1c-2.4,1.4-6.9,3.9-9.7,4.2c-2.6,0.3-4,4-6.8,4.3c-0.6,0-1.1,0.5-1,1.1c0,0.3,0.1,0.5,0.3,0.7
				c1.1,1.1,4.1,0.2,6.1-2.2c0,0.1,0,0.1,0,0.2c0,1,0.7,1.8,1.6,2c0,0.2,0,0.3,0.1,0.5c0.3,0.6,0.9,1,1.6,1.1l0,0
				c0.3,0.9,1.2,1.5,2.1,1.4c0.6,0,1.2-0.3,1.6-0.7c2.2-0.9,4.2-2.3,5.7-4.1c1.3-1.4,2.8-2.7,4.2-3.9c7.1-3.1,28.4-12.1,29.3-13.4
				C370.2,198.1,371.7,164.3,370.2,158.1z"/>
			<path class="st3" d="M364.6,149.3c-6.3,0.7-7.1,8.6-7.1,8.6l-0.3,12.2c0,0,0.7,15.5,2.5,20.3l-27.2,18.7l5.9,6.9
				c0,0,28.7-13.3,31-15.4s2.8-23.7,3.1-30.7C374.1,156.6,370.9,148.6,364.6,149.3z"/>
		</g>
		<g id="Men_2">
			<ellipse class="st14" cx="169.8" cy="450.9" rx="49.5" ry="28.6"/>
			<path id="_Контур_6" class="st10" d="M134.6,239.1c-0.6,4.8-6.3,25.6-5.1,32.7s20.8,19,20.8,19l2.7-12.2L142.2,268
				l2.9-20.1L134.6,239.1z"/>
			<path id="_Контур_7" class="st15" d="M149.7,218.6c-2.8-1.2-8-1.5-10.9,3.3s-5.9,21.2-6.1,24c0,0,4.1,5.6,10.1,4.7
				L149.7,218.6z"/>
			<path class="st16" d="M172.1,450c4.3,1.2,8.8,0.6,12.7-1.5c3.1,0.1,19.6-7,21.9-1c2,5.2-5.2,10.1-9.1,11
				c-8.4,2-14.6,6.2-17.9,6.9c-2.5,0.5-5.8,0.9-7.8-1.1C169.6,461.9,169.8,453.1,172.1,450z"/>
			<path class="st17" d="M179.7,463.9c3.4-0.7,9.6-4.9,17.9-6.9c3.2-0.8,8.8-4.3,9.3-8.5c0.7,4.8-5.7,9.1-9.3,9.9
				c-8.4,2-14.6,6.2-17.9,6.9c-2.5,0.5-5.8,0.9-7.8-1.1c-0.5-0.6-0.9-1.3-1.1-2C173.8,464.7,177.2,464.4,179.7,463.9z"/>
			<path class="st16" d="M145.2,437.9c4.3,1.2,8.8,0.6,12.7-1.5c3.1,0.1,19.6-7,21.9-1c2,5.2-5.2,10.1-9.1,11
				c-8.4,2-14.6,6.2-17.9,6.9c-2.5,0.5-5.8,0.9-7.8-1.1C142.7,449.8,142.9,441,145.2,437.9z"/>
			<path class="st17" d="M152.8,451.8c3.4-0.7,9.6-4.9,17.9-6.9c3.2-0.8,8.8-4.3,9.3-8.5c0.8,4.8-5.7,9.1-9.3,9.9
				c-8.4,2-14.6,6.2-17.9,6.9c-2.5,0.5-5.8,0.9-7.8-1.1c-0.5-0.6-0.9-1.3-1.1-2C146.9,452.6,150.3,452.3,152.8,451.8z"/>
			<path id="_Контур_8" class="st12" d="M144.9,392.9c0.7-6.2,2-12.2,3.8-18.2c0,0-1.1-15.7-1.7-30.5
				c-0.6-16.9-6.5-31.7-1.9-45.2l52.1,11.6c0,0-3.1,67.3-3.9,75.4c-0.4,6.3-1.2,12.6-2.3,18.9c-2.4,13.1-6.2,44.1-6.2,44.1
				c-5.5,3.2-12.7,1.4-12.7,1.4s0.4-39.3,0.8-48.7c0.4-11.5,0.8-10.6,0.8-10.6l-1.7-28.6l-1.1-14.2c0,0-1.4,10.5-2.4,19.8
				c-0.8,8.1-2.8,15.5-5,30.6c-1.9,13.1-5,39.5-5,39.5c-5.5,3.2-13,0.5-13,0.5S143.4,404.3,144.9,392.9z"/>
			<path id="_Контур_9" class="st10" d="M152.5,218.9c4,0.2,6.9,1.2,7.4,0c0.4-2,0.7-4.1,0.9-6.2c-0.5-1.1-0.9-2.4-0.9-2.4
				c-5-3.1-6.6-8.4-7.2-14.7c-1.1-10.7,4.7-20.1,15.4-21.2c10.1-1,17.5,6,19.4,15.8c1.1,4.8,3.2,13.9,0.3,21.8
				c-1.6,4.4-3.7,7.9-5.7,8.6c-2-0.1-4-0.2-5.9-0.5l0,0c0,0-0.5,3-0.9,4.9s-0.2,2.9,3.6,5.3s-5.8,7.1-12,6.7s-13.2-4.2-15.2-8.3
				C149.6,224.1,149.8,218.8,152.5,218.9z"/>
			<path id="_Контур_10" class="st11" d="M158.2,219.5c-1.1,2.7,1.7,6.1,9.1,8.4s8.1-0.7,8.1-0.7s10.9,5,14.5,7.4
				c4.5,3.1,6.4,12.2,7.1,27.4c0.7,17.7,0.8,43.9,0.2,48.4c0,0-8.4,8.3-19,7.4s-28.7-10.3-33-17.6c0.1-15.5,1.9-18-0.6-26.9
				c-5.7-20.4-8.8-28.8-6-42.4c2.3-11.2,5.5-12.6,9.9-12.5C151.8,218.7,155,219,158.2,219.5z"/>
			<path id="_Контур_11" class="st10" d="M213.8,276.8c-8.8,2.2-10.8-3.3-12-7.9c-2.8-11.1-4.3-21.1-6.4-27.4
				c-2.4-7.4-5-8.6-8.6-10.1c-4.2-1.7-7.9,1.9-6.5,11.3c1.7,11.2,3.9,19,8,32.2c1.1,3.5,3.5,9.6,7.2,12.5c4.5,3.7,11.3,3.5,21.6,0.9
				c4.4-1.1,9.2-3.7,17.5-7.6c2.2-1,4-1.7,8.2-3.7s8.8-5.3,11-8.6s2.5-4.8,2.1-5.5c-0.6-0.9-1.6-0.7-2.8,0.6
				c-1.7,2.3-3.9,4.3-6.3,5.8c0,0,2.8-2.9,4.3-4.7c1.3-1.6,2.5-3.5,3.3-5.4c0.8-1.9-0.8-4.5-2.1-3.1s-1.8,2.7-4.1,5.5
				c-1.2,1.4-2.6,2.7-4.1,3.9c1.4-1.9,2.7-3.9,3.8-6c1.4-2.9,1.4-4.4,1.4-5.4s-1.5-2.2-2.8-0.3c-1.2,1.7-2,4.3-4.7,7.2
				c-2,2.1-3.7,3.3-3.8,2.7s1.2-1.7,1.9-4.1s0-5-1.3-5.3s-1.1-0.2-2.2,2.1s-2.7,3.9-4,7.2c-1.1,2.9-1.6,4.1-3.6,6.2
				C226.9,272.1,222.1,274.7,213.8,276.8z"/>
			<path id="_Контур_12" class="st15" d="M183.6,229.9c5.9-0.9,10,1.8,12.6,10.6s4.4,16.2,4.4,16.2c-2.3,3.3-5.8,5.7-9.8,6.5
				c-7,1.7-9.5-1.6-9.5-1.6s-2-9.3-3.2-15.6S176.3,231,183.6,229.9z"/>
			<path class="st12" d="M187.2,188.8c0,0,9.3-14.1-10.8-16.9c-14.5-2.1-23.8,7.2-24.8,17.3c-1,9.6,4.9,19.6,9.2,23.6
				c2.1,0.8,6.6,1.2,12.5-1.5c0.2-2.6,0.3-5.3,0.3-7.9C173.6,203.4,166.5,188.6,187.2,188.8z"/>
		</g>
		<ellipse class="st14" cx="54.6" cy="348.4" rx="24" ry="13.9"/>
		<ellipse class="st18" cx="58" cy="345.8" rx="24" ry="13.9"/>
		<polygon class="st18" points="25.9,298.5 34.3,346.8 81.9,346.8 90.1,298.8 		"/>
		<ellipse class="st19" cx="58" cy="297.9" rx="32.1" ry="18.5"/>
		<path class="st20" d="M58,312.3c-7.9,0-15.2-1.7-20.7-4.9c-4.7-2.7-7.4-6.2-7.4-9.6s2.7-6.9,7.4-9.6c5.5-3.1,12.8-4.9,20.7-4.9
			s15.2,1.7,20.7,4.9c4.7,2.7,7.4,6.2,7.4,9.6s-2.7,6.9-7.4,9.6C73.2,310.6,65.9,312.3,58,312.3z"/>
		<path class="st12" d="M71.8,283.2c0,0-0.6-39.2-13.8-53c-16.1,14.2-13.6,53.1-13.6,53.1l13.8,25l0,0
			C60,308.4,71.8,283.2,71.8,283.2z"/>
		<path class="st12" d="M58.2,308.3c0,0-7.3-46.9-34.6-64.6C23.6,243.7,18.8,308,58.2,308.3z"/>
		<path class="st12" d="M58,308.3c0,0,6.6-46,33.2-62.6C91.2,245.7,97.4,308,58,308.3z"/>
		<ellipse class="st14" cx="342.5" cy="486.2" rx="24" ry="13.8"/>
		<ellipse class="st21" cx="346" cy="485.3" rx="24" ry="13.8"/>
		<path class="st21" d="M322.1,485.1v-6.9l7.6,2.5L322.1,485.1z"/>
		<polygon class="st21" points="369.9,478.6 369.9,484.8 361.2,483.1 		"/>
		<ellipse class="st22" cx="346" cy="478.2" rx="24" ry="13.8"/>
		<polygon class="st23" points="330.3,488.6 327.7,487.1 361.5,467.6 364.1,469.1 		"/>
		<polygon class="st24" points="327.7,487.1 327.7,494.2 330.1,495.6 330.4,495.8 330.4,488.6 		"/>
		<ellipse class="st14" cx="24" cy="461.1" rx="24" ry="13.8"/>
		<ellipse class="st21" cx="27.5" cy="460.2" rx="23.9" ry="13.8"/>
		<path class="st21" d="M3.6,460v-7l7.6,2.6L3.6,460z"/>
		<polygon class="st21" points="51.4,453.6 51.4,459.8 42.7,458.1 		"/>
		<ellipse class="st22" cx="27.5" cy="453.1" rx="23.9" ry="13.8"/>
		<polygon class="st23" points="11.8,463.6 9.2,462.1 43,442.6 45.6,444.1 		"/>
		<polygon class="st24" points="9.2,462.1 9.2,469.2 11.6,470.5 11.9,470.7 11.9,463.6 		"/>
		<ellipse class="st14" cx="468.9" cy="447.3" rx="24" ry="13.8"/>
		<ellipse class="st21" cx="472.4" cy="446.4" rx="24" ry="13.8"/>
		<path class="st21" d="M448.5,446.2c0-0.1,0-7,0-7l7.6,2.6L448.5,446.2z"/>
		<polygon class="st21" points="496.4,439.8 496.4,446 487.6,444.3 		"/>
		<ellipse class="st22" cx="472.4" cy="439.3" rx="24" ry="13.8"/>
		<polygon class="st23" points="456.7,449.8 454.1,448.3 487.9,428.8 490.5,430.3 		"/>
		<polygon class="st24" points="454.1,448.3 454.1,455.4 456.5,456.8 456.8,456.9 456.8,449.8 		"/>
	</g>
</g>
</svg>
