<?xml version="1.0" encoding="utf-8"?>
<!-- Generator: Adobe Illustrator 23.1.0, SVG Export Plug-In . SVG Version: 6.00 Build 0)  -->
<svg version="1.1" id="b098510b-f452-4b85-993b-a1bbfe267c61"
	 xmlns="http://www.w3.org/2000/svg" xmlns:xlink="http://www.w3.org/1999/xlink" x="0px" y="0px" viewBox="0 0 1105 782.7"
	 style="enable-background:new 0 0 1105 782.7;" xml:space="preserve">
<style type="text/css">
	.st0{opacity:0.1;fill:#6C63FF;enable-background:new    ;}
	.st1{opacity:0.1;fill:#2E4663;enable-background:new    ;}
	.st2{fill:url(#SVGID_1_);}
	.st3{fill:#FFFFFF;}
	.st4{opacity:0.1;enable-background:new    ;}
	.st5{fill:#FFB0B1;}
	.st6{fill:#2E4663;}
	.st7{fill:#3F3D56;}
	.st8{opacity:0.1;}
	.st9{fill:#535461;}
	.st10{fill:#9D9CB5;}
	.st11{fill:none;stroke:#535461;stroke-width:2;stroke-miterlimit:10;}
	.st12{fill:url(#SVGID_2_);}
	.st13{fill:#1D2366;}
	.st14{fill:#C7DAF5;}
	.st15{opacity:3.000000e-02;enable-background:new    ;}
	.st16{fill:#DCE7FF;}
	.st17{fill:#BE8B87;}
	.st18{opacity:0.1;fill:#FFFFFF;enable-background:new    ;}
	.st19{fill:#EFC8C4;}
	.st20{fill:#727A9C;}
</style>
<title>medicine</title>
<ellipse class="st0" cx="367.4" cy="766.7" rx="97.4" ry="15.7"/>
<ellipse class="st0" cx="897" cy="767.1" rx="121.6" ry="15.7"/>
<path class="st0" d="M13.8,338.2h101.5v138.3h-94c-0.2,1.4-0.5,2.8-0.8,4.3h94.8v111.6c-0.2,0-0.3-0.1-0.5-0.2
	c-2.7-1.1-5.3-2.2-8-3.4l-1.7-0.8c-2.7-1.3-5.3-2.6-8-4c-0.9-0.5-1.9-1-2.8-1.5c-14.8-8.3-28.3-18.8-39.9-31.2c-0.3-0.3-0.7-0.7-1-1
	c-1.6-1.8-3.2-3.5-4.8-5.4l-1.7-2c-1.8-2.2-3.6-4.5-5.3-6.8c-0.2-0.3-0.5-0.7-0.8-1c-7-9.6-12.7-20.1-17.2-31.1
	c-0.1-0.3-0.3-0.7-0.4-1c-1.4-3.5-2.6-7.1-3.7-10.7c-0.5-1.5-0.9-3-1.3-4.6c-0.1-0.5-0.3-0.9-0.4-1.4c-5.7-22.2-6.3-45.2-6.3-68.1
	c0-2.7,0-5.4,0-8c0-9.2,0.1-18.6,0.3-27.9c0-2.4,0.1-4.8,0.2-7.2c0.1-6.1,0.3-12.3,0.6-18.4c0.1-1.7,0.1-3.4,0.2-5.1
	c0-1,0-2,0.2-2.9C13.4,345.2,13.6,341.7,13.8,338.2z"/>
<path class="st0" d="M115.3,184.2H59.7c9-14.2,18.9-27.8,29.6-40.8c8.3-10.2,17-20.1,26.1-29.6L115.3,184.2L115.3,184.2z"/>
<path class="st0" d="M115.3,188.5V334H14.2c0-0.4,0.1-0.9,0.1-1.3c0.1-1.1,0.2-2.3,0.3-3.4c0.1-1.3,0.2-2.7,0.4-4s0.3-2.9,0.4-4.4
	s0.3-2.9,0.5-4.4c0.2-1.5,0.3-2.9,0.5-4.3s0.3-2.9,0.5-4.3c0.2-1.2,0.3-2.4,0.5-3.6c0.2-1.7,0.5-3.4,0.7-5.1c0-0.2,0.1-0.5,0.1-0.8
	c1.8-12.3,4.3-24.5,7.4-36.5c3.3-12.6,7.5-25,12.6-37c5.4-12.6,11.7-24.7,18.9-36.4L115.3,188.5z"/>
<path class="st1" d="M139.6,338.2v138.3h216.8V338.2H139.6z M139.6,480.8v118.8c1.2,0.3,2.5,0.5,3.7,0.7c1.7,0.3,3.3,0.6,5,0.9
	c0.3,0,0.6,0.1,1,0.1c0.7,0.1,1.3,0.2,2,0.3c1.7,0.2,3.3,0.4,5,0.6c0.8,0.1,1.6,0.2,2.4,0.2l1.9,0.2l0,0c1.1,0.1,2.1,0.1,3.1,0.2
	c0.6,0,1.3,0.1,1.9,0.1c0.5,0,1,0,1.5,0s1.3,0,1.9,0c0.9,0,1.7,0,2.6,0h1.1c0.9,0,1.7,0,2.6-0.1h0.1c0.6,0,1.2,0,1.8-0.1
	c0.2,0,0.3,0,0.5,0c0.5,0,1,0,1.5-0.1h0.4l3.4-0.3c1.1-0.1,2.2-0.2,3.3-0.3l2.3-0.3c9.3-1.3,18.4-3.3,27.4-5.8
	c20.2-5.6,40-13.5,60.2-19.3c26.1-7.5,55-11.1,80.2-2v-93.7H139.6V480.8z M356.3,184.2V0c-23.7-0.3-47.4,2.5-70.4,8.3
	C231,22.1,181.8,52,139.6,90.2v94h10.9v4.3h-10.9V334h216.8V188.4H195.1v-4.3h161.2V184.2z M634.8,122c-13.6-0.5-27.1-4.8-39.3-11.4
	c-23.3-12.7-42-32.3-62.8-48.9c-43.3-34.5-97-55.3-152.1-60.4v182.9H690l0.8-0.8L634.8,122z M663,117l29.9,32.8v-41.4
	C682.8,109.6,674.1,112.6,663,117L663,117z M692.8,629.1V480.8h-63.7c-0.2-0.6-0.3-1.3-0.5-1.9c0.2,0.6,0.3,1.3,0.5,1.9H380.6V588
	c2.4,1.8,4.7,3.6,7,5.5l0,0c2.5,2,5,4.1,7.4,6.2l2.5,2.1c1.2,1,2.4,2,3.6,2.9c2.4,1.9,4.8,3.9,7.3,5.8c1.2,1,2.5,1.9,3.7,2.8
	c19.5,14.9,40.1,28.4,61.6,40.3c4.8,2.7,9.7,5.3,14.6,7.8c3.3,1.7,6.6,3.3,9.9,4.9c5,2.4,10,4.8,15,7l0,0
	c46.5,20.9,95.6,35.2,146,42.5c11.2,1.7,22.4,3,33.7,3.9L692.8,629.1h1H692.8z M380.6,188.4v145.5h312.3V188.4H380.6z M380.6,338.2
	v138.3h312.3V338.2H380.6z M717.1,108.2v46.2l38.2-41.9C742.6,110.5,729.9,109,717.1,108.2L717.1,108.2z M717.1,338.2v138.3h303.8
	V338.2H717.1z M1019.8,640.1l1.1-159.3H717.1v240.6c19.6,0.8,39.2,0.6,58.7-0.7l0,0h0.3c9.3-0.6,18.6-1.4,27.9-2.6h0.2
	c49.3-5.7,97.6-18.6,143.2-38.2 M1079.4,361c-1.1-2.7-2.3-5.4-3.5-8c-2.3-5-4.7-9.9-7.1-14.7h-23.7v138.3h59.9
	C1105,437.4,1095.1,397.4,1079.4,361L1079.4,361z M1045.1,480.8v137c16.9-16.2,31.1-34.7,41.4-55.8c12.3-25.5,18-53.1,18.5-81.2
	H1045.1z M1045.1,297.9v36h21.5C1060.1,321.5,1052.9,309.5,1045.1,297.9L1045.1,297.9z M839.1,135.3c-1.6-0.6-3.2-1.2-4.8-1.8
	c-16.8-6.2-33.9-11.3-51.3-15.4l-58.4,64.1l0,0l-1.1,1.2l0.8,0.8h207.8C903.1,164.3,871.9,147.9,839.1,135.3L839.1,135.3z
	 M938.2,188.5H721.4l-4.3,3.9v141.5h37.3h0.1l0,0h266.4v-68.5C996.8,236.2,969,210.4,938.2,188.5L938.2,188.5z"/>
<path class="st0" d="M115.3,261.8v72.1H14.2c0-0.4,0.1-0.9,0.1-1.3c0.1-1.1,0.2-2.3,0.3-3.4c0.1-1.3,0.2-2.7,0.4-4s0.3-2.9,0.4-4.4
	s0.3-2.9,0.5-4.4c0.2-1.5,0.3-2.9,0.5-4.3s0.3-2.9,0.5-4.3c0.2-1.2,0.3-2.4,0.5-3.6c0.2-1.7,0.5-3.4,0.7-5.1c0-0.2,0.1-0.5,0.1-0.8
	c1.8-12.3,4.3-24.5,7.4-36.5L115.3,261.8z"/>
<path class="st0" d="M13.8,338.2h101.5v138.3h-94c-0.2,1.4-0.5,2.8-0.8,4.3h94.8v111.6c-0.2,0-0.3-0.1-0.5-0.2
	c-2.7-1.1-5.3-2.2-8-3.4l-1.7-0.8c-2.7-1.3-5.3-2.6-8-4c-0.9-0.5-1.9-1-2.8-1.5c-14.8-8.3-28.3-18.8-39.9-31.2c-0.3-0.3-0.7-0.7-1-1
	c-1.6-1.8-3.2-3.5-4.8-5.4l-1.7-2c-1.8-2.2-3.6-4.5-5.3-6.8c-0.2-0.3-0.5-0.7-0.8-1c-7-9.6-12.7-20.1-17.2-31.1
	c-0.1-0.3-0.3-0.7-0.4-1c-1.4-3.5-2.6-7.1-3.7-10.7c-0.5-1.5-0.9-3-1.3-4.6c-0.1-0.5-0.3-0.9-0.4-1.4c-5.7-22.2-6.3-45.2-6.3-68.1
	c0-2.7,0-5.4,0-8c0-9.2,0.1-18.6,0.3-27.9c0-2.4,0.1-4.8,0.2-7.2c0.1-6.1,0.3-12.3,0.6-18.4c0.1-1.7,0.1-3.4,0.2-5.1
	c0-1,0-2,0.2-2.9C13.4,345.2,13.6,341.7,13.8,338.2z"/>
<polygon class="st0" points="215.9,209.3 215.9,333.9 139.6,333.9 139.6,209.3 150.4,209.3 150.4,167.1 195.1,167.1 195.1,209.3 "/>
<rect x="139.6" y="338.2" class="st0" width="76.3" height="138.3"/>
<path class="st0" d="M139.6,480.8h76.3v115c-9,2.6-18.2,4.5-27.4,5.8l-2.3,0.3c-1.1,0.1-2.2,0.2-3.3,0.3s-2.2,0.2-3.4,0.3h-0.4
	c-0.5,0-1,0.1-1.5,0.1h-0.5c-0.6,0-1.2,0.1-1.8,0.1l0,0c-0.9,0-1.7,0.1-2.6,0.1c-0.4,0-0.7,0-1.1,0c-0.9,0-1.7,0-2.6,0h-1.9
	c-0.5,0-1,0-1.5,0l-1.9-0.1c-1,0-2.1-0.1-3.1-0.2l0,0l-1.9-0.1l-2.4-0.2c-1.7-0.2-3.4-0.3-5-0.6l-2-0.3l-1-0.1
	c-1.7-0.3-3.3-0.5-5-0.9c-1.2-0.2-2.4-0.5-3.7-0.7L139.6,480.8z"/>
<rect x="630" y="194.6" class="st0" width="62.9" height="139.4"/>
<polygon class="st0" points="692.9,338.2 692.9,476.5 380.6,476.5 380.6,416.9 546.9,416.9 546.9,452.1 630,452.1 630,338.2 "/>
<path class="st0" d="M693.9,629.1h-1v90.8c-11.3-1-22.5-2.2-33.7-3.9c-50.4-7.4-99.6-21.7-146.1-42.6c-13.4-6-26.6-12.6-39.4-19.8
	c-21.5-11.9-42.1-25.4-61.6-40.3c-4.9-3.8-9.7-7.6-14.5-11.5c-3.3-2.7-6.6-5.5-9.9-8.2c-2.3-1.9-4.6-3.7-7-5.5V480.8h248.6
	c-0.2-0.6-0.3-1.3-0.5-1.9c0.2,0.6,0.4,1.3,0.5,1.9H693v148.3C693.2,629.1,693.5,629.1,693.9,629.1z"/>
<path class="st0" d="M857,184.2h-41v-12.7h18.4v-38c1.6,0.6,3.2,1.2,4.8,1.8v36.2H857V184.2z"/>
<path class="st0" d="M955.8,333.9H754.5c0,0,0,0,0.1,0h-0.1h-37.3V194.6h10.6v103H776v-61h40v-48.1h41v48.1h39.9v61h58.8
	L955.8,333.9L955.8,333.9z"/>
<path class="st0" d="M717.1,338.2v138.3h238.6V338.2H717.1z M1020.5,639.4l0.3-109.5h-65.1v-49H717.1v240.5
	c19.6,0.8,39.2,0.6,58.7-0.7l0,0h0.3c9.3-0.6,18.6-1.4,27.9-2.6h0.2c49.3-5.7,97.6-18.6,143.2-38.2"/>
<path class="st0" d="M1049.3,480.8h55.7c-0.5,28.1-6.1,55.7-18.5,81.2c-10.3,21.2-24.5,39.7-41.4,55.8v-88h4.2L1049.3,480.8
	L1049.3,480.8z"/>
<path class="st0" d="M1105,476.5h-55.7V360.9h30.1C1095.1,397.4,1105,437.4,1105,476.5z"/>
<rect x="659.2" y="233.3" class="st0" width="33.7" height="43.7"/>
<rect x="659.2" y="323.9" class="st0" width="33.7" height="10.1"/>
<rect x="659.2" y="338.2" class="st0" width="33.7" height="29.4"/>
<rect x="659.2" y="414.4" class="st0" width="33.7" height="43.7"/>
<rect x="659.2" y="505" class="st0" width="33.7" height="43.7"/>
<path class="st0" d="M692.9,629.1c0.3,0,0.7,0,1,0.1L692.9,629.1v10.2h-33.7v-43.7h33.7V629.1z"/>
<path class="st0" d="M692.9,686.1v33.8c-11.3-1-22.5-2.2-33.7-3.9v-29.9L692.9,686.1L692.9,686.1z"/>
<rect x="380.6" y="473.3" class="st0" width="144.5" height="3.2"/>
<rect x="380.6" y="480.8" class="st0" width="144.5" height="12.3"/>
<rect x="380.6" y="533.4" class="st0" width="144.5" height="19.8"/>
<path class="st0" d="M525,593.5v19.8H412c-4.9-3.7-9.8-7.6-14.5-11.5c-3.3-2.7-6.6-5.5-9.9-8.2L525,593.5z"/>
<path class="st0" d="M525,653.6v19.8h-11.9c-13.4-6-26.5-12.6-39.4-19.8H525z"/>
<rect x="775.8" y="351.6" class="st0" width="28.4" height="28.4"/>
<rect x="160.1" y="219.1" class="st0" width="28.4" height="28.4"/>
<rect x="160.1" y="285.1" class="st0" width="28.4" height="28.4"/>
<rect x="160.1" y="351.2" class="st0" width="28.4" height="28.4"/>
<rect x="160.1" y="417.3" class="st0" width="28.4" height="28.4"/>
<rect x="160.1" y="483.3" class="st0" width="28.4" height="28.4"/>
<rect x="160.1" y="549.4" class="st0" width="28.4" height="28.4"/>
<rect x="884.4" y="351.6" class="st0" width="28.4" height="28.4"/>
<rect x="775.8" y="421.8" class="st0" width="28.4" height="28.4"/>
<rect x="884.4" y="421.8" class="st0" width="28.4" height="28.4"/>
<rect x="775.8" y="491.9" class="st0" width="28.4" height="28.4"/>
<rect x="884.4" y="491.9" class="st0" width="28.4" height="28.4"/>
<rect x="775.8" y="562" class="st0" width="28.4" height="28.4"/>
<rect x="884.4" y="562" class="st0" width="28.4" height="28.4"/>
<rect x="775.8" y="632.2" class="st0" width="28.4" height="28.4"/>
<rect x="884.4" y="632.2" class="st0" width="28.4" height="28.4"/>
<polygon class="st0" points="775.8,720.7 775.8,702.3 804.3,702.3 804.3,718.1 "/>
<path class="st0" d="M18,298.4v16.3h97.3v-16.3H18z M27.7,313.6h-7.9v-14.2h8L27.7,313.6z M37.4,313.6h-8v-14.2h8V313.6z
	 M47.1,313.6h-8v-14.2h8V313.6z M56.7,313.6h-8v-14.2h8V313.6z M66.4,313.6h-8v-14.2h8V313.6z M76.1,313.6h-8v-14.2h8V313.6z
	 M85.8,313.6h-8v-14.2h8V313.6z M95.5,313.6h-8v-14.2h8V313.6z M105.2,313.6h-8v-14.2h8V313.6z M114.8,313.6h-8v-14.2h8V313.6z"/>
<path class="st0" d="M18,345.7V362h97.3v-16.3H18z M27.7,360.9h-7.9v-14.2h8L27.7,360.9z M37.4,360.9h-8v-14.2h8V360.9z M47.1,360.9
	h-8v-14.2h8V360.9z M56.7,360.9h-8v-14.2h8V360.9z M66.4,360.9h-8v-14.2h8V360.9z M76.1,360.9h-8v-14.2h8V360.9z M85.8,360.9h-8
	v-14.2h8V360.9z M95.5,360.9h-8v-14.2h8V360.9z M105.2,360.9h-8v-14.2h8V360.9z M114.8,360.9h-8v-14.2h8V360.9z"/>
<path class="st0" d="M18,393.1v16.3h97.3v-16.3H18z M27.7,408.3h-7.9v-14.2h8L27.7,408.3z M37.4,408.3h-8v-14.2h8V408.3z
	 M47.1,408.3h-8v-14.2h8V408.3z M56.7,408.3h-8v-14.2h8V408.3z M66.4,408.3h-8v-14.2h8V408.3z M76.1,408.3h-8v-14.2h8V408.3z
	 M85.8,408.3h-8v-14.2h8V408.3z M95.5,408.3h-8v-14.2h8V408.3z M105.2,408.3h-8v-14.2h8V408.3z M114.8,408.3h-8v-14.2h8V408.3z"/>
<path class="st0" d="M18,440.4v16.2h97.3v-16.2H18z M27.7,455.7h-7.9v-14.2h8L27.7,455.7z M37.4,455.7h-8v-14.2h8V455.7z
	 M47.1,455.7h-8v-14.2h8V455.7z M56.7,455.7h-8v-14.2h8V455.7z M66.4,455.7h-8v-14.2h8V455.7z M76.1,455.7h-8v-14.2h8V455.7z
	 M85.8,455.7h-8v-14.2h8V455.7z M95.5,455.7h-8v-14.2h8V455.7z M105.2,455.7h-8v-14.2h8V455.7z M114.8,455.7h-8v-14.2h8V455.7z"/>
<path class="st0" d="M18.4,487.8c0.4,1.5,0.8,3.1,1.3,4.6v-3.5h8V503h-4.3c0.1,0.3,0.3,0.7,0.4,1h91.5v-16.2H18.4z M37.4,503h-8
	v-14.2h8V503z M47.1,503h-8v-14.2h8V503z M56.8,503h-8v-14.2h8V503z M66.5,503h-8v-14.2h8V503z M76.2,503h-8v-14.2h8V503z M85.8,503
	h-8v-14.2h8V503z M95.5,503h-8v-14.2h8V503z M105.2,503h-8v-14.2h8V503z M114.9,503h-8v-14.2h8V503z"/>
<path class="st0" d="M41,535.1c0.2,0.3,0.5,0.7,0.8,1h5.3v6.8c0.6,0.7,1.1,1.4,1.7,2V536h8v14.3h-3.2c0.3,0.3,0.6,0.7,1,1h60.8
	v-16.2L41,535.1L41,535.1z M66.4,550.4h-8v-14.2h8V550.4z M76.1,550.4h-8v-14.2h8V550.4z M85.8,550.4h-8v-14.2h8V550.4z M95.5,550.4
	h-8v-14.2h8V550.4z M105.2,550.4h-8v-14.2h8V550.4z M114.8,550.4h-8v-14.2h8V550.4z"/>
<path class="st0" d="M94.4,582.5c0.9,0.5,1.8,1,2.8,1.5v-0.5h8v4.5l1.7,0.8v-5.3h8v8.7c0.2,0.1,0.3,0.1,0.5,0.2v-9.8L94.4,582.5z"/>
<path class="st0" d="M754.5,333.9L754.5,333.9L754.5,333.9L754.5,333.9z M692.9,629.1L692.9,629.1h1H692.9z M628.6,478.9
	c0.2,0.6,0.3,1.3,0.5,1.9l0,0C629,480.2,628.8,479.5,628.6,478.9z M754.5,333.9L754.5,333.9L754.5,333.9L754.5,333.9z M150.5,184.2
	v4.3h44.7v-4.3H150.5z M692.9,629.1L692.9,629.1h1H692.9z M628.6,478.9c0.2,0.6,0.3,1.3,0.5,1.9l0,0
	C629,480.2,628.8,479.5,628.6,478.9z M754.5,333.9L754.5,333.9L754.5,333.9L754.5,333.9z M692.9,629L692.9,629h1H692.9z
	 M628.6,478.9c0.2,0.6,0.3,1.3,0.5,1.9l0,0C629,480.2,628.8,479.5,628.6,478.9z"/>
<linearGradient id="SVGID_1_" gradientUnits="userSpaceOnUse" x1="403.6285" y1="840.9604" x2="403.6285" y2="225.8763" gradientTransform="matrix(1 0 0 1 -47.24 -66.63)">
	<stop  offset="0" style="stop-color:#808080;stop-opacity:0.25"/>
	<stop  offset="0.54" style="stop-color:#808080;stop-opacity:0.12"/>
	<stop  offset="1" style="stop-color:#808080;stop-opacity:0.1"/>
</linearGradient>
<path class="st2" d="M461.6,379.7c0,0-3.9-0.5-3.9-6.3s-2.8-16.5-2.8-16.5l0,0c0,0-2.4-18.7-5.8-21.6s-7.7-20.3-7.7-20.3
	s-0.7-9.4-2.2-11.5s-3.5-7-6.6-14.1s-15.6-12-15.6-12s-22.7-13.2-29.1-17.5l0,0c-0.6-0.4-1.1-0.8-1.6-1.2c-1.1-1.5-6-1.5-6-1.5
	c-0.5-3.2-1-6.9-1.2-10.3c0-0.4,0-0.7,0-1.1c7.2-4.2,12.6-10.9,15.2-18.8c0.1-0.4,0.2-0.8,0.3-1.2c0.9-0.3,1.6-0.9,2-1.8
	c0.6-1.3,0.6-2.8,1.3-4c0.8-1.4,2.4-2.2,3.7-3.2c3.2-2.7,4-7.2,3.9-11.4c-0.1-3.4-0.6-6.7-0.4-10.1l0.1-0.8c0.1-0.5,0.1-1,0.2-1.5
	c0.5-2.5,1.6-4.8,2.2-7.3s0.7-5.2-0.7-7.4c-2-3.1-6.3-3.7-10.1-4.1c-4.2-0.4-8,0.1-10.8-3.4c-1.3-1.8-2.7-3.6-4.3-5.2
	c-0.6-0.5-6-3.8-6-4.1c-5.3-2.5-11.3-2.9-17-1.3c-2.8,0.8-5.5,2.2-8.3,2.8c-6.2,1.5-13.3-0.1-18.5,3.4c-2.9,2-4.7,5.2-6.3,8.3
	c-1.3,2.6-2.7,5.1-4.1,7.6c-2.2,4.2-4.5,8.4-5.4,13.1c-0.2,1-0.3,2-0.4,3.1l0,0l0,0c0,0.4,0,0.7,0,1.1v0.5c0,0.4,0,0.7,0.1,1
	s0,0.4,0.1,0.6s0.1,0.7,0.1,1s0.2,0.9,0.3,1.3c0,0.2,0.1,0.4,0.2,0.5c0.1,0.3,0.2,0.7,0.4,1c0.1,0.2,0.1,0.4,0.2,0.5
	c0.1,0.4,0.3,0.7,0.5,1c0.1,0.1,0.1,0.3,0.2,0.4c0.3,0.5,0.6,0.9,0.9,1.3c2.1,2.7,5.3,4.4,7.6,6.9c0,0.1,0,0.2,0,0.3
	c0,0.3,0,0.5,0,0.8c0.3,11.3,6.1,21.8,15.6,28c0,0.4,0,0.8,0.1,1.1c0.2,3,0.2,5.9-0.1,8.9c-0.8-1-2-1.5-3.3-1.5
	c-0.4,0-0.9,0-1.3,0.1l-0.1-0.1l0,0v0.1c-2.2,0.5-4.9,2.8-7.5,9.3c0,0-7.9,8.9-13.9,8.5s-21.2,9.2-21.2,9.2s-14.8,9.6-18,19.4
	c-1.8,5.6-3.9,11-6.4,16.3l-18.3,37.8l0,0l-3.4,30c0,0,1.9,13.3,1.5,15.4s7.7,20.3,7.7,20.3s26.6,46.8,37.5,49.2l0.8-0.5
	c0.5,0.2,1,0.4,1.5,0.5l2.2-1.6c0.1,1.8,0.1,3.5-0.2,5.3c-1.5,4.6,0.6,34.8,3.2,40.7c2.6,5.9,1.7,83.4,1.7,83.4l-0.4,6.8
	c0,0,0,0.2,0.1,0.6l-0.1,1.6l0.3,0.1c0.3,2.2,0.2,4.4-0.3,6.5c-0.9,3-1.3,11.5-1.3,11.5s-7.5,47.9-3.9,57.5s6.6,20.2,6.6,20.2
	s3.8,12,0.2,14s-13.7,5.5-11.6,10.5c1.9,4.6,9.1,17,10.2,18.8l-0.1,1l-1.5,15.9c0.2,2.1,0.8,4.2,1.7,6.1c1.6,3.5,4.7,7.1,10.7,6.7
	c1-0.1,2.2-0.2,3.3-0.3c10.9-1.5,24.3-6.3,24.3-6.3c-0.7-0.4-1.3-1-1.9-1.6l0,0c-1.1-1-1.7-2.5-1.7-4c0.2-2.9-5.3-16.7-6.6-20.1
	c-0.2-0.5-0.3-0.8-0.3-0.8s12.4-12.9,10.3-24.4c0,0-13.7-8-9.2-12.4s12.6-17,12.6-17s0.4-47.2,0-54.2c-0.4-4.9-0.2-9.8,0.7-14.6
	c0.1-0.7,0.3-1.4,0.5-2.1c6.2,0.9,12.5,1.4,18.8,1.4c2.3,0,4.6,0,7-0.1c0,0.7,0,1.4,0.1,2.2c0.5,11.7,1.5,32.2,2.3,39.8
	c1.1,10.9,7.3,40.3,7.3,40.3s-11.8,7.6,2.1,26.3c0,0,0,6.8-0.9,7.8l0,0c-1,3.2-1.8,6.5-2.4,9.8c-0.6,3.5-0.8,7.1,0.1,8.9
	c2.2,4.4,15.8,4.1,15.8,4.1l0,0l0.3-0.1c5.1-0.5,10.3,1,14.3,4.3c5.1,4.1,24.6,2.3,35.1,1c4.1-0.5,6.9-1,6.9-1
	c0.1-0.5,0.2-1,0.1-1.4l0,0c-0.1-2.6-2.1-8.3-15.9-13.3c0,0-12.9-8.7-12.8-16.3h-0.3h-1.5c1.1-0.1,1.8,0,1.8,0s-5.1-18.5-3-20
	s-4.1-22-4.1-22s-3.5-34.4-3.7-36.8c0-2.1,0.3-4.1,0.9-6.1l-0.9-18.9c0,0-0.2-6.3,0-8.3c0-1.8-0.2-3.5-0.4-5.3
	c-0.1-0.7-0.2-1.4-0.3-2.2c4.9-1.2,8-2.4,8-2.4l-0.6-65.7c4.1-8,4.9-25.5,4.9-38c0-8-0.4-13.9-0.4-13.9l5.6-9.2c0,0,1.3-11-0.8-13.4
	c-0.9-1.1-0.5-2.2,0.2-3.2c0.4-0.3,0.8-0.6,1.2-0.8c0,0-0.1-0.1-0.1-0.2c0.4-0.3,0.8-0.6,1.2-0.9c0,0-2-3.1-0.2-4.4
	c1.7,1.1,3.2,2,4.3,2.7c-0.1,0.7-0.2,1.2-0.2,1.2l0.5-1c1.1,0.6,1.8,1,1.8,1s8.8-17.6,8.6-20.2s6-13.5,6-13.5s0.8-5.7,4.1-8.1
	s2.6-19.8,2.6-19.8s0.9-9.1,3.2-12.8S461.6,379.7,461.6,379.7z M292.8,372l0.2,4.2c-1-1.6-1.7-2.8-1.7-2.8L292.8,372z"/>
<path class="st3" d="M439.6,455.1l-2.2,9.2c0,0-17.3-8.8-20.4-20s5.2-15.5,5.2-15.5l16.1,6.8L439.6,455.1z"/>
<path class="st4" d="M439.6,455.1l-2.2,9.2c0,0-17.3-8.8-20.4-20s5.2-15.5,5.2-15.5l16.1,6.8L439.6,455.1z"/>
<path class="st3" d="M342.5,768.2c0,0-16,5.9-27,6.6c-5.8,0.4-8.9-3.2-10.5-6.6c-0.9-1.9-1.4-4-1.6-6l1.4-15.8l0.8-8.4l23.4-6.1
	l3.3,10.1l0.3,0.8c1.3,3.4,6.7,17.1,6.5,20c0,1.5,0.6,2.9,1.6,4C341.2,767.2,341.8,767.8,342.5,768.2z"/>
<path class="st3" d="M451.8,760.2c0,0.5,0,1-0.1,1.4c0,0-34.2,5.7-41.2,0c-4-3.4-9.2-4.9-14.4-4.2c0,0-13.2,0.4-15.5-4
	c-0.9-1.8-0.7-5.4-0.1-8.9c0.6-3.3,1.4-6.5,2.3-9.7l0.5-0.4l3.1-2.5l36.9-1.1h0.3c-0.2,7.5,12.5,16.2,12.5,16.2
	C449.6,751.9,451.6,757.6,451.8,760.2z"/>
<path class="st4" d="M451.8,760.2c0,0.5,0,1-0.1,1.4c0,0-34.2,5.7-41.2,0c-4-3.4-9.2-4.9-14.4-4.2c0,0-13.2,0.4-15.5-4
	c-0.9-1.8-0.7-5.4-0.1-8.9c5.1,0.5,13.1,1.8,16.3,4.8c4.8,4.6,12.9,9.2,17.9,9.6C418.5,759.1,441.8,759.9,451.8,760.2z"/>
<path class="st4" d="M342.5,768.2c0,0-16,5.9-27,6.6c-5.8,0.4-8.9-3.2-10.5-6.7c4.1,1.4,9.7,2.8,12.7,1.5c3.5-1.6,16-2.6,23-3
	C341.2,767.3,341.8,767.8,342.5,768.2z"/>
<path class="st5" d="M366.2,294.4c-13.2-5.1-30.2-22.1-25.9-30c0.9-2,1.5-4.2,1.6-6.4c0.3-3,0.3-6,0.1-9c-0.3-4.9-0.9-9.8-1.8-14.6
	c0,0,41.2,0.9,38.8,7c-0.7,1.8-0.8,4.9-0.6,8.3s0.7,7.4,1.2,10.7c0.7,4.5,1.4,8,1.4,8s-2.5,3.5-4,3.7S385.2,301.7,366.2,294.4z"/>
<path class="st4" d="M332.5,742.7l-0.3,0.3c-12.3-14.9-27.2,3.7-27.2,3.7l-0.2-0.4l0.8-8.4l23.4-6.1l3.3,10.1L332.5,742.7z"/>
<path class="st4" d="M423.6,731.8c0,0-9-0.2-13.8,4s-28,0.9-27,0c0.3-0.5,0.5-1,0.5-1.5l3.1-2.5l36.9-1.1
	C423.5,731.4,423.6,731.8,423.6,731.8z"/>
<path class="st6" d="M347.8,614.8c-0.7,1.7-1.2,3.4-1.5,5.1c-0.8,4.8-1.1,9.7-0.7,14.6c0.4,7,0,53.9,0,53.9s-7.9,12.5-12.3,16.9
	s9,12.3,9,12.3c2,11.4-10.1,24.3-10.1,24.3c-12.3-14.9-27.2,3.7-27.2,3.7s-8.1-14-10.1-19s7.9-8.5,11.4-10.5s-0.2-14-0.2-14
	s-3-10.5-6.5-20.1s3.9-57.2,3.9-57.2s0.4-8.5,1.3-11.4c0.5-2.1,0.6-4.3,0.3-6.5c-0.1-0.7-0.1-1.3-0.2-1.8s-0.1-0.6-0.1-0.6l0.1-0.2
	l5-9.3C309.9,595,350.2,608.9,347.8,614.8z"/>
<path class="st6" d="M423.6,730.7c0,0-9-0.2-13.8,4s-28,0.9-27,0s0.9-7.7,0.9-7.7c-13.6-18.6-2-26.1-2-26.1s-6.1-29.2-7.2-40.1
	c-0.8-7.6-1.7-28-2.2-39.6c-0.2-5-0.4-8.4-0.4-8.4l11.1-2.2l1.4-0.3l26.8-5.4c0,0,0.7,5,1.2,9.1c0.2,1.7,0.4,3.5,0.4,5.3
	c-0.2,2,0,8.3,0,8.3l0.9,18.8c-0.6,2-0.9,4-0.9,6.1c0.2,2.4,3.7,36.6,3.7,36.6s6.1,20.4,4,21.9S423.6,730.7,423.6,730.7z"/>
<path class="st4" d="M379.1,241.4c-0.7,1.8-0.8,4.9-0.6,8.3c-11.3,6.8-25.4,6.5-36.4-0.7c-0.3-4.9-0.9-9.8-1.8-14.6
	C340.3,234.4,381.5,235.3,379.1,241.4z"/>
<path class="st5" d="M395,219.3c0,3.6-0.6,7.2-1.7,10.6c-5.9,18-25.2,27.8-43.2,21.9c-13.8-4.5-23.2-17.2-23.6-31.7
	c0-0.3,0-0.5,0-0.8c-0.3-18.9,14.7-34.5,33.6-34.8s34.5,14.7,34.8,33.6C395,218.5,395,218.9,395,219.3L395,219.3z"/>
<path class="st4" d="M366.2,294.4c-13.2-5.1-30.2-22.1-25.9-30c0.9-2,1.5-4.2,1.6-6.4l18.1,14.9l11.2,9.2l8.5-21.6
	c0.7,4.5,1.4,8,1.4,8s-2.5,3.5-4,3.7S385.2,301.7,366.2,294.4z"/>
<polygon class="st6" points="412.9,360 397.9,613.5 378.2,614.8 327.2,467.8 335.6,293.3 337.3,256.4 360,275 371.2,284.2 
	379.9,261.9 396.2,276.1 "/>
<path class="st4" d="M347.8,614.8c-0.7,1.7-1.2,3.4-1.5,5.1c-14.3-2.2-28.2-6.6-41.3-12.9l-0.3-0.1l0.1-1.6v-0.8l5-9.3
	C309.9,595.1,350.2,608.9,347.8,614.8z"/>
<path class="st4" d="M383.3,620c-3.7,0.6-7.4,1-11.1,1.3c-0.2-5-0.4-8.4-0.4-8.4l11.1-2.2L383.3,620z"/>
<path class="st4" d="M412.5,614c-7.1,1.8-18.1,3.9-27.9,2.6l-0.1-6.3l26.8-5.4C411.3,604.9,412,609.8,412.5,614z"/>
<path class="st4" d="M384.4,617.7c-41,7-78.6-13.1-78.6-13.1l0.4-6.8c0,0,0.9-77.1-1.6-83s-4.6-35.9-3.1-40.5s-5.3-73.6-5.3-73.6
	l-1.1-28l-40.3-16.3l18-37.5c2.4-5.3,4.5-10.7,6.3-16.2c3.1-9.7,17.7-19.3,17.7-19.3s14.9-9.6,20.8-9.2s13.6-8.5,13.6-8.5
	c5.7-14.5,10.9-8,10.9-8c0,0.7,0,0-0.3,2.1c-2,16,32.3,66.4,32.8,67.2l0,0l3.3,79.7l3.3,100.8L384.4,617.7z"/>
<path class="st3" d="M383.3,617.7c-41,7-78.6-13.1-78.6-13.1l0.4-6.8c0,0,0.9-77.1-1.7-83s-4.6-35.9-3.1-40.5s-5.3-73.6-5.3-73.6
	l-1.1-28l-40.3-16.4l18-37.5c2.4-5.3,4.5-10.7,6.3-16.2c3.1-9.7,17.7-19.3,17.7-19.3s14.9-9.6,20.8-9.2s13.6-8.5,13.6-8.5
	c5.7-14.5,12-8,12-8c0,0.7-0.6,1-0.3,2.1c4.4,15.5,31.2,66.4,31.7,67.2l0,0l3.3,79.7l3.3,100.8L383.3,617.7z"/>
<path class="st4" d="M372.3,329.5c-4.4-1.8-27.8-28.5-27.8-28.5v-6.1c-0.9-2-5.9-0.8-10,0.6l1.8-36.9l2,1.7
	C342.6,275.8,371.8,328.6,372.3,329.5z"/>
<path class="st3" d="M373.4,327.2c-4.4-1.8-27.8-28.5-27.8-28.5v-6.1c-0.9-2-5.9-0.8-10,0.6l1.8-36.9l2,1.7
	C343.8,273.5,372.9,326.4,373.4,327.2z"/>
<path class="st4" d="M305.9,460.3c0.5,0,28.5-2.9,28.5-2.9s16.9,33.3,15.8,41.4s-3.1,15.3-9.9,14s-36.6,1-36.6,1L305.9,460.3z"/>
<path class="st3" d="M304.8,458c0.5,0,28.5-2.9,28.5-2.9s16.9,33.3,15.8,41.4s-3.1,15.3-9.9,14s-36.6,1-36.6,1L304.8,458z"/>
<path class="st5" d="M325.8,442.4c0,0,25.7,13.8,26.2,18s-13.1-1.8-16-2.6c-1.9-0.5-3.9-0.8-5.9-0.9l-19.6,0.5L325.8,442.4z"/>
<circle class="st4" cx="365.1" cy="328.5" r="2.7"/>
<circle class="st7" cx="365.1" cy="327.4" r="2.7"/>
<circle class="st4" cx="370.1" cy="445.4" r="2.7"/>
<circle class="st7" cx="370.1" cy="444.2" r="2.7"/>
<circle class="st4" cx="367.8" cy="386.9" r="2.7"/>
<circle class="st7" cx="367.8" cy="385.8" r="2.7"/>
<path class="st3" d="M430,456.4c0,0,1.8,2.8,0,4s0.2,4.4,0.2,4.4s-4.6,2.7-2.6,5.1s0.7,13.3,0.7,13.3l-5.5,9.1c0,0,0.3,5.9,0.4,13.8
	c0,12.4-0.7,29.9-4.8,37.8l0.6,65.3c0,0-19.3,7.1-35.5,4.9l-2.4-104.8c0,0,3.5-59.4,4.8-70.8c0.8-5.9,1.1-11.9,0.9-17.9
	c0,0-0.5-17.8-2.4-26.1c0,0-2-35.9-2.2-45.8c-0.1-4.8,0.2-18.6,0.4-31.8c0.3-14.4,0.7-28,0.7-28l-3.6-28.9c0,0,3.6-0.4,4.8,1.1
	c0.5,0.5,1,0.9,1.6,1.2l0,0c6.3,4.3,28.6,17.4,28.6,17.4s12.3,4.9,15.3,11.9s5,12,6.4,14s2.2,11.4,2.2,11.4s4.2,17.3,7.5,20.2
	s5.7,21.6,5.7,21.6l-29.2,23c0,0-2.6,38.3-3.1,39.7S430,456.4,430,456.4z"/>
<path class="st3" d="M431.2,456.4c0,0,1.8,2.8,0,4s0.2,4.4,0.2,4.4s-4.6,2.7-2.6,5.1s0.7,13.3,0.7,13.3l-5.5,9.1
	c0,0,0.3,5.9,0.4,13.8c0,12.4-0.7,29.9-4.8,37.8l0.5,65.3c0,0-19.4,7.1-35.5,4.9l-2.4-104.8c0,0,3.5-59.4,4.8-70.8
	c0.8-5.9,1.1-11.9,0.9-17.9c0,0-0.5-17.8-2.4-26.1c0,0-2-35.9-2.2-45.8c-0.1-4.8,0.2-18.6,0.4-31.8c0.3-14.4,0.7-28,0.7-28
	l-4.8-29.3c0,0,4.8,0,5.9,1.5c0.5,0.5,1,0.9,1.6,1.2l0,0c6.3,4.3,28.6,17.4,28.6,17.4s12.3,4.9,15.3,11.9s5,12,6.4,14
	s2.2,11.4,2.2,11.4s4.2,17.3,7.5,20.2s5.7,21.5,5.7,21.5l-29.2,23c0,0-2.6,38.3-3.1,39.7S431.2,456.4,431.2,456.4z"/>
<path class="st4" d="M396.1,297.7l2.6,7.7l-13.9,14c0.3-14.4,0.7-28,0.7-28l-4.8-29.3c0,0,4.8,0,5.9,1.5c0.5,0.5,1,0.9,1.6,1.2l0,0
	l11.8,34.1L396.1,297.7z"/>
<path class="st3" d="M395,295.5l2.6,7.7l-13.9,14c0.3-14.4,0.7-28,0.7-28l-4.8-29.3c0,0,4.8,0,5.9,1.5c0.5,0.5,1,0.9,1.6,1.2l0,0
	l11.8,34.1L395,295.5z"/>
<path class="st4" d="M395,219.3c0,3.6-0.6,7.2-1.7,10.6c-0.4,0.1-0.8,0-1.1-0.3c-0.3-9-4.7-17.5-10.1-24.6c-1.5-2.2-3.4-4.1-5.5-5.7
	c-2.1-1.6-4.8-2.4-7.5-2.1c-3,0.4-5.6,2.4-8.7,2.7c-4,0.3-7.6-2.4-11.5-2.6c-3.3,0-6.4,1.5-8.5,3.9c-2.1,2.5-3.6,5.3-4.5,8.4
	c-1.6,4.7-2.4,9.6-2.5,14.6c0,2.8-0.3,6.3-2.9,7.3c0.4-4.2-1-8.3-3.8-11.4l-0.1-0.1c0-0.3,0-0.5,0-0.8
	c-0.3-18.9,14.7-34.5,33.6-34.8s34.5,14.7,34.8,33.6C395,218.5,395,218.9,395,219.3L395,219.3z"/>
<path class="st6" d="M375,164.9c-5.2-2.4-11.1-2.9-16.6-1.3c-2.8,0.8-5.4,2.1-8.2,2.8c-6,1.4-13-0.1-18.1,3.4
	c-2.9,2-4.6,5.2-6.2,8.2l-4,7.6c-2.2,4.2-4.4,8.4-5.3,13s-0.4,9.7,2.5,13.4c2.1,2.7,5.2,4.4,7.5,6.9c2.8,3.1,4.1,7.2,3.8,11.4
	c2.6-1,2.9-4.5,2.9-7.3c0.1-5,1-9.9,2.5-14.6c0.9-3.1,2.5-6,4.5-8.4c2.1-2.5,5.2-3.9,8.5-3.9c4,0.1,7.6,2.9,11.5,2.6
	c3-0.2,5.7-2.3,8.7-2.7c2.7-0.3,5.3,0.5,7.5,2.1c2.1,1.6,4,3.5,5.5,5.7c5.5,7.2,9.9,15.6,10.1,24.6c1.1,0.8,2.8-0.2,3.3-1.5
	s0.6-2.8,1.3-4c0.8-1.4,2.4-2.2,3.6-3.2c3.1-2.7,3.9-7.2,3.8-11.3s-0.9-8.3-0.1-12.3c0.5-2.5,1.5-4.8,2.1-7.2s0.6-5.2-0.7-7.3
	c-2-3.1-6.2-3.7-9.9-4c-4.2-0.4-7.9,0.1-10.6-3.4c-1.2-1.8-2.7-3.6-4.2-5.1C380.3,168.5,375,165.2,375,164.9z"/>
<path class="st4" d="M266.3,375.8l-10.5-19.3l-3.3,29.8c0,0,1.8,13.2,1.5,15.3s7.5,20.2,7.5,20.2s26.1,46.5,36.8,48.9l36-25.8
	l-9.6-12.1c0,0-3.3-1.3-4.1,0c0,0-17.8-30.5-19.6-32.8s-1.5-6.6-1.5-6.6s-2.8-2.9-1.8-5.7s-5.3-12.3-5.3-12.3l5.7-5.3L266.3,375.8z"
	/>
<path class="st3" d="M256.4,354.3l-2.8,2.2l-3.3,29.8c0,0,1.8,13.2,1.5,15.3s7.6,20.2,7.6,20.2s26.1,46.5,36.8,48.9l36.1-25.8
	l-9.6-12.1c0,0-3.3-1.3-4.1,0c0,0-17.8-30.5-19.6-32.8s-1.5-6.6-1.5-6.6s-2.8-2.9-1.8-5.7s-5.3-12.3-5.3-12.3l5.7-5.3L256.4,354.3z"
	/>
<path class="st4" d="M427.7,471.1c2,2.4,0.7,13.3,0.7,13.3l-5.5,9.1c0,0,0.3,5.9,0.4,13.8l-9.3,2.9c-2.9,0.9-6-0.7-6.9-3.6
	c-0.2-0.6-0.3-1.2-0.2-1.8l1.6-51.6l21.6,8.3c-1.8,1.3,0.2,4.4,0.2,4.4S425.6,468.7,427.7,471.1z"/>
<path class="st3" d="M428.8,470c2,2.4,0.7,13.3,0.7,13.3l-5.5,9.1c0,0,0.3,5.9,0.4,13.8l-9.5,3c-2.8,0.9-5.9-0.7-6.8-3.6
	c-0.2-0.6-0.3-1.2-0.2-1.8l1.6-51.8l21.7,8.3c-1.9,1.3,0.2,4.4,0.2,4.4S426.8,467.5,428.8,470z"/>
<path class="st5" d="M435.9,445.4c0,0-1.5,9.4-5.1,9.9s-5.3,15.2-9,14.7s-1.2-13.6-1.1-16.2s-4-13.1-0.9-15.5s12.9,0,12.9,0
	L435.9,445.4z"/>
<path class="st4" d="M443.8,373.1l6.9-14c0,0,2.8,10.7,2.8,16.4s3.9,6.3,3.9,6.3s4.2,5,2,8.6s-3.1,12.7-3.1,12.7s0.7,17.3-2.6,19.7
	s-4,8.1-4,8.1s-6.1,10.9-5.9,13.4s-8.5,20.1-8.5,20.1s4.2-21.7-20.4-31.1c0,0-0.2-7.4,1.6-9.4s4.7-2.9,2.9-13.1s-0.5-22.4-0.5-24.9
	s5.5-17.7,5.5-17.7L443.8,373.1z"/>
<path class="st3" d="M446.8,357.1l6.1,2c0,0,2.8,10.7,2.8,16.4s3.9,6.3,3.9,6.3s4.2,5,2,8.6s-3.1,12.7-3.1,12.7s0.7,17.3-2.6,19.7
	s-4,8.1-4,8.1s-6.1,10.9-5.9,13.4s-8.5,20.1-8.5,20.1s4.2-21.7-20.4-31.1c0,0-0.2-7.4,1.7-9.4s4.7-2.9,2.9-13.1s-0.5-22.4-0.5-24.9
	s5.5-17.7,5.5-17.7L446.8,357.1z"/>
<path class="st4" d="M312.9,719.9c0,0,9.7-6.1,16-1.7S312.9,719.9,312.9,719.9z"/>
<path class="st4" d="M388,701.2c0,0,8.5-1.1,15.7,6.6S388,701.2,388,701.2z"/>
<g class="st8">
	<path d="M400.5,217.5c-1.2,1.1-2.8,1.8-3.6,3.2c-0.7,1.2-0.7,2.7-1.3,4s-2.2,2.4-3.3,1.5c-0.3-9-4.7-17.5-10.1-24.6
		c-1.5-2.2-3.4-4.1-5.5-5.7c-2.1-1.6-4.8-2.4-7.5-2.1c-3,0.4-5.6,2.4-8.7,2.7c-4,0.3-7.6-2.4-11.6-2.6c-3.3,0-6.4,1.5-8.5,3.9
		c-2.1,2.5-3.6,5.3-4.5,8.4c-1.6,4.7-2.4,9.6-2.5,14.6c-0.1,2.8-0.3,6.3-2.9,7.3c0.1,0.7,0.1,1.5,0,2.2c2.6-1,2.9-4.5,2.9-7.3
		c0.1-5,1-9.9,2.5-14.6c0.9-3.1,2.5-6,4.5-8.4c2.1-2.5,5.2-3.9,8.5-3.9c4,0.1,7.6,2.9,11.6,2.6c3-0.2,5.7-2.3,8.7-2.7
		c2.7-0.3,5.3,0.5,7.5,2.1c2.1,1.6,4,3.5,5.5,5.7c5.5,7.2,9.9,15.6,10.1,24.6c1.1,0.8,2.8-0.2,3.3-1.5s0.6-2.8,1.3-4
		c0.8-1.4,2.4-2.2,3.6-3.2c3.1-2.7,3.9-7.2,3.8-11.3c0-0.1,0-0.3,0-0.4C404.1,211.6,403.1,215.2,400.5,217.5z"/>
	<path d="M326.7,216.8c-2.3-2.5-5.4-4.2-7.5-6.9c-1.8-2.4-2.8-5.2-2.9-8.2c-0.3,3.7,0.7,7.4,2.9,10.4c2.1,2.7,5.2,4.4,7.5,6.9
		c2.2,2.5,3.5,5.6,3.8,8.9C330.7,223.9,329.4,219.9,326.7,216.8z"/>
	<path d="M406.2,186.6c-0.6,2.4-1.6,4.8-2.1,7.2c-0.3,1.7-0.4,3.3-0.3,5c0-1,0.1-1.9,0.3-2.8c0.5-2.5,1.5-4.8,2.1-7.2
		c0.3-1.4,0.5-2.8,0.3-4.1C406.5,185.3,406.4,186,406.2,186.6z"/>
</g>
<ellipse class="st0" cx="132.7" cy="744.9" rx="97.4" ry="15.7"/>
<rect x="129.6" y="445.1" class="st9" width="6.3" height="141.2"/>
<path class="st7" d="M175.3,585.9l-0.4,6.4l-0.6,9l-0.2,3.7l-0.6,9l-0.2,3.7l-0.6,9l-6.3,102.1c-0.6,9.1-8.1,16.2-17.3,16.2h-32.9
	c-9.1,0-16.7-7.1-17.2-16.2l-6.3-102.1l-0.6-9l-0.2-3.7l-0.6-9l-0.2-3.7l-0.6-9l-0.4-6.4c-0.3-5,3.5-9.2,8.5-9.5c0.2,0,0.3,0,0.5,0
	h67.2c4.9,0,8.9,4.1,8.9,9C175.3,585.5,175.3,585.7,175.3,585.9z"/>
<polygon class="st10" points="174.9,592.2 174.3,601.2 91.1,601.2 90.6,592.2 "/>
<polygon class="st10" points="174.1,605 173.5,613.9 91.9,613.9 91.4,605 "/>
<polygon class="st10" points="173.3,617.7 172.8,626.7 92.7,626.7 92.2,617.7 "/>
<path class="st6" d="M81,498c36.5,26.4,51.8,67.7,51.8,67.7s-44-1.5-80.5-27.9S0.5,470.1,0.5,470.1S44.5,471.6,81,498z"/>
<path class="st11" d="M0.5,470.1c0,0,45.7,25.3,60.3,46.3c14.6,21,71.9,49.3,71.9,49.3"/>
<path class="st6" d="M104.6,444.8c19.9,14.4,28.2,36.9,28.2,36.9s-23.9-0.8-43.8-15.2s-28.2-36.9-28.2-36.9S84.7,430.4,104.6,444.8z
	"/>
<path class="st11" d="M60.8,429.6c0,0,24.9,13.8,32.8,25.2s39.2,26.8,39.2,26.8"/>
<path class="st6" d="M161.6,480.5c-22.8,25.1-27.7,57.9-27.7,57.9s32.2-7.9,55-33s27.7-57.9,27.7-57.9S184.4,455.5,161.6,480.5z"/>
<path class="st11" d="M216.6,447.6c0,0-29.7,25.7-37.3,43.4s-45.4,47.4-45.4,47.4"/>
<linearGradient id="SVGID_2_" gradientUnits="userSpaceOnUse" x1="940.69" y1="833.8083" x2="940.69" y2="271.6281" gradientTransform="matrix(1 0 0 1 -47.24 -66.63)">
	<stop  offset="0" style="stop-color:#808080;stop-opacity:0.25"/>
	<stop  offset="0.54" style="stop-color:#808080;stop-opacity:0.12"/>
	<stop  offset="1" style="stop-color:#808080;stop-opacity:0.1"/>
</linearGradient>
<path class="st12" d="M999.7,471.7c0,0-16.5-82.1-10.2-92.4c0,0,0.2-9.5-0.2-21.6c0-0.5,0-0.9,0-1.4c1.1,0.7,2.3,1.4,3.5,2
	c5.8,3,12.5,3.9,18.9,2.4l-5-5.6c-1.2-1.3-2.4-2.8-2.7-4.5s0.5-3.3,1.1-4.9c4.8-12,5-27.1-4.2-36.2c-7.7-7.7-9.6-17.6-18-24.7
	c-6.1-5.1-9.5-12.7-12.7-20c-2.7-6.2-5.4-12.4-6.9-18.9c-1.2-5.1-1.7-10.4-3.3-15.4s-4.7-9.8-9.6-12.1c-1.7-0.8-3.6-1.2-5.2-2.3
	c-2.1-1.4-3.3-3.6-4.8-5.6c-7.6-10-32.9-4.1-44.9,0c-3.3,1-6.3,2.7-8.9,4.9l0.1-0.2c0.1-0.1,0.2-0.3,0.3-0.5
	c-1.3,1.1-2.4,2.3-3.4,3.8c-1.8,2.8-2.5,6-3.9,9c-1.8,3.5-11.5,13.5-7.3,17.5c0.3,0.3,0.6,0.5,1,0.6c1.6,0.7,3.3,0.8,5,0.5l-0.2,0.4
	c-1.4,3.5-2.2,7.3-2.2,11.1c0,16.4,13.5,29.8,30.3,29.8c3.1,0,6.3-0.5,9.3-1.4c0.1,0.4,0.1,0.8,0.2,1.1c0,0.1,0,0.3,0.1,0.5l0,0
	l-0.5,0.7l-0.1-0.1l-15.7,21.9c-2.4,1.7-16.2,11.7-17,19.2c-0.8,8.2-1.6,17.8-1.6,17.8l-0.1,2.1c-1.4,1.2-3.2,1.7-5,1.4
	c-4.9-0.8-4.9,18-4.9,18s-3.3,3-5.5,0.4s-8.2,6.2-8.2,6.2l-37.1,1.6l0,0h-0.8l-2-6.2c-0.4-1.4-1.9-2.1-3.3-1.7
	c-0.2,0.1-0.3,0.1-0.5,0.2l-0.1,0.1l-0.3,0.2l-0.1,0.1c-0.1,0.1-0.1,0.1-0.2,0.2l-0.1,0.1l-0.1,0.1l0,0c-0.5,0.6-0.6,1.5-0.4,2.2
	l1.7,5.3c-7.2,1.4-14.5,5.5-8.5,16.7l-30.3-5.6l9.8,8.2l50.5,10.4c-0.7,1.2-0.2,2.9,1.9,5.4c9,10.6,25.4,13.4,32,14.2
	c1.7,3.9,3.9,7.6,6.5,11l-0.6,10.5c0,0-16.7,80.3-19.8,84.3c1.5-1.8,3-3.6,4.2-5.6c-4.8,16.5-11.6,39.1-13.4,42.4
	c-2.9,5.4-5.5,27.2-2.2,28.7c1,0.4,3.9,0.2,7.9-0.1v1.8l-0.2,68.6c0,0,0.8,42.1-1.4,46.1s-2.8,12.4-2.8,12.4s-9,16.6-16.1,23.3
	c0,0.1-0.1,0.1-0.2,0.1l-0.2-1.6c0,0-8.6,10.8-27.5,10.2c0,0-11.4,7.4,5.5,7.8s38.5-0.6,38.5-0.6s15.1-23,27.7-20v17.4h3.9V746
	c3.6-2.4,6.1-6.2,6.9-10.4c0.7-4.4-1-8.9-4.5-11.7c-1.6-1.4-2.4-3.4-2.5-5.5l-0.1,0.1c0-0.3-0.1-0.7-0.1-1.1
	c-1.1-9-2.5-27.6,2.4-41.3c6.7-18.8,8.8-45.1,3.9-60.7c-1.6-5-2.9-10.1-3.9-15.2c-0.1-0.7-0.2-1.3-0.3-1.8c3.3,0.5,6.7,1.1,9.9,2
	c11.3,3.1,36.2,3.7,57.4,3.5c0,0.6,0.1,1.2,0.2,1.8c0.4,4.2,1.2,8.4,2.4,12.5c2.7,8,3.9,43.3,3.9,43.3s3.4,29,1.6,40.8
	c-1,6.6-2,13.2-2.6,19.8v0.1c0,0-5.6,16-9.7,24.7c-0.1,0.2-0.2,0.4-0.3,0.7c-1.1,0.1-2.2,0.3-3.2,0.7c0,0-5.5,11-11,12.8
	s-3.7,7.8,8.8,5.6s31.2-4,31.2-4l0.8-11.2l3.8-4.8l-1,11.2l4.1-0.8l-0.5-13.6l6.2-7.8c0,0,7.6-6.7-3.7-19.9v0.3
	c-0.1-0.2-0.2-0.4-0.4-0.6v-0.1c-1.9-2.9-3.3-8.2-0.6-17.8c4.9-17.2,7.8-32.8,7.8-32.8s10.9-41.9-2.2-61.7h0.6
	c-1.3-2.8-2.3-5.7-2.8-8.8c-0.1-0.4-0.1-0.7-0.2-1.1c9.7-0.6,19.3-2.3,27.1-6.1C1008.2,586.9,1003.6,487.5,999.7,471.7z
	 M876.1,402.4v0.2l-2,0.1L876.1,402.4z M869.3,403.4c-0.3,0.1-0.6,0.2-0.9,0.4c-0.9,1.2-1.4,2.6-1.6,4.1l-3.1-0.7c0,0-2.2-0.5-5.3-1
	l-1.5-1.5C861,404.4,865.2,403.9,869.3,403.4z"/>
<polygon class="st13" points="972.5,743.5 971.3,757.7 975.3,756.9 974.7,741.5 "/>
<path class="st5" d="M881.5,676.2c-4.8,13.7-3.5,32.2-2.4,41.2c0.4,3.3,0.8,5.3,0.8,5.3s-7.2,16.4-7.8,17s-21.2,13.2-21.2,13.2
	l-14.4,8.4c0,0-14.6-6.4-7.6-8.6c1.4-0.6,2.7-1.5,3.8-2.6c7-6.7,15.8-23.2,15.8-23.2s0.6-8.4,2.8-12.4s1.4-45.9,1.4-45.9l0.2-68.3
	v-8.9l27.3,0.2c0.2,3,0.6,6,1.2,9c1,5.1,2.3,10.2,3.8,15.2C890.1,631.4,888.1,657.5,881.5,676.2z"/>
<path class="st4" d="M879.9,722.8c0,0-7.2,16.4-7.8,17S850.9,753,850.9,753l-14.4,8.4c0,0-14.6-6.4-7.6-8.6c1.4-0.6,2.7-1.5,3.8-2.6
	l0.6,4.4l4.8-0.2l41-36.9C879.5,720.7,879.9,722.8,879.9,722.8z"/>
<path class="st6" d="M879.4,718.4l-41.2,37.1l-4.8,0.2l-1-7c0,0-8.4,10.8-27,10.2c0,0-11.2,7.4,5.4,7.8s37.7-0.6,37.7-0.6
	s14.8-23,27.2-20v17.4h3.8V746c3.6-2.4,6-6.2,6.7-10.4c0.7-4.4-1-8.8-4.4-11.7C880.2,722.4,879.4,720.4,879.4,718.4z"/>
<path class="st5" d="M976.3,697.6c-2.7,9.5-1.2,14.8,0.6,17.7v0.1c2.3,3.5,4,7.5,4.8,11.7l0.2,0.9l-18.8,27.3l-10.2,4
	c0,0-16.4-5.6-13.4-7.2c0.8-0.4,1.9-2.5,3.3-5.3c4-8.7,9.5-24.6,9.5-24.6V722c0.6-6.6,1.5-13.2,2.5-19.7c1.8-11.8-1.5-40.7-1.5-40.7
	s-1.2-35.1-3.8-43.1c-1.2-4.1-2-8.2-2.3-12.4c-0.5-5-0.7-9.1-0.7-9.1s10.8-15,30.5,1.2c1.6,1.3,3,2.8,4.1,4.5
	c13.7,19.4,2.7,62.2,2.7,62.2S981.1,680.4,976.3,697.6z"/>
<path class="st4" d="M981.9,728l-18.8,27.3l-10.2,4c0,0-16.4-5.6-13.4-7.2c0.8-0.4,1.9-2.5,3.3-5.3c6.9-0.1,10.5,6.5,10.5,6.5
	l8.8-1.4c0,0,11.6-22.8,14.2-24.2s0.4-10.4,0.4-10.4V715c0.1,0.1,0.1,0.2,0.2,0.2v0.1c2.3,3.5,4,7.5,4.8,11.7L981.9,728z"/>
<path class="st6" d="M954,753.9c0,0-5-9.2-14.6-5.8c0,0-5.4,11-10.8,12.8s-3.6,7.8,8.6,5.6s30.5-4,30.5-4l0.8-11.2l12.4-15.8
	c0,0,7.4-6.7-3.6-19.9v2.3c0,0,2.2,9-0.4,10.4s-14.1,24.2-14.1,24.2L954,753.9z"/>
<path class="st4" d="M880.3,591.6c0.2,3,0.6,6,1.2,9c-11.3-1.7-21.7-0.8-28.6-0.3v-8.9L880.3,591.6z"/>
<path class="st4" d="M982.3,605.2c0,0-16,0.8-35.1,0.9c-0.5-5-0.7-9.1-0.7-9.1s10.8-15,30.5,1.2c1.6,1.3,3,2.8,4.1,4.5
	C981.5,603.5,981.9,604.4,982.3,605.2z"/>
<path class="st6" d="M982.3,603.4c0,0-70.1,3.4-91.4-2.6s-42.5-0.8-45.7-2.2s-0.6-23.2,2.2-28.5s18.2-59.9,18.2-59.9l14.8-77.1
	l15.6-4.3l1.1-0.3l27.1-7.5l19.9-5.5c0,0,39.5,154.3,36.1,165.7c-1.2,4.4-1.4,8.9-0.6,13.4C980,597.6,981,600.6,982.3,603.4z"/>
<path class="st14" d="M828.8,380.4c0,0-14,15-3.4,23.4s17.6,0.8,17.6,0.8L828.8,380.4z"/>
<path class="st4" d="M828.8,380.4c0,0-14,15-3.4,23.4s17.6,0.8,17.6,0.8L828.8,380.4z"/>
<path class="st5" d="M941.9,281.8c0,0-1.6,1.6-4.1,3.9c-3.5,3.3-8.7,8.1-13.3,12.1c-6.4,5.6-11.7,9.7-9.8,6.2s1.5-9.6,0.6-15.3
	c-0.1-0.4-0.1-0.8-0.2-1.1c-0.8-4.2-1.8-8.3-3.1-12.4c0,0,10.3-13.4,16.1-18.6c2.1-2,3.6-2.8,3.7-1.4c0.1,1.9,1.5,6,3.2,10.4
	c0,0.1,0.1,0.3,0.2,0.4c1.2,3,2.5,6.1,3.6,8.7C940.5,278.7,941.9,281.8,941.9,281.8z"/>
<path class="st4" d="M935.1,265.9c-2,10.6-9.6,19.4-19.9,22.8c-0.8-4.6-1.9-9.1-3.3-13.5c0,0,19.5-25.1,19.8-20.1
	C931.8,257,933.3,261.3,935.1,265.9z"/>
<path class="st4" d="M913.3,295.4l2.5-3.5c0,0,1.7,10.2,7.8,5.7s6.4,33.8,6.4,33.8l-6.6,98.5l-47.6-2.9l1.3-47.6l5.4-24l13.3-34.9
	l7.9-11.5L913.3,295.4z"/>
<path class="st13" d="M930,331.9l-6,89.1l-0.6,9.4l-26.5-1.6l-1-0.1l-20-1.2l1.3-47.6l5.4-24l13.3-34.9l7.9-11.5l9.4-13.6l2.5-3.5
	c0,0,1.7,10.2,7.8,5.7l0.1-0.1l0,0C929.8,294.2,930,331.9,930,331.9z"/>
<path class="st3" d="M883.3,347.6c0,0-2.4,5-7.2,4.2s-4.8,18-4.8,18s-3.2,3-5.4,0.4s-8,6.2-8,6.2l-36.3,1.6c0,0,16.2,7.4,13,29.8
	c0,0,54.9-3.4,56.7-8.6S883.3,347.6,883.3,347.6z"/>
<path class="st15" d="M883.3,347.6c0,0-2.4,5-7.2,4.2s-4.8,18-4.8,18s-3.2,3-5.4,0.4s-8,6.2-8,6.2l-36.3,1.6c0,0,16.2,7.4,13,29.8
	c0,0,54.9-3.4,56.7-8.6S883.3,347.6,883.3,347.6z"/>
<polygon class="st3" points="777.7,389.8 787.2,397.9 866.1,414.5 856.3,404.5 "/>
<path class="st3" d="M913.4,298.5c-1.3,2-5.1,12.2-8.2,21.2c-2.6,7.5-4.8,14-4.8,14s-5.1,33.1-7.7,39.1s-1.2,29.4-1.2,29.4
	l-9.7,57.7c0,0-4.4,29.8-11.2,47.5c-6.7,17.5-14.1,25.7-14.4,26c3-4.1,19.3-84,19.3-84l5.4-100.8c0,0,0.8-9.6,1.6-17.8
	s17-19.4,17-19.4l15.6-22.2C916.9,291.3,915.8,294.9,913.4,298.5z"/>
<path class="st5" d="M872.7,428.1c0,0-23-1-34.1-14.4s25.8-5.3,25.8-5.3l9.6,2.2L872.7,428.1z"/>
<path class="st4" d="M980.1,581.2c-1.2,4.4-1.4,8.9-0.6,13.4c-25.1,1.8-51.9-5-51.9-5c-5,4.6-18.2,11.4-18.2,11.4l-7.2-89
	c-4.6-12-6.4-74.9-6.4-74.9s0.4-3.3,1-8.2c0-0.1,0-0.2,0-0.4c1.8-13.8,5.3-39.6,7.1-43.1c2.4-4.8-7.4-17.6-7.4-17.6l4.5-38l0.5-4.6
	c9.4-4.2,16.6-17.6,16.6-17.6l5.5-9.7l0,0c6-3.9,6.3,33.9,6.3,33.9l-6,89.1l19.9-5.5C943.9,415.6,983.5,569.8,980.1,581.2z"/>
<path class="st3" d="M1005.8,587.4c-27.3,13.6-77.1,1-77.1,1c-5,4.6-18.2,11.4-18.2,11.4l-7.2-89c-4.6-12-6.4-74.9-6.4-74.9
	s5.8-46.9,8.2-51.7c0.7-1.4,0.4-3.5-0.5-5.7c-4.1-10.7-5.6-22.1-4.4-33.5l1.9-16.3l0.5-4.6c9.4-4.2,16.6-17.6,16.6-17.6l5-8.8
	l9.2-16.1l4.4-7.6l0.7,0.7l5.7,5.1c0,0,2.4,2,6,5c7.8,6.6,21.4,18.2,28.3,25.3c6.1,6.3,8.1,30.6,8.6,48.9
	c0.4,12.1,0.2,21.5,0.2,21.5c-6.2,10.2,10,92,10,92C1001.3,488.4,1005.8,587.4,1005.8,587.4z"/>
<path class="st15" d="M953.4,306.3c0,0-18.8,35.7-16.6,49.3s8.4,29,5.4,32.5c-2.1,2.8-5.3,4.4-8.8,4.4c-3,0.2-11,5.8-11,6.4
	s-7.4,0.6-14,3.4s-16.4,4.4-16.4,4.4s-19-0.6-20.8,1.2s-3.6,12.6,0.2,21.2s8,15,11.2,16.2s23.4-5.6,39.7-7.2s34.1-14.6,34.1-14.6
	s19.6-7,23-18.8s-4.2-76.5-4.2-76.5S969.5,298.1,953.4,306.3z"/>
<path class="st15" d="M951,303.3c0,0-18.8,35.7-16.6,49.3s8.4,29,5.4,32.5c-2.1,2.8-5.3,4.4-8.8,4.4c-3,0.2-11,5.8-11,6.4
	s-7.4,0.6-14,3.4s-16.4,4.4-16.4,4.4s-19-0.6-20.8,1.2s-3.6,12.6,0.2,21.2s8,15,11.2,16.2s23.4-5.6,39.7-7.2s34.1-14.6,34.1-14.6
	s19.6-7,22.9-18.8c3.4-11.8-4.2-76.5-4.2-76.5S967.1,295.1,951,303.3z"/>
<path class="st3" d="M952.8,304.5c0,0-18.8,35.7-16.6,49.3s8.4,29,5.4,32.5c-2.1,2.8-5.3,4.4-8.8,4.4c-3,0.2-11,5.8-11,6.4
	s-7.4,0.6-14,3.4s-16.4,4.4-16.4,4.4s-19-0.6-20.8,1.2s-3.6,12.6,0.2,21.2s8,15,11.2,16.2s23.4-5.6,39.7-7.2s34.1-14.6,34.1-14.6
	s19.6-7,23-18.8s-4.1-76.5-4.1-76.5S968.9,296.4,952.8,304.5z"/>
<path class="st4" d="M952.4,400.4c0,0-15-3-9.8,2s5.2,9.4,11.6,9.2S952.4,400.4,952.4,400.4z"/>
<path class="st4" d="M977.7,508c0,0-6.8,4.6,6.2,15.2S977.7,508,977.7,508z"/>
<path class="st4" d="M964.8,545.7c0,0.6-2.4,22,6.6,27.3S964.8,545.7,964.8,545.7z"/>
<path class="st5" d="M822.2,378c-7.2,0.2-22.9,2.5-14.8,17.6c7.2,13.4,19.2,4.4,26-2.4C831.8,386.9,827.7,381.4,822.2,378z"/>
<path class="st5" d="M834.2,392.4L834.2,392.4z"/>
<path class="st5" d="M833.5,393.1l0.3-0.3L833.5,393.1z"/>
<path class="st4" d="M950.4,285.4c-7.7,5.2-14.1,9.7-15.4,10.6c-3.4,2.5-10,17.5-14.2,25.2c-3.4,6.1-14.3,7.7-18.5,8.1l0.5-4.6
	c9.4-4.2,16.6-17.6,16.6-17.6l18.6-32.5l6.4,5.8C944.4,280.4,946.8,282.4,950.4,285.4z"/>
<path class="st16" d="M950.4,284.8c-7.7,5.2-14.1,9.7-15.4,10.6c-3.4,2.5-10,17.5-14.2,25.1c-3.4,6.1-14.3,7.7-18.5,8.1l0.5-4.6
	c9.4-4.2,16.6-17.6,16.6-17.6L938,274l6.4,5.8C944.4,279.7,946.8,281.7,950.4,284.8z"/>
<path class="st5" d="M935.6,259.3c0,6-1.8,11.9-5.2,16.8c-9.3,13.5-27.7,16.9-41.2,7.6s-16.9-27.7-7.6-41.2s27.7-16.9,41.2-7.6
	C930.8,240.4,935.6,249.5,935.6,259.3z"/>
<path class="st4" d="M987.3,359c-4.1-2.5-7.4-6.1-9.6-10.3c-1.7-3.3-2.8-7.1-5.6-9.5c-2.6-2.1-6-2.6-9.2-3.5
	c-10.5-3.1-19.3-12.7-19.7-23.7c-0.2-5.2,1.5-10.3,0.7-15.4c-0.4-2.9-1.6-5.6-3.3-8c-0.9-1.1-1.8-2.1-2.9-3.1
	c-1.4-1.3-2.9-2.6-4.2-4c-0.8-0.9-1.5-1.8-2.1-2.9c-0.5-0.8-0.9-1.7-1.2-2.6c-2-6.1-0.2-13.4-2.4-19.6l-0.1-0.3
	c-0.8-2.2-2.5-4.4-4.9-4.6s-4.4,1.8-6.6,2.6c-4.7,1.8-9.8-1.3-13.7-4.4s-8.3-6.8-13.3-6.1c-3.3,0.5-5.9,2.7-8.9,3.9
	c-0.7,0.3-1.4,0.5-2.1,0.6c6.1-15.2,23.4-22.6,38.6-16.5c11.2,4.5,18.6,15.4,18.6,27.5c0,2.1-0.2,4.2-0.7,6.2c0,0.1,0.1,0.3,0.2,0.4
	c1.2,3,2.5,6.1,3.6,8.7l5.7,5.1c0,0,2.4,2,6,5c7.8,6.6,21.4,18.2,28.3,25.3C984.8,316.4,986.8,340.7,987.3,359z"/>
<path class="st6" d="M880.2,229.4c1.4-2.9,2.1-6.2,3.8-8.9c2.5-4,6.9-6.6,11.4-8.1c11.8-4,36.6-9.9,44,0c1.5,2,2.7,4.2,4.7,5.6
	c1.5,1,3.4,1.5,5.1,2.3c4.7,2.2,7.8,7.1,9.4,12s2.1,10.2,3.3,15.3c1.5,6.5,4.2,12.7,6.8,18.9c3.1,7.3,6.4,14.8,12.4,19.9
	c8.2,7,10,16.9,17.6,24.6c9,9.1,8.7,24.2,4.1,36.1c-0.6,1.6-1.3,3.2-1.1,4.9s1.5,3.2,2.7,4.5l4.9,5.5c-11.6,2.8-24.8-3.3-30.2-13.9
	c-1.7-3.3-2.8-7.1-5.6-9.5c-2.6-2.1-6-2.6-9.2-3.5c-10.5-3.1-19.3-12.7-19.7-23.7c-0.2-5.1,1.5-10.3,0.7-15.4
	c-0.4-2.9-1.6-5.7-3.3-8c-2.8-3.6-6.9-6-9.1-10c-3.8-6.7-0.9-15.4-3.6-22.6c-0.8-2.2-2.5-4.4-4.9-4.6s-4.4,1.8-6.6,2.6
	c-4.7,1.8-9.7-1.3-13.7-4.4s-8.3-6.8-13.3-6.1c-3.3,0.5-5.9,2.7-8.9,3.9c-2.2,0.9-6.8,1.6-8.7-0.3
	C868.9,242.8,878.4,232.9,880.2,229.4z"/>
<path class="st4" d="M981.8,344.8c-1.7-3.3-2.8-7.1-5.6-9.4c-2.6-2.1-6-2.6-9.2-3.5c-10.5-3.1-19.3-12.7-19.7-23.7
	c-0.2-5.1,1.5-10.3,0.7-15.4c-0.4-2.9-1.6-5.6-3.3-8c-2.8-3.6-6.9-6-9.1-10c-3.8-6.7-0.9-15.4-3.7-22.6c-0.8-2.2-2.5-4.4-4.9-4.6
	s-4.4,1.8-6.6,2.7c-4.7,1.8-9.8-1.3-13.7-4.4s-8.3-6.8-13.3-6.1c-3.3,0.5-5.9,2.7-8.9,3.9c-2.2,0.9-6.8,1.6-8.8-0.2
	c-4.1-4,5.5-13.9,7.2-17.4c1.4-2.9,2.1-6.2,3.9-8.9c0.1-0.1,0.2-0.3,0.3-0.5c-1.3,1.1-2.4,2.3-3.3,3.7c-1.7,2.8-2.4,6-3.8,8.9
	c-1.7,3.5-11.3,13.4-7.2,17.4c2,1.9,6.5,1.1,8.7,0.3c3-1.2,5.6-3.4,8.9-3.9c5-0.7,9.4,2.9,13.3,6.1s9,6.3,13.7,4.4
	c2.2-0.9,4.2-2.8,6.6-2.6s4,2.4,4.9,4.6c2.7,7.2-0.2,15.9,3.6,22.6c2.2,3.9,6.4,6.4,9.1,10c1.8,2.3,2.9,5.1,3.3,8
	c0.7,5.1-0.9,10.2-0.7,15.4c0.3,11,9.2,20.6,19.7,23.7c3.2,0.9,6.6,1.4,9.2,3.5c2.9,2.4,4,6.1,5.6,9.5c5.4,10.7,18.6,16.8,30.2,13.9
	l-2.3-2.6C996.6,359.6,986.4,353.8,981.8,344.8z"/>
<path class="st4" d="M912.8,299.1c-1.3,2-5.1,12.2-8.2,21.2c-2.9-1.1-5.6-8.4-5.6-8.4l15.6-22.2
	C916.3,291.9,915.2,295.5,912.8,299.1z"/>
<path class="st16" d="M913.4,298.5c-1.3,2-5.1,12.2-8.2,21.2c-2.9-1.1-5.6-8.4-5.6-8.4l15.6-22.2
	C916.9,291.3,915.8,294.9,913.4,298.5z"/>
<path class="st17" d="M822.6,400.7l-8.7-27.3c-0.4-1.3,0.3-2.8,1.6-3.2l0,0l0,0c1.3-0.4,2.8,0.3,3.2,1.7l8.7,27.3l-0.9,5.7
	L822.6,400.7z"/>
<path class="st18" d="M814.8,371L814.8,371c1.3-0.4,2.8,0.3,3.2,1.7l8.7,27.3l-0.7,4.3l0.6,0.7l0.9-5.7l-8.7-27.3
	c-0.4-1.3-1.9-2.1-3.2-1.7l0,0c-0.5,0.2-1,0.5-1.3,1C814.4,371.1,814.6,371,814.8,371z"/>
<polygon class="st19" points="822.6,400.7 827.5,399.1 826.8,403.8 826.6,404.9 825.2,403.4 "/>
<path class="st20" d="M825.2,403.4c0.1-0.1,0.2-0.2,0.3-0.3c0.1-0.1,0.3-0.1,0.5,0c0.1,0.1,0.1,0.2,0.2,0.3c0.1,0.2,0.4,0.4,0.6,0.4
	l-0.2,1L825.2,403.4z"/>
<path class="st5" d="M813.9,383.1c0,0,17.4-0.1,13.3,7.3s-10.5,8.3-10.5,8.3L813.9,383.1z"/>
<path class="st6" d="M705.9,51.4h-0.8c-29.8,0-56.2,15.8-71.4,39.1c-15.2-23.3-41.6-39.1-71.4-39.1h-0.8
	c-46.6,0.4-84.2,38.3-84.2,84.9c0,27.8,12.2,67.3,35.9,99.7c45.2,61.9,120.4,116,120.4,116s75.2-54.1,120.4-116
	c23.8-32.5,35.9-71.9,35.9-99.7C790,89.8,752.5,51.9,705.9,51.4z M695.1,240.9c-7,0-13.2-4.3-15.7-10.8h-17.8
	c-2.4,0-4.5-1.6-5.3-3.8l-5.5-16.5l-17.3,60.6c-0.7,2.4-2.9,4-5.4,4h-0.3c-2.6-0.1-4.8-2.1-5.2-4.6l-17.9-107.5l-13.1,63.6
	c-0.6,2.5-2.8,4.2-5.4,4.2h-25.1c-3.1,0.1-5.7-2.3-5.8-5.3c-0.1-3.1,2.3-5.7,5.3-5.8c0.2,0,0.3,0,0.5,0h20.7l18.5-85.5
	c0.7-3,3.8-4.9,6.8-4.1c2.2,0.5,3.9,2.4,4.2,4.6l18.2,109.6l15.5-54.2c0.7-2.3,2.8-4,5.2-4h0.1c2.4,0,4.5,1.5,5.3,3.8l9.9,29.8h13.6
	c2.9-8.8,12.4-13.6,21.2-10.7c8.8,2.9,13.6,12.4,10.7,21.2C708.8,236.3,702.4,240.9,695.1,240.9L695.1,240.9z"/>
</svg>
