<?xml version="1.0" encoding="utf-8"?>
<!-- Generator: Adobe Illustrator 23.1.0, SVG Export Plug-In . SVG Version: 6.00 Build 0)  -->
<svg version="1.1" id="Warstwa_1" xmlns="http://www.w3.org/2000/svg" xmlns:xlink="http://www.w3.org/1999/xlink" x="0px" y="0px"
	 viewBox="0 0 442.5 444" style="enable-background:new 0 0 442.5 444;" xml:space="preserve">
<style type="text/css">
	.st0{fill:#2E4663;}
	.st1{fill:#FFFFFF;}
	.st2{fill:#7CA7C2;}
	.st3{fill:#E6E6E6;}
	.st4{fill:#FFB575;}
	.st5{fill:none;stroke:#223640;stroke-width:0.5;stroke-miterlimit:10;}
	.st6{fill:#223640;}
	.st7{fill:#B3B3B3;}
	.st8{fill:#999999;}
	.st9{fill:#808080;}
	.st10{fill:#F2F2F2;}
	.st11{fill:none;stroke:#666666;stroke-width:0.5;stroke-miterlimit:10;}
	.st12{fill:none;}
	.st13{fill:#BDBDBD;}
	.st14{fill:#688CA3;}
	.st15{fill:#CCCCCC;}
	.st16{fill:#416191;}
	.st17{fill:none;stroke:#DEDDAB;stroke-width:0.5;stroke-miterlimit:10;}
</style>
<title>not_found</title>
<g>
	<g id="BACKGROUND">
		<path class="st0" d="M50.2,54.5c37-32.4,117.2-74.2,177.2-36c12.4,7.9,17.6,9.1,48.2,31c107.2,76.6,130.3,72.7,150,106.2
			c25.3,43.2,20.2,105.7-2.8,145.6c-63.5,110.3-311.7,130.3-388.2,6.3C-9.8,235.6-18.4,114.6,50.2,54.5z"/>
	</g>
	<g id="OBJECTS">
		<polygon class="st1" points="174.9,245.6 199.4,127.2 353.4,127.2 377.8,245.6 		"/>
		<path class="st1" d="M353,127.7l24.3,117.5H175.5l24.2-117.5L353,127.7 M353.8,126.7H199l-24.7,119.5h204.2L353.8,126.7
			L353.8,126.7z"/>
		<path class="st2" d="M196.8,120.8c0,0-14.7,31-11.7,63.2c0,0-9.6,10.2-4.7,12.1s17.1-6.2,17.1-6.2s132,1.8,160.2-2.8
			c0,0,6,8.2,12.5,5.7s-6.1-11.1-6.1-11.1s0.9-48.8-4.6-61.4c0,0,6.9-9.7,4.5-11.7s-13.4,8.4-13.4,8.4s-76-12.8-144.1,0
			c0,0-4.6-14.3-12.7-10C188.2,110,196.8,120.8,196.8,120.8z"/>
		<path class="st3" d="M370.1,192.8c6.4-2.5-6.1-11.1-6.1-11.1s0.3-17.4-0.6-34.1c-3.5,3.3-7.8,5.6-12.5,6.8
			c-7.2,2-13.4,1.3-18.7,0.7c-6.8-0.8-15.4-2.6-34.8-12.4c-16.3-8.2-22.8-15.6-32.3-14c-7.8,1.3-7.6,7.1-17.8,14
			c-12.3,8.3-32.2,13.2-45.2,8.1c-5.3-2.1-9.6-6-12.2-11.1c-3.4,11.8-6.4,27.9-4.9,44.2c0,0-9.6,10.2-4.7,12.1s17-6.2,17-6.2
			s132,1.8,160.2-2.8C357.6,187.1,363.6,195.3,370.1,192.8z"/>
		<path class="st4" d="M308.9,156.6c-3.6-0.4-7.2-1.1-10.6-2.2c-3-1-7.3-4.1-7.8-7.3c-1.4-7.7-2.1-13.6,0.1-19.7l-24.2-11.6
			c0,0,1.7,0.6,0.5,22.3c-0.4,7.1-5.9,13.5-8.3,14.9c-5.2,3.1-2.5,4.7-12.7,5.9c0,0,19.7,47.4,45.7,31.5c0.1-0.1,2.8-16.5,2.9-16.6
			C299.6,170.7,304.4,164.2,308.9,156.6z"/>
		<g>
			<path class="st3" d="M266.2,115.9L266.2,115.9z"/>
			<path class="st3" d="M289.3,140c-0.6-4.2-0.2-8.5,1.2-12.5L266.2,116c0.1,0,1.7,1.2,0.5,22.3c-0.1,1.9-0.5,3.7-1.2,5.4
				c2.9,2.5,7,3.8,12.9,3.5C283.6,146.9,287,143.9,289.3,140z"/>
		</g>
		<path class="st1" d="M275.5,199.6c17.8-0.6,39.5-2.4,49.1-0.6c-5-26.5-14.7-42.6-17.5-43c-3-0.4-10.5-3.4-13.7-4.2l-16.5,18
			l-18.3-16.6c-6.4,3.6-17.6,3.1-17.7,5.8c-0.7,33.3-8.4,21.6-9,40.1C241.3,197.3,253.9,200.3,275.5,199.6z"/>
		<path class="st1" d="M257.4,160.3c0,0-10.6-11.6-25.1,4.2s-14.9,43.7-14.9,43.7l38,0.1C255.4,208.2,263.9,175.9,257.4,160.3z"/>
		<path class="st1" d="M296.8,159.3c0,0,6.6-10.2,20.9,3.1c15.7,14.6,21.1,45.8,21.1,45.8l-41.5-0.2
			C297.3,208,290.3,174.9,296.8,159.3z"/>
		<path class="st4" d="M302.8,119.8c0.7-3.3-0.8-6.5-3.4-7s-5.2,1.7-5.9,5.1s0.3,7,2.8,7.6S302.1,123.1,302.8,119.8z"/>
		<path class="st4" d="M296.9,111.3c0,0,2.8,34.2-15,33c-20.4-1.4-19-14.1-21-29.9c-1.2-9.4,6.6-18,16.8-18.2
			C293.5,96,297.6,106.6,296.9,111.3z"/>
		<path class="st4" d="M257.8,124.2c2.6,3.2,6.6,4.2,9,2.2s2.3-6.1-0.2-9.3s-6.6-4.2-9-2.2S255.2,121.1,257.8,124.2z"/>
		<path class="st5" d="M259.3,117.8c0,0,2.1-0.4,3.4,4.1"/>
		<path class="st5" d="M259.7,121.2c0,0,0.1-1,1.7-1.8"/>
		<path class="st5" d="M266.7,138.2c0,0,8.5,8.6,19.4,5.2"/>
		<path class="st6" d="M260.7,114c1.2,0.7,2.3,1.5,3.3,2.4c0.8,0.9,0.1-10.6,0-15.7c0,0,12.4-8.1,30.2,4.2c0,0,0.6,9.4,1.6,10
			l1.5-1.9c0,0,1.4-17.8-14.7-18.5S258.7,101.2,260.7,114z"/>
		<path class="st5" d="M300.2,117.1c0,0-2-0.4-3.4,4.1"/>
		<path class="st5" d="M299.8,120.6c0,0-0.1-1-1.7-1.8"/>
		<path class="st5" d="M286.8,112.8c0,0,2.1,2.2,5.6,0"/>
		<path class="st5" d="M274,112.8c0,0-2.1,2.2-5.5,0"/>
		<rect x="213.4" y="312.6" class="st7" width="3.1" height="79.5"/>
		<path class="st7" d="M212.7,389.1h4.5c3.8,0,6.8,3,6.8,6.8v6.5c0,3.8-3,6.8-6.8,6.8h-4.5c-3.8,0-6.8-3-6.8-6.8v-6.5
			C205.9,392.1,209,389.1,212.7,389.1z"/>
		<path class="st8" d="M212.7,389.1h4.5c3.8,0,6.8,3,6.8,6.8v6.5c0,3.8-3,6.8-6.8,6.8h-4.5c-3.8,0-6.8-3-6.8-6.8v-6.5
			C205.9,392.1,209,389.1,212.7,389.1z"/>
		<path class="st7" d="M212.9,389.1h4.2c3.8,0,7,3.1,7,7v0.5c0,3.8-3.1,7-7,7h-4.2c-3.8,0-7-3.1-7-7V396
			C205.9,392.2,209,389.1,212.9,389.1z"/>
		<rect x="332.1" y="312.6" class="st7" width="3.1" height="79.5"/>
		<path class="st7" d="M331.6,389.1h4.5c3.8,0,6.8,3,6.8,6.8v6.5c0,3.8-3,6.8-6.8,6.8h-4.5c-3.8,0-6.8-3-6.8-6.8v-6.5
			C324.8,392.1,327.9,389.1,331.6,389.1z"/>
		<path class="st8" d="M331.6,389.1h4.5c3.8,0,6.8,3,6.8,6.8v6.5c0,3.8-3,6.8-6.8,6.8h-4.5c-3.8,0-6.8-3-6.8-6.8v-6.5
			C324.8,392.1,327.9,389.1,331.6,389.1z"/>
		<path class="st7" d="M331.8,389.1h4.2c3.8,0,7,3.1,7,7v0.5c0,3.8-3.1,7-7,7h-4.2c-3.8,0-7-3.1-7-7V396
			C324.8,392.2,328,389.1,331.8,389.1z"/>
		<rect x="215.1" y="365.9" class="st7" width="118.6" height="3.1"/>
		<rect x="182.1" y="313" class="st7" width="4.1" height="107.8"/>
		<rect x="182.1" y="325.6" class="st8" width="4.1" height="18.5"/>
		<path class="st8" d="M181.9,416.7h4.5c5.5,0,10,4.5,10,10v7.2c0,5.5-4.5,10-10,10h-4.5c-5.5,0-10-4.5-10-10v-7.2
			C171.8,421.2,176.3,416.7,181.9,416.7z"/>
		<rect x="196.3" y="427" class="st9" width="3.1" height="6.7"/>
		<path class="st9" d="M185.9,436.5h-3.5c-5.6,0-10.2-4.3-10.5-9.9c0,0.2,0,0.4,0,0.6v6.2c0,5.8,4.7,10.5,10.5,10.5h3.5
			c5.8,0,10.5-4.7,10.5-10.5l0,0v-6.2c0-0.2,0-0.4,0-0.6C196.1,432.1,191.4,436.5,185.9,436.5z"/>
		<rect x="361.9" y="313" class="st7" width="4.1" height="107.8"/>
		<rect x="362" y="325.6" class="st8" width="4.1" height="18.5"/>
		<rect x="184.4" y="396.7" class="st7" width="178.9" height="4.1"/>
		<path class="st7" d="M182.2,419.8h3.4c3.1,0,5.6,2.5,5.6,5.6v0.3c0,3.1-2.5,5.6-5.6,5.6h-3.4c-3.1,0-5.6-2.5-5.6-5.6v-0.3
			C176.5,422.3,179.1,419.8,182.2,419.8z"/>
		<path class="st8" d="M362.6,416.7h4.5c5.5,0,10,4.5,10,10v7.2c0,5.5-4.5,10-10,10h-4.5c-5.5,0-10-4.5-10-10v-7.2
			C352.5,421.2,357,416.7,362.6,416.7z"/>
		<rect x="349.4" y="427" class="st9" width="3.1" height="6.7"/>
		<rect x="377" y="427" class="st9" width="3.1" height="6.7"/>
		<path class="st9" d="M366.5,436.5h-3.5c-5.6,0-10.2-4.3-10.5-9.9c0,0.2,0,0.4,0,0.6v6.2c0,5.8,4.7,10.5,10.5,10.5h3.5
			c5.8,0,10.5-4.7,10.5-10.5c0,0,0,0,0,0v-6.2c0-0.2,0-0.4,0-0.6C376.7,432.1,372.1,436.5,366.5,436.5z"/>
		<path class="st7" d="M362.9,419.8h3.4c3.1,0,5.6,2.5,5.6,5.6v0.3c0,3.1-2.5,5.6-5.6,5.6h-3.4c-3.1,0-5.6-2.5-5.6-5.6v-0.3
			C357.2,422.3,359.7,419.8,362.9,419.8z"/>
		<rect x="213.4" y="325.6" class="st8" width="3.1" height="18.9"/>
		<rect x="332.1" y="325.6" class="st8" width="3.1" height="18.9"/>
		<rect x="168.7" y="427" class="st9" width="3.1" height="6.7"/>
		<rect x="180.7" y="404.4" class="st2" width="6.4" height="12.4"/>
		<rect x="212.1" y="378.5" class="st2" width="5.5" height="10.6"/>
		<rect x="330.9" y="378.5" class="st2" width="5.5" height="10.6"/>
		<rect x="361.1" y="404.4" class="st2" width="6.4" height="12.4"/>
		<line class="st5" x1="262.3" y1="124.4" x2="262.4" y2="127.4"/>
		<line class="st5" x1="296.3" y1="122.7" x2="296.4" y2="125.4"/>
		<line class="st5" x1="237.8" y1="184" x2="237.4" y2="208.5"/>
		<line class="st5" x1="315.5" y1="185.7" x2="317.4" y2="208.2"/>
		<path class="st3" d="M170.8,231.4v102.8h208.2V231.4c0-9.6-7.8-17.4-17.4-17.4c0,0,0,0,0,0H188.2
			C178.6,214,170.8,221.8,170.8,231.4C170.8,231.4,170.8,231.4,170.8,231.4z M222.5,245.7h-38.3V231h38.3V245.7z M363.8,245.7h-38.3
			V231h38.4L363.8,245.7z"/>
		<polygon class="st1" points="279.6,239.8 246.4,246.1 250.8,269.2 285.8,269.1 		"/>
		<polygon class="st10" points="258.3,269.5 281.6,269.3 276.7,244.9 258.3,244.9 		"/>
		<rect x="260.3" y="246.1" class="st1" width="33.8" height="23.5"/>
		<rect x="264.1" y="247.9" class="st10" width="34.9" height="21.8"/>
		<rect x="266" y="249.5" class="st1" width="34.9" height="20.1"/>
		<line class="st11" x1="270.3" y1="255.3" x2="285" y2="255.3"/>
		<line class="st11" x1="270.3" y1="260.8" x2="296.3" y2="260.8"/>
		<line class="st11" x1="270.3" y1="265.6" x2="296.3" y2="265.6"/>
		<polyline class="st12" points="300.9,269.7 300.9,249.5 266,249.5 266,269.7 		"/>
		<rect x="224.9" y="268.1" class="st2" width="100" height="42.8"/>
		<polygon class="st2" points="184.1,231 184.1,233 220.4,233 220.4,245.7 222.5,245.7 222.5,231 		"/>
		<polygon class="st2" points="325.5,231 325.5,233 361.8,233 361.8,245.7 363.8,245.7 363.8,231 		"/>
		<rect x="164.9" y="311.1" class="st2" width="13.2" height="22.8"/>
		<rect x="371.4" y="311.1" class="st2" width="13.2" height="22.8"/>
		<path class="st13" d="M361.5,208.2H188.2c-9.6,0-17.4,7.8-17.4,17.4l0,0v5.8c0-9.6,7.8-17.4,17.4-17.4c0,0,0,0,0,0h173.3
			c9.6,0,17.4,7.8,17.4,17.4c0,0,0,0,0,0v-5.8C378.9,216.1,371.1,208.2,361.5,208.2L361.5,208.2z"/>
		<path class="st1" d="M361.5,214H188.2c-9.6,0-17.4,7.8-17.4,17.4l0,0v1.1c0-9.6,7.8-17.4,17.4-17.4l0,0h173.3
			c9.6,0,17.4,7.8,17.4,17.4c0,0,0,0,0,0v-1.1C378.9,221.8,371.1,214,361.5,214C361.5,214,361.5,214,361.5,214z"/>
		<path class="st5" d="M234.9,184.8c0,0,0.8,5.3,2.9,5.6"/>
		<path class="st5" d="M318.8,184.8c0,0-0.8,5.3-2.9,5.6"/>
		<polyline class="st5" points="250.4,156 277.6,180.1 301.8,154.6 		"/>
		<path class="st6" d="M260.5,108.4c0.2-0.5-0.1-9.9,10.7-14.6s23.1-3.2,24.8-0.7c4.7,6.7,3,15.5,0.8,19.9l-2.6-12.4l-11.2-3.1
			L272,98.1l-0.5,0.8c-2.9,4.5-3.5,7.2-8.3,9.5l-1,0.4L260.5,108.4z"/>
		<path class="st5" d="M269.5,95.9c0,0,10.2-8.2,19-6.3"/>
		<path class="st5" d="M271.7,97.3c0,0,1.6,3.7-2.7,8.3"/>
		<path class="st5" d="M290.6,181.4h16.7c0,0,1.9,10.3-8.8,10.2C289.9,191.4,290.6,181.4,290.6,181.4z"/>
		<path class="st3" d="M298.6,188.8c-5.7-0.1-7.4-4.5-7.8-7.5h-0.1c0,0-0.8,10.1,7.9,10.2c9.5,0.1,9.1-8.1,8.9-9.8
			C307.1,184.7,305.4,188.9,298.6,188.8z"/>
		<rect x="84.7" y="174.6" class="st1" width="26.8" height="173.4"/>
		<path class="st2" d="M84.7,348.1l-56.7,38.6c-0.6,0.4-0.7,1.2-0.2,1.8c0.3,0.4,0.8,0.6,1.3,0.5l68.6-20.1v-20.5L84.7,348.1z"/>
		<path class="st14" d="M110.6,348.1l56.7,38.6c0.6,0.4,0.8,1.2,0.4,1.8c-0.3,0.5-0.9,0.7-1.5,0.5l-68.4-20.1l-0.2-20.6L110.6,348.1
			z"/>
		<path class="st1" d="M95.7,228.5c-0.1-0.9-1.3-22.9,44.3-37.3c3.9-1.3,7.4-2.4,10.4-3.4c13.5-4.6,21.7-7.4,54.3-10.9
			c55.7-6,70.6-34.8,70.7-35l2.8,1.4c-0.6,1.2-15.6,30.5-73.1,36.8c-32.2,3.5-40.3,6.2-53.6,10.7c-3,1-6.4,2.2-10.4,3.4
			c-43,13.6-42.2,33.9-42.1,34.1L95.7,228.5z"/>
		<rect x="85.2" y="252.9" class="st1" width="25.8" height="3.2"/>
		<polygon class="st1" points="113.2,278.5 83,278.5 85.2,256 111,256 		"/>
		<polyline class="st15" points="108.7,259.3 110.5,275.1 85.5,275.1 87.3,259.3 		"/>
		<path class="st1" d="M100.5,263.6c0.2,1.5-0.9,2.8-2.4,3c-1.5,0.2-2.8-0.9-3-2.4c-0.2-1.5,0.9-2.8,2.4-3c0.1,0,0.1,0,0.2,0
			C99.1,261.1,100.4,262.2,100.5,263.6z"/>
		<polygon class="st0" points="84.5,284.4 84.5,278.5 111.5,278.5 		"/>
		<rect x="92.5" y="268" class="st1" width="0.9" height="6.1"/>
		<rect x="92.5" y="269.3" class="st16" width="0.9" height="3.2"/>
		<rect x="95.8" y="268" class="st1" width="0.9" height="6.1"/>
		<rect x="95.8" y="269.3" class="st16" width="0.9" height="3.2"/>
		<rect x="99.2" y="268" class="st1" width="0.9" height="6.1"/>
		<rect x="99.2" y="269.3" class="st16" width="0.9" height="3.2"/>
		<rect x="102.6" y="268" class="st1" width="0.9" height="6.1"/>
		<rect x="102.6" y="269.3" class="st16" width="0.9" height="3.2"/>
		<rect x="77.3" y="338.5" class="st2" width="41.2" height="14.7"/>
		<rect x="51.9" y="82.2" class="st1" width="93.7" height="74.5"/>
		<rect x="51.9" y="155.9" class="st2" width="93.7" height="19.6"/>
		<circle class="st1" cx="98.8" cy="165.4" r="4.1"/>
		<path class="st1" d="M114.9,165.4c0,1.6-1.4,2.9-3,2.9s-2.9-1.4-2.9-3c0-1.6,1.3-2.9,2.9-2.9C113.6,162.4,114.9,163.7,114.9,165.4
			z"/>
		<path class="st1" d="M87.8,165.4c0,1.7-1.3,3-3,3s-3-1.3-3-3s1.3-3,3-3S87.8,163.7,87.8,165.4z"/>
		<path class="st2" d="M140.6,105.8c0,1.6-1.4,2.9-3,2.9c-1.6,0-2.9-1.4-2.9-3c0-1.6,1.3-2.9,2.9-2.9
			C139.2,102.8,140.6,104.1,140.6,105.8C140.6,105.7,140.6,105.8,140.6,105.8z"/>
		<path class="st2" d="M140.6,117.9c0,1.6-1.4,2.9-3,2.9c-1.6,0-2.9-1.4-2.9-3c0-1.6,1.3-2.9,2.9-2.9
			C139.2,114.9,140.6,116.2,140.6,117.9C140.6,117.9,140.6,117.9,140.6,117.9z"/>
		<rect x="68.1" y="95.1" class="st6" width="61.3" height="48.8"/>
		<rect x="68.1" y="134.1" class="st2" width="61.3" height="9.8"/>
		<path class="st1" d="M96.3,232.2c-0.6-14.6-7-24.7-22.3-35.1c-14.7-10-10.4-32.2-10.2-33.1l3,0.6c-0.1,0.2-4.1,21.1,8.9,30
			c16.2,11,23,21.9,23.6,37.6L96.3,232.2z"/>
		<path class="st3" d="M282.8,110.8c-1-1.1-2.8-1.2-3.9-0.2c-0.1,0.1-0.3,0.3-0.4,0.5c-3.7,5.1-10.8,16.4-6.2,21.3
			c6,6.5,15,3.3,18.1-2.2C293.1,125.6,287.8,116,282.8,110.8z"/>
		<path class="st1" d="M278.5,111.1c-2.4,3.3-6.2,9.2-7.3,14.3c0.2,0.7,0.6,1.4,1.1,2c6,6.5,15,3.3,18.1-2.2
			c0.1-0.2,0.2-0.5,0.3-0.8c-1.1-4.6-4.6-10.1-8-13.6c-1-1.1-2.8-1.2-3.9-0.1C278.8,110.8,278.6,111,278.5,111.1z"/>
		<path class="st2" d="M286.1,122.9c0,2.8-2.3,5.1-5.1,5.1c-2.8,0-5.1-2.3-5.1-5.1c0-2.8,2.3-5.1,5.1-5.1
			C283.8,117.7,286.1,120,286.1,122.9z"/>
		<path class="st1" d="M146.5,186.6c-2.6,0.1-5.3-0.5-7.6-1.7c-5.6-2.9-9-9.3-10.4-19.4l3-0.4c1.3,9.1,4.2,14.7,8.8,17.1
			c8.2,4.3,21.2-2.2,32.8-7.9c10.9-5.4,20.4-10.1,26.5-7c8,4.1,15.3-4.7,22.4-13.2c5.1-6.2,10-12.1,15.3-13.4
			c5.9-1.5,10.9,0.9,15.7,3.2c5.7,2.7,11,5.3,17.8,1.5c12.2-6.8,8.6-21.5,8.4-22.1l3-0.8c0,0.2,4.3,17.6-9.9,25.5
			c-8.1,4.6-14.8,1.4-20.6-1.4c-4.5-2.2-8.8-4.2-13.6-3c-4.4,1.1-9.1,6.8-13.7,12.4c-7.5,9-16,19.3-26.2,14
			c-4.7-2.4-13.9,2.1-23.7,7C165.2,181.6,155.1,186.6,146.5,186.6z"/>
		<polygon class="st16" points="283.6,126.2 278.7,126.2 279.1,120.9 283.1,120.9 		"/>
		<rect x="61.9" y="162.6" class="st16" width="5" height="7.5"/>
		<rect x="128.1" y="162.6" class="st16" width="5" height="7.5"/>
		<path class="st8" d="M30.6,384.8H31c4.7,0,8.6,3.8,8.6,8.6v4.3c0,4.7-3.8,8.6-8.6,8.6h-0.4c-4.7,0-8.6-3.8-8.6-8.6v-4.3
			C22,388.6,25.9,384.8,30.6,384.8z"/>
		<rect x="39.5" y="392.9" class="st9" width="2.2" height="5.2"/>
		<path class="st9" d="M32,400.3h-2.5c-4,0-7.3-3.4-7.5-7.8c0,0.2,0,0.4,0,0.5v4.9c0,4.6,3.4,8.3,7.5,8.3h2.5c4.2,0,7.5-3.7,7.5-8.3
			v-4.9c0-0.2,0-0.3,0-0.5C39.3,396.9,36,400.3,32,400.3z"/>
		<path class="st7" d="M29.8,387.2h1.6c2.5,0,4.4,2,4.4,4.4v0.2c0,2.5-2,4.4-4.4,4.4h-1.6c-2.5,0-4.4-2-4.4-4.4v-0.2
			C25.4,389.2,27.4,387.2,29.8,387.2z"/>
		<rect x="19.8" y="392.9" class="st9" width="2.2" height="5.2"/>
		<path class="st8" d="M166.9,384.8h0.4c4.7,0,8.6,3.8,8.6,8.6v4.3c0,4.7-3.8,8.6-8.6,8.6h-0.4c-4.7,0-8.6-3.8-8.6-8.6v-4.3
			C158.3,388.6,162.1,384.8,166.9,384.8z"/>
		<rect x="175.8" y="392.9" class="st9" width="2.2" height="5.2"/>
		<path class="st9" d="M168.3,400.3h-2.5c-4,0-7.2-3.4-7.5-7.8c0,0.2,0,0.4,0,0.5v4.9c0,4.6,3.4,8.3,7.5,8.3h2.5
			c4.1,0,7.5-3.7,7.5-8.3v-4.9c0-0.2,0-0.3,0-0.5C175.6,396.9,172.3,400.3,168.3,400.3z"/>
		<path class="st7" d="M166.1,387.2h1.6c2.5,0,4.4,2,4.4,4.4v0.2c0,2.5-2,4.4-4.4,4.4h-1.6c-2.5,0-4.4-2-4.4-4.4v-0.2
			C161.6,389.2,163.6,387.2,166.1,387.2z"/>
		<rect x="156.1" y="392.9" class="st9" width="2.2" height="5.2"/>
		<polygon class="st0" points="84.5,189.8 84.5,175.4 111.5,175.4 		"/>
		<path class="st0" d="M95.4,225.6c-1.4-12.2-10.7-19.5-10.8-19.6l0.3-0.4c0.1,0.1,9.5,7.5,11,19.9L95.4,225.6z"/>
		<path class="st0" d="M96.8,225.7h-0.5c0.6-12.8,15.1-21.5,15.2-21.6l0.3,0.4C111.6,204.6,97.4,213.2,96.8,225.7z"/>
		<path class="st0" d="M99.8,225.6h-0.5c0.5-10.2,12.1-17.2,12.2-17.3l0.3,0.4C111.6,208.8,100.3,215.7,99.8,225.6z"/>
		<rect x="89.8" y="233.1" class="st0" width="15.9" height="19.8"/>
		<rect x="95.3" y="225.6" class="st16" width="5" height="7.5"/>
		<rect x="92.2" y="235.8" class="st8" width="11.2" height="17.1"/>
		<path class="st0" d="M97.3,220.2c-2.4-7.3-6.8-13.8-12.7-18.7l0.3-0.4c6,4.9,10.5,11.5,12.9,18.9L97.3,220.2z"/>
		<path class="st17" d="M222.2,173.9c0,0,25.9-5.6,39.4-17.6"/>
		<path class="st17" d="M220.6,177.6c0,0,28.8-5.5,43.8-18.8"/>
		<rect x="72.4" y="101.2" class="st2" width="2.2" height="2.2"/>
		<rect x="78.8" y="101.2" class="st2" width="2.2" height="2.2"/>
		<rect x="85.1" y="101.2" class="st2" width="2.2" height="2.2"/>
		<rect x="108.9" y="101.2" class="st2" width="2.2" height="2.2"/>
		<rect x="91.4" y="101.2" class="st2" width="2.2" height="2.2"/>
		<rect x="95.1" y="101.2" class="st2" width="2.2" height="2.2"/>
		<rect x="98.9" y="101.2" class="st2" width="2.2" height="2.2"/>
		<rect x="108.9" y="106.3" class="st2" width="2.2" height="2.2"/>
		<rect x="102.6" y="106.3" class="st2" width="2.2" height="2.2"/>
		<rect x="96.3" y="106.3" class="st2" width="2.2" height="2.2"/>
		<rect x="72.5" y="106.3" class="st2" width="2.2" height="2.2"/>
		<rect x="90" y="106.3" class="st2" width="2.2" height="2.2"/>
		<rect x="86.3" y="106.3" class="st2" width="2.2" height="2.2"/>
		<rect x="82.5" y="106.3" class="st2" width="2.2" height="2.2"/>
		<rect x="72.4" y="111.9" class="st2" width="2.2" height="2.2"/>
		<rect x="78.8" y="111.9" class="st2" width="2.2" height="2.2"/>
		<rect x="85.1" y="111.9" class="st2" width="2.2" height="2.2"/>
		<rect x="108.9" y="111.9" class="st2" width="2.2" height="2.2"/>
		<rect x="91.4" y="111.9" class="st2" width="2.2" height="2.2"/>
		<rect x="95.1" y="111.9" class="st2" width="2.2" height="2.2"/>
		<rect x="98.9" y="111.9" class="st2" width="2.2" height="2.2"/>
		<rect x="108.9" y="117" class="st2" width="2.2" height="2.2"/>
		<rect x="102.6" y="117" class="st2" width="2.2" height="2.2"/>
		<rect x="96.3" y="117" class="st2" width="2.2" height="2.2"/>
		<rect x="72.5" y="117" class="st2" width="2.2" height="2.2"/>
		<rect x="90" y="117" class="st2" width="2.2" height="2.2"/>
		<rect x="86.3" y="117" class="st2" width="2.2" height="2.2"/>
		<rect x="82.5" y="117" class="st2" width="2.2" height="2.2"/>
		
			<ellipse transform="matrix(0.7071 -0.7071 0.7071 0.7071 85.058 282.7185)" class="st0" cx="383.8" cy="38.7" rx="38.7" ry="38.7"/>
		<polygon class="st0" points="364.7,52.5 345.5,87.4 378.7,59.3 		"/>
		<ellipse transform="matrix(0.7579 -0.6524 0.6524 0.7579 79.1004 259.2237)" class="st1" cx="388.8" cy="23" rx="11" ry="11"/>
		<path class="st1" d="M392.7,8.6c-0.1,0.6-0.7,1.1-1.4,0.9c-0.6-0.1-1.1-0.7-0.9-1.4c0.1-0.6,0.7-1.1,1.4-0.9
			C392.4,7.4,392.8,8,392.7,8.6C392.7,8.6,392.7,8.6,392.7,8.6z"/>
		
			<rect x="388.3" y="10.6" transform="matrix(0.1828 -0.9832 0.9832 0.1828 308.5042 393.5927)" class="st1" width="5.4" height="1.2"/>
		<path class="st1" d="M385,8.6c0.2,0.6-0.1,1.3-0.7,1.5c-0.6,0.2-1.3-0.1-1.5-0.7c-0.2-0.6,0.1-1.3,0.7-1.5
			C384.1,7.6,384.8,8,385,8.6C385,8.6,385,8.6,385,8.6z"/>
		<rect x="384.3" y="9" transform="matrix(0.9428 -0.3335 0.3335 0.9428 18.1345 129.0049)" class="st1" width="1.1" height="5.4"/>
		<circle class="st1" cx="377.6" cy="13.3" r="1.2"/>
		
			<rect x="379.2" y="12.5" transform="matrix(0.6498 -0.7601 0.7601 0.6498 121.4645 293.9796)" class="st1" width="1.2" height="5.4"/>
		<path class="st1" d="M374.5,19c0.6,0.1,1.1,0.7,0.9,1.4c-0.1,0.6-0.7,1.1-1.4,0.9c-0.6-0.1-1-0.7-1-1.3
			C373.2,19.4,373.8,18.9,374.5,19C374.5,19,374.5,19,374.5,19z"/>
		
			<rect x="376.6" y="18" transform="matrix(0.1828 -0.9832 0.9832 0.1828 287.8787 387.7072)" class="st1" width="1.2" height="5.4"/>
		<path class="st1" d="M374.5,26.6c0.6-0.2,1.3,0.1,1.5,0.7c0.2,0.6-0.1,1.3-0.7,1.5c-0.6,0.2-1.3-0.1-1.5-0.7c0,0,0,0,0,0
			C373.5,27.5,373.9,26.8,374.5,26.6z"/>
		
			<rect x="374.9" y="26.2" transform="matrix(0.9428 -0.3333 0.3333 0.9428 12.6597 127.3889)" class="st1" width="5.4" height="1.2"/>
		<path class="st1" d="M378.3,33.3c0.4-0.5,1.2-0.5,1.7-0.1s0.5,1.2,0.1,1.7c-0.4,0.5-1.2,0.5-1.7,0.1
			C377.9,34.5,377.9,33.8,378.3,33.3z"/>
		
			<rect x="378.4" y="31.3" transform="matrix(0.6501 -0.7598 0.7598 0.6501 109.1149 300.689)" class="st1" width="5.4" height="1.2"/>
		<path class="st1" d="M384.9,37.1c0.1-0.6,0.7-1.1,1.4-1s1.1,0.7,1,1.4s-0.7,1.1-1.4,1c0,0,0,0,0,0
			C385.2,38.4,384.8,37.8,384.9,37.1z"/>
		
			<rect x="383.9" y="34" transform="matrix(0.1828 -0.9832 0.9832 0.1828 282.0063 408.3517)" class="st1" width="5.4" height="1.2"/>
		<path class="st1" d="M392.5,37.2c-0.2-0.6,0.2-1.3,0.8-1.5c0.6-0.2,1.2,0.1,1.4,0.7c0.3,0.6,0,1.3-0.6,1.6s-1.3,0-1.6-0.6
			C392.6,37.3,392.5,37.2,392.5,37.2z"/>
		
			<rect x="392.1" y="31.4" transform="matrix(0.9428 -0.3335 0.3335 0.9428 11.1238 132.9111)" class="st1" width="1.1" height="5.4"/>
		<circle class="st1" cx="399.9" cy="32.5" r="1.2"/>
		
			<rect x="397.2" y="27.9" transform="matrix(0.6498 -0.7601 0.7601 0.6498 116.036 313.0459)" class="st1" width="1.2" height="5.4"/>
		<path class="st1" d="M403,26.8c-0.6-0.1-1.1-0.7-1-1.4c0.1-0.6,0.7-1.1,1.4-1c0.6,0.1,1.1,0.7,1,1.3
			C404.3,26.4,403.7,26.9,403,26.8C403,26.8,403,26.8,403,26.8z"/>
		
			<rect x="399.9" y="22.4" transform="matrix(0.1828 -0.9832 0.9832 0.1828 302.6282 414.1933)" class="st1" width="1.2" height="5.4"/>
		<path class="st1" d="M403.1,19.1c-0.6,0.2-1.3-0.2-1.5-0.8c-0.2-0.6,0.1-1.2,0.7-1.4c0.6-0.3,1.3,0,1.6,0.6s0,1.3-0.6,1.6
			C403.2,19.1,403.1,19.1,403.1,19.1z"/>
		
			<rect x="397.3" y="18.3" transform="matrix(0.9428 -0.3333 0.3333 0.9428 16.5653 134.3958)" class="st1" width="5.4" height="1.2"/>
		<circle class="st1" cx="398.4" cy="11.7" r="1.2"/>
		
			<rect x="393.8" y="13.3" transform="matrix(0.6501 -0.7598 0.7598 0.6501 128.1998 306.114)" class="st1" width="5.4" height="1.1"/>
		<ellipse transform="matrix(0.8213 -0.5704 0.5704 0.8213 39.9649 214.8278)" class="st1" cx="363" cy="43.6" rx="5.2" ry="5.2"/>
		<path class="st1" d="M364.8,36.7c-0.1,0.3-0.4,0.5-0.7,0.4c-0.3-0.1-0.5-0.4-0.4-0.7c0.1-0.3,0.3-0.5,0.6-0.4
			C364.7,36.1,364.9,36.4,364.8,36.7z"/>
		
			<rect x="362.7" y="37.7" transform="matrix(0.1828 -0.9832 0.9832 0.1828 260.1047 388.8575)" class="st1" width="2.6" height="0.5"/>
		<path class="st1" d="M361.2,36.7c0.1,0.3,0,0.6-0.3,0.7c-0.3,0.1-0.6,0-0.7-0.3c-0.1-0.3,0-0.6,0.3-0.7c0,0,0,0,0,0
			C360.7,36.3,361.1,36.4,361.2,36.7z"/>
		
			<rect x="360.8" y="36.9" transform="matrix(0.9428 -0.3335 0.3335 0.9428 7.9354 122.5924)" class="st1" width="0.5" height="2.6"/>
		<path class="st1" d="M358,38.5c0.2,0.2,0.3,0.6,0.1,0.8c0,0,0,0,0,0c-0.2,0.2-0.6,0.3-0.8,0.1c-0.2-0.2-0.3-0.6-0.1-0.8l0,0
			C357.4,38.4,357.8,38.3,358,38.5C358,38.5,358,38.5,358,38.5z"/>
		
			<rect x="358.4" y="38.6" transform="matrix(0.6498 -0.7601 0.7601 0.6498 95.2843 286.5617)" class="st1" width="0.5" height="2.6"/>
		<path class="st1" d="M356.1,41.7c0.3,0.1,0.5,0.4,0.5,0.7c-0.1,0.3-0.4,0.5-0.7,0.4c-0.3-0.1-0.5-0.4-0.4-0.7
			C355.5,41.8,355.8,41.6,356.1,41.7C356.1,41.7,356.1,41.7,356.1,41.7z"/>
		
			<rect x="357.1" y="41.2" transform="matrix(0.1828 -0.9832 0.9832 0.1828 250.3012 386.1135)" class="st1" width="0.5" height="2.6"/>
		<path class="st1" d="M356.1,45.3c0.3-0.1,0.6,0,0.7,0.3c0.1,0.3,0,0.6-0.3,0.7c-0.3,0.1-0.6,0-0.7-0.3c0,0,0,0,0,0
			C355.7,45.7,355.8,45.4,356.1,45.3C356.1,45.3,356.1,45.3,356.1,45.3z"/>
		
			<rect x="356.3" y="45.1" transform="matrix(0.9428 -0.3333 0.3333 0.9428 5.3155 121.7902)" class="st1" width="2.6" height="0.5"/>
		<path class="st1" d="M357.9,48.5c0.2-0.2,0.6-0.3,0.8-0.1c0.2,0.2,0.3,0.6,0.1,0.8c-0.2,0.2-0.6,0.3-0.8,0.1c0,0,0,0,0,0
			C357.8,49.1,357.7,48.7,357.9,48.5C357.9,48.5,357.9,48.5,357.9,48.5z"/>
		
			<rect x="358" y="47.6" transform="matrix(0.6501 -0.7598 0.7598 0.6501 89.3595 289.7096)" class="st1" width="2.6" height="0.5"/>
		<path class="st1" d="M361.1,50.3c0.1-0.3,0.4-0.5,0.7-0.5c0.3,0.1,0.5,0.4,0.4,0.7c-0.1,0.3-0.3,0.5-0.6,0.4
			C361.2,50.9,361,50.6,361.1,50.3z"/>
		
			<rect x="360.6" y="48.8" transform="matrix(0.1826 -0.9832 0.9832 0.1826 247.5289 395.9102)" class="st1" width="2.6" height="0.5"/>
		<path class="st1" d="M364.7,50.3c-0.1-0.3,0-0.6,0.3-0.7c0,0,0,0,0,0c0.3-0.1,0.6,0,0.7,0.3c0.1,0.3-0.1,0.6-0.4,0.7
			C365.1,50.7,364.8,50.6,364.7,50.3z"/>
		
			<rect x="364.5" y="47.6" transform="matrix(0.9428 -0.3335 0.3335 0.9428 4.5856 124.4538)" class="st1" width="0.5" height="2.6"/>
		<path class="st1" d="M367.9,48.5c-0.2-0.2-0.2-0.6,0-0.8c0.2-0.2,0.5-0.2,0.7-0.1c0.2,0.2,0.2,0.6,0,0.8
			C368.4,48.7,368.1,48.7,367.9,48.5z"/>
		
			<rect x="366.9" y="45.9" transform="matrix(0.6498 -0.7601 0.7601 0.6498 92.7096 295.6406)" class="st1" width="0.5" height="2.6"/>
		<path class="st1" d="M369.7,45.4c-0.3-0.1-0.5-0.4-0.4-0.7c0.1-0.3,0.4-0.5,0.7-0.4c0.3,0.1,0.5,0.3,0.4,0.6
			C370.3,45.3,370,45.5,369.7,45.4z"/>
		
			<rect x="368.2" y="43.3" transform="matrix(0.1828 -0.9832 0.9832 0.1828 257.3344 398.7494)" class="st1" width="0.5" height="2.6"/>
		<path class="st1" d="M369.8,41.8c-0.3,0.1-0.6,0-0.7-0.3c-0.1-0.3,0-0.6,0.3-0.7c0.3-0.1,0.6,0,0.7,0.3
			C370.2,41.3,370.1,41.6,369.8,41.8C369.8,41.7,369.8,41.7,369.8,41.8z"/>
		<rect x="367" y="41.4" transform="matrix(0.9429 -0.3331 0.3331 0.9429 7.1639 125.0691)" class="st1" width="2.6" height="0.5"/>
		<path class="st1" d="M368,38.6c-0.2,0.2-0.6,0.3-0.8,0.1c-0.3-0.2-0.3-0.5-0.1-0.8c0.2-0.3,0.5-0.3,0.8-0.1c0,0,0.1,0,0.1,0.1
			C368.2,38,368.2,38.4,368,38.6z"/>
		
			<rect x="365.3" y="39" transform="matrix(0.6501 -0.7598 0.7598 0.6501 98.4567 292.3098)" class="st1" width="2.6" height="0.5"/>
		<path class="st1" d="M394.5,58.3c-0.8,4.5-5.2,7.5-9.7,6.7c-4.5-0.8-7.5-5.2-6.7-9.7s5.2-7.5,9.7-6.7c0,0,0,0,0,0
			C392.4,49.4,395.4,53.8,394.5,58.3C394.5,58.3,394.5,58.3,394.5,58.3z"/>
		<path class="st1" d="M389.3,45.8c-0.1,0.5-0.6,0.8-1.1,0.6c-0.4-0.1-0.7-0.5-0.6-0.9c0-0.5,0.5-0.9,1-0.8c0.5,0,0.9,0.5,0.8,1
			C389.3,45.7,389.3,45.7,389.3,45.8z"/>
		
			<rect x="384.7" y="48.4" transform="matrix(0.1807 -0.9835 0.9835 0.1807 268.8459 420.4394)" class="st1" width="4.1" height="0.9"/>
		<path class="st1" d="M383.5,45.8c0.2,0.5-0.1,1-0.5,1.2c-0.5,0.2-1-0.1-1.2-0.5c-0.2-0.5,0.1-1,0.5-1.2c0,0,0,0,0,0
			C382.8,45,383.3,45.3,383.5,45.8z"/>
		
			<rect x="382.9" y="46.1" transform="matrix(0.9428 -0.3335 0.3335 0.9428 5.8992 130.5807)" class="st1" width="0.9" height="4.1"/>
		<path class="st1" d="M378.4,48.6c0.4,0.3,0.4,0.9,0.1,1.3s-0.9,0.4-1.3,0.1c-0.4-0.3-0.4-0.9-0.1-1.3c0,0,0,0,0,0
			C377.5,48.4,378,48.3,378.4,48.6C378.4,48.6,378.4,48.6,378.4,48.6z"/>
		
			<rect x="379" y="48.7" transform="matrix(0.6498 -0.7601 0.7601 0.6498 94.2761 306.2047)" class="st1" width="0.9" height="4.1"/>
		<path class="st1" d="M375.5,53.7c0.5,0.1,0.8,0.6,0.6,1.1c-0.1,0.4-0.5,0.7-0.9,0.6c-0.5,0-0.9-0.5-0.8-1c0-0.5,0.5-0.9,1-0.8
			C375.3,53.6,375.4,53.7,375.5,53.7z"/>
		
			<rect x="377" y="52.9" transform="matrix(0.1828 -0.9832 0.9832 0.1828 254.4141 416.0305)" class="st1" width="0.9" height="4.1"/>
		<path class="st1" d="M375.4,59.5c0.5-0.2,1,0.1,1.1,0.6c0.2,0.5-0.1,1-0.6,1.1c-0.5,0.2-1-0.1-1.1-0.5
			C374.7,60.2,375,59.7,375.4,59.5z"/>
		
			<rect x="375.7" y="59.2" transform="matrix(0.9429 -0.3331 0.3331 0.9429 1.7054 129.271)" class="st1" width="4.1" height="0.9"/>
		<path class="st1" d="M378.3,64.6c0.3-0.4,0.9-0.4,1.3-0.1s0.4,0.9,0.1,1.3c-0.3,0.4-0.9,0.4-1.3,0.1C378,65.5,378,64.9,378.3,64.6
			z"/>
		
			<rect x="378.4" y="63.1" transform="matrix(0.6501 -0.7598 0.7598 0.6501 84.8581 311.2759)" class="st1" width="4.1" height="0.9"/>
		<path class="st1" d="M383.3,67.5c0.1-0.5,0.6-0.8,1-0.7c0.5,0,0.9,0.5,0.8,1c0,0.5-0.5,0.9-1,0.8c-0.1,0-0.1,0-0.2,0
			C383.6,68.4,383.2,68,383.3,67.5C383.3,67.5,383.3,67.5,383.3,67.5z"/>
		
			<rect x="382.6" y="65.1" transform="matrix(0.1828 -0.9832 0.9832 0.1828 249.9382 431.7212)" class="st1" width="4.1" height="0.9"/>
		<path class="st1" d="M389.2,67.5c-0.2-0.5,0.1-1,0.6-1.1c0.5-0.2,1,0.1,1.1,0.6c0.2,0.5-0.1,1-0.5,1.1
			C389.8,68.2,389.3,68,389.2,67.5C389.2,67.5,389.2,67.5,389.2,67.5z"/>
		
			<rect x="388.9" y="63.1" transform="matrix(0.9428 -0.3335 0.3335 0.9428 0.5572 133.554)" class="st1" width="0.9" height="4.1"/>
		<path class="st1" d="M394.2,64.6c-0.4-0.3-0.4-0.9-0.1-1.3c0.3-0.4,0.9-0.4,1.3-0.1c0.4,0.3,0.4,0.9,0.1,1.3
			C395.2,64.9,394.6,65,394.2,64.6C394.2,64.6,394.2,64.6,394.2,64.6z"/>
		<rect x="392.8" y="60.5" transform="matrix(0.65 -0.76 0.76 0.65 90.1036 320.7231)" class="st1" width="0.9" height="4.1"/>
		<path class="st1" d="M397.2,59.6c-0.5-0.1-0.9-0.5-0.8-1s0.5-0.9,1-0.8s0.9,0.5,0.8,1c0,0,0,0.1,0,0.1
			C398.1,59.4,397.6,59.7,397.2,59.6z"/>
		
			<rect x="394.8" y="56.3" transform="matrix(0.1828 -0.9832 0.9832 0.1828 265.6489 436.1974)" class="st1" width="0.9" height="4.1"/>
		<path class="st1" d="M397.2,53.8c-0.5,0.2-1-0.1-1.1-0.5c0,0,0,0,0,0c-0.2-0.5,0.1-1,0.5-1.2c0.5-0.2,1,0.1,1.2,0.5
			C397.9,53.1,397.7,53.6,397.2,53.8C397.2,53.8,397.2,53.8,397.2,53.8z"/>
		
			<rect x="392.8" y="53.2" transform="matrix(0.9429 -0.3331 0.3331 0.9429 4.6693 134.6069)" class="st1" width="4.1" height="0.9"/>
		<path class="st1" d="M394.3,48.7c-0.3,0.4-0.9,0.4-1.3,0.1c-0.4-0.3-0.4-0.9-0.1-1.3c0.3-0.4,0.9-0.4,1.3-0.1
			C394.6,47.8,394.6,48.3,394.3,48.7C394.3,48.7,394.3,48.7,394.3,48.7z"/>
		<rect x="390.1" y="49.3" transform="matrix(0.65 -0.76 0.76 0.65 99.4896 315.4219)" class="st1" width="4.1" height="0.9"/>
		<path class="st0" d="M394,18.2c-0.2,1.3-1.9,2-3.6,1.7s-3-1.6-2.8-2.9s1.9-2,3.6-1.7S394.2,17,394,18.2z"/>
		<path class="st0" d="M396.6,22.5c-0.3,0.9-1.3,1.3-2.2,1c-1.1-0.2-1.8-1-1.6-1.7s1.1-1.2,2.2-1S396.7,21.8,396.6,22.5z"/>
		<path class="st0" d="M391.2,22.3c-0.2,0.6-0.9,0.9-1.5,0.7c-0.8-0.1-1.3-0.7-1.2-1.2s0.8-0.9,1.5-0.7S391.3,21.8,391.2,22.3z"/>
	</g>
</g>
</svg>
