<svg xmlns="http://www.w3.org/2000/svg" viewBox="0 0 442.47 443.99"><defs><style>.cls-1{isolation:isolate;}.cls-2{fill:#2e4663;}.cls-15,.cls-3{fill:#fff;}.cls-4{fill:#7ca7c2;}.cls-5,.cls-8{fill:#e6e6e6;}.cls-5,.cls-7{mix-blend-mode:multiply;}.cls-6{fill:#ffb575;}.cls-16,.cls-21,.cls-9{fill:none;}.cls-9{stroke:#223640;}.cls-15,.cls-21,.cls-9{stroke-miterlimit:10;stroke-width:0.5px;}.cls-10{fill:#223640;}.cls-11{fill:#b3b3b3;}.cls-12{fill:#999;}.cls-13{fill:gray;}.cls-14{fill:#f2f2f2;}.cls-15{stroke:#666;}.cls-17{fill:#bdbdbd;}.cls-18{fill:#688ca3;}.cls-19{fill:#ccc;}.cls-20{fill:#416191;}.cls-21{stroke:#deddab;}</style></defs><title>not_found</title><g class="cls-1"><g id="BACKGROUND"><path class="cls-2" d="M50.22,54.47c37-32.42,117.19-74.23,177.23-36,12.37,7.86,17.64,9.14,48.23,31,107.25,76.58,130.26,72.66,150,106.25,25.3,43.16,20.2,105.74-2.76,145.62-63.52,110.31-311.74,130.26-388.24,6.31C-9.82,235.59-18.35,114.56,50.22,54.47Z"/></g><g id="OBJECTS"><polygon class="cls-3" points="174.9 245.65 199.36 127.16 353.38 127.16 377.84 245.65 174.9 245.65"/><path class="cls-3" d="M353,127.66l24.26,117.49H175.51l24.25-117.49H353m.82-1H199L174.28,246.15H378.45L353.79,126.66Z"/><path class="cls-4" d="M196.79,120.81s-14.72,31-11.71,63.22c0,0-9.64,10.17-4.7,12.13S197.44,190,197.44,190s132,1.81,160.18-2.82c0,0,6,8.16,12.46,5.67S364,181.74,364,181.74s.92-48.84-4.59-61.36c0,0,6.89-9.74,4.51-11.65s-13.4,8.36-13.4,8.36-76-12.78-144.09,0c0,0-4.65-14.31-12.68-10C188.22,110,196.79,120.81,196.79,120.81Z"/><path class="cls-5" d="M370.08,192.8c6.44-2.48-6.07-11.06-6.07-11.06s.33-17.4-.58-34.09a29.21,29.21,0,0,1-12.49,6.84c-7.18,2-13.44,1.28-18.66.67-6.76-.8-15.42-2.61-34.75-12.37-16.28-8.22-22.84-15.57-32.28-14-7.79,1.33-7.57,7.08-17.8,14-12.28,8.28-32.21,13.21-45.24,8.11A23.44,23.44,0,0,1,190,139.81c-3.37,11.84-6.41,27.87-4.88,44.22,0,0-9.64,10.17-4.7,12.13S197.44,190,197.44,190s132,1.81,160.18-2.82C357.62,187.13,363.65,195.29,370.08,192.8Z"/><path class="cls-6" d="M308.85,156.65a55,55,0,0,1-10.65-2.19c-3.05-1-7.28-4.15-7.84-7.31-1.39-7.72-2.1-13.63.08-19.69l-24.23-11.55s1.71.58.49,22.32c-.39,7.08-5.88,13.52-8.29,14.94-5.21,3.05-2.52,4.69-12.71,5.89,0,0,19.74,47.41,45.73,31.49.11-.07,2.84-16.5,2.94-16.58C299.58,170.7,304.4,164.24,308.85,156.65Z"/><g class="cls-7"><path class="cls-8" d="M266.21,115.92h0Z"/><path class="cls-8" d="M289.28,140a27.22,27.22,0,0,1,1.16-12.49l-24.23-11.54c.1,0,1.67,1.25.49,22.31a17.61,17.61,0,0,1-1.25,5.44c2.87,2.5,7,3.84,12.94,3.48C283.57,146.85,287,143.93,289.28,140Z"/></g><path class="cls-3" d="M275.47,199.59c17.76-.59,39.53-2.45,49.08-.6-4.95-26.48-14.73-42.62-17.52-43-3-.37-10.54-3.37-13.72-4.21l-16.46,18L258.52,153.2c-6.39,3.63-17.63,3.09-17.69,5.76-.73,33.27-8.45,21.59-9,40.15C241.27,197.29,253.87,200.31,275.47,199.59Z"/><path class="cls-3" d="M257.41,160.26s-10.61-11.6-25.14,4.17-14.88,43.68-14.88,43.68l38,.12S263.94,175.87,257.41,160.26Z"/><path class="cls-3" d="M296.79,159.28s6.61-10.25,20.92,3.11c15.68,14.62,21.12,45.84,21.12,45.84L297.31,208S290.26,174.9,296.79,159.28Z"/><path class="cls-6" d="M302.81,119.78c.69-3.33-.81-6.46-3.35-7s-5.18,1.73-5.88,5.06.26,7,2.81,7.58S302.11,123.12,302.81,119.78Z"/><path class="cls-6" d="M296.85,111.26s2.79,34.24-15,33c-20.39-1.4-19-14.06-21-29.86-1.2-9.45,6.6-18,16.81-18.15C293.55,96,297.6,106.61,296.85,111.26Z"/><path class="cls-6" d="M257.75,124.24c2.56,3.17,6.61,4.15,9,2.2s2.31-6.12-.25-9.29-6.6-4.16-9-2.2S255.19,121.07,257.75,124.24Z"/><path class="cls-9" d="M259.26,117.76s2.06-.37,3.37,4.12"/><path class="cls-9" d="M259.73,121.22s.14-1,1.68-1.77"/><path class="cls-9" d="M266.7,138.23s8.51,8.59,19.43,5.22"/><path class="cls-10" d="M260.69,114a18.57,18.57,0,0,1,3.3,2.4c.75.9.14-10.64,0-15.74,0,0,12.44-8.12,30.21,4.17,0,0,.56,9.4,1.61,10l1.47-1.88s1.38-17.85-14.67-18.45S258.74,101.21,260.69,114Z"/><path class="cls-9" d="M300.21,117.09s-2-.38-3.36,4.11"/><path class="cls-9" d="M299.75,120.55s-.14-1-1.69-1.78"/><path class="cls-9" d="M286.76,112.84s2.1,2.25,5.56,0"/><path class="cls-9" d="M274,112.84s-2.1,2.25-5.55,0"/><rect class="cls-3" x="213.42" y="312.62" width="3.07" height="79.46"/><rect class="cls-11" x="205.91" y="389.06" width="18.1" height="20.12" rx="6.81"/><rect class="cls-12" x="205.91" y="389.06" width="18.1" height="20.12" rx="6.81"/><rect class="cls-11" x="205.91" y="389.06" width="18.1" height="14.41" rx="6.97"/><rect class="cls-3" x="332.12" y="312.62" width="3.07" height="79.46"/><rect class="cls-11" x="324.84" y="389.06" width="18.1" height="20.12" rx="6.81"/><rect class="cls-12" x="324.84" y="389.06" width="18.1" height="20.12" rx="6.81"/><rect class="cls-11" x="324.84" y="389.06" width="18.1" height="14.41" rx="6.97"/><rect class="cls-3" x="215.05" y="365.88" width="118.6" height="3.07"/><rect class="cls-3" x="182.07" y="313" width="4.09" height="107.79"/><rect class="cls-12" x="182.07" y="325.6" width="4.09" height="18.5"/><rect class="cls-12" x="171.84" y="416.7" width="24.56" height="27.29" rx="10.04"/><rect class="cls-13" x="196.34" y="427.01" width="3.15" height="6.66"/><path class="cls-13" d="M185.86,436.45h-3.48a10.52,10.52,0,0,1-10.51-9.87c0,.21,0,.43,0,.65v6.22A10.54,10.54,0,0,0,182.38,444h3.48a10.54,10.54,0,0,0,10.54-10.54v-6.22c0-.22,0-.44,0-.65A10.52,10.52,0,0,1,185.86,436.45Z"/><rect class="cls-3" x="361.89" y="313" width="4.09" height="107.79"/><rect class="cls-12" x="362" y="325.58" width="4.09" height="18.5"/><rect class="cls-3" x="184.45" y="396.68" width="178.86" height="4.09"/><rect class="cls-11" x="176.54" y="419.75" width="14.73" height="11.54" rx="5.64"/><rect class="cls-12" x="352.51" y="416.7" width="24.56" height="27.29" rx="10.04"/><rect class="cls-13" x="349.41" y="427.01" width="3.15" height="6.66"/><rect class="cls-13" x="377.01" y="427.01" width="3.15" height="6.66"/><path class="cls-13" d="M366.54,436.45h-3.49a10.52,10.52,0,0,1-10.5-9.87c0,.21,0,.43,0,.65v6.22A10.54,10.54,0,0,0,363.05,444h3.49a10.53,10.53,0,0,0,10.53-10.54v-6.22c0-.22,0-.44,0-.65A10.52,10.52,0,0,1,366.54,436.45Z"/><rect class="cls-11" x="357.22" y="419.75" width="14.73" height="11.54" rx="5.64"/><rect class="cls-12" x="213.42" y="325.61" width="3.06" height="18.92"/><rect class="cls-12" x="332.12" y="325.61" width="3.06" height="18.92"/><rect class="cls-13" x="168.7" y="427.01" width="3.15" height="6.66"/><rect class="cls-4" x="180.72" y="404.41" width="6.38" height="12.4"/><rect class="cls-4" x="212.13" y="378.45" width="5.48" height="10.65"/><rect class="cls-4" x="330.88" y="378.45" width="5.48" height="10.65"/><rect class="cls-4" x="361.15" y="404.41" width="6.38" height="12.4"/><line class="cls-9" x1="262.3" y1="124.43" x2="262.39" y2="127.37"/><line class="cls-9" x1="296.33" y1="122.73" x2="296.39" y2="125.43"/><line class="cls-9" x1="237.79" y1="183.99" x2="237.43" y2="208.47"/><line class="cls-9" x1="315.55" y1="185.67" x2="317.35" y2="208.23"/><path class="cls-8" d="M170.78,231.45V334.2H378.94V231.45A17.43,17.43,0,0,0,361.51,214H188.22A17.44,17.44,0,0,0,170.78,231.45Zm51.68,14.29H184.11V231h38.35Zm141.33,0H325.44V231h38.35Z"/><polygon class="cls-3" points="279.61 239.8 246.37 246.14 250.78 269.25 285.82 269.07 279.61 239.8"/><polygon class="cls-14" points="258.33 269.46 281.64 269.34 276.72 244.93 258.33 244.93 258.33 269.46"/><rect class="cls-3" x="260.29" y="246.15" width="33.83" height="23.52"/><rect class="cls-14" x="264.08" y="247.88" width="34.93" height="21.79"/><rect class="cls-3" x="266.01" y="249.54" width="34.93" height="20.13"/><line class="cls-15" x1="270.33" y1="255.27" x2="285" y2="255.27"/><line class="cls-15" x1="270.33" y1="260.77" x2="296.27" y2="260.77"/><line class="cls-15" x1="270.33" y1="265.56" x2="296.27" y2="265.56"/><polyline class="cls-16" points="300.94 269.67 300.94 249.53 266.01 249.53 266.01 269.67"/><rect class="cls-4" x="224.88" y="268.15" width="99.97" height="42.77"/><polygon class="cls-4" points="184.11 231.02 184.11 233.04 220.43 233.04 220.43 245.74 222.46 245.74 222.46 231.02 184.11 231.02"/><polygon class="cls-4" points="325.45 231.02 325.45 233.04 361.77 233.04 361.77 245.74 363.79 245.74 363.79 231.02 325.45 231.02"/><rect class="cls-4" x="164.88" y="311.12" width="13.2" height="22.83"/><rect class="cls-4" x="371.39" y="311.12" width="13.2" height="22.83"/><path class="cls-17" d="M361.51,208.25H188.22a17.44,17.44,0,0,0-17.44,17.44v5.76A17.44,17.44,0,0,1,188.22,214H361.51a17.43,17.43,0,0,1,17.43,17.44v-5.76A17.43,17.43,0,0,0,361.51,208.25Z"/><path class="cls-3" d="M361.51,214H188.22a17.44,17.44,0,0,0-17.44,17.44v1.08a17.44,17.44,0,0,1,17.44-17.44H361.51a17.43,17.43,0,0,1,17.43,17.44v-1.08A17.43,17.43,0,0,0,361.51,214Z"/><path class="cls-9" d="M234.91,184.83s.84,5.28,2.88,5.64"/><path class="cls-9" d="M318.76,184.83s-.84,5.28-2.88,5.64"/><polyline class="cls-9" points="250.39 155.97 277.57 180.09 301.75 154.65"/><path class="cls-10" d="M260.53,108.45c.18-.54-.06-9.9,10.74-14.58s23.14-3.15,24.84-.72c4.68,6.66,3,15.53.84,19.92l-2.64-12.36-11.16-3.06L272,98.1l-.53.82c-2.89,4.47-3.52,7.17-8.29,9.53l-1,.42Z"/><path class="cls-9" d="M269.53,95.93s10.16-8.16,19-6.26"/><path class="cls-9" d="M271.69,97.29s1.62,3.72-2.7,8.34"/><path class="cls-9" d="M290.65,181.35h16.74s1.85,10.28-8.82,10.17C289.89,191.43,290.65,181.35,290.65,181.35Z"/><path class="cls-5" d="M298.57,188.82c-5.74-.06-7.35-4.48-7.78-7.47h-.14s-.76,10.08,7.92,10.17c9.53.1,9.07-8.1,8.87-9.84C307.1,184.7,305.4,188.89,298.57,188.82Z"/><rect class="cls-3" x="84.73" y="174.64" width="26.78" height="173.44"/><path class="cls-4" d="M84.73,348.08,28.08,386.72A1.29,1.29,0,0,0,29.17,389l68.64-20.15V348.32Z"/><path class="cls-18" d="M110.64,348.08l56.65,38.64a1.29,1.29,0,0,1-1.1,2.31L97.81,368.88l-.24-20.56Z"/><path class="cls-3" d="M95.73,228.52c-.08-.93-1.3-22.86,44.27-37.3,3.95-1.26,7.35-2.41,10.35-3.42,13.54-4.59,21.71-7.36,54.26-10.88,55.69-6,70.56-34.76,70.7-35l2.76,1.35c-.61,1.25-15.61,30.51-73.13,36.75-32.21,3.49-40.26,6.22-53.61,10.73-3,1-6.42,2.18-10.41,3.44-43,13.62-42.15,33.94-42.14,34.14Z"/><rect class="cls-3" x="85.24" y="252.89" width="25.76" height="3.15"/><polygon class="cls-3" points="113.21 278.47 83.03 278.47 85.24 255.99 111 255.99 113.21 278.47"/><polyline class="cls-19" points="108.67 259.33 110.5 275.14 85.49 275.14 87.32 259.33"/><path class="cls-3" d="M100.48,263.58a2.68,2.68,0,1,1-2.77-2.39A2.6,2.6,0,0,1,100.48,263.58Z"/><polygon class="cls-2" points="84.49 284.37 84.49 278.47 111.49 278.47 84.49 284.37"/><rect class="cls-3" x="92.47" y="268.04" width="0.95" height="6.14"/><rect class="cls-20" x="92.47" y="269.3" width="0.95" height="3.19"/><rect class="cls-3" x="95.84" y="268.04" width="0.95" height="6.14"/><rect class="cls-20" x="95.84" y="269.3" width="0.95" height="3.19"/><rect class="cls-3" x="99.22" y="268.04" width="0.95" height="6.14"/><rect class="cls-20" x="99.22" y="269.3" width="0.95" height="3.19"/><rect class="cls-3" x="102.59" y="268.04" width="0.95" height="6.14"/><rect class="cls-20" x="102.59" y="269.3" width="0.95" height="3.19"/><rect class="cls-4" x="77.31" y="338.49" width="41.24" height="14.73"/><rect class="cls-3" x="51.89" y="82.22" width="93.73" height="74.52"/><rect class="cls-4" x="51.89" y="155.87" width="93.73" height="19.57"/><circle class="cls-3" cx="98.78" cy="165.4" r="4.14"/><path class="cls-3" d="M114.92,165.4a2.95,2.95,0,1,1-3-3A3,3,0,0,1,114.92,165.4Z"/><path class="cls-3" d="M87.76,165.4a3,3,0,1,1-3-3A3,3,0,0,1,87.76,165.4Z"/><path class="cls-4" d="M140.56,105.78a2.95,2.95,0,1,1-2.95-3A2.95,2.95,0,0,1,140.56,105.78Z"/><path class="cls-4" d="M140.56,117.89a2.95,2.95,0,1,1-2.95-3A2.95,2.95,0,0,1,140.56,117.89Z"/><rect class="cls-10" x="68.08" y="95.1" width="61.35" height="48.78"/><rect class="cls-4" x="68.08" y="134.07" width="61.35" height="9.8"/><path class="cls-3" d="M96.27,232.25c-.56-14.55-7-24.73-22.29-35.14-14.7-10-10.39-32.2-10.2-33.13l3,.6c-.05.21-4.09,21.13,8.92,30,16.18,11,23,21.91,23.62,37.55Z"/><path class="cls-8" d="M282.84,110.83a2.77,2.77,0,0,0-4.31.3c-3.68,5.14-10.77,16.4-6.17,21.32,6.05,6.46,15.05,3.34,18.13-2.21C293.11,125.55,287.82,116,282.84,110.83Z"/><path class="cls-3" d="M278.53,111.13c-2.39,3.33-6.18,9.23-7.32,14.31a5.28,5.28,0,0,0,1.15,2c6.05,6.47,15.05,3.35,18.13-2.2a4.6,4.6,0,0,0,.33-.75c-1.12-4.64-4.62-10.12-8-13.64A2.77,2.77,0,0,0,278.53,111.13Z"/><path class="cls-4" d="M286.14,122.87a5.14,5.14,0,1,1-5.14-5.14A5.15,5.15,0,0,1,286.14,122.87Z"/><path class="cls-3" d="M146.54,186.61a16.25,16.25,0,0,1-7.62-1.73c-5.55-2.91-9-9.26-10.44-19.42l3-.44c1.33,9.12,4.21,14.72,8.82,17.14,8.18,4.29,21.24-2.21,32.77-7.93,10.94-5.44,20.39-10.14,26.48-7,8,4.15,15.3-4.69,22.38-13.24,5.15-6.2,10-12.07,15.33-13.4,5.9-1.48,10.88.91,15.69,3.23,5.67,2.72,11,5.29,17.78,1.51,12.17-6.81,8.59-21.48,8.44-22.11l3-.76c0,.18,4.34,17.57-9.92,25.55-8.14,4.56-14.76,1.38-20.6-1.43-4.52-2.17-8.78-4.22-13.62-3-4.35,1.08-9.1,6.83-13.7,12.38-7.49,9-16,19.29-26.16,14-4.71-2.45-13.94,2.14-23.71,7C165.25,181.56,155.09,186.61,146.54,186.61Z"/><polygon class="cls-20" points="283.56 126.22 278.71 126.22 279.14 120.87 283.13 120.87 283.56 126.22"/><rect class="cls-20" x="61.91" y="162.61" width="5.03" height="7.49"/><rect class="cls-20" x="128.06" y="162.61" width="5.03" height="7.49"/><rect class="cls-12" x="22.05" y="384.78" width="17.53" height="21.46" rx="8.57"/><rect class="cls-13" x="39.53" y="392.9" width="2.25" height="5.24"/><path class="cls-13" d="M32.05,400.32H29.57c-4,0-7.26-3.43-7.5-7.77,0,.18,0,.35,0,.52V398c0,4.58,3.36,8.29,7.52,8.29h2.48c4.16,0,7.52-3.71,7.52-8.29v-4.89c0-.17,0-.34,0-.52C39.31,396.89,36.05,400.32,32.05,400.32Z"/><rect class="cls-11" x="25.4" y="387.18" width="10.51" height="9.07" rx="4.44"/><rect class="cls-13" x="19.81" y="392.9" width="2.25" height="5.24"/><rect class="cls-12" x="158.29" y="384.78" width="17.53" height="21.46" rx="8.57"/><rect class="cls-13" x="175.77" y="392.9" width="2.25" height="5.24"/><path class="cls-13" d="M168.3,400.32h-2.49c-4,0-7.25-3.43-7.5-7.77,0,.18,0,.35,0,.52V398c0,4.58,3.36,8.29,7.52,8.29h2.49c4.15,0,7.51-3.71,7.51-8.29v-4.89c0-.17,0-.34,0-.52C175.55,396.89,172.29,400.32,168.3,400.32Z"/><rect class="cls-11" x="161.65" y="387.18" width="10.51" height="9.07" rx="4.44"/><rect class="cls-13" x="156.05" y="392.9" width="2.25" height="5.24"/><polygon class="cls-2" points="84.49 189.79 84.49 175.43 111.49 175.43 84.49 189.79"/><path class="cls-2" d="M95.38,225.63c-1.44-12.17-10.72-19.5-10.81-19.58l.31-.4c.1.07,9.54,7.53,11,19.92Z"/><path class="cls-2" d="M96.76,225.66l-.51,0c.61-12.75,15.08-21.48,15.22-21.56l.26.44C111.59,204.59,97.36,213.18,96.76,225.66Z"/><path class="cls-2" d="M99.78,225.63l-.51,0c.49-10.23,12.09-17.23,12.2-17.3l.26.44C111.62,208.81,100.26,215.67,99.78,225.63Z"/><rect class="cls-2" x="89.83" y="233.14" width="15.94" height="19.77"/><rect class="cls-20" x="95.35" y="225.64" width="5.03" height="7.49"/><rect class="cls-12" x="92.21" y="235.76" width="11.18" height="17.15"/><path class="cls-2" d="M97.27,220.24a40.09,40.09,0,0,0-12.68-18.67l.31-.41a40.67,40.67,0,0,1,12.86,18.93Z"/><path class="cls-21" d="M222.21,173.91s25.87-5.65,39.4-17.62"/><path class="cls-21" d="M220.64,177.64s28.75-5.51,43.75-18.77"/><rect class="cls-4" x="72.45" y="101.16" width="2.15" height="2.15"/><rect class="cls-4" x="78.77" y="101.16" width="2.15" height="2.15"/><rect class="cls-4" x="85.08" y="101.16" width="2.15" height="2.15"/><rect class="cls-4" x="108.94" y="101.16" width="2.15" height="2.15"/><rect class="cls-4" x="91.39" y="101.16" width="2.15" height="2.15"/><rect class="cls-4" x="95.14" y="101.16" width="2.15" height="2.15"/><rect class="cls-4" x="98.88" y="101.16" width="2.15" height="2.15"/><rect class="cls-4" x="108.94" y="106.29" width="2.15" height="2.15" transform="translate(220.03 214.74) rotate(180)"/><rect class="cls-4" x="102.63" y="106.29" width="2.15" height="2.15" transform="translate(207.4 214.74) rotate(180)"/><rect class="cls-4" x="96.31" y="106.29" width="2.15" height="2.15" transform="translate(194.78 214.74) rotate(180)"/><rect class="cls-4" x="72.45" y="106.29" width="2.15" height="2.15" transform="translate(147.06 214.74) rotate(180)"/><rect class="cls-4" x="90" y="106.29" width="2.15" height="2.15" transform="translate(182.15 214.74) rotate(180)"/><rect class="cls-4" x="86.25" y="106.29" width="2.15" height="2.15" transform="translate(174.66 214.74) rotate(180)"/><rect class="cls-4" x="82.51" y="106.29" width="2.15" height="2.15" transform="translate(167.17 214.74) rotate(180)"/><rect class="cls-4" x="72.45" y="111.87" width="2.15" height="2.15"/><rect class="cls-4" x="78.77" y="111.87" width="2.15" height="2.15"/><rect class="cls-4" x="85.08" y="111.87" width="2.15" height="2.15"/><rect class="cls-4" x="108.94" y="111.87" width="2.15" height="2.15"/><rect class="cls-4" x="91.39" y="111.87" width="2.15" height="2.15"/><rect class="cls-4" x="95.14" y="111.87" width="2.15" height="2.15"/><rect class="cls-4" x="98.88" y="111.87" width="2.15" height="2.15"/><rect class="cls-4" x="108.94" y="117.01" width="2.15" height="2.15" transform="translate(220.03 236.18) rotate(180)"/><rect class="cls-4" x="102.63" y="117.01" width="2.15" height="2.15" transform="translate(207.4 236.18) rotate(180)"/><rect class="cls-4" x="96.31" y="117.01" width="2.15" height="2.15" transform="translate(194.78 236.18) rotate(180)"/><rect class="cls-4" x="72.45" y="117.01" width="2.15" height="2.15" transform="translate(147.06 236.18) rotate(180)"/><rect class="cls-4" x="90" y="117.01" width="2.15" height="2.15" transform="translate(182.15 236.18) rotate(180)"/><rect class="cls-4" x="86.25" y="117.01" width="2.15" height="2.15" transform="translate(174.66 236.18) rotate(180)"/><rect class="cls-4" x="82.51" y="117.01" width="2.15" height="2.15" transform="translate(167.17 236.18) rotate(180)"/><circle class="cls-2" cx="383.8" cy="38.68" r="38.67" transform="translate(47.95 228.43) rotate(-35.22)"/><polygon class="cls-2" points="364.74 52.48 345.55 87.36 378.7 59.3 364.74 52.48"/><circle class="cls-3" cx="388.81" cy="23.04" r="10.96" transform="translate(79.1 259.22) rotate(-40.72)"/><path class="cls-3" d="M392.69,8.63a1.18,1.18,0,1,1-.95-1.38A1.18,1.18,0,0,1,392.69,8.63Z"/><rect class="cls-3" x="388.27" y="10.64" width="5.39" height="1.16" transform="translate(308.52 393.56) rotate(-79.47)"/><path class="cls-3" d="M385.05,8.59a1.19,1.19,0,1,1-1.52-.73A1.18,1.18,0,0,1,385.05,8.59Z"/><rect class="cls-3" x="384.27" y="8.99" width="1.15" height="5.39" transform="translate(18.13 129) rotate(-19.48)"/><circle class="cls-3" cx="377.63" cy="13.27" r="1.19"/><rect class="cls-3" x="379.2" y="12.46" width="1.16" height="5.39" transform="translate(121.48 293.97) rotate(-49.47)"/><path class="cls-3" d="M374.54,19a1.18,1.18,0,1,1-1.38,1A1.18,1.18,0,0,1,374.54,19Z"/><rect class="cls-3" x="376.55" y="18" width="1.16" height="5.39" transform="translate(287.88 387.69) rotate(-79.47)"/><path class="cls-3" d="M374.49,26.61a1.19,1.19,0,1,1-.72,1.52A1.19,1.19,0,0,1,374.49,26.61Z"/><rect class="cls-3" x="374.9" y="26.24" width="5.39" height="1.16" transform="translate(12.65 127.37) rotate(-19.47)"/><path class="cls-3" d="M378.28,33.26a1.18,1.18,0,1,1,.13,1.67A1.19,1.19,0,0,1,378.28,33.26Z"/><rect class="cls-3" x="378.37" y="31.3" width="5.39" height="1.15" transform="translate(109.1 300.69) rotate(-49.45)"/><path class="cls-3" d="M384.87,37.12a1.19,1.19,0,1,1,.95,1.38A1.19,1.19,0,0,1,384.87,37.12Z"/><rect class="cls-3" x="383.9" y="33.96" width="5.39" height="1.16" transform="translate(282.02 408.32) rotate(-79.47)"/><path class="cls-3" d="M392.52,37.16a1.19,1.19,0,0,1,2.24-.79,1.19,1.19,0,1,1-2.24.79Z"/><rect class="cls-3" x="392.14" y="31.37" width="1.15" height="5.39" transform="translate(11.12 132.9) rotate(-19.48)"/><circle class="cls-3" cx="399.93" cy="32.48" r="1.19" transform="translate(366.52 432.34) rotate(-89.87)"/><rect class="cls-3" x="397.21" y="27.9" width="1.16" height="5.39" transform="translate(116.02 313.05) rotate(-49.47)"/><path class="cls-3" d="M403,26.79a1.19,1.19,0,1,1,1.39-1A1.19,1.19,0,0,1,403,26.79Z"/><rect class="cls-3" x="399.86" y="22.37" width="1.16" height="5.39" transform="translate(302.63 414.18) rotate(-79.47)"/><path class="cls-3" d="M403.07,19.14a1.19,1.19,0,0,1-.79-2.24,1.19,1.19,0,1,1,.79,2.24Z"/><rect class="cls-3" x="397.28" y="18.36" width="5.39" height="1.16" transform="translate(16.55 134.38) rotate(-19.47)"/><circle class="cls-3" cx="398.39" cy="11.72" r="1.19" transform="translate(-0.02 0.88) rotate(-0.13)"/><rect class="cls-3" x="393.81" y="13.29" width="5.39" height="1.15" transform="translate(128.18 306.12) rotate(-49.45)"/><circle class="cls-3" cx="362.95" cy="43.62" r="5.23" transform="translate(39.96 214.82) rotate(-34.78)"/><path class="cls-3" d="M364.8,36.74a.56.56,0,1,1-.45-.66A.57.57,0,0,1,364.8,36.74Z"/><rect class="cls-3" x="362.69" y="37.7" width="2.57" height="0.55" transform="translate(260.1 388.88) rotate(-79.47)"/><path class="cls-3" d="M361.16,36.72a.57.57,0,1,1-.73-.34A.57.57,0,0,1,361.16,36.72Z"/><rect class="cls-3" x="360.79" y="36.91" width="0.55" height="2.57" transform="translate(7.93 122.58) rotate(-19.48)"/><path class="cls-3" d="M358,38.53a.56.56,0,0,1,.06.79.56.56,0,1,1-.86-.73A.56.56,0,0,1,358,38.53Z"/><rect class="cls-3" x="358.37" y="38.57" width="0.55" height="2.57" transform="translate(95.3 286.56) rotate(-49.47)"/><path class="cls-3" d="M356.15,41.67a.57.57,0,0,1,.45.66.56.56,0,1,1-1.11-.21A.56.56,0,0,1,356.15,41.67Z"/><rect class="cls-3" x="357.1" y="41.21" width="0.55" height="2.57" transform="translate(250.31 386.09) rotate(-79.47)"/><path class="cls-3" d="M356.12,45.32a.57.57,0,1,1-.34.72A.56.56,0,0,1,356.12,45.32Z"/><rect class="cls-3" x="356.32" y="45.14" width="2.57" height="0.55" transform="translate(5.31 121.78) rotate(-19.47)"/><path class="cls-3" d="M357.93,48.49a.57.57,0,0,1,.8-.07.58.58,0,0,1,.06.8.56.56,0,0,1-.8.06A.55.55,0,0,1,357.93,48.49Z"/><rect class="cls-3" x="357.97" y="47.55" width="2.57" height="0.55" transform="translate(89.36 289.71) rotate(-49.45)"/><path class="cls-3" d="M361.07,50.33a.58.58,0,0,1,.66-.46.57.57,0,0,1-.2,1.12A.58.58,0,0,1,361.07,50.33Z"/><rect class="cls-3" x="360.61" y="48.82" width="2.57" height="0.55" transform="translate(247.52 395.94) rotate(-79.48)"/><path class="cls-3" d="M364.72,50.35a.56.56,0,0,1,.34-.72.57.57,0,0,1,.73.34.57.57,0,0,1-1.07.38Z"/><rect class="cls-3" x="364.54" y="47.59" width="0.55" height="2.57" transform="translate(4.58 124.45) rotate(-19.48)"/><path class="cls-3" d="M367.89,48.55a.57.57,0,0,1,.73-.87.57.57,0,0,1-.73.87Z"/><rect class="cls-3" x="366.96" y="45.93" width="0.55" height="2.57" transform="translate(92.69 295.64) rotate(-49.47)"/><path class="cls-3" d="M369.73,45.4a.56.56,0,1,1,.66-.45A.57.57,0,0,1,369.73,45.4Z"/><rect class="cls-3" x="368.22" y="43.29" width="0.55" height="2.57" transform="translate(257.35 398.73) rotate(-79.47)"/><path class="cls-3" d="M369.75,41.75a.56.56,0,0,1-.38-1.06.57.57,0,0,1,.73.34A.56.56,0,0,1,369.75,41.75Z"/><rect class="cls-3" x="366.99" y="41.38" width="2.57" height="0.55" transform="translate(7.16 125.06) rotate(-19.46)"/><path class="cls-3" d="M368,38.59a.58.58,0,0,1-.8.06.57.57,0,1,1,.74-.86A.58.58,0,0,1,368,38.59Z"/><rect class="cls-3" x="365.34" y="38.97" width="2.57" height="0.55" transform="translate(98.46 292.31) rotate(-49.45)"/><path class="cls-3" d="M394.53,58.29a8.34,8.34,0,1,1-6.67-9.72A8.33,8.33,0,0,1,394.53,58.29Z"/><path class="cls-3" d="M389.29,45.8a.91.91,0,0,1-1.78-.33.91.91,0,1,1,1.78.33Z"/><rect class="cls-3" x="385.93" y="47.33" width="4.1" height="0.88" transform="matrix(0.18, -0.98, 0.98, 0.18, 270.12, 420.48)"/><path class="cls-3" d="M383.47,45.76a.91.91,0,1,1-1.15-.55A.91.91,0,0,1,383.47,45.76Z"/><rect class="cls-3" x="382.88" y="46.07" width="0.88" height="4.1" transform="translate(5.89 130.57) rotate(-19.48)"/><path class="cls-3" d="M378.41,48.64a.91.91,0,1,1-1.27.1A.9.9,0,0,1,378.41,48.64Z"/><rect class="cls-3" x="379.02" y="48.71" width="0.88" height="4.1" transform="translate(94.3 306.21) rotate(-49.47)"/><path class="cls-3" d="M375.47,53.67a.91.91,0,0,1-.33,1.78.91.91,0,1,1,.33-1.78Z"/><rect class="cls-3" x="377" y="52.93" width="0.88" height="4.1" transform="translate(254.42 416.02) rotate(-79.47)"/><path class="cls-3" d="M375.43,59.49a.9.9,0,1,1-.55,1.15A.91.91,0,0,1,375.43,59.49Z"/><rect class="cls-3" x="375.74" y="59.2" width="4.1" height="0.88" transform="translate(1.72 129.29) rotate(-19.46)"/><path class="cls-3" d="M378.31,64.55a.9.9,0,1,1,.1,1.27A.91.91,0,0,1,378.31,64.55Z"/><rect class="cls-3" x="378.38" y="63.06" width="4.1" height="0.88" transform="translate(84.85 311.28) rotate(-49.45)"/><path class="cls-3" d="M383.34,67.49a.91.91,0,0,1,1.05-.73.91.91,0,1,1-.33,1.78A.9.9,0,0,1,383.34,67.49Z"/><rect class="cls-3" x="382.6" y="65.08" width="4.1" height="0.88" transform="translate(249.94 431.72) rotate(-79.47)"/><path class="cls-3" d="M389.16,67.52a.9.9,0,1,1,1.15.55A.9.9,0,0,1,389.16,67.52Z"/><rect class="cls-3" x="388.87" y="63.11" width="0.88" height="4.1" transform="translate(0.55 133.55) rotate(-19.48)"/><path class="cls-3" d="M394.22,64.64a.9.9,0,1,1,1.27-.1A.89.89,0,0,1,394.22,64.64Z"/><rect class="cls-3" x="392.73" y="60.47" width="0.88" height="4.1" transform="matrix(0.65, -0.76, 0.76, 0.65, 90.14, 320.72)"/><path class="cls-3" d="M397.16,59.62a.91.91,0,1,1,1-.72A.91.91,0,0,1,397.16,59.62Z"/><rect class="cls-3" x="394.75" y="56.25" width="0.88" height="4.1" transform="translate(265.66 436.19) rotate(-79.47)"/><path class="cls-3" d="M397.19,53.8a.9.9,0,0,1-1.15-.55.91.91,0,1,1,1.15.55Z"/><rect class="cls-3" x="392.78" y="53.21" width="4.1" height="0.88" transform="translate(4.69 134.64) rotate(-19.46)"/><path class="cls-3" d="M394.31,48.74a.9.9,0,1,1-.1-1.28A.9.9,0,0,1,394.31,48.74Z"/><rect class="cls-3" x="390.14" y="49.35" width="4.1" height="0.88" transform="matrix(0.65, -0.76, 0.76, 0.65, 99.39, 315.41)"/><path class="cls-2" d="M394,18.23c-.24,1.28-1.87,2.05-3.64,1.72s-3-1.63-2.77-2.91,1.86-2,3.63-1.72S394.25,17,394,18.23Z"/><path class="cls-2" d="M396.6,22.52a1.73,1.73,0,0,1-2.16,1c-1.06-.19-1.8-1-1.65-1.73s1.11-1.22,2.16-1S396.74,21.76,396.6,22.52Z"/><path class="cls-2" d="M391.22,22.29a1.25,1.25,0,0,1-1.55.73c-.75-.13-1.28-.69-1.18-1.23s.79-.88,1.55-.74S391.32,21.75,391.22,22.29Z"/></g></g></svg>